<svg xmlns="http://www.w3.org/2000/svg" viewBox="0 0 223.72 345.58"><defs><style>.cls-1{fill:#fff;}.cls-2{fill:#94c8ff;}.cls-3{fill:#f9d4bb;}.cls-4{fill:#e2b89c;}.cls-5{fill:#474b58;}.cls-6{fill:none;stroke:#5a6281;stroke-miterlimit:10;stroke-width:3px;}.cls-7{fill:#86b7e2;}.cls-8{opacity:0.15;}.cls-9{fill:#ffe66a;}.cls-10{fill:#5a6281;}.cls-11{fill:#fbcdac;}.cls-12{fill:#80766e;}.cls-13{fill:#6d645e;}</style></defs><title>Asset 360</title><g id="Layer_2" data-name="Layer 2"><g id="Layer_1-2" data-name="Layer 1"><path class="cls-1" d="M22.84,288.6a78.71,78.71,0,0,0-8.36,8.74c-.63.76.46,1.85,1.09,1.09a78.71,78.71,0,0,1,8.36-8.74c.74-.66-.35-1.74-1.09-1.09Z"/><path class="cls-2" d="M77.47,244.11,32.34,268.5A57.92,57.92,0,0,0,2,319.45v24.78H222.6V319.45a57.92,57.92,0,0,0-30.38-51l-45.13-24.39"/><path class="cls-3" d="M131.32,193.84v25.23a18.45,18.45,0,0,0,3.64,11l10.2,13.72a6.92,6.92,0,0,1-1,9.35L111.36,272.3a.85.85,0,0,1-.55.21h0a.85.85,0,0,1-.55-.21L77.48,253.15a6.92,6.92,0,0,1-1-9.35l10.2-13.72a18.45,18.45,0,0,0,3.64-11V193.84"/><path class="cls-4" d="M132.62,221.46V211.18h-41v8.74C101.91,227.38,114.53,229.06,132.62,221.46Z"/><path class="cls-5" d="M130.83,193.84v19.54a65.94,65.94,0,0,0,.15,8,20.12,20.12,0,0,0,3.72,9.49l1.88,2.53,7.08,9.53a14.49,14.49,0,0,1,2,3,5.51,5.51,0,0,1,.07,3.8,5.17,5.17,0,0,1-.86,1.56c-.14.17-.3.32-.45.49s-.14.15,0,.06l0,0c-1.62,1.08-3.42,2-5.11,2.92l-10.37,5.93-16.94,9.68c-.13.08-.54.23-.11.08h.82l-.39-.06,1.13,1.48v-.21a1.56,1.56,0,0,0-1.95-1.48l-.39.06h.82c.45.16,0,0-.14-.09l-.9-.51-3.2-1.81L97.5,262.1l-17.68-10c-.16-.09-.33-.17-.48-.27h0c.34.24,0-.07-.1-.14a5.37,5.37,0,0,1-.37-.41,5.29,5.29,0,0,1-.92-1.76,5.78,5.78,0,0,1,1.18-5.29l6.41-8.63c2.16-2.91,4.57-5.73,5.94-9.11s1.43-7,1.43-10.71V193.84a1.54,1.54,0,0,0-3.08,0v19.8c0,2.81.25,5.84-.29,8.6a18,18,0,0,1-3.29,7.27l-2.44,3.28-7,9.37A10,10,0,0,0,74.67,247c-.32,2.65.78,6,3.12,7.51,1.68,1.08,3.5,2,5.24,3l10.58,6c5.58,3.15,11.11,6.44,16.76,9.47a2.81,2.81,0,0,0,1.9.24l-1.95-1.48v.21a1.55,1.55,0,0,0,1.13,1.48,2.82,2.82,0,0,0,1.92-.25l.79-.45,3.07-1.76,10.08-5.76,18.09-10.34c4-2.31,4.73-8.18,2.11-11.8-1.89-2.61-3.84-5.17-5.77-7.76l-3.38-4.54a30.79,30.79,0,0,1-2.42-3.56,17.07,17.07,0,0,1-2-8.16c0-1,0-1.93,0-2.89V193.84a1.54,1.54,0,0,0-3.08,0Z"/><path class="cls-6" d="M56.33,317"/><polygon class="cls-7" points="54.2 315.92 45.39 343.07 44.34 335.71 44.97 325.83 54.2 315.92"/><path class="cls-5" d="M45.5,344.23l0-9.84,0-15.59v-3.6a1.15,1.15,0,0,0-2.31,0l0,9.84,0,15.59v3.6a1.15,1.15,0,0,0,2.31,0Z"/><path class="cls-5" d="M45.76,328.23l8.64-10.34,1.24-1.49c.95-1.13-.68-2.77-1.63-1.63l-8.64,10.34-1.24,1.49c-.95,1.13.68,2.77,1.63,1.63Z"/><polygon class="cls-7" points="177.51 315.71 186.32 342.86 187.37 335.5 186.74 325.62 177.51 315.71"/><path class="cls-5" d="M188.52,344l0-9.84,0-15.59V315a1.15,1.15,0,0,0-2.31,0l0,9.84,0,15.59V344a1.15,1.15,0,0,0,2.31,0Z"/><path class="cls-5" d="M187.59,326.39,178.95,316l-1.24-1.49c-1-1.14-2.58.5-1.63,1.63l8.64,10.34L186,328c1,1.14,2.58-.5,1.63-1.63Z"/><path class="cls-1" d="M61.88,258.14l-9.77,5.41c-4.13,2.28-8.29,4.53-12.35,6.93a111.25,111.25,0,0,0-13.47,9.22c-.77.62.32,1.71,1.09,1.09A133.16,133.16,0,0,1,47,268.13l11.78-6.52,3.89-2.15c.87-.48.09-1.81-.78-1.33Z"/><path class="cls-1" d="M69.62,253.86l-4.68,2.59c-.87.48-.09,1.81.78,1.33l4.68-2.59c.87-.48.09-1.81-.78-1.33Z"/><path class="cls-5" d="M76.27,242.57l-16,8.62L35.86,264.41,31.15,267a59.46,59.46,0,0,0-17.47,14.36A60.22,60.22,0,0,0,0,319.6q0,11.86,0,23.72v.7a1.56,1.56,0,0,0,1.54,1.54H213.22c2.86,0,5.72.05,8.58,0h.38a1.56,1.56,0,0,0,1.54-1.54V321.18a68.15,68.15,0,0,0-1.48-15.13,59.22,59.22,0,0,0-8.88-20.34,60,60,0,0,0-16-15.87c-2.44-1.64-5-3-7.58-4.4l-23.14-12.5c-6.29-3.4-12.53-6.89-18.87-10.2l-.31-.17c-1.74-.94-3.3,1.71-1.55,2.66l15.59,8.42,24.44,13.21,5.08,2.74a56.35,56.35,0,0,1,29.64,50.12V344l1.54-1.54H10.5c-2.85,0-5.74-.15-8.58,0H1.54L3.08,344V321.44A65.55,65.55,0,0,1,4.41,307a56.92,56.92,0,0,1,8.79-20A56.12,56.12,0,0,1,29,271.79c2.2-1.4,4.51-2.61,6.8-3.85L59,255.39c6.16-3.33,12.42-6.51,18.49-10l.31-.17c1.74-.94.19-3.6-1.55-2.66Z"/><rect class="cls-1" x="115.33" y="298.21" width="54.5" height="33.62" rx="0.45" ry="0.45"/><g class="cls-8"><path class="cls-2" d="M170,329.59H119.22a1.85,1.85,0,0,1-1.85-1.85V297.82a1.83,1.83,0,0,1,0-.41,1.85,1.85,0,0,0-1.43,1.8v29.92a1.85,1.85,0,0,0,1.85,1.85h50.81a1.85,1.85,0,0,0,1.8-1.43A1.83,1.83,0,0,1,170,329.59Z"/></g><polygon class="cls-9" points="115.43 303.85 115.45 298.13 126.84 297.21 168.66 298.31 170.22 308.9 114.69 309.52 115.43 303.85"/><path class="cls-10" d="M114.42,309.75l.78-5.92,0-5.91,11.61-.94h0l42,1.11,1.63,11h-.26Zm1.26-11.4,0,5.53-.71,5.4,55-.61-1.5-10.14-41.61-1.1Z"/><path class="cls-5" d="M167.88,330.67H117.42c-.52,0-1-.09-1-.74s0-1.3,0-1.94V306.7c0-2.16-.14-4.38,0-6.54,0-.59.41-.79.93-.8H166.8a9.28,9.28,0,0,1,1.07,0c.81.1.7.81.7,1.41v28.38c0,.58.14,1.47-.69,1.52-1.48.08-1.49,2.39,0,2.31a3.14,3.14,0,0,0,3-3.4V300.88a3.76,3.76,0,0,0-.95-3c-1.2-1.15-3.35-.81-4.88-.81H132.5c-5.07,0-10.14-.05-15.2,0a3.1,3.1,0,0,0-3.23,3c0,.52,0,1,0,1.57v21.65c0,2.21-.07,4.43,0,6.64a3.08,3.08,0,0,0,3.07,3.07c.48,0,1,0,1.46,0h49.28A1.15,1.15,0,0,0,167.88,330.67Z"/><path class="cls-5" d="M115.22,310.09H163c2.21,0,4.44.1,6.65,0h.1a1.15,1.15,0,0,0,0-2.31H122c-2.21,0-4.44-.1-6.65,0h-.1a1.15,1.15,0,0,0,0,2.31Z"/><ellipse class="cls-11" cx="34.02" cy="106.84" rx="13.25" ry="19.14"/><path class="cls-4" d="M23.85,113.77c0-10.57,5.93-19.14,13.25-19.14,3.91,0,7.42,2.44,9.84,6.32C45.22,93.26,40.22,87.7,34.33,87.7c-7.32,0-13.25,8.57-13.25,19.14a24.39,24.39,0,0,0,3.41,12.82A27,27,0,0,1,23.85,113.77Z"/><path class="cls-5" d="M19.62,106.84c0,7,2.66,15.56,9.35,19a10.77,10.77,0,0,0,9,.52,15.17,15.17,0,0,0,7.22-6.62c4-6.9,4.31-16.06,1.22-23.36-2.51-5.93-8.3-11.4-15.21-9.46-7.11,2-10.59,10-11.37,16.7a28.73,28.73,0,0,0-.18,3.2,1.15,1.15,0,0,0,2.31,0C22,100.65,24.12,93,30,89.9a8.48,8.48,0,0,1,7.3-.38,13.14,13.14,0,0,1,6.09,5.94,24.72,24.72,0,0,1,1,20.75c-2.05,5-6.84,10-12.74,8.27-3-.91-5.32-3.39-6.84-6.06a23.58,23.58,0,0,1-2.86-11.57A1.15,1.15,0,0,0,19.62,106.84Z"/><path class="cls-5" d="M24.88,102.45,29,112c.39.91,1.72.12,1.33-.78l-4.1-9.53c-.39-.91-1.72-.12-1.33.78Z"/><path class="cls-5" d="M29,101.68l-4.1,9.53c-.39.9.94,1.68,1.33.78l4.1-9.53c.39-.9-.94-1.68-1.33-.78Z"/><ellipse class="cls-11" cx="193.09" cy="104.31" rx="13.25" ry="19.14"/><path class="cls-4" d="M203.39,111.39c0-10.57-5.93-19.14-13.25-19.14-3.91,0-7.42,2.44-9.84,6.32C182,90.89,187,85.33,192.91,85.33c7.32,0,13.25,8.57,13.25,19.14a24.39,24.39,0,0,1-3.41,12.82A27,27,0,0,0,203.39,111.39Z"/><path class="cls-5" d="M178.68,104.31c0,7,2.66,15.56,9.35,19a10.77,10.77,0,0,0,9,.52,15.17,15.17,0,0,0,7.22-6.62c4-6.9,4.31-16.06,1.22-23.36-2.51-5.93-8.3-11.4-15.21-9.46-7.11,2-10.59,10-11.37,16.7a28.73,28.73,0,0,0-.18,3.2,1.15,1.15,0,0,0,2.31,0c0-6.19,2.2-13.8,8.06-16.95a8.48,8.48,0,0,1,7.3-.38,13.14,13.14,0,0,1,6.09,5.94,24.72,24.72,0,0,1,1,20.75c-2.05,5-6.84,10-12.74,8.27-3-.91-5.32-3.39-6.84-6.06A23.58,23.58,0,0,1,181,104.31,1.15,1.15,0,0,0,178.68,104.31Z"/><rect class="cls-3" x="36.23" y="1.93" width="151.53" height="210.91" rx="75.76" ry="75.76"/><path class="cls-4" d="M114.22,196.22h0a76,76,0,0,1-75.76-75.76v16.61a76,76,0,0,0,75.76,75.76h0A76,76,0,0,0,190,137.07V120.45A76,76,0,0,1,114.22,196.22Z"/><path class="cls-5" d="M112.15,210.91A73.36,73.36,0,0,1,79,203a74.25,74.25,0,0,1-39.41-52.21,97.52,97.52,0,0,1-1.28-18.54V86.77c0-4.79-.15-9.62.19-14.4A73.35,73.35,0,0,1,48.71,40,74.68,74.68,0,0,1,71.64,16,73.49,73.49,0,0,1,103.49,4.34a74.17,74.17,0,0,1,79.13,51.32A78.94,78.94,0,0,1,186,79.52V123q0,7,0,14a73.52,73.52,0,0,1-6.57,30.51A75.36,75.36,0,0,1,159.07,194a73.4,73.4,0,0,1-46.92,16.93c-2.47,0-2.48,3.85,0,3.85a78,78,0,0,0,76.16-62.38,100.78,100.78,0,0,0,1.53-19.94V86.3c0-5.12.16-10.29-.3-15.39a77.66,77.66,0,0,0-11.21-33.79A79.05,79.05,0,0,0,154,12.33,77.66,77.66,0,0,0,120.66.48,76.87,76.87,0,0,0,85.23,4.85,78.29,78.29,0,0,0,38.19,54a81.77,81.77,0,0,0-3.73,25.36v44.09q0,6.8,0,13.6a77.71,77.71,0,0,0,77.69,77.73A1.92,1.92,0,0,0,112.15,210.91Z"/><path class="cls-5" d="M195,102.47l4.1,9.53c.39.91,1.72.12,1.33-.78l-4.1-9.53c-.39-.91-1.72-.12-1.33.78Z"/><path class="cls-5" d="M199.12,101.69l-4.1,9.53c-.39.9.94,1.68,1.33.78l4.1-9.53c.39-.9-.94-1.68-1.33-.78Z"/><path class="cls-5" d="M110.45,90.69v41.84a1.54,1.54,0,0,0,3.08,0V90.69a1.54,1.54,0,0,0-3.08,0Z"/><path class="cls-5" d="M101.9,139.11c2.6,4.51,8,8.08,13.26,6a17.26,17.26,0,0,0,7-5.7,1.59,1.59,0,0,0,0-2.18,1.55,1.55,0,0,0-2.18,0,16.18,16.18,0,0,1-5.27,4.73,5.42,5.42,0,0,1-1,.4l-.55.15c-.07,0-.69.13-.43.09a6.74,6.74,0,0,1-1,0l-.57,0c.31,0-.18,0-.28-.05a7.75,7.75,0,0,1-1-.27l-.44-.17c.3.13-.22-.11-.29-.15-.29-.15-.57-.31-.84-.49l-.37-.25c-.09-.06-.51-.38-.24-.17a17.38,17.38,0,0,1-2.32-2.35c-.17-.19.06.08.08.1l-.13-.17-.2-.28-.3-.43c-.09-.13-.17-.27-.25-.4a1.54,1.54,0,0,0-2.66,1.55Z"/><path class="cls-5" d="M79.43,170.09a10.35,10.35,0,0,0,5.62-10,14.54,14.54,0,0,0-2.48-6.31c-1.09-1.64-3.76-.1-2.66,1.55a13.88,13.88,0,0,1,1.65,3.15,7.72,7.72,0,0,1,.48,2.44,5.1,5.1,0,0,1-.3,2.13c0,.13-.09.26-.14.4s-.07.17,0,0l-.11.24a9.82,9.82,0,0,1-.51.91l-.28.41c-.24.35,0,0-.13.17s-.35.41-.54.6-.4.4-.61.58-.75.59-.33.29a9.79,9.79,0,0,1-1.21.79c-1.76.9-.21,3.56,1.55,2.66Z"/><path class="cls-5" d="M142.66,167.44a9.79,9.79,0,0,1-1.21-.79c.42.3-.22-.19-.33-.29s-.42-.38-.61-.58-.36-.39-.54-.6.11.18-.13-.17l-.28-.41a9.82,9.82,0,0,1-.51-.91l-.11-.24q.09.21,0,.05c-.06-.15-.11-.3-.16-.46a5.1,5.1,0,0,1-.3-2.13,11.19,11.19,0,0,1,2.12-5.59c1.1-1.65-1.57-3.2-2.66-1.55-1.95,2.94-3.24,6.59-2.14,10.09a11.09,11.09,0,0,0,4.13,5.5,8.31,8.31,0,0,0,1.15.74c1.76.9,3.32-1.76,1.55-2.66Z"/><path class="cls-12" d="M172.69,90.82s-25.23-1.67-38.13-1.34c-2.89.07-5.49-1.64-5.8-4.51h0a5.1,5.1,0,0,1,5.52-5.63C143.43,80.16,164.39,82.74,172.69,90.82Z"/><path class="cls-13" d="M134.56,86.71c-2.68.07-5.11-1.4-5.69-3.91a5.11,5.11,0,0,0-.1,1.71h0c.31,2.87,2.91,4.59,5.8,4.51,12.89-.33,38.13,1.34,38.13,1.34a20.05,20.05,0,0,0-3.22-2.51C162.25,87.42,144.64,86.45,134.56,86.71Z"/><path class="cls-5" d="M172.69,89.67c-3.6-.24-7.19-.44-10.79-.62-6.94-.36-13.89-.66-20.83-.74-1.57,0-3.14,0-4.71,0s-3.23.19-4.67-.69c-3-1.83-1.92-6.48,1.46-7.08a14.76,14.76,0,0,1,3.91.24q2.19.23,4.38.52c3.37.45,6.72,1,10,1.73a77.18,77.18,0,0,1,10.4,2.93,32.28,32.28,0,0,1,8.5,4.4,17.14,17.14,0,0,1,1.5,1.3c1.07,1,2.7-.6,1.63-1.63a27.42,27.42,0,0,0-8.36-5.23,67,67,0,0,0-10.83-3.48,135.09,135.09,0,0,0-19.84-3.09,6.32,6.32,0,0,0-6.8,7.29,6,6,0,0,0,3.46,4.44,11.86,11.86,0,0,0,5.3.67c7.28-.08,14.56.23,21.83.57,4.73.22,9.46.63,14.18.79l.24,0C174.17,92.08,174.16,89.77,172.69,89.67Z"/><path class="cls-12" d="M54.74,90.82S80,89.15,92.86,89.48c2.89.07,5.49-1.64,5.8-4.51h0a5.1,5.1,0,0,0-5.52-5.63C84,80.16,63,82.74,54.74,90.82Z"/><path class="cls-13" d="M92.86,86.71c2.68.07,5.11-1.4,5.69-3.91a5.11,5.11,0,0,1,.1,1.71h0c-.31,2.87-2.91,4.59-5.8,4.51C80,88.69,54.74,90.36,54.74,90.36A20.05,20.05,0,0,1,58,87.85C65.18,87.42,82.79,86.45,92.86,86.71Z"/><path class="cls-5" d="M54.74,92c4-.26,7.92-.48,11.88-.68,7.29-.37,14.6-.68,21.9-.7,3.46,0,7.55.66,10-2.39a6.26,6.26,0,0,0-2.77-9.64,9.93,9.93,0,0,0-4.64-.18q-2.26.23-4.51.52c-3.61.46-7.2,1-10.76,1.78a77.91,77.91,0,0,0-11,3.07,34.64,34.64,0,0,0-9.09,4.7A20.74,20.74,0,0,0,53.92,90c-1.07,1,.56,2.66,1.63,1.63a25.52,25.52,0,0,1,7.71-4.79,62.84,62.84,0,0,1,10.05-3.23,132.3,132.3,0,0,1,18.91-3c1.53-.14,2.94-.13,4.11,1a4,4,0,0,1,.9,4.33,4.36,4.36,0,0,1-3.84,2.4c-1.53.08-3.08,0-4.61,0-7,0-13.92.3-20.87.64-4.32.21-8.66.39-13,.73h-.2C53.26,89.77,53.25,92.08,54.74,92Z"/><path class="cls-5" d="M96.25,168.34,105,172.9l14,7.31,3.18,1.67a2,2,0,0,0,2.63-.69,1.94,1.94,0,0,0-.69-2.63L115.33,174l-14-7.31L98.2,165a2,2,0,0,0-2.63.69,1.94,1.94,0,0,0,.69,2.63Z"/><path class="cls-5" d="M186.85,57.94c-1.37-2.32-2.87-4.56-4.4-6.77a152.61,152.61,0,0,0-11.71-15A88.42,88.42,0,0,0,154.07,21.3a46.55,46.55,0,0,0-9.54-4.94A31.3,31.3,0,0,0,139.67,15c-.93-.18-2.19-.59-3.07-.15l-.35.2a52.81,52.81,0,0,1-20.67,6.77c-8.76.88-17.73-1.64-25.47-5.47-.84-.42-1.67-.85-2.49-1.32a3.82,3.82,0,0,0-.51-.27c-.86-.34-2.15.07-3,.26a36.7,36.7,0,0,0-9.76,3.62C67.75,22.09,62,27,56.8,32.32A140.35,140.35,0,0,0,43.7,48c-2.24,3.08-4.39,6.23-6.37,9.48l-.28.46a1.54,1.54,0,0,0,2.66,1.55A132.08,132.08,0,0,1,49,46.08c6.18-8,13.68-16.26,22.28-22a46.63,46.63,0,0,1,7.65-4.22,35.19,35.19,0,0,1,3.82-1.34q1-.27,2-.48c.6-.13,1.52-.28,1.88-.33l-.78-.21A44.79,44.79,0,0,0,90.81,20a60.27,60.27,0,0,0,12.51,4.08,47.13,47.13,0,0,0,7.79.94,39.89,39.89,0,0,0,7.6-.6,57.21,57.21,0,0,0,13.06-3.85,48.89,48.89,0,0,0,6.39-3.13l-.78.21c.27,0,1,.16,1.55.26s1.2.26,1.79.42a33.12,33.12,0,0,1,3.55,1.17A43.31,43.31,0,0,1,151.06,23a72.47,72.47,0,0,1,12.61,10.21,135.82,135.82,0,0,1,17.45,21.45c1.06,1.58,2.1,3.17,3.07,4.81a1.54,1.54,0,0,0,2.66-1.55Z"/><polygon class="cls-5" points="40.46 49.15 62.15 18.69 88.46 5.74 115.39 1.93 141.24 8.05 161.76 20.55 179.83 41.46 183 51.43 169.54 37.44 146.01 18.61 137.38 16.23 122.97 21.99 107.33 23.22 94.41 19.88 85.17 16.16 78.39 18.39 64.39 27.33 46.01 47.44 41.1 51.43 40.46 49.15"/><path class="cls-5" d="M65.84,105.92H95.53a1.54,1.54,0,0,0,0-3.08H65.84a1.54,1.54,0,0,0,0,3.08Z"/><path class="cls-5" d="M130.91,105.92h29.69a1.54,1.54,0,0,0,0-3.08H130.91a1.54,1.54,0,0,0,0,3.08Z"/></g></g></svg>