<?xml version="1.0" encoding="utf-8"?>
<!-- Generator: Adobe Illustrator 19.0.0, SVG Export Plug-In . SVG Version: 6.00 Build 0)  -->
<svg version="1.1" id="Layer_1" xmlns="http://www.w3.org/2000/svg" xmlns:xlink="http://www.w3.org/1999/xlink" x="0px" y="0px"
	 viewBox="0 0 612 792" style="enable-background:new 0 0 612 792;" xml:space="preserve">
<style type="text/css">
	.st0{fill:#E8EAE9;}
	.st1{fill:#F2F5F6;}
	.st2{fill:#C4E0EC;}
	.st3{fill:#ECF0F2;}
	.st4{fill:#E2E2E2;}
	.st5{fill:#EFF8FB;}
	.st6{fill:#FFFFFF;}
	.st7{fill:#5FBF82;}
	.st8{fill:#99D2A6;}
	.st9{fill:#12426D;}
	.st10{fill:#EE775B;}
	.st11{fill:#DC6249;}
	.st12{fill:#F69285;}
	.st13{fill:#FDD9AF;}
	.st14{fill:#645446;}
	.st15{fill:#FBBB9A;}
	.st16{fill:#FBECCC;}
	.st17{fill:#4A3D34;}
	.st18{fill:#77675B;}
	.st19{fill:#189CBA;}
	.st20{fill:#89D5EC;}
	.st21{fill:#5AC7D8;}
	.st22{fill:#E06846;}
	.st23{fill:#F7D64D;}
	.st24{fill:#E8BB4B;}
	.st25{fill:#EABC26;}
	.st26{fill:#FEEA99;}
	.st27{fill:#FFD579;}
</style>
<g id="Background_2">
	<polygon id="XMLID_160_" class="st0" points="177.6,293.7 179.9,340.2 220.1,315.6 208.8,309 192,301.1 	"/>
	<polygon id="XMLID_151_" class="st1" points="179.9,340.2 192,301.1 177.6,293.7 	"/>
	<g id="XMLID_138_">
		<path id="XMLID_263_" class="st2" d="M177.7,344.3l-2.6-50.4c-0.1-1.3,0.9-2.4,2.2-2.5c1.3-0.1,2.4,0.9,2.5,2.2l2.1,42.4
			l36.8-22.5c1.1-0.7,2.6-0.3,3.3,0.8s0.3,2.6-0.8,3.3L177.7,344.3z"/>
	</g>
	<polygon id="XMLID_255_" class="st0" points="234.3,322.2 240,368.3 278.3,340.9 266.6,335.1 249.2,328.4 	"/>
	<polygon id="XMLID_254_" class="st1" points="240,368.3 249.2,328.4 234.3,322.2 	"/>
	<g id="XMLID_253_">
		<path id="XMLID_262_" class="st2" d="M238.1,372.5l-6.2-50.1c-0.2-1.3,0.8-2.5,2.1-2.6c1.3-0.2,2.5,0.8,2.6,2.1l5.2,42.2
			l35.1-25.1c1.1-0.8,2.5-0.5,3.3,0.5c0.8,1.1,0.5,2.5-0.5,3.3L238.1,372.5z"/>
	</g>
	<polygon id="XMLID_259_" class="st0" points="304.2,349.6 314.4,395 349.9,364 337.6,359.3 319.7,354.4 	"/>
	<polygon id="XMLID_258_" class="st1" points="314.4,395 319.7,354.4 304.2,349.6 	"/>
	<g id="XMLID_257_">
		<path id="XMLID_261_" class="st2" d="M313,399.4l-11.1-49.2c-0.3-1.3,0.5-2.5,1.8-2.8c1.3-0.3,2.5,0.5,2.8,1.8l9.3,41.5l32.5-28.4
			c1-0.9,2.5-0.8,3.3,0.2c0.9,1,0.8,2.5-0.2,3.3L313,399.4z"/>
	</g>
	<polygon id="XMLID_161_" class="st0" points="128.9,261 125.6,307.4 168.5,287.9 150.6,276.7 135.5,267.3 	"/>
	<polygon id="XMLID_159_" class="st0" points="373.6,367.9 388.1,411.2 420.7,376.8 401.9,373.7 	"/>
	<polygon id="XMLID_158_" class="st0" points="437,381.1 452.7,423.1 484.2,389.1 471.6,386.2 449.5,382.7 	"/>
	<polygon id="XMLID_152_" class="st1" points="125.6,307.4 140.9,270.7 128.9,261 	"/>
	<polygon id="XMLID_150_" class="st1" points="389.9,371.1 388.1,411.2 375.4,368.1 	"/>
	<polygon id="XMLID_149_" class="st1" points="453.3,424.7 453.3,382.3 437,381.1 	"/>
	<g id="XMLID_140_">
		<path id="XMLID_251_" class="st2" d="M494.4,391.8c-0.1,0-0.2,0-0.3,0c-29.8-3.9-56.9-9.6-83.1-15.1c-15.7-3.3-30.4-6.4-44.8-8.9
			c-63-11-142.8-48.7-143.6-49.1c-72.1-32.8-103.9-63.2-104.2-63.5c-0.9-0.9-1-2.4-0.1-3.4c0.9-0.9,2.4-1,3.4-0.1
			c0.3,0.3,31.6,30.2,102.9,62.6c0.8,0.4,80.1,37.8,142.4,48.7c14.4,2.5,29.3,5.6,45,8.9c26.1,5.5,53.1,11.1,82.7,15.1
			c1.3,0.2,2.2,1.4,2,2.7C496.6,390.9,495.6,391.8,494.4,391.8z"/>
	</g>
	<g id="XMLID_139_">
		<path id="XMLID_260_" class="st2" d="M122.9,311.2l3.6-50.3c0.1-1.3,1.2-2.3,2.5-2.2c1.3,0.1,2.3,1.2,2.2,2.5l-3,42.4l39.3-17.8
			c1.2-0.5,2.6,0,3.1,1.2c0.5,1.2,0,2.6-1.2,3.1L122.9,311.2z"/>
	</g>
	<g id="XMLID_137_">
		<path id="XMLID_256_" class="st2" d="M385.7,416.9l-14.4-48.4c-0.4-1.3,0.3-2.6,1.6-3c1.3-0.4,2.6,0.3,3,1.6l12.2,40.7l30.4-30.6
			c0.9-0.9,2.4-0.9,3.4,0c0.9,0.9,0.9,2.4,0,3.4L385.7,416.9z"/>
	</g>
	<g id="XMLID_136_">
		<path id="XMLID_252_" class="st2" d="M452.4,429.2l-17.7-47.3c-0.5-1.2,0.2-2.6,1.4-3.1c1.2-0.5,2.6,0.2,3.1,1.4l14.9,39.8
			l28.3-32.5c0.9-1,2.4-1.1,3.3-0.2c1,0.9,1.1,2.4,0.2,3.3L452.4,429.2z"/>
	</g>
</g>
<g id="Bacgkround_1">
	<path id="XMLID_157_" class="st3" d="M447.7,332.1"/>
	<polygon id="XMLID_156_" class="st3" points="447.7,332.1 442.1,332.1 437.8,336.9 439.5,344.1 446.3,345.8 451.2,342.5 
		453.4,338.6 	"/>
	<polygon id="XMLID_155_" class="st3" points="227.4,158.7 220.2,155.3 215.5,157.4 213.6,162.4 215.5,166.2 217.1,169.6 
		223.6,169.6 227.4,166.2 	"/>
	<polygon id="XMLID_154_" class="st3" points="166.9,380 168.5,373.3 163.5,368.7 157.4,369.6 154.2,375.5 156.9,381.1 161.3,384 	
		"/>
	<g id="XMLID_135_">
		<path id="XMLID_271_" class="st2" d="M220.2,171.9c-5.2,0-9.5-4.3-9.5-9.5s4.3-9.5,9.5-9.5s9.5,4.3,9.5,9.5
			S225.5,171.9,220.2,171.9z M220.2,157.7c-2.6,0-4.8,2.1-4.8,4.8s2.1,4.8,4.8,4.8s4.8-2.1,4.8-4.8S222.9,157.7,220.2,157.7z"/>
	</g>
	<g id="XMLID_134_">
		<path id="XMLID_268_" class="st2" d="M444.9,348.1c-5.2,0-9.5-4.3-9.5-9.5s4.3-9.5,9.5-9.5s9.5,4.3,9.5,9.5
			S450.2,348.1,444.9,348.1z M444.9,333.9c-2.6,0-4.8,2.1-4.8,4.8s2.1,4.8,4.8,4.8s4.8-2.1,4.8-4.8S447.6,333.9,444.9,333.9z"/>
	</g>
	<g id="XMLID_133_">
		<path id="XMLID_265_" class="st2" d="M161.3,385c-5.2,0-9.5-4.3-9.5-9.5s4.3-9.5,9.5-9.5s9.5,4.3,9.5,9.5S166.6,385,161.3,385z
			 M161.3,370.8c-2.6,0-4.8,2.1-4.8,4.8s2.1,4.8,4.8,4.8s4.8-2.1,4.8-4.8S163.9,370.8,161.3,370.8z"/>
	</g>
</g>
<g id="Bottle">
	<polygon id="XMLID_153_" class="st3" points="468.7,495.1 460.6,495.3 453.3,498.2 449.4,502 448.6,510.4 451.5,524.1 455.1,528 
		454.5,539.8 451.6,554.9 448.6,564.1 439.3,569.4 433.4,574.5 432.7,587.5 432.7,636.2 433.4,649.3 437,662.2 493.4,662.2 
		497.6,649.2 497.6,636.8 497.6,598.2 497.6,578.6 494.4,570.9 488.2,567.6 480.9,560.2 476.8,547.5 475.2,528 479.4,522.8 
		481.7,509.1 480.9,503.6 475.2,497 	"/>
	<path id="XMLID_148_" class="st1" d="M464.2,528v22.1c0,0,1,25.3-7.3,27.3c-8.3,2-7.4,59-7.4,59s-0.4,22.1,20.1,22.1H437l-3.5-15.4
		v-41.3v-21.3l3.5-9.1l8.6-5.6l6-10.8l2.9-15l0.5-11.9H464.2z"/>
	<path id="XMLID_147_" class="st1" d="M464.2,528c0,0-9.7-19.7-0.2-32.9h-7.1l-7.4,6.9l-0.8,8.4l2.9,13.6l3.6,3.9H464.2z"/>
	<polygon id="XMLID_146_" class="st4" points="494.4,596.9 432.7,596.9 432.7,626.1 497.6,626.1 497.6,598.2 	"/>
	<polygon id="XMLID_145_" class="st3" points="449.4,596.9 449.4,626.1 432.7,626.1 432.7,596.9 	"/>
	<g id="XMLID_129_">
		<path id="XMLID_95_" class="st2" d="M438.5,662c-0.5,0-1-0.2-1.4-0.5c-0.3-0.2-6.7-5.2-6.7-20.2v-53.9c0-0.6-0.3-17.2,10.8-22
			c7.2-3.1,11.4-16.3,11.6-36.2c-2.3-1.8-6.5-6.9-6.5-20.1c0-5.3,1.7-9.4,4.9-12.3c5.9-5.2,14.9-4.1,15.3-4.1c1.3,0.2,2.2,1.4,2,2.7
			c-0.2,1.3-1.4,2.2-2.7,2c-0.1,0-7.3-0.9-11.6,2.9c-2.2,1.9-3.3,4.9-3.3,8.7c0,14,5,16.7,5.1,16.7l1.5,0.6l-0.1,1.6
			c0,16.2-2.5,36.7-14.4,41.8c-8.2,3.5-7.9,17.5-7.9,17.6l0,54c0,12.4,4.8,16.4,4.9,16.4c1,0.8,1.2,2.3,0.4,3.3
			C439.9,661.7,439.2,662,438.5,662z"/>
	</g>
	<g id="XMLID_128_">
		<path id="XMLID_89_" class="st2" d="M491.8,662c-0.7,0-1.4-0.3-1.9-1c-0.8-1-0.6-2.5,0.5-3.3c0.1-0.1,4.9-4.2,4.9-16.4v-53.9
			c0-0.2,0.2-14.1-7.9-17.7c-11.9-5.2-14.4-25.6-14.4-41.8v-1.6l1.5-0.6l0,0c0,0,5-2.6,5-16.6c0-3.8-1.1-6.8-3.3-8.7
			c-3.4-3-8.7-3.1-10.7-3c-1.9,2.4-7.5,12,1,29.5c0.6,1.2,0.1,2.6-1.1,3.2c-1.2,0.6-2.6,0.1-3.2-1.1c-11.3-23.3,0-35,0.5-35.5
			l0.6-0.6l0.8-0.1c0.4,0,9.4-1.1,15.3,4.1c3.3,2.9,4.9,7,4.9,12.3c0,13.2-4.1,18.3-6.5,20.1c0.2,19.9,4.4,33.1,11.6,36.2
			c11.1,4.8,10.8,21.4,10.8,22.1l0,53.9c0,15-6.5,20-6.7,20.2C492.8,661.9,492.3,662,491.8,662z"/>
	</g>
	<g id="XMLID_127_">
		<path id="XMLID_216_" class="st2" d="M475.2,530.4h-20.1c-1.3,0-2.4-1.1-2.4-2.4s1.1-2.4,2.4-2.4h20.1c1.3,0,2.4,1.1,2.4,2.4
			S476.5,530.4,475.2,530.4z"/>
	</g>
	<g id="XMLID_126_">
		<path id="XMLID_132_" class="st2" d="M497.6,599.2h-64.8c-1.3,0-2.4-1.1-2.4-2.4s1.1-2.4,2.4-2.4h64.8c1.3,0,2.4,1.1,2.4,2.4
			S498.9,599.2,497.6,599.2z"/>
	</g>
	<g id="XMLID_125_">
		<path id="XMLID_213_" class="st2" d="M497.6,628.5h-64.8c-1.3,0-2.4-1.1-2.4-2.4s1.1-2.4,2.4-2.4h64.8c1.3,0,2.4,1.1,2.4,2.4
			S498.9,628.5,497.6,628.5z"/>
	</g>
	<g id="XMLID_124_">
		<path id="XMLID_163_" class="st2" d="M475.2,605.1h-34.1c-0.8,0-1.4-0.6-1.4-1.4s0.6-1.4,1.4-1.4h34.1c0.8,0,1.4,0.6,1.4,1.4
			S476,605.1,475.2,605.1z"/>
	</g>
	<rect id="XMLID_123_" x="469.5" y="610.2" class="st2" width="19.2" height="8.9"/>
	<g id="XMLID_122_">
		<path id="XMLID_215_" class="st2" d="M465.4,515.1c-10.2,0-17.5-4.7-17.6-4.8c-0.6-0.4-0.8-1.3-0.4-1.9c0.4-0.6,1.3-0.8,1.9-0.4
			c0.6,0.4,15.1,9.8,31.7,0c0.7-0.4,1.5-0.2,1.9,0.5c0.4,0.7,0.2,1.5-0.5,1.9C476.4,513.9,470.5,515.1,465.4,515.1z"/>
	</g>
</g>
<g id="Trophy_2">
	<polygon id="XMLID_209_" class="st5" points="249.1,651.4 240.6,647.3 237.7,643.1 233.4,638.3 226.3,633.8 213,628 217.2,622.1 
		220.3,615.5 219.7,610.2 217.2,605.6 222.9,604.7 237.7,596.9 244.3,586.4 250.6,569.1 253,553.6 253.4,493.7 259.3,479.9 
		256.6,474.7 248.2,470.8 216.2,470.8 198.5,470.8 196.2,470.8 178.6,470.8 146.5,470.8 138.1,474.7 135.5,479.9 141.3,493.7 
		141.8,553.6 144.2,569.1 150.4,586.4 157,596.9 171.8,604.7 177.6,605.6 175.1,610.2 174.4,615.5 177.6,622.1 181.8,628 
		168.5,633.8 161.3,638.3 157,643.1 154.2,647.3 145.7,651.4 138.6,659.7 196.2,662.1 196.2,662.2 197.4,662.1 198.5,662.2 
		198.5,662.1 256.2,659.7 	"/>
	<path id="XMLID_144_" class="st6" d="M161.8,495.1c0,0-10.6,75.5,15.8,110.6l-12.4-3.6l-10-8.6l-8.6-16l-4.8-23.9l-0.9-27.6v-34.6
		L161.8,495.1z"/>
	<path id="XMLID_143_" class="st6" d="M161.8,495.1c0,0-20.5-14.2,0-24.3h-17.4c0,0-19.9,14.3-1.5,20.9L161.8,495.1z"/>
	<path id="XMLID_142_" class="st6" d="M141.3,660.6l4.4-9.2l8.5-4.1l7.1-9l16.5-7.1l4.5-0.5c0,0-17.3,21.6-3.7,27.7"/>
	<g id="XMLID_131_">
		<path id="XMLID_198_" class="st2" d="M141.3,662c-1.3,0-2.3-1-2.4-2.3c-0.5-9.9,11.5-14,16-15.2c2.6-11.1,16.3-14.8,23.9-16
			c-4.2-4.1-6.5-8.4-6.8-13c-0.2-3.3,0.6-6,1.6-8c-15-2.8-25.6-14.8-31-34.9c-4.3-16-3.7-31.3-3.7-31.9l0-49.1
			c0-1.3,1.1-2.4,2.4-2.4s2.4,1.1,2.4,2.4v49.2c0,0.7-2,59.5,34,62.5l4.7,0.4l-3.2,3.6c0,0-2.9,3.4-2.6,8.1
			c0.3,3.7,2.5,7.4,6.5,10.9c1.2,1,1.6,2.6,1.2,4.1c-0.4,1.5-1.7,2.5-3.2,2.7c-6.2,0.8-20.6,3.7-21.9,13.8l-0.2,1.7l-1.7,0.3
			c-0.1,0-14.1,3-13.8,10.7c0.1,1.3-0.9,2.4-2.3,2.5C141.4,662,141.4,662,141.3,662z"/>
	</g>
	<g id="XMLID_121_">
		<path id="XMLID_196_" class="st2" d="M157,573.4c-0.6,0-1.2-0.4-1.4-1.1c-5.9-27.7-2.9-60.6-2.9-60.9c0.1-0.8,0.7-1.3,1.5-1.3
			c0.8,0.1,1.3,0.8,1.3,1.5c0,0.3-3,32.8,2.8,60.1c0.2,0.8-0.3,1.5-1.1,1.7C157.2,573.3,157.1,573.4,157,573.4z"/>
	</g>
	<g id="XMLID_120_">
		<path id="XMLID_130_" class="st2" d="M161.8,585.8c-0.4,0-0.8-0.2-1.1-0.6c-2.5-3.4-3.9-9.1-4-9.3c-0.2-0.7,0.3-1.5,1-1.7
			c0.7-0.2,1.5,0.3,1.7,1c0,0.1,1.3,5.4,3.5,8.3c0.5,0.6,0.3,1.5-0.3,2C162.4,585.7,162.1,585.8,161.8,585.8z"/>
	</g>
	<g id="XMLID_119_">
		<path id="XMLID_84_" class="st2" d="M188.2,623.3c-0.4,0-0.8-0.2-1-0.5c-6.2-6.8-2.8-14.1-2.6-14.4c0.3-0.7,1.2-1,1.9-0.6
			c0.7,0.3,1,1.2,0.6,1.9c-0.1,0.3-2.7,5.9,2.2,11.3c0.5,0.6,0.5,1.4-0.1,2C188.8,623.2,188.5,623.3,188.2,623.3z"/>
	</g>
	<g id="XMLID_118_">
		<path id="XMLID_82_" class="st2" d="M165.1,651.2c-0.1,0-0.3,0-0.4-0.1c-0.7-0.2-1.1-1-0.9-1.8c0.2-0.5,4.1-11.6,21-12.5
			c0.8,0,1.4,0.6,1.5,1.3c0,0.8-0.6,1.4-1.3,1.5c-15,0.8-18.4,10.5-18.5,10.6C166.3,650.9,165.7,651.2,165.1,651.2z"/>
	</g>
	<path id="XMLID_212_" class="st2" d="M247.1,468.4h-49.7c-0.2,0-0.4,0-0.6,0.1c-0.2,0-0.4-0.1-0.6-0.1h-49.7
		c-7.4,0-13.4,6-13.4,13.4s6,13.4,13.4,13.4h49.7c0.2,0,0.4,0,0.6-0.1c0.2,0,0.4,0.1,0.6,0.1h49.7c7.4,0,13.4-6,13.4-13.4
		S254.5,468.4,247.1,468.4z M247.1,490.5h-49.7c-0.2,0-0.4,0-0.6,0.1c-0.2,0-0.4-0.1-0.6-0.1h-49.7c-4.8,0-8.7-3.9-8.7-8.7
		s3.9-8.7,8.7-8.7h49.7c0.2,0,0.4,0,0.6-0.1c0.2,0,0.4,0.1,0.6,0.1h49.7c4.8,0,8.7,3.9,8.7,8.7S251.9,490.5,247.1,490.5z"/>
	<g id="XMLID_88_">
		<path id="XMLID_162_" class="st2" d="M252.3,662c0,0-0.1,0-0.1,0c-1.3-0.1-2.3-1.2-2.3-2.5c0.4-7.7-13.6-10.7-13.8-10.7l-1.7-0.3
			l-0.2-1.7c-1.2-10.1-15.7-13-21.9-13.8c-1.5-0.2-2.8-1.3-3.2-2.7c-0.4-1.5,0-3,1.2-4.1c4.1-3.5,6.3-7.2,6.5-10.9
			c0.3-4.7-2.5-8.1-2.6-8.1l-3.1-3.5l4.7-0.4c36-2.9,34.1-61.8,34-62.4l0-49.3c0-1.3,1.1-2.4,2.4-2.4s2.4,1.1,2.4,2.4v49.2
			c0,0.5,0.6,15.9-3.7,31.8c-5.4,20.1-16,32.1-31,34.9c0.9,2,1.8,4.8,1.6,8c-0.3,4.6-2.6,9-6.8,13c7.6,1.2,21.3,4.9,23.9,16
			c4.5,1.2,16.5,5.3,16,15.2C254.6,661.1,253.5,662,252.3,662z"/>
	</g>
	<g id="XMLID_83_">
		<path id="XMLID_201_" class="st2" d="M231.8,585.8c-0.3,0-0.6-0.1-0.8-0.3c-0.6-0.5-0.7-1.3-0.3-2c2.2-2.9,3.5-8.2,3.5-8.3
			c0.2-0.7,0.9-1.2,1.7-1c0.7,0.2,1.2,0.9,1,1.7c-0.1,0.2-1.4,6-4,9.3C232.6,585.6,232.2,585.8,231.8,585.8z"/>
	</g>
	<g id="XMLID_55_">
		<path id="XMLID_200_" class="st2" d="M228.5,651.2c-0.6,0-1.1-0.4-1.3-0.9c-0.1-0.4-3.6-9.8-18.5-10.6c-0.8,0-1.4-0.7-1.3-1.5
			c0-0.8,0.7-1.4,1.5-1.3c16.9,0.9,20.8,12,21,12.5c0.2,0.7-0.1,1.5-0.9,1.8C228.8,651.2,228.6,651.2,228.5,651.2z"/>
	</g>
</g>
<g id="Flag">
	<polygon id="XMLID_81_" class="st7" points="426.5,168.9 394.3,212.5 444.9,212.5 	"/>
	<polygon id="XMLID_80_" class="st8" points="412.1,210.1 432.7,183.5 426.5,168.9 394.3,212.5 	"/>
	<g id="XMLID_13_">
		<path id="XMLID_250_" class="st9" d="M491,323.7c-0.9,0-1.8-0.5-2.2-1.4l-68.8-162.6c-0.5-1.2,0.1-2.6,1.2-3.1
			c1.2-0.5,2.6,0.1,3.1,1.2l68.8,162.6c0.5,1.2-0.1,2.6-1.2,3.1C491.6,323.6,491.3,323.7,491,323.7z"/>
	</g>
	<g id="XMLID_12_">
		<path id="XMLID_249_" class="st9" d="M444.9,214.8h-55.3l35-47.4c0.8-1,2.2-1.3,3.3-0.5c1,0.8,1.3,2.2,0.5,3.3l-29.5,39.9h46
			c1.3,0,2.3,1,2.3,2.3S446.2,214.8,444.9,214.8z"/>
	</g>
	<circle id="XMLID_11_" class="st9" cx="422.2" cy="158.7" r="7.4"/>
</g>
<g id="XMLID_14_">
	<path id="XMLID_244_" class="st10" d="M453.4,289.5c0,0-26.9,59.5-110.9,45.5c0,0-27.4-19,3.3-36.5c0,0,11.2-6.9,51.2-9l27.9-10.9
		l10.3-6.4l9.4-4.3l2.6,5.4l4.9,9L453.4,289.5z"/>
	<path id="XMLID_116_" class="st11" d="M349.3,326.7c0,0,69.3,0.7,100.1-46.4l5.7,2.4l-8.3,17l-19.6,19.3l-20.9,12.4l-25.7,7.1h-25
		L349.3,326.7z"/>
	<path id="XMLID_115_" class="st12" d="M358.6,295.7c0,0,39.8,24.5,86.3-22.4s2.2,0,2.2,0l-2.6-5.4h-4.1l-10.8,8.7l-23.4,9.6
		l-19.2,3.3C387.1,289.5,364.7,290.4,358.6,295.7z"/>
	<polygon id="XMLID_110_" class="st13" points="439.5,265.6 436.4,255.7 438.4,246.2 444.9,242.2 460.6,242.2 464.9,235.3 
		471.6,233.9 476.2,240.1 483.7,255.7 486.3,267.2 486.3,273.4 484.2,277.5 475.5,276.7 472.9,278.8 464.9,282.5 458.3,285.1 
		452.1,282.3 447.1,273.4 444.6,268 	"/>
	<g id="XMLID_34_">
		<path id="XMLID_243_" class="st9" d="M366.2,341c-6.6,0-10.7-0.7-11-0.7c-1.3-0.2-2.1-1.4-1.9-2.7c0.2-1.3,1.4-2.1,2.7-1.9
			c0.3,0,15.9,2.5,35.8-2.7c26-6.9,46.8-23.1,61.9-48.3c-6.4-4.7-9.1-10.2-10.1-14.2c-0.1-0.5-0.5-0.7-0.7-0.7
			c-0.2-0.1-0.6-0.1-1,0.2c-26.7,23.3-59.9,22.4-61.3,22.4c-1.3,0-2.3-1.1-2.3-2.4c0-1.3,1.1-2.3,2.3-2.3c0.1,0-0.1,0,0.7,0
			c4.6,0,34.1-0.8,57.5-21.2c1.5-1.3,3.6-1.8,5.5-1.2c1.9,0.6,3.4,2.1,3.9,4c1,3.6,3.5,8.7,10,12.8l1.9,1.2l-1.1,2
			c-19.8,34.2-46.9,47.4-66.1,52.4C382.2,340.3,372.9,341,366.2,341z"/>
	</g>
	<g id="XMLID_30_">
		<path id="XMLID_247_" class="st9" d="M440.3,270.5c-0.9,0-1.7-0.5-2.1-1.3c-0.7-1.4-6.6-14.2-2.9-22.3c1.3-2.8,3.7-4.8,6.9-5.6
			c6.7-1.8,22.6-5.4,25.8,0.4c2.1,3.8-2.2,8.3-5.6,11.4c-1,0.9-2.4,0.8-3.3-0.2c-0.9-1-0.8-2.4,0.2-3.3c4.1-3.7,4.5-5.3,4.6-5.7
			c-1.3-1.2-9.1-1.2-20.4,1.9c-1.9,0.5-3.1,1.5-3.8,3.1c-2.4,5.2,1.3,14.9,2.9,18.3c0.6,1.2,0.1,2.6-1.1,3.1
			C440.9,270.4,440.6,270.5,440.3,270.5z"/>
	</g>
	<g id="XMLID_29_">
		<path id="XMLID_246_" class="st9" d="M456.8,286.3c-1.3,0-2.3-1-2.3-2.3c0-1.3,1-2.4,2.3-2.4c3-0.1,11.5-1.4,14.1-6.1
			c0.6-1.1,2.1-1.5,3.2-0.9c1.1,0.6,1.5,2.1,0.9,3.2C470.5,285.8,457.5,286.3,456.8,286.3C456.9,286.3,456.9,286.3,456.8,286.3z"/>
	</g>
	<g id="XMLID_28_">
		<path id="XMLID_245_" class="st9" d="M479.8,279.8c-3,0-6.6-1.2-10.9-3.6l-0.2-0.2c-0.5-0.4-11.9-8.9-14-17.4
			c-0.3-1.3,0.4-2.5,1.7-2.8c1.3-0.3,2.5,0.4,2.8,1.7c1.4,5.6,9.1,12.4,12.2,14.7c5.3,3,9.4,3.7,11.1,2c3-2.9,2-13.9-5.7-28.7
			c-4.5-8.6-7.5-9.4-8.6-9.3c-2.2,0.2-4.1,3.7-4.7,5.4c-0.4,1.2-1.8,1.9-3,1.4c-1.2-0.4-1.9-1.8-1.4-3c0.3-0.8,3-8.1,8.8-8.5
			c4.5-0.3,8.7,3.6,13.1,11.8c6.2,11.9,11.2,28,4.8,34.2C484.1,279.1,482.2,279.8,479.8,279.8z"/>
	</g>
</g>
<g id="Body">
	<path id="XMLID_114_" class="st10" d="M355.6,338.6l11,22.9l1.9,15.1v21.2l-1.9,13.5L233.1,412c0,0-14-62.6,31.6-87.7l65.7-13
		C330.4,311.2,349.1,325.1,355.6,338.6z"/>
	<path id="XMLID_117_" class="st11" d="M349.3,326.7c0,0,13,75.5-18.9,84.8h36.2l3.9-26.1l-3.9-20.7l-8-26.5L349.3,326.7z"/>
	<path id="XMLID_113_" class="st13" d="M281.8,320.9c0,0,36.1,29.3,48.6-9.6L281.8,320.9z"/>
	<g id="XMLID_37_">
		<path id="XMLID_242_" class="st9" d="M365.7,413.9c-0.3,0-0.5,0-0.8-0.1c-1.2-0.4-1.9-1.8-1.4-3l0,0c0.1-0.4,14-41.2-17.2-82.7
			c-0.8-1-0.6-2.5,0.5-3.3c1-0.8,2.5-0.6,3.3,0.5c32.8,43.5,18,86.6,17.9,87C367.6,413.3,366.7,413.9,365.7,413.9z"/>
	</g>
	<g id="XMLID_35_">
		<path id="XMLID_241_" class="st9" d="M333.1,413.9c-0.2,0-0.3,0-0.5-0.1c-1.3-0.3-2.1-1.5-1.8-2.8c9.7-44.7-13.2-81.5-13.4-81.9
			c-0.7-1.1-0.4-2.5,0.7-3.2c1.1-0.7,2.5-0.4,3.2,0.7c1,1.6,24.1,38.7,14,85.4C335.2,413.1,334.2,413.9,333.1,413.9z"/>
	</g>
	
		<ellipse id="XMLID_33_" transform="matrix(0.9393 -0.3432 0.3432 0.9393 -100.1793 128.9289)" class="st9" cx="314.2" cy="347.5" rx="3.7" ry="5.2"/>
	
		<ellipse id="XMLID_32_" transform="matrix(0.9993 -3.730936e-002 3.730936e-002 0.9993 -13.7603 12.1776)" class="st9" cx="319.4" cy="374.8" rx="3.7" ry="5.2"/>
	
		<ellipse id="XMLID_31_" transform="matrix(0.9983 5.907310e-002 -5.907310e-002 0.9983 24.0529 -18.2599)" class="st9" cx="320.9" cy="397.7" rx="3.7" ry="5.2"/>
	<g id="XMLID_15_">
		<path id="XMLID_240_" class="st9" d="M232.2,413.9c-0.1,0-0.2,0-0.3,0c-1.3-0.2-2.2-1.3-2-2.6l0.8-7.1c-0.5-2.4-2.7-14.8-0.4-30.2
			c2.3-15.6,10-37.2,33.1-51.8l0.4-0.2l18.7-3.7l0.9,0.8c0.2,0.2,17.8,15.4,35,6.7c11.3-5.7,9.6-13.7,9.6-14
			c-0.3-1.3,0.5-2.5,1.7-2.8c1.2-0.3,2.5,0.4,2.8,1.7c0.1,0.5,2.8,11.8-12,19.3c-4.6,2.3-9.2,3.2-13.6,3.2
			c-12.4,0-22.7-7.4-25.8-9.9l-15.6,3.1c-41,26.1-30.3,76.6-30.2,77.1l0.1,0.4l-0.9,7.8C234.3,413,233.3,413.9,232.2,413.9z"/>
	</g>
</g>
<g id="Left_Arm">
	<polygon id="XMLID_111_" class="st13" points="280.5,352.6 273.8,349.6 271.8,349.6 267.5,352.6 264.9,357.3 262.5,368.4 
		264.9,371.1 267.6,377.4 271.5,381.1 275,385.5 283.8,384.8 294.1,378.8 300.1,369.1 305.7,360 307.8,352.6 306.8,349.6 
		300.1,345.8 294.1,344.1 285.2,347.3 	"/>
	<polygon id="XMLID_71_" class="st10" points="232.7,368.8 250.1,342.5 259.9,321.7 261.3,313.3 250.7,307.4 232.7,313.3 
		221.5,321.1 209.6,330.9 197.9,355.1 194,374.8 197,392.5 210.8,405.2 227.7,405.2 262.5,394.8 275,385.5 271.5,381.1 267.1,372 
		264.7,369.7 244.3,369.6 	"/>
	<path id="XMLID_70_" class="st12" d="M254.4,309.4c0,0-39.7,24.4-38.8,63.5c0,0-15.9,20.9-3.9,30c0,0-27.1-4.3-13.8-44.1
		C197.9,358.8,213.2,303.4,254.4,309.4z"/>
	<path id="XMLID_69_" class="st12" d="M211.8,381.1c0,0,8-7.5,30.1-1.1c22.1,6.3,25.6-2.5,25.6-2.5l-0.5-5.4h-10.2
		c0,0-10.5-3.3-12.6-2.4c-2.1,0.8-11.6-0.7-11.6-0.7S211.3,366.8,211.8,381.1z"/>
	<g id="XMLID_27_">
		<path id="XMLID_221_" class="st9" d="M278.8,387.8c-0.6,0-0.9,0-1,0c-1.3-0.1-2.2-1.3-2.1-2.6c0.1-1.3,1.3-2.2,2.5-2.1
			c0.5,0,12,0.8,19.4-13c0.7-1.4,1.4-2.6,2.1-3.8c6.5-11.9,7.2-13.9,3.6-17c-2.6-2.2-6.6-3.3-10.5-2.7c-3,0.5-7.2,2.1-10.3,7.1
			l-1.5,2.4l-2.1-1.8c-1-0.8-4.1-2.9-6.8-2.2c-2,0.5-3.7,2.5-5,6c-3,8.1-2,10.4-1.8,10.7c1.1,0.2,2,1.1,2,2.3c0,1.3-1,2.3-2.3,2.4
			c-1,0-2.5-0.5-3.5-2c-1.9-2.7-1.5-7.7,1.3-15c1.9-5,4.7-8,8.3-8.9c3.5-0.9,6.8,0.5,8.9,1.8c3.1-4,7.4-6.5,12.2-7.3
			c5.2-0.8,10.7,0.6,14.3,3.7c6.7,5.8,3.8,11.1-2.5,22.8c-0.6,1.2-1.3,2.4-2.1,3.8C294,386.7,282.3,387.8,278.8,387.8z"/>
	</g>
	<g id="XMLID_26_">
		<path id="XMLID_218_" class="st9" d="M223.3,407.5c-4.6,0-7.6-0.5-8.4-0.7c-1.7-0.1-11.9-1-18.2-10.1c-6.6-9.7-6.3-24.8,1.1-45
			c10-27.3,25-37.9,35.7-41.9c11.3-4.2,20.3-2.4,21.5-2.2c1.7,0.3,4.9,1.7,6.5,5.3c3,6.8-0.9,18.1-11.5,33.7l-13.2,20.2
			c1,0.1,2,0.3,3,0.4c13,2,19.5,1.8,22.5,1.2c1.5-0.3,3,0.1,4.2,1c1.3,0.9,2.1,2.4,2.3,4c0.6,5.1,3.9,8.3,9.7,9.7l5,1.2l-4.2,3
			C254.8,404.6,234.3,407.5,223.3,407.5z M248.3,311.7c-10.4,0-32.5,4.7-46.1,41.7c-6.7,18.4-7.3,32.4-1.7,40.7
			c5.3,7.8,14.5,8.1,14.6,8.1l0.5,0.1c0.2,0.1,24.7,5.1,57.2-16.1c-6.5-3.2-8.2-8.7-8.6-12.1c0-0.3-0.2-0.6-0.4-0.8
			c-0.2-0.1-0.4-0.2-0.6-0.1c-5,0.9-13.1,0.5-24.1-1.2c-2.4-0.4-4.5-0.6-6.4-0.7c-0.1,0-0.2,0-0.3,0c-8.7-0.5-13.1,1.5-15.2,3.5
			c-2.6,2.4-2.5,5.1-2.5,5.2c0.1,1.3-0.9,2.4-2.2,2.5c-1.3,0.1-2.4-0.9-2.5-2.2c0-0.2-0.3-5,4-8.9c3.7-3.4,9.6-5,17.4-4.8l14.7-22.4
			c12.7-18.6,12.4-26.3,11.1-29.2c-1-2.2-3-2.6-3-2.6l-0.2,0C253.7,312.2,251.6,311.7,248.3,311.7z"/>
	</g>
</g>
<g id="Head">
	<polygon id="XMLID_112_" class="st13" points="219.5,284.9 211.7,284.9 206.1,282.3 201,276.7 198.8,268.3 201.2,261.6 
		207.8,256.6 215.5,256.6 	"/>
	<path id="XMLID_79_" class="st14" d="M238.3,190.7l-28.5,2.1l-14.6,5.1l-9.5,6.2l-4.1,19.2l1.7,12.1l9.1,13.6l17.6,7.7h5.5l4,20.1
		l7.9-1.6l6.3-4.4l4.6-12.1v-17.9l2-12.5l8.4-9.5l10.5-2.7l13.7-1.2l25.1,1.5l34.5,0l26.1-5.2l13.1-5.7l6.7-7.4l3.3-17.6v-11.4
		l-6.4-7.9l-2.9-2.2l-8.6-2.5l-2.8-13.6l-10.5-13.2l-7.2-2.6h-9.4L313.4,137l-11.7,13.1l-3.6-5.5l-6-5.8l-10.3-1.3l-8.9,2.5
		l-5.1,4.9l-2.4,5.3l-1.2,8.7l0.7,13.8l-1.3,10.1l-6.3,8.1c0,0-9.6,1.7-10.6,1.7C245.8,192.3,238.3,190.7,238.3,190.7z"/>
	<polygon id="XMLID_73_" class="st13" points="220.1,279.9 226.8,311.3 239,321.1 248.7,321.3 256.7,321.1 256.7,325.8 281.8,320.9 
		340.9,309.1 365.1,302.9 373,299.9 380.6,291.4 383.9,280.3 380,265.6 366.6,208.5 349.2,214.1 332.6,216.3 298.1,216.2 
		276.3,214.4 259.3,215.9 256.7,216.5 248.7,218.6 241.2,226.4 238.3,231.6 237.6,244.8 238.3,251.5 238.3,261 235.4,269.5 
		227.4,275.1 219.5,276.6 	"/>
	<path id="XMLID_72_" class="st15" d="M381,270.8c0,0-6.3,21.1-18.5,23.3c-12.1,2.2-99.2,20.7-99.2,20.7s-30,6.2-37.9-8.1
		c0,0-0.7,31,46.2,16.1l45.5-9l36.9-6.5l16.5-4.4l7.5-5.7l4.5-12.1v-10.2L381,270.8z"/>
	<path id="XMLID_68_" class="st15" d="M222.3,284.9c0,0,28,2.9,23.2-33.8c-4.9-36.7,18.4-35.6,18.4-35.6l-11.5,2.5l-9.3,4.5
		l-3.9,7.6l-0.8,10.6l-0.5,13.8l-0.1,8.8l-6.2,9.3l-7.9,3.8l-4.1,0.3L222.3,284.9z"/>
	<path id="XMLID_67_" class="st15" d="M371.9,215.5c0,0-27.3,15.2-79.8,8.3s-30.8-8-39.7-5.8l14.5-3.9l34.8,3.6l35.4-1.8l29.5-7.4
		h2.5L371.9,215.5z"/>
	<path id="XMLID_66_" class="st16" d="M316.5,262.3c0,0-6.7-5.7-9.9-17.5c0,0-2.7,13.7,4.2,26l3.6-1.3L316.5,262.3z"/>
	
		<ellipse id="XMLID_65_" transform="matrix(0.9893 -0.1459 0.1459 0.9893 -33.9618 52.5001)" class="st16" cx="340.9" cy="257.8" rx="10" ry="5.5"/>
	
		<ellipse id="XMLID_64_" transform="matrix(0.9893 -0.1459 0.1459 0.9893 -36.5118 41.1589)" class="st16" cx="262.3" cy="269.5" rx="10" ry="5.5"/>
	<path id="XMLID_63_" class="st17" d="M217.1,268.1c0,0,14.6,1.4,12.1-16s0.9-24.9,21.5-33.3l-9.5,7.6l-3.9,11.5l0.4,9.7l0.6,11
		l-3.7,9.7l-9.2,8.3l-6,1.2L217.1,268.1z"/>
	<path id="XMLID_62_" class="st17" d="M250.8,218.8c0,0,5.8-12.9,34.8-10.3c29,2.6,88.2-3.1,95.6-25.1l0.6,9.2l-3.8,9.2l-8.8,6.8
		l-18.2,5.6l-25.6,3.8l-33.1-2l-26.3-1.1L250.8,218.8z"/>
	<path id="XMLID_61_" class="st18" d="M313.4,137c0,0,39.3-21.3,50.4,19.3l-1-7.8l-7.2-14.9l-8.4-5.5l-10.1-1.1h-8.6L313.4,137z"/>
	<path id="XMLID_60_" class="st18" d="M290.5,138.5c0,0-26.5,2.4-19.4,25.3s-20.4,28-20.4,28l8.5-5.8l4.6-5.1v-12v-12.6l3.4-10.2
		l5.7-6.1l6.6-3L290.5,138.5z"/>
	<g id="XMLID_38_">
		<path id="XMLID_222_" class="st9" d="M220.4,279c-0.7,0-1.2-0.1-1.3-0.1c-1.3-0.2-2.2-1.3-2-2.6c0.2-1.3,1.3-2.2,2.6-2
			c0.3,0,5.6,0.5,10-3.8c4.8-4.8,6.7-14,5.4-26.5c-1-9.3,1.4-16.7,7-22.2c13.3-12.9,40-9.4,41.2-9.3c0.2,0,22.9,2.9,46.1,1.6
			c20.7-1.2,46-6.1,48.9-22.6c2.3-12.9,1-22.5-3.7-28c-4.5-5.2-10.6-5-10.7-5l-2.4,0.1l0-2.4c0-0.2-0.4-16.7-10.5-23.8
			c-5.6-4-13.3-4.4-22.8-1.3c-0.1,0-14.9,5.2-22.7,18.2c-0.9,1.4-2.5,2.2-4.1,2.1c-1.6-0.1-3-1.2-3.6-2.7c-1.7-4.4-5.8-9.6-15.6-9
			c-5.1,0.3-9,2.1-11.5,5.4c-5.7,7.3-3.5,19.7-3.5,19.8c0.1,0.7,2.1,14.8-5.2,23.3c-3.6,4.1-8.6,6.1-15,6.1c-2.9,0-5.8-0.1-8.9-0.2
			c-21.9-0.6-44.5-1.1-51.6,18.3c-3.9,10.8-2.8,21.6,3.2,29.9c5.8,8,15.2,12.3,25.9,11.9c1.3,0,2.4,1,2.4,2.3c0,1.3-1,2.4-2.3,2.4
			c-12.3,0.4-23.2-4.6-29.9-13.8c-6.9-9.5-8.3-22-3.8-34.3c8.3-22.6,33.7-21.9,56.2-21.4c3.1,0.1,5.9,0.2,8.8,0.2
			c4.9,0,8.8-1.5,11.4-4.5c5.9-6.8,4.2-19.3,4.2-19.4c-0.1-0.5-2.6-14.5,4.4-23.5c3.4-4.4,8.4-6.8,14.9-7.2
			c12.7-0.7,17.9,6.4,20,11.3c8.8-14,24.2-19.4,24.9-19.6c11.1-3.6,20.2-3,27,1.9c9.7,6.9,11.8,20.2,12.3,25.4
			c2.9,0.4,8,1.7,12.1,6.4c5.8,6.6,7.4,17.4,4.8,31.9c-6.6,36.7-96.4,25.3-100.2,24.8c-0.3,0-25.7-3.3-37.3,8
			c-4.5,4.4-6.4,10.5-5.6,18.3c1.5,14.3-0.8,24.5-6.8,30.4C228.3,278.5,222.9,279,220.4,279z"/>
	</g>
	<g id="XMLID_25_">
		<path id="XMLID_232_" class="st9" d="M248.4,329c-17.6,0-22.1-12.6-22.8-14.9c-1.2-2.2-2-4.7-2.5-7.2l-9.9-50
			c-0.3-1.3,0.6-2.5,1.8-2.8c1.3-0.3,2.5,0.6,2.8,1.8l9.9,50c0.4,2.1,1.1,4.2,2.1,6.1l0.1,0.3l0.1,0.3c0.1,0.6,3.9,15.2,26.3,10.7
			l105.6-20.9c5.9-1.2,11-4.6,14.4-9.6c3.4-5,4.6-11.1,3.4-17l-11.9-60.2c-0.2-0.8-0.2-1.4-0.3-1.9c-0.2-1.1-0.2-1.3-0.9-2.6
			c-0.6-1.1-0.2-2.6,0.9-3.2c1.1-0.6,2.6-0.2,3.2,0.9c1.1,1.9,1.2,2.8,1.4,4.2c0.1,0.4,0.1,1,0.3,1.6l11.9,60.2
			c1.4,7.2,0,14.4-4.1,20.5c-4.1,6.1-10.2,10.2-17.4,11.6l-105.6,20.9C254,328.8,251,329,248.4,329z"/>
	</g>
	<g id="XMLID_10_">
		<path id="XMLID_225_" class="st9" d="M199.8,243.7c-0.4,0-0.8-0.2-1.1-0.5c-14.2-15.8-5.4-29.8-5.3-29.9c0.4-0.7,1.4-0.9,2.1-0.4
			c0.7,0.4,0.9,1.4,0.4,2l0,0c-0.3,0.5-7.6,12.3,5.1,26.3c0.5,0.6,0.5,1.5-0.1,2.1C200.5,243.6,200.2,243.7,199.8,243.7z"/>
	</g>
	<g id="XMLID_9_">
		<path id="XMLID_224_" class="st9" d="M211.3,249.1c-5.3,0-8.2-3.1-8.4-3.3c-0.6-0.6-0.5-1.5,0.1-2.1c0.6-0.6,1.5-0.5,2.1,0.1
			c0.1,0.1,3,3.1,8.2,2.1c0.8-0.1,1.6,0.4,1.7,1.2c0.1,0.8-0.4,1.6-1.2,1.7C213,249,212.1,249.1,211.3,249.1z"/>
	</g>
	<g id="XMLID_8_">
		<path id="XMLID_223_" class="st9" d="M273.1,158.9c-0.7,0-1.4-0.6-1.5-1.3c-1.3-11.5,7.7-13,7.8-13c0.8-0.1,1.6,0.4,1.7,1.2
			c0.1,0.8-0.4,1.6-1.2,1.7c-0.6,0.1-6.2,1.3-5.3,9.7c0.1,0.8-0.5,1.5-1.3,1.6C273.2,158.9,273.2,158.9,273.1,158.9z"/>
	</g>
	<g id="XMLID_7_">
		<path id="XMLID_227_" class="st9" d="M313.4,151.6c-0.3,0-0.5-0.1-0.8-0.2c-0.7-0.4-0.9-1.4-0.5-2c0.4-0.6,9-13.9,24.8-15.6
			c0.8-0.1,1.5,0.5,1.6,1.3c0.1,0.8-0.5,1.5-1.3,1.6c-14.4,1.5-22.5,14.1-22.6,14.3C314.4,151.3,313.9,151.6,313.4,151.6z"/>
	</g>
	<g id="XMLID_6_">
		<path id="XMLID_226_" class="st9" d="M349.3,140.2c-0.6,0-1.1-0.3-1.3-0.9c-1.6-3.5-6.7-2.7-6.8-2.7c-0.8,0.1-1.6-0.4-1.7-1.2
			c-0.1-0.8,0.4-1.6,1.2-1.7c0.3,0,7.4-1.1,9.9,4.4c0.3,0.7,0,1.6-0.7,2C349.7,140.1,349.5,140.2,349.3,140.2z"/>
	</g>
	<g id="XMLID_2_">
		<path id="XMLID_230_" class="st9" d="M217.2,287.5c-7.1,0-17.1-2.8-19.7-13.6c-1.2-5.1-0.7-9.6,1.5-13.2c3.3-5.3,9-6.7,9.3-6.8
			c1.3-0.3,2.5,0.5,2.8,1.7c0.3,1.3-0.5,2.5-1.7,2.8c-1,0.3-10,2.8-7.3,14.3c2.9,12,17.4,9.9,18,9.8c1.3-0.2,2.5,0.7,2.7,2
			c0.2,1.3-0.7,2.5-2,2.7C219.8,287.4,218.5,287.5,217.2,287.5z"/>
	</g>
	<g id="XMLID_3_">
		<path id="XMLID_229_" class="st9" d="M209.8,271c-0.7,0-1.3-0.5-1.5-1.2c-0.4-2.2-0.1-4.1,1-5.7c2.2-3.2,6.6-3.8,6.8-3.9
			c0.8-0.1,1.6,0.4,1.7,1.2c0.1,0.8-0.4,1.6-1.2,1.7c-0.1,0-3.4,0.6-4.8,2.7c-0.7,0.9-0.8,2.1-0.6,3.4c0.2,0.8-0.4,1.6-1.2,1.7
			C210,271,209.9,271,209.8,271z"/>
	</g>
</g>
<g id="Face">
	<g id="XMLID_186_">
		<g id="XMLID_23_">
			<path id="XMLID_239_" class="st9" d="M270.8,261c-3.2,0-6.5-1.3-9.2-3.8c-3.3-2.9-5.6-7.1-6.5-11.9c-0.2-1.3,0.6-2.5,1.9-2.7
				c1.3-0.2,2.5,0.6,2.7,1.9c0.7,3.8,2.5,7,5,9.3c2.3,2.1,5,2.9,7.6,2.4c5.5-1.1,8.8-8.1,7.3-15.6c-0.2-1.3,0.6-2.5,1.9-2.7
				c1.3-0.2,2.5,0.6,2.7,1.9c2,10.1-3,19.5-11,21.1C272.4,260.9,271.6,261,270.8,261z"/>
		</g>
		<g id="XMLID_22_">
			<path id="XMLID_238_" class="st9" d="M329.5,249.6c-3.2,0-6.5-1.3-9.2-3.8c-3.3-2.9-5.6-7.1-6.5-11.9c-0.2-1.3,0.6-2.5,1.9-2.7
				c1.3-0.2,2.5,0.6,2.7,1.9c0.7,3.8,2.5,7,5,9.3c2.3,2.1,5,2.9,7.6,2.4c5.5-1.1,8.8-8.1,7.3-15.6c-0.2-1.3,0.6-2.5,1.9-2.7
				c1.3-0.2,2.5,0.6,2.7,1.9c2,10.1-3,19.5-11,21.1C331,249.5,330.3,249.6,329.5,249.6z"/>
		</g>
	</g>
	<g id="XMLID_21_">
		<path id="XMLID_237_" class="st9" d="M306.4,275.7c-5.1,0-9.6-3.6-10.6-8.7c-0.2-1.3,0.6-2.5,1.9-2.7c1.3-0.2,2.5,0.6,2.7,1.9
			c0.6,3.3,3.9,5.5,7.3,4.8c3.4-0.7,5.6-3.9,4.9-7.2c-0.2-1.3,0.6-2.5,1.9-2.7c1.3-0.2,2.5,0.6,2.7,1.9c1.1,5.8-2.7,11.5-8.6,12.7
			C307.8,275.6,307.1,275.7,306.4,275.7z"/>
	</g>
	<g id="XMLID_20_">
		<path id="XMLID_236_" class="st9" d="M300.4,291.9c-22.5,0-32-12-32.4-12.6c-0.8-1-0.6-2.5,0.4-3.3c1-0.8,2.5-0.6,3.3,0.4
			c0.5,0.6,12.3,15.3,42.3,9.4c1.3-0.2,2.5,0.6,2.8,1.8c0.3,1.3-0.6,2.5-1.8,2.8C309.5,291.5,304.7,291.9,300.4,291.9z"/>
	</g>
	<g id="XMLID_19_">
		<path id="XMLID_235_" class="st9" d="M250.1,236.3c-0.5,0-1.1,0-1.5-0.1c-1.3-0.1-2.2-1.2-2.1-2.5c0.1-1.3,1.2-2.3,2.5-2.1l0,0
			c0.6,0,14.1,0.9,18.7-11.8c0.4-1.2,1.8-1.9,3-1.4c1.2,0.4,1.9,1.8,1.4,3C267.7,233.3,256.6,236.3,250.1,236.3z"/>
	</g>
</g>
<g id="Textile">
	<g id="XMLID_197_">
		<polygon id="XMLID_5_" class="st19" points="397.5,448.5 358.6,448.5 292.1,448.5 276,448.5 250.8,448.5 220.5,448.5 178.6,448.5 
			178.6,453.6 178.6,586.4 198,570.3 214.9,587.5 234.4,570.3 251.9,587.5 267.6,575.6 285.5,586.4 293,580 298.1,575.6 
			314.2,587.5 330.2,575.6 345.9,587.5 363.5,570.3 382.9,587.5 399.8,570.3 419.3,586.4 419.3,448.5 		"/>
	</g>
	<g id="XMLID_50_">
		<polygon id="XMLID_94_" class="st20" points="178.6,453.6 193,572 178.6,586.4 		"/>
		<polygon id="XMLID_93_" class="st20" points="198.5,567.6 219.5,581.8 214.9,587.5 		"/>
		<polygon id="XMLID_92_" class="st20" points="235.4,567.6 256.3,581.8 251.7,587.5 		"/>
		<polygon id="XMLID_87_" class="st20" points="419.3,453.6 404.9,572 419.3,586.4 		"/>
		<polygon id="XMLID_86_" class="st20" points="399.3,567.6 378.4,581.8 382.9,587.5 		"/>
		<polygon id="XMLID_85_" class="st20" points="362.5,567.6 341.5,581.8 346.1,587.5 		"/>
		<polygon id="XMLID_91_" class="st21" points="178.6,522.8 178.6,539.8 418.3,539.8 419.3,529.9 419.3,522.8 372.2,522.8 		"/>
		<rect id="XMLID_90_" x="178.6" y="522.8" class="st22" width="239.8" height="7.1"/>
		<path id="XMLID_204_" class="st9" d="M419.3,446.2H176.2v145.2l21.6-17.9l16.9,17.2l19.5-17.2l17.5,17.1l16-12.6l17.9,11.4
			l12.5-10.7l16,11.8l15.9-12.3l15.9,12.5l17.5-17.1l19.5,17.2l16.9-17.2l21.6,17.9V448.5C421.6,447.3,420.6,446.2,419.3,446.2z
			 M387.4,536.5h-33.2H180.9v-5.1h175h6.5h54.5v5.1H387.4z M355.6,525.2h13.5h47.8v3.3h-54.5h-6.5h-175v-3.3H355.6z M416.9,450.9
			v69.6h-47.8h-13.5H180.9v-69.6H416.9z M399.7,567.1l-16.9,17.1l-19.5-17.1l-17.6,17.2l-14.1-11.1c0,0-0.1-0.1-0.1-0.1
			c-0.1,0-0.1-0.1-0.2-0.1c-0.1,0-0.1-0.1-0.2-0.1c-0.1,0-0.1-0.1-0.2-0.1c-0.1,0-0.2,0-0.2-0.1c-0.1,0-0.1,0-0.2,0
			c-0.1,0-0.2,0-0.2,0c-0.1,0-0.1,0-0.2,0c-0.1,0-0.2,0-0.2,0c-0.1,0-0.1,0-0.2,0c-0.1,0-0.2,0.1-0.2,0.1c-0.1,0-0.1,0-0.2,0.1
			c-0.1,0-0.2,0.1-0.2,0.1c0,0-0.1,0-0.1,0.1l-14.6,11.3L298,572.6l-12.7,10.9l-17.8-11.3l-15.4,12.1l-17.6-17.2L215,584.2
			l-16.9-17.1l-17.2,14.3v-40.2h173.4h33.2h29.5v40.2L399.7,567.1z"/>
	</g>
</g>
<g id="Trophy">
	<path id="XMLID_109_" class="st23" d="M323.9,411.5H203.3h-24l-6.7,0.1l-3.9,1.9l-2.8,7.8l6.7,6.6l2.7,7.2l4,16.8l15,27.3
		l15.4,19.8l14.2,12.5l19.2,11.2l-0.1,10.5l3.6,8.4l9.8,6.9l3.9,2l-0.9,7.6l1.2,6.6l6.6,9.3l15.5,6.9l3.9,2.2v6.8l-5.1,4.9
		l-11.6,3.2l-12.9,3.2l-13.8,5l-14.9,7.5l-12.2,12.2l-5.6,10.9l-2.8,9.5l-11.2,1.3l-2.6,5.3l2.7,5.3h205.5l5.2-5.3l-3.2-5.5l-6.2-1
		l-7.5-0.6l-2-11.2l-9.5-12.8l-14.6-11.7l-9.1-4.1l-14.6-5.7l-18.8-4.1l-6-2.9l-2.7-6l2.7-5.7l12.6-4.4l8.5-8.3l3.2-9.9l-1.5-9.1
		l7.1-2.5c0,0,6.3-4.7,6.6-5.2c0.4-0.5,4.2-9,4.2-9v-10.6l11-5.7l20.2-15.8l14.4-17.5l15.3-28.2l8.5-27.5l5.6-2.6l2.2-4.5l0-7.5
		l-4.9-2.1h-45.3H323.9z"/>
	<polygon id="XMLID_108_" class="st24" points="370.5,456.7 363.3,463.1 360.4,473.8 362.1,481.8 365.4,484.2 370.5,483.8 
		376.2,477.2 379.9,469.7 379.9,460 376.2,456 	"/>
	<polygon id="XMLID_107_" class="st24" points="292.4,451 280.3,457.3 273.6,465 266,479.2 265.1,502.6 270.1,518 283,533.3 
		283.2,548.9 290.8,559.8 301.6,561.3 310.1,558.1 313.5,547.5 315.7,532.7 327.7,518 333.1,499.2 333.1,480.1 324.6,465.2 
		313.3,455.6 303.8,450.7 	"/>
	<path id="XMLID_106_" class="st25" d="M294.9,412c0,0-69.2,0-73.3,0c-4.1,0-46.3,0-46.3,0l-7.4,1.6l-2.8,6.2l3.3,6.7l3.4,1.5h252.5
		l6.2-2.5l2.2-4.5l-2.2-7l-2.7-2.6L294.9,412z"/>
	<polygon id="XMLID_105_" class="st25" points="326.2,646.6 215.8,646.6 197.5,646.6 193,653.1 197.2,659.3 399.8,659.3 
		404.6,654.9 404.6,650.2 398.6,646.9 	"/>
	<path id="XMLID_104_" class="st25" d="M314.9,593.5c0,0,36,17.9,40.7,53h33.8l-2-11.8l-7.6-12l-14.6-11.4l-13.2-6l-19-6.2
		L314.9,593.5z"/>
	<path id="XMLID_103_" class="st25" d="M314.9,581.8c0,0-4.2-6.3,6-14.1c10.2-7.8,15.5-11.5,16.9-17.5l2.4,11.2l-6.5,10.9l-6.2,5.2
		L314.9,581.8z"/>
	<path id="XMLID_102_" class="st25" d="M337.8,550.1c0,0-3.1-6.1,7.4-16.7c10.5-10.6,10.5-12.1,10.5-12.1V535l-1.3,3.9l-3.7,7.1
		L337.8,550.1z"/>
	<path id="XMLID_101_" class="st25" d="M354.3,521.3c0,0,26.7-42,20.4-93.3h49.6l-2,16.8l-9.8,20l-11.4,21.4l-14.4,15.1l-20.2,15.8
		L354.3,521.3z"/>
	<path id="XMLID_100_" class="st26" d="M223.6,428.1c0,0-17.1,46.5,18.7,94.7l-16.2-9l-20.4-18.8L193,475.5l-10.7-16.7l-9.3-27.8
		l1.7-3L223.6,428.1z"/>
	<polygon id="XMLID_99_" class="st24" points="225.1,455.6 221.9,455.8 219.5,457.4 217.3,464.3 218.5,471.9 223.1,479.6 
		227.4,483.1 232.2,483.8 235.7,481.8 237.5,474.5 235.8,466.5 230.9,458.7 	"/>
	<path id="XMLID_98_" class="st26" d="M267.6,646.5c0,0-14.7-16.7,2.2-32.7c16.9-16,15.9-23.8,15.9-23.8l-7.7,5.7l-18.9,4.9
		l-13.2,5.5l-11.1,4.1l-5.4,3.7l-8.7,6.2l-5.4,6.1l-4.8,9.3l-3.6,11.1H267.6z"/>
	<path id="XMLID_97_" class="st26" d="M250.2,646.6c0,0-7.7,6.2,0,13.1l-54.6-1.2l-2.7-5.3l2.6-5.3l7.8-1.7L250.2,646.6z"/>
	<path id="XMLID_96_" class="st26" d="M213.6,428.1c0,0-8.2-5.1,1-16.1l-20.8-0.6l-22,0.3l-3.9,1.9l-2.8,6.2l6.7,8.2h16.3
		L213.6,428.1z"/>
	<path id="XMLID_78_" class="st26" d="M243,521.3c0,0,8.3,24.3,16.1,26.2H253l-8.1-5.3l-2-9L243,521.3z"/>
	<path id="XMLID_77_" class="st26" d="M260.3,550.6c0,0,10.2,23.4,25.5,30.9l-13-4l-8-4.9l-4.2-7.9l-1.6-9L260.3,550.6z"/>
	<path id="XMLID_76_" class="st27" d="M298.7,450.2c0,0-39.3,42.4-3.2,77.8c0,0-4.8,8.4-2.8,19.6c0.8,4.3,2.6,8.9,6,13.7l-7.9-1.5
		l-5.1-7.9l-2.6-17l-4.3-5L267.6,514l-2.9-22.3l2.9-17.1l8.4-12.4l9.7-7.8L298.7,450.2z"/>
	<path id="XMLID_75_" class="st27" d="M221.9,455.8c0,0-1.2,21,13.8,26.1l-3.5,2l-6.7-2l-6-6.3l-1.7-6.8l-0.5-6.8l2.2-4.4
		L221.9,455.8z"/>
	<path id="XMLID_74_" class="st27" d="M376.2,456c0,0-16,14.8-8,28l-4.4-0.2l-3.4-4.4v-9.3l2.9-7l7.2-7.5L376.2,456z"/>
	<g id="XMLID_233_">
		<g id="XMLID_59_">
			<path id="XMLID_165_" class="st9" d="M424.6,430.5H173.2c-5.8,0-10.4-4.8-10.4-10.6s4.7-10.6,10.4-10.6h251.4
				c5.8,0,10.4,4.8,10.4,10.6S430.4,430.5,424.6,430.5z M173.2,413.9c-3.2,0-5.8,2.7-5.8,5.9c0,3.3,2.6,5.9,5.8,5.9h251.4
				c3.2,0,5.8-2.7,5.8-5.9c0-3.3-2.6-5.9-5.8-5.9H173.2z"/>
		</g>
	</g>
	<g id="XMLID_231_">
		<g id="XMLID_58_">
			<path id="XMLID_187_" class="st9" d="M398.4,662h-199c-4.8,0-8.8-4-8.8-8.9s3.9-8.9,8.8-8.9h199c4.8,0,8.8,4,8.8,8.9
				S403.3,662,398.4,662z M199.4,648.9c-2.2,0-4.1,1.9-4.1,4.2c0,2.3,1.8,4.2,4.1,4.2h199c2.2,0,4.1-1.9,4.1-4.2
				c0-2.3-1.8-4.2-4.1-4.2H199.4z"/>
		</g>
	</g>
	<g id="XMLID_228_">
		<g id="XMLID_57_">
			<path id="XMLID_177_" class="st9" d="M208.2,645.4c-0.1,0-0.2,0-0.3,0c-1.3-0.2-2.2-1.3-2-2.6c4.3-32.4,46.4-43.8,64.3-47.2
				c11.3-2.2,13.2-4.3,13.2-8.4c0-3.1-2.1-4.1-7.7-6c-5.2-1.8-11.7-4-15.8-10.8c-4.9-8.1-3.9-14.3-2.2-18c0.1-0.1,0-0.3,0-0.4
				c0-0.1-0.2-0.3-0.4-0.4c-16.4-4.2-18.6-18.7-17.4-27.3c-29.3-13.6-46.5-38.5-55.7-57.2c-10.2-20.6-13.2-37.8-13.3-38.5
				c-0.2-1.3,0.6-2.5,1.9-2.7c1.3-0.2,2.5,0.6,2.7,1.9c0.1,0.7,12.4,68.4,68,92.9l1.8,0.8l-0.4,1.9c-0.2,0.8-4,19.2,13.7,23.6
				c1.5,0.4,2.8,1.4,3.5,2.8c0.7,1.4,0.7,3,0.1,4.3c-1.2,2.7-1.9,7.3,2,13.7c3.2,5.3,8.6,7.1,13.3,8.8c5.4,1.8,10.9,3.7,10.9,10.5
				c0,9-8.1,11.3-17,13c-16.9,3.2-56.6,13.9-60.5,43.2C210.4,644.6,209.4,645.4,208.2,645.4z"/>
		</g>
		<g id="XMLID_56_">
			<path id="XMLID_176_" class="st9" d="M389.6,645.4c-1.2,0-2.2-0.9-2.3-2c-3.9-29.3-43.6-40-60.5-43.2c-9-1.7-17-4-17-13
				c0-6.7,5.5-8.6,10.9-10.5c4.7-1.6,10.1-3.5,13.3-8.8c3.8-6.4,3.2-11,2-13.7c-0.6-1.4-0.6-3,0.1-4.3c0.7-1.4,2-2.5,3.5-2.8
				c17.6-4.5,13.8-22.9,13.7-23.6l-0.4-1.9l1.8-0.8c55.7-24.5,67.9-92.3,68-92.9c0.2-1.3,1.4-2.1,2.7-1.9c1.3,0.2,2.1,1.4,1.9,2.7
				c-0.1,0.7-3.1,17.9-13.3,38.5c-9.3,18.7-26.4,43.6-55.7,57.2c1.2,8.6-1,23.2-17.4,27.3c-0.3,0.1-0.4,0.3-0.4,0.4
				c-0.1,0.1-0.1,0.3,0,0.4c1.7,3.7,2.6,9.9-2.2,18c-4.1,6.8-10.6,9-15.8,10.8c-5.6,1.9-7.7,2.9-7.7,6c0,4.1,1.9,6.3,13.2,8.4
				c17.9,3.4,60,14.8,64.3,47.2c0.2,1.3-0.7,2.5-2,2.6C389.8,645.4,389.7,645.4,389.6,645.4z"/>
		</g>
	</g>
	<g id="XMLID_210_">
		<g id="XMLID_214_">
			<g id="XMLID_47_">
				<path id="XMLID_185_" class="st9" d="M298.7,564.1c-4.4,0-8.2-1.6-11.1-4.7c-8-8.5-7-25.6-6.9-26.3c0.1-1.3,1.2-2.3,2.5-2.2
					c1.3,0.1,2.3,1.2,2.2,2.5c0,0.2-0.9,15.8,5.7,22.8c2,2.2,4.5,3.2,7.7,3.2c1.3,0,2.3,1,2.3,2.3S300,564.1,298.7,564.1z"/>
			</g>
			<g id="XMLID_46_">
				<path id="XMLID_184_" class="st9" d="M283,535.6c-0.5,0-0.9-0.1-1.3-0.4c-11.9-8.1-19.3-23.8-19.3-41
					c0-25.6,16.4-46.5,36.6-46.5c1.3,0,2.3,1,2.3,2.3s-1,2.3-2.3,2.3c-17.6,0-31.9,18.7-31.9,41.8c0,15.6,6.6,29.9,17.3,37.1
					c1.1,0.7,1.3,2.2,0.6,3.3C284.5,535.3,283.8,535.6,283,535.6z"/>
			</g>
		</g>
		<g id="XMLID_211_">
			<g id="XMLID_45_">
				<path id="XMLID_183_" class="st9" d="M299.1,564.1c-1.3,0-2.3-1-2.3-2.3s1-2.3,2.3-2.3c3.1,0,5.6-1.1,7.7-3.2
					c6.6-7,5.7-22.6,5.7-22.8c-0.1-1.3,0.9-2.4,2.2-2.5c1.3-0.1,2.4,0.9,2.5,2.2c0,0.7,1,17.8-6.9,26.3
					C307.3,562.6,303.6,564.1,299.1,564.1z"/>
			</g>
			<g id="XMLID_44_">
				<path id="XMLID_182_" class="st9" d="M314.8,535.6c-0.8,0-1.5-0.4-1.9-1c-0.7-1.1-0.4-2.5,0.6-3.3c10.7-7.2,17.3-21.5,17.3-37.1
					c0-23-14.3-41.8-31.9-41.8c-1.3,0-2.3-1-2.3-2.3s1-2.3,2.3-2.3c20.2,0,36.6,20.8,36.6,46.5c0,17.2-7.4,32.9-19.3,41
					C315.7,535.5,315.3,535.6,314.8,535.6z"/>
			</g>
		</g>
	</g>
	<g id="XMLID_207_">
		<g id="XMLID_43_">
			<path id="XMLID_173_" class="st9" d="M231.2,485.7c-2,0-4.1-0.8-6.2-2.3c-2.9-2.1-5.4-5.4-7.1-9.4c-1.7-3.9-2.4-8.1-2-11.6
				c0.5-3.8,2.2-6.6,4.8-7.7c2.7-1.2,5.8-0.5,9,1.7c2.9,2.1,5.4,5.4,7.1,9.4c1.7,3.9,2.4,8.1,2,11.6c-0.5,3.8-2.2,6.6-4.8,7.7
				C233.1,485.5,232.2,485.7,231.2,485.7z M223.5,457.1c-0.6,0-1.1,0.1-1.6,0.3c-1.7,0.7-2.8,2.6-3.1,5.4c-0.4,3,0.3,6.6,1.8,10.1
				c1.5,3.5,3.7,6.4,6.1,8.2c2.2,1.6,4.4,2.1,6,1.4c1.7-0.7,2.8-2.6,3.1-5.4c0.4-3-0.3-6.6-1.8-10.1c-1.5-3.5-3.7-6.4-6.1-8.2
				C226.4,457.7,224.9,457.1,223.5,457.1z"/>
		</g>
		<g id="XMLID_42_">
			<path id="XMLID_170_" class="st9" d="M366.6,485.7c-1,0-1.9-0.2-2.8-0.6c-2.7-1.2-4.4-3.9-4.8-7.7c-0.4-3.5,0.3-7.7,2-11.6
				c1.7-3.9,4.2-7.3,7.1-9.4c3.1-2.3,6.3-2.9,9-1.7s4.4,3.9,4.8,7.7c0.4,3.5-0.3,7.7-2,11.6c-1.7,3.9-4.2,7.3-7.1,9.4
				C370.7,484.9,368.6,485.7,366.6,485.7z M374.3,457.1c-1.3,0-2.9,0.6-4.4,1.7c-2.5,1.8-4.6,4.7-6.1,8.2c-1.5,3.5-2.1,7-1.8,10.1
				c0.3,2.7,1.4,4.6,3.1,5.4c1.7,0.7,3.8,0.2,6-1.4c2.5-1.8,4.6-4.7,6.1-8.2c1.5-3.5,2.1-7,1.8-10.1c-0.3-2.7-1.4-4.6-3.1-5.4
				C375.4,457.2,374.9,457.1,374.3,457.1z"/>
		</g>
	</g>
	<g id="XMLID_41_">
		<path id="XMLID_181_" class="st9" d="M299.1,525.2c-1.3,0-2.3-1-2.3-2.3V482l-9.3,11.2c-0.8,1-2.3,1.1-3.3,0.3s-1.1-2.3-0.3-3.3
			l17.6-21.2v53.8C301.5,524.1,300.4,525.2,299.1,525.2z"/>
	</g>
	<g id="XMLID_40_">
		<path id="XMLID_179_" class="st9" d="M223.5,639.8c-0.8,0-1.4-0.6-1.5-1.4c0-0.6-0.3-15,27.7-25.9c0.8-0.3,1.6,0.1,1.9,0.8
			s-0.1,1.6-0.8,1.9c-25.8,10-25.8,22.9-25.8,23C225,639.1,224.3,639.8,223.5,639.8C223.5,639.8,223.5,639.8,223.5,639.8z"/>
	</g>
	<g id="XMLID_39_">
		<path id="XMLID_169_" class="st9" d="M242.2,511.9c-0.2,0-0.5-0.1-0.7-0.2c-27.8-14-43.6-39.7-50.6-53.9c-0.4-0.7-0.1-1.6,0.7-2
			c0.7-0.4,1.6-0.1,2,0.7c6.8,13.8,22.2,38.9,49.2,52.5c0.7,0.4,1,1.3,0.7,2C243.3,511.6,242.8,511.9,242.2,511.9z"/>
	</g>
	<g id="XMLID_18_">
		<path id="XMLID_168_" class="st9" d="M189.9,453.5c-0.6,0-1.1-0.3-1.3-0.9c-2.1-4.6-3.5-10.5-3.5-10.8c-0.2-0.8,0.3-1.6,1.1-1.8
			c0.8-0.2,1.6,0.3,1.8,1.1c0,0.1,1.3,5.9,3.3,10.2c0.3,0.7,0,1.6-0.7,2C190.3,453.4,190.1,453.5,189.9,453.5z"/>
	</g>
	<g id="XMLID_17_">
		<path id="XMLID_180_" class="st9" d="M335.6,542.3c-0.7,0-1.3-0.4-1.4-1.1c-0.2-0.8,0.3-1.6,1.1-1.8l0,0
			c0.4-0.1,10.3-2.8,10.3-13.4c0-0.8,0.7-1.5,1.5-1.5s1.5,0.7,1.5,1.5c0,12.9-12.4,16.3-12.5,16.3
			C335.8,542.3,335.7,542.3,335.6,542.3z"/>
	</g>
	<g id="XMLID_16_">
		<path id="XMLID_178_" class="st9" d="M256,612.7c-0.6,0-1.2-0.4-1.4-1c-0.3-0.8,0.1-1.6,0.9-1.9l6.1-2.2c0.8-0.3,1.6,0.1,1.9,0.9
			c0.3,0.8-0.1,1.6-0.9,1.9l-6.1,2.2C256.4,612.7,256.2,612.7,256,612.7z"/>
	</g>
</g>
<g id="Ground">
	<g id="XMLID_49_">
		<path id="XMLID_194_" class="st9" d="M442.1,662H155.1c-1.3,0-2.3-1-2.3-2.3s1-2.3,2.3-2.3h286.9c1.3,0,2.3,1,2.3,2.3
			S443.4,662,442.1,662z"/>
	</g>
	<g id="XMLID_48_">
		<path id="XMLID_193_" class="st9" d="M127.2,662h-34c-1.3,0-2.4-1.1-2.4-2.4s1.1-2.4,2.4-2.4h34c1.3,0,2.4,1.1,2.4,2.4
			S128.5,662,127.2,662z"/>
	</g>
	<g id="XMLID_4_">
		<path id="XMLID_192_" class="st9" d="M147.7,662H135c-1.3,0-2.4-1.1-2.4-2.4s1.1-2.4,2.4-2.4h12.7c1.3,0,2.4,1.1,2.4,2.4
			S149,662,147.7,662z"/>
	</g>
	<g id="XMLID_24_">
		<path id="XMLID_191_" class="st9" d="M458,662h-9.4c-1.3,0-2.3-1-2.3-2.3s1-2.3,2.3-2.3h9.4c1.3,0,2.3,1,2.3,2.3
			S459.3,662,458,662z"/>
	</g>
	<g id="XMLID_36_">
		<path id="XMLID_190_" class="st9" d="M511.3,662h-45.2c-1.3,0-2.3-1-2.3-2.3s1-2.3,2.3-2.3h45.2c1.3,0,2.3,1,2.3,2.3
			S512.6,662,511.3,662z"/>
	</g>
</g>
</svg>
