<svg width="265" height="344" viewBox="0 0 265 344" fill="none" xmlns="http://www.w3.org/2000/svg">
<path d="M225.293 215.048H231.962L234.56 222.627V238.391H213.949V215.048H225.293Z" fill="#F5F7F7"/>
<path d="M234.603 234.579H213.949V238.391H234.603V234.579Z" fill="#E2E2E2"/>
<path d="M225.293 234.579L234.56 222.626V234.579H225.293Z" fill="#F5F7F7"/>
<path d="M235.556 239.343H212.953V214.052H232.611L235.556 221.284V239.343ZM214.901 237.395H233.607V221.674L231.312 216.044H214.901V237.395Z" fill="#C4E0EC"/>
<path d="M234.56 235.619H213.905C213.559 235.619 213.256 235.316 213.256 234.969C213.256 234.623 213.559 234.32 213.905 234.32H234.56C234.906 234.32 235.209 234.623 235.209 234.969C235.209 235.316 234.949 235.619 234.56 235.619Z" fill="#C4E0EC"/>
<path d="M225.293 235.619C225.163 235.619 225.033 235.576 224.904 235.489C224.6 235.272 224.514 234.883 224.73 234.579L233.997 221.111C234.213 220.807 234.603 220.721 234.906 220.937C235.209 221.154 235.296 221.544 235.079 221.847L225.813 235.316C225.726 235.532 225.51 235.619 225.293 235.619Z" fill="#C4E0EC"/>
<path d="M190.609 203.961V223.406L191.519 225.355L195.935 229.339H213.862L217.802 228.213L221.483 223.579V205.996V200.583L217.369 197.205L213.862 196.338H195.935L191.519 200.279L190.609 203.961Z" fill="#ECF0F2"/>
<path d="M210.138 196.945C210.138 196.945 210.181 213.488 199.01 212.839V219.118L221.483 219.422V203.224L219.361 198.85L217.369 197.204L210.138 196.945Z" fill="#E2E2E2"/>
<path d="M190.609 213.315L197.451 224.142H220.444L218.712 227.607L212.693 229.123L198.014 229.339L192.904 227.174L190.609 223.406V213.315Z" fill="#F5F7F7"/>
<path d="M215.291 219.508V208.161L221.483 203.831V219.422L215.291 219.508Z" fill="#ECF0F2"/>
<path d="M213.862 230.335H198.23C193.467 230.335 189.614 226.481 189.614 221.717V203.961C189.614 199.197 193.467 195.342 198.23 195.342H213.862C218.625 195.342 222.479 199.197 222.479 203.961V221.717C222.479 226.437 218.582 230.335 213.862 230.335ZM198.23 197.291C194.55 197.291 191.562 200.279 191.562 203.961V221.717C191.562 225.398 194.55 228.386 198.23 228.386H213.862C217.542 228.386 220.53 225.398 220.53 221.717V203.961C220.53 200.279 217.542 197.291 213.862 197.291H198.23Z" fill="#C4E0EC"/>
<path d="M199.01 207.685C200.708 207.685 202.084 206.308 202.084 204.61C202.084 202.912 200.708 201.535 199.01 201.535C197.312 201.535 195.935 202.912 195.935 204.61C195.935 206.308 197.312 207.685 199.01 207.685Z" fill="#C4E0EC"/>
<path d="M221.483 220.158H198.317V212.016L199.096 212.189C199.14 212.189 202.214 212.752 204.942 210.457C207.93 207.988 209.445 203.224 209.445 196.338C209.445 195.992 209.748 195.689 210.095 195.689C210.441 195.689 210.744 195.992 210.744 196.338C210.744 203.657 209.056 208.768 205.765 211.496C203.426 213.445 200.872 213.618 199.659 213.575V218.859H221.483C221.829 218.859 222.132 219.162 222.132 219.508C222.132 219.855 221.873 220.158 221.483 220.158Z" fill="#C4E0EC"/>
<path d="M19.6585 298.719H165.928V241.899V234.969L163.114 231.418L157.008 230.205H50.0989C50.0989 230.205 33.8178 235.922 34.6838 252.942V285.64H25.8505L19.6585 298.719Z" fill="#ECF0F2"/>
<path d="M19.6585 298.719L22.2132 292.093H165.928V298.719H19.6585Z" fill="#E2E2E2"/>
<path d="M42.348 234.969H69.2378V230.465H50.0989L42.348 234.969Z" fill="#E2E2E2"/>
<path d="M34.6838 252.942L49.5359 253.245L55.7712 259.308V271.435H34.6838V253.895" fill="#F5F7F7"/>
<path d="M35.4199 257.36H42.9975L46.4616 253.159H38.451L34.6838 252.942L35.4199 257.36Z" fill="#E2E2E2"/>
<path d="M147.655 230.465V277.325L151.596 281.872V291.443H141.593L141.81 283.691L137.133 277.325V230.465H147.655Z" fill="#E2E2E2"/>
<path d="M141.723 292.786C141.377 292.786 141.074 292.482 141.074 292.136V283.518L136.484 277.584V230.205C136.484 229.859 136.787 229.556 137.133 229.556C137.48 229.556 137.783 229.859 137.783 230.205V277.108L142.373 283.041V292.136C142.373 292.482 142.069 292.786 141.723 292.786Z" fill="#C4E0EC"/>
<path d="M64.8211 292.786C64.4747 292.786 64.1716 292.482 64.1716 292.136V250.647L68.5882 245.06V229.772C68.5882 229.426 68.8913 229.123 69.2377 229.123C69.5841 229.123 69.8873 229.426 69.8873 229.772V245.493L65.4706 251.08V292.093C65.4706 292.482 65.1675 292.786 64.8211 292.786Z" fill="#C4E0EC"/>
<path d="M165.928 292.786H22.7761C22.4297 292.786 22.1266 292.482 22.1266 292.136C22.1266 291.789 22.4297 291.486 22.7761 291.486H165.928C166.275 291.486 166.578 291.789 166.578 292.136C166.578 292.482 166.318 292.786 165.928 292.786Z" fill="#C4E0EC"/>
<path d="M165.928 300.278C165.408 300.278 164.932 299.845 164.932 299.282V238.954C164.932 235.792 164.109 233.497 162.551 232.241C160.342 230.465 157.268 231.158 157.225 231.158L157.138 231.201H157.008H56.8105C50.0122 231.201 44.7296 233.15 41.0923 237.005C35.1168 243.328 35.6364 252.812 35.6364 252.899V252.942V286.636H26.4567L20.5245 299.152C20.308 299.628 19.7018 299.845 19.2255 299.628C18.7492 299.412 18.5327 298.805 18.7492 298.329L25.201 284.687H33.6879V252.985C33.6446 252.249 33.2549 242.505 39.6634 235.705C43.6904 231.418 49.4493 229.253 56.8105 229.253H156.922C157.614 229.123 161.078 228.603 163.763 230.725C165.841 232.371 166.924 235.142 166.924 238.954V299.325C166.924 299.845 166.491 300.278 165.928 300.278Z" fill="#C4E0EC"/>
<path d="M56.3775 272.431H34.6838C34.1642 272.431 33.6879 271.998 33.6879 271.435C33.6879 270.872 34.1209 270.439 34.6838 270.439H54.3856V259.352L49.4927 253.895H34.6838C34.1642 253.895 33.6879 253.462 33.6879 252.899C33.6879 252.336 34.1209 251.903 34.6838 251.903H50.402L56.3775 258.572V272.431Z" fill="#C4E0EC"/>
<path d="M51.3113 268.273H34.6838C34.3374 268.273 34.0343 267.97 34.0343 267.623C34.0343 267.277 34.3374 266.974 34.6838 266.974H51.268C51.6144 266.974 51.9175 267.277 51.9175 267.623C51.9175 267.97 51.6577 268.273 51.3113 268.273Z" fill="#C4E0EC"/>
<path d="M51.3113 263.899H34.6838C34.3374 263.899 34.0343 263.596 34.0343 263.249C34.0343 262.903 34.3374 262.6 34.6838 262.6H51.268C51.6144 262.6 51.9175 262.903 51.9175 263.249C51.9175 263.596 51.6577 263.899 51.3113 263.899Z" fill="#C4E0EC"/>
<path d="M43.3007 257.966H34.6838C34.3374 257.966 34.0343 257.663 34.0343 257.316C34.0343 256.97 34.3374 256.667 34.6838 256.667H42.6945L46.2018 252.509C46.4183 252.249 46.8513 252.206 47.1544 252.422C47.4142 252.639 47.4575 253.072 47.241 253.375L43.3007 257.966Z" fill="#C4E0EC"/>
<path d="M69.2377 235.359H42.2614C41.915 235.359 41.6119 235.056 41.6119 234.709C41.6119 234.363 41.915 234.06 42.2614 234.06H69.2377C69.5841 234.06 69.8872 234.363 69.8872 234.709C69.8872 235.056 69.6274 235.359 69.2377 235.359Z" fill="#C4E0EC"/>
<path d="M141.723 275.592C142.656 275.592 143.412 274.836 143.412 273.903C143.412 272.97 142.656 272.214 141.723 272.214C140.79 272.214 140.034 272.97 140.034 273.903C140.034 274.836 140.79 275.592 141.723 275.592Z" fill="#C4E0EC"/>
<path d="M141.723 266.368C142.656 266.368 143.412 265.611 143.412 264.679C143.412 263.746 142.656 262.99 141.723 262.99C140.79 262.99 140.034 263.746 140.034 264.679C140.034 265.611 140.79 266.368 141.723 266.368Z" fill="#C4E0EC"/>
<path d="M102.709 236.139L92.3603 265.631V289.018H135.531L135.748 281.785L131.504 276.372V236.485L102.709 236.139Z" fill="#F5F7F7"/>
<path d="M34.0776 203.744L32.7786 201.535L31.1765 201.622L29.7042 203.224L30.1373 205.13L32.5621 205.866L34.0776 203.744Z" fill="#FBECCC"/>
<path d="M31.8693 206.992C30.094 206.992 28.665 205.563 28.665 203.787C28.665 202.012 30.094 200.583 31.8693 200.583C33.6446 200.583 35.0735 202.012 35.0735 203.787C35.0735 205.563 33.6446 206.992 31.8693 206.992ZM31.8693 202.488C31.1765 202.488 30.6136 203.051 30.6136 203.744C30.6136 204.437 31.1765 205 31.8693 205C32.5621 205 33.125 204.437 33.125 203.744C33.125 203.051 32.5621 202.488 31.8693 202.488Z" fill="#FBECCC"/>
<path d="M31.8693 206.992C30.094 206.992 28.665 205.563 28.665 203.787C28.665 202.012 30.094 200.583 31.8693 200.583C33.6446 200.583 35.0735 202.012 35.0735 203.787C35.0735 205.563 33.6446 206.992 31.8693 206.992ZM31.8693 202.488C31.1765 202.488 30.6136 203.051 30.6136 203.744C30.6136 204.437 31.1765 205 31.8693 205C32.5621 205 33.125 204.437 33.125 203.744C33.125 203.051 32.5621 202.488 31.8693 202.488Z" fill="#FBECCC"/>
<path d="M47.8905 117.561L48.8431 115.612L47.5008 114.356L45.4224 114.659L44.5131 116.478L45.6389 118.384H47.8905V117.561Z" fill="#FBECCC"/>
<path d="M46.7647 119.683C44.9894 119.683 43.5605 118.254 43.5605 116.478C43.5605 114.703 44.9894 113.273 46.7647 113.273C48.54 113.273 49.969 114.703 49.969 116.478C49.969 118.254 48.54 119.683 46.7647 119.683ZM46.7647 115.179C46.0719 115.179 45.509 115.742 45.509 116.435C45.509 117.128 46.0719 117.691 46.7647 117.691C47.4575 117.691 48.0204 117.128 48.0204 116.435C48.0204 115.742 47.4575 115.179 46.7647 115.179Z" fill="#FBECCC"/>
<path d="M222.392 117.431L219.361 117.778L219.015 119.64L220.703 121.242C220.703 121.242 222.695 121.329 222.782 121.242C222.868 121.156 223.475 120.246 223.475 119.943C223.475 119.683 222.392 117.431 222.392 117.431Z" fill="#FBECCC"/>
<path d="M221.223 122.888C219.448 122.888 218.019 121.459 218.019 119.683C218.019 117.907 219.448 116.478 221.223 116.478C222.998 116.478 224.427 117.907 224.427 119.683C224.427 121.459 222.998 122.888 221.223 122.888ZM221.223 118.427C220.53 118.427 219.967 118.99 219.967 119.683C219.967 120.376 220.53 120.939 221.223 120.939C221.916 120.939 222.479 120.376 222.479 119.683C222.479 118.99 221.916 118.427 221.223 118.427Z" fill="#FBECCC"/>
<path d="M83.3971 77.3712L78.634 78.9303L85.692 97.5528L88.5065 96.6866L83.3971 77.3712Z" fill="#FBECCC"/>
<path d="M87.7271 99.285L86.4281 100.368L86.2549 102.1L89.0694 103.573L90.9747 103.226L90.5417 100.758L87.7271 99.285Z" fill="#FBECCC"/>
<path d="M85.3023 98.3756L77.768 78.4972L83.8734 76.5483L89.3292 97.1197L85.3023 98.3756ZM79.5 79.3201L86.0817 96.7299L87.6838 96.2102L82.9207 78.194L79.5 79.3201Z" fill="#FBECCC"/>
<path d="M88.8529 104.309C87.4673 104.525 86.0817 103.702 85.6054 102.317C85.3889 101.58 85.4322 100.801 85.7786 100.108C86.125 99.415 86.7312 98.8953 87.4673 98.6787C88.2034 98.4622 88.9828 98.5055 89.6756 98.852C90.3685 99.1984 90.8881 99.8048 91.1046 100.541C91.5809 102.057 90.7582 103.702 89.2426 104.179C89.156 104.222 89.0261 104.265 88.8529 104.309ZM88.1601 99.8481C88.0735 99.8481 87.9869 99.8914 87.9436 99.8914C87.5539 100.021 87.2075 100.281 87.0343 100.671C86.8611 101.061 86.8178 101.494 86.9477 101.884C87.0776 102.273 87.3374 102.62 87.7271 102.793C88.1168 102.966 88.5498 103.01 88.9395 102.88C89.3292 102.75 89.6756 102.49 89.8488 102.1C90.0221 101.71 90.0654 101.277 89.9354 100.887C89.8055 100.498 89.5457 100.151 89.156 99.978C88.8096 99.8481 88.4632 99.8048 88.1601 99.8481Z" fill="#FBECCC"/>
<path d="M157.614 283.821L184.201 289.018L210.701 283.821L210.484 286.376L209.792 287.545L184.591 292.612L159.303 287.545L157.614 285.077V283.821Z" fill="#FFD56C"/>
<path d="M163.503 250.604L160.039 251.643L157.614 254.241V284.037L184.201 289.018L210.701 283.821L211.394 254.501L208.276 251.643L204.769 250.604L204.725 253.808L205.765 257.316L205.851 260.175L204.119 262.513L205.505 264.679L205.548 267.017L204.336 269.226L204.942 272.777L204.292 277.325L193.164 281.872L189.7 284.99L183.508 286.03L180.044 285.423L175.584 282.955L164.153 277.325L163.373 272.777L164.196 269.486L162.637 265.415L164.023 262.383L162.464 259.005L163.503 254.241V250.604Z" fill="#8C9DA8"/>
<path d="M158.61 287.675L153.891 290.663L152.158 292.872L151.336 299.325H216.98V294.561L212.606 289.494L209.792 287.545L184.591 292.612L158.61 287.675Z" fill="#8C9DA8"/>
<path d="M151.336 295.211H184.114L188.098 300.105H151.336V295.211Z" fill="#707E85"/>
<path d="M173.073 286.939C173.073 286.939 170.215 284.6 170.648 280.529L164.196 277.325C164.196 277.325 163.287 275.029 163.33 273.903C163.373 272.777 164.889 269.832 164.889 269.832L162.637 266.411L164.542 262.99L162.464 259.005L162.637 256.017L163.503 254.241V250.604L161.338 250.907L157.614 254.241V283.864L173.073 286.939Z" fill="#707E85"/>
<path d="M198.62 294.994C198.62 294.994 201.088 296.207 200.785 299.282H216.98V295.687L214.382 295.168L198.62 294.994Z" fill="#ACB8BF"/>
<path d="M159.39 294.994L161.252 291.27L164.542 289.061L159.087 288.411L156.142 289.278L152.158 291.703L151.336 295.211L159.39 294.994Z" fill="#ACB8BF"/>
<path d="M198.62 294.994C198.62 294.994 201.824 292.959 199.14 289.711L209.229 288.411L214.382 290.62L216.98 295.73L198.62 294.994Z" fill="#ACB8BF"/>
<path d="M202.257 285.293C202.257 285.293 211.524 279.1 210.311 253.548L210.744 283.821L202.257 285.293Z" fill="#ACB8BF"/>
<path d="M173.073 286.939L174.545 290.534L159.303 287.545L157.788 286.376L157.614 283.821L173.073 286.939Z" fill="#EFB05E"/>
<path d="M199.14 289.711L197.408 286.419L210.701 283.821L209.792 287.545L199.14 289.711Z" fill="#FFDF99"/>
<path d="M184.201 292.786C184.158 292.786 184.114 292.786 184.071 292.786L159.909 289.364C157.095 288.931 156.489 286.333 156.575 284.947V253.982L156.705 253.765C156.792 253.592 158.827 249.564 163.547 249.564H164.586V254.501L164.456 254.718C164.413 254.761 162.161 259.092 164.759 261.604L165.495 262.297L164.846 263.033C164.586 263.336 162.334 266.151 164.975 268.706L165.495 269.226L165.192 269.919C165.192 269.962 163.676 273.34 164.846 276.502L176.493 281.266L176.667 281.655C178.399 285.337 184.114 285.077 184.158 285.033C184.721 284.99 185.24 285.423 185.24 286.029C185.283 286.592 184.85 287.112 184.244 287.155C183.941 287.155 177.403 287.502 174.935 282.911L163.243 278.104L163.07 277.714C161.641 274.466 162.507 271.088 162.984 269.659C160.732 267.061 161.598 264.116 162.681 262.383C160.212 259.222 161.988 255.021 162.507 253.938V251.729C160.256 252.163 159.043 253.895 158.697 254.458V284.99C158.697 285.207 158.654 286.982 160.256 287.242L184.374 290.663C184.937 290.75 185.327 291.27 185.283 291.833C185.154 292.396 184.721 292.786 184.201 292.786Z" fill="#12426D"/>
<path d="M151.336 300.365C150.773 300.365 150.297 299.888 150.297 299.325V295.124C150.297 295.038 151.163 288.022 159.953 287.285C160.516 287.242 161.035 287.675 161.078 288.238C161.122 288.801 160.689 289.321 160.126 289.364C153.371 289.971 152.462 294.734 152.375 295.297V299.325C152.375 299.888 151.899 300.365 151.336 300.365Z" fill="#12426D"/>
<path d="M184.114 292.786C183.595 292.786 183.162 292.396 183.075 291.876C182.989 291.313 183.378 290.793 183.984 290.707L208.146 287.285C209.792 287.026 209.705 285.12 209.705 285.033V284.99V254.501C209.359 253.895 208.146 252.206 205.895 251.773V253.982C206.414 255.064 208.19 259.265 205.721 262.427C206.804 264.159 207.627 267.061 205.418 269.702C205.895 271.088 206.804 274.466 205.332 277.758L205.158 278.147L193.467 282.955C190.999 287.502 184.417 287.199 184.158 287.199C183.595 287.156 183.118 286.679 183.162 286.073C183.205 285.51 183.681 285.077 184.288 285.077C184.331 285.077 190.09 285.337 191.779 281.699L191.952 281.309L203.6 276.545C204.812 273.34 203.297 269.962 203.253 269.962L202.95 269.269L203.47 268.75C206.154 266.151 203.686 263.206 203.6 263.076L202.95 262.34L203.686 261.647C206.284 259.135 203.989 254.804 203.989 254.761L203.859 254.545V249.607H204.899C209.618 249.607 211.697 253.635 211.74 253.808L211.87 254.025V284.99C211.913 286.333 211.307 288.974 208.536 289.408L184.374 292.829C184.201 292.786 184.158 292.786 184.114 292.786Z" fill="#12426D"/>
<path d="M216.98 300.365C216.417 300.365 215.94 299.888 215.94 299.325V295.297C215.854 294.734 214.988 289.971 208.19 289.364C207.627 289.321 207.194 288.801 207.237 288.238C207.28 287.675 207.8 287.242 208.363 287.285C217.153 288.065 218.019 295.081 218.019 295.124V295.254V299.325C218.019 299.888 217.542 300.365 216.98 300.365Z" fill="#12426D"/>
<path d="M216.98 295.86H151.336C150.989 295.86 150.686 295.557 150.686 295.211C150.686 294.864 150.989 294.561 151.336 294.561H216.98C217.326 294.561 217.629 294.864 217.629 295.211C217.629 295.557 217.326 295.86 216.98 295.86Z" fill="#12426D"/>
<path d="M159.303 295.861C159.26 295.861 159.217 295.861 159.173 295.861C158.827 295.774 158.61 295.427 158.697 295.081C158.74 294.821 160.126 289.234 164.759 288.368C165.105 288.282 165.452 288.541 165.495 288.888C165.582 289.234 165.322 289.581 164.975 289.624C161.122 290.36 159.953 295.298 159.909 295.341C159.866 295.687 159.606 295.861 159.303 295.861Z" fill="#12426D"/>
<path d="M184.201 289.667C183.898 289.667 183.638 289.451 183.551 289.148C183.465 288.801 183.725 288.455 184.071 288.368L210.614 283.214C210.961 283.128 211.307 283.388 211.394 283.734C211.48 284.081 211.221 284.427 210.874 284.514L184.331 289.667C184.288 289.624 184.244 289.667 184.201 289.667Z" fill="#12426D"/>
<path d="M184.114 289.667C184.071 289.667 184.028 289.667 183.984 289.667L157.441 284.514C157.095 284.427 156.878 284.124 156.922 283.734C157.008 283.388 157.311 283.171 157.701 283.214L184.244 288.368C184.591 288.455 184.807 288.758 184.764 289.148C184.677 289.451 184.417 289.667 184.114 289.667Z" fill="#12426D"/>
<path d="M207.28 281.959C208.069 281.959 208.709 281.319 208.709 280.529C208.709 279.74 208.069 279.1 207.28 279.1C206.491 279.1 205.851 279.74 205.851 280.529C205.851 281.319 206.491 281.959 207.28 281.959Z" fill="#12426D"/>
<path d="M112.235 66.7607L102.536 66.6741L104.051 105.305L109.767 105.348L112.235 66.7607Z" fill="#FBECCC"/>
<path d="M108.252 109.896L104.398 110.545L102.623 113.966L104.398 117.518L108.252 118.384L110.763 116.132L111.066 112.581L108.252 109.896Z" fill="#FBECCC"/>
<path d="M110.676 106.301L103.185 106.214L101.583 65.7213L113.231 65.8512L110.676 106.301ZM104.917 104.395L108.901 104.439L111.239 67.7135L103.489 67.6269L104.917 104.395Z" fill="#FBECCC"/>
<path d="M106.953 119.293C106.909 119.293 106.909 119.293 106.866 119.293C105.437 119.293 104.138 118.73 103.142 117.691C102.146 116.695 101.627 115.352 101.627 113.923C101.627 112.494 102.19 111.195 103.229 110.199C104.225 109.203 105.567 108.683 106.996 108.683C109.897 108.726 112.235 111.108 112.192 114.01C112.192 115.439 111.629 116.738 110.59 117.734C109.637 118.774 108.338 119.293 106.953 119.293ZM106.953 110.632C105.091 110.632 103.575 112.148 103.532 114.01C103.532 114.919 103.878 115.786 104.484 116.435C105.134 117.085 105.957 117.475 106.909 117.475H106.953C108.815 117.475 110.33 115.959 110.373 114.096C110.373 113.187 110.027 112.321 109.421 111.671C108.771 111.022 107.905 110.632 106.953 110.632C106.996 110.632 106.996 110.632 106.953 110.632Z" fill="#FBECCC"/>
<path d="M135.574 78.9735L128.17 104.958L131.98 106.258L141.983 81.1822L135.574 78.9735Z" fill="#FBECCC"/>
<path d="M130.855 112.321L128.993 108.466L126.698 108.813L124.922 110.675L127.001 114.183L130.855 112.321Z" fill="#FBECCC"/>
<path d="M132.5 107.427L127.044 105.565L134.968 77.8042L143.239 80.6192L132.5 107.427ZM129.296 104.352L131.417 105.088L140.77 81.7452L136.181 80.1861L129.296 104.352Z" fill="#FBECCC"/>
<path d="M127.997 115.266C127.564 115.266 127.131 115.179 126.741 115.049C125.745 114.703 124.922 114.01 124.446 113.057C123.97 112.104 123.926 111.022 124.273 110.025C124.966 107.947 127.217 106.864 129.296 107.557C131.374 108.25 132.457 110.502 131.764 112.581C131.201 114.27 129.642 115.266 127.997 115.266ZM127.997 109.203C127.131 109.203 126.308 109.766 126.005 110.632C125.832 111.151 125.875 111.758 126.091 112.234C126.351 112.754 126.784 113.1 127.304 113.317C128.386 113.707 129.599 113.1 129.989 112.018C130.378 110.935 129.772 109.722 128.69 109.333C128.473 109.246 128.213 109.203 127.997 109.203Z" fill="#FBECCC"/>
<path d="M135.618 205.65L132.716 190.535L130.248 181.7L131.547 172.822L134.925 166.153L136.873 161.475L137.263 155.412L135.618 149.133L130.725 144.715L122.065 142.42L107.516 144.022L104.268 140.688L99.2451 136.92L85.9518 132.762L76.0359 134.191L67.4624 138.912L60.8374 147.574L54.9052 155.412L53.1732 161.605L51.0948 166.932L49.1029 176.85V187.114L47.3709 208.118L44.643 216.433L39.7067 220.808L45.8987 225.961L51.0948 226.091L55.5114 225.615L58.8889 228.083L62.3529 230.205L65.6871 232.371L72.7451 234.32L82.4011 234.709L91.4943 228.82L103.012 234.623L113.621 236.745L122.194 235.229L129.296 230.379L134.492 220.331L135.618 205.65Z" fill="#FFD56C"/>
<path d="M59.9281 229.902L68.3717 233.887L82.4011 234.753L86.5147 232.371L91.5376 228.82L97.7296 232.371L103.056 234.623L112.192 237.481L122.194 235.229L127.694 230.205C134.578 202.705 121.415 190.968 121.415 190.968L116.609 192.701L83.9167 191.012L72.875 189.929L69.1511 185.815C69.714 224.835 55.5114 225.658 55.5114 225.658L59.9281 229.902Z" fill="#E2B34A"/>
<path d="M107.256 151.471C107.256 151.471 92.4036 165.763 76.9453 154.979C76.9453 154.979 70.1037 165.806 60.5776 163.987L67.5923 166.283L73.0915 164.81L78.4175 160.869L86.9044 162.818L96.5171 161.389L100.761 158.963L106.823 153.117L107.256 151.471Z" fill="#E2B34A"/>
<path d="M129.296 165.157C129.296 165.157 111.586 158.53 107.386 147.617C107.386 147.66 107.732 165.633 129.296 165.157Z" fill="#E2B34A"/>
<path d="M126.784 188.586C122.454 177.759 133.929 166.672 133.929 166.672L131.374 175.594L130.248 181.7L132.37 189.366L135.574 197.768V212.969L130.032 228.863C130.075 228.819 133.756 205.996 126.784 188.586Z" fill="#FFE19F"/>
<path d="M106.996 144.845C106.996 144.845 93.3129 130.986 72.3987 144.672C51.4845 158.357 55.4681 196.685 55.4681 196.685C55.4681 196.685 55.9444 233.973 39.7067 220.764L45.0327 215.177L48.4967 194.736L51.7443 165.286L60.8374 147.573L67.4624 138.912L78.8505 133.368H87.857L95.8243 135.577L104.311 140.687L106.996 144.845Z" fill="#FFE19F"/>
<path d="M133.756 167.452C133.756 167.452 141.723 147.79 106.996 144.845L110.806 143.329L122.065 142.42L128.473 143.632L132.284 145.711L135.618 149.133L136.787 153.16L137.133 157.058L136.873 161.475L133.756 167.452Z" fill="#FFE19F"/>
<path d="M114.184 237.828C104.138 237.828 94.3954 232.024 91.6242 230.205C85.3889 236.052 77.0752 237.308 67.5923 233.8C61.6168 231.591 56.8971 228.127 55.3382 226.914C53.6062 227.737 51.9175 228.083 50.3587 228.083C43.5172 228.083 38.8407 221.5 38.7974 221.414L37.7582 219.941L39.5768 219.725C39.6201 219.725 48.3668 217.776 48.0204 187.157C47.8039 170.137 52.9134 157.751 57.2002 150.345C61.8766 142.29 66.5531 138.262 66.7696 138.132L66.8129 138.089C78.2443 129.297 88.9828 131.203 95.9542 134.365C102.233 137.18 106.563 141.424 107.905 142.853C122.281 139.995 129.469 141.077 135.271 146.924C141.16 152.857 136.051 166.196 135.704 167.105C135.488 167.712 131.764 179.145 132.76 184.515C132.976 185.598 133.323 186.984 133.756 188.63C135.618 195.732 138.692 207.642 135.618 220.634L135.574 220.764C132.587 229.339 127.694 234.753 121.069 236.918C118.774 237.524 116.479 237.828 114.184 237.828ZM91.3644 227.39L92.1438 227.91C92.317 228.04 107.819 238.737 120.376 234.709C126.308 232.804 130.681 227.867 133.453 219.985C136.397 207.555 133.366 195.992 131.591 189.106C131.158 187.417 130.768 185.988 130.551 184.818C129.426 178.755 133.409 166.759 133.583 166.283V166.239C133.626 166.109 138.605 153.377 133.669 148.396C128.343 143.026 121.805 142.203 107.689 145.062L107.083 145.192L106.649 144.715C106.606 144.672 102.016 139.475 94.915 136.27C85.6054 132.069 76.5555 133.239 68.1119 139.735C67.5057 140.254 49.7957 155.975 50.1855 187.07C50.3587 200.713 48.7565 210.673 45.509 216.607C44.0801 219.248 42.5645 220.548 41.482 221.197C43.4739 223.449 48.5833 228.083 54.9918 224.619L55.6413 224.272L56.2042 224.748C56.2475 224.792 61.5302 229.209 68.415 231.764C77.4649 235.099 84.9559 233.843 90.7149 228.04L91.3644 227.39Z" fill="#12426D"/>
<path d="M89.7189 159.873C89.3292 159.873 89.0261 159.57 88.9828 159.18C88.9828 158.79 89.2859 158.444 89.6756 158.401C96.5605 158.054 102.536 150.952 102.579 150.908C102.839 150.605 103.272 150.562 103.618 150.822C103.922 151.081 103.965 151.515 103.705 151.861C103.445 152.164 97.2533 159.483 89.7189 159.873C89.7622 159.873 89.7189 159.873 89.7189 159.873Z" fill="#12426D"/>
<path d="M86.125 159.786C85.1724 159.786 82.7043 159.613 80.5825 157.838C80.2794 157.578 80.2361 157.145 80.4959 156.798C80.7557 156.495 81.1887 156.452 81.5351 156.712C83.7435 158.53 86.4281 158.314 86.4281 158.314C86.8178 158.271 87.1642 158.574 87.2075 158.964C87.2508 159.353 86.9477 159.7 86.558 159.743C86.5147 159.786 86.3848 159.786 86.125 159.786Z" fill="#12426D"/>
<path d="M133.756 158.963C133.409 158.963 133.106 158.747 133.063 158.4C132.976 158.011 130.855 148.959 116.089 148.31C115.699 148.31 115.396 147.963 115.396 147.573C115.396 147.184 115.743 146.88 116.132 146.88C132.11 147.617 134.405 157.708 134.492 158.141C134.578 158.53 134.319 158.92 133.929 159.007C133.842 158.963 133.799 158.963 133.756 158.963Z" fill="#12426D"/>
<path d="M65.6871 148.31C65.5572 148.31 65.4273 148.266 65.2974 148.18C64.951 147.963 64.8644 147.53 65.0809 147.184C65.1675 147.054 72.7451 135.404 85.5188 137.223C85.9085 137.266 86.2116 137.656 86.125 138.046C86.0817 138.436 85.692 138.739 85.3023 138.652C73.4379 136.963 66.3799 147.833 66.2933 147.963C66.1634 148.18 65.9036 148.31 65.6871 148.31Z" fill="#12426D"/>
<path d="M60.5776 155.066C60.4477 155.066 60.3178 155.023 60.1879 154.936C59.8415 154.719 59.7549 154.243 59.9714 153.94L62.6993 149.869C62.9158 149.522 63.3922 149.436 63.6953 149.652C64.0417 149.869 64.1283 150.345 63.9118 150.648L61.1838 154.719C61.0539 154.979 60.7941 155.066 60.5776 155.066Z" fill="#12426D"/>
<path d="M53.2598 220.548C53 220.548 52.7402 220.418 52.6103 220.158C52.3938 219.811 52.5237 219.378 52.8701 219.162C53 219.075 61.5735 213.792 58.1095 190.189C58.0662 189.799 58.326 189.409 58.7157 189.366C59.1054 189.322 59.4951 189.582 59.5384 189.972C63.1756 214.701 53.9526 220.201 53.5629 220.418C53.5196 220.504 53.3897 220.548 53.2598 220.548Z" fill="#12426D"/>
<path d="M111.326 239.776C111.326 239.776 134.968 239.733 140.77 250.647C140.77 250.647 138.995 270.828 131.461 283.864L127.131 286.463L119.12 285.033L121.025 274.769L123.19 257.403C123.19 257.403 114.141 263.249 103.099 259.092C92.0139 254.848 111.326 239.776 111.326 239.776Z" fill="#74A1D1"/>
<path d="M111.326 249.911C111.326 249.911 114.011 255.974 128.3 255.107C128.3 255.107 115.007 263.119 103.099 258.962C103.099 259.005 108.901 254.848 111.326 249.911Z" fill="#517B9B"/>
<path d="M111.326 239.776C111.326 239.776 132.63 245.103 136.007 252.639C136.007 252.639 134.102 269.269 129.729 278.234L134.059 277.671L137.869 268.187L140.987 254.501L140.77 250.604C140.77 250.604 134.665 240.946 111.326 239.776Z" fill="#92BDE5"/>
<path d="M120.592 277.325C120.592 277.325 122.757 278.364 125.355 278.927C127.953 279.49 134.016 277.671 134.016 277.671L131.417 283.864L127.087 286.463L119.077 285.033L120.592 277.325Z" fill="#517B9B"/>
<path d="M119.12 284.99L116.219 291.053L116.522 298.719H145.966L142.546 291.746L137.609 287.199L131.461 283.821L129.729 285.64L125.399 287.199L119.12 284.99Z" fill="#3A5769"/>
<path d="M125.399 287.199C125.399 287.199 123.234 296.337 131.114 298.805L116.522 298.719C116.522 298.719 114.054 289.278 119.12 284.947C119.12 284.99 123.623 287.978 125.399 287.199Z" fill="#2C4450"/>
<path d="M128.3 255.108C128.3 255.108 129.469 267.017 125.399 278.884L120.636 277.281L121.761 258.052L128.3 255.108Z" fill="#517B9B"/>
<path d="M124.533 287.459C121.112 287.459 118.73 285.943 118.557 285.856L117.951 285.467L118.124 284.774C121.675 268.836 121.285 257.879 121.285 257.749C121.285 257.186 121.718 256.667 122.281 256.667C122.887 256.623 123.364 257.1 123.364 257.663C123.364 258.096 123.71 268.62 120.332 284.427C121.675 285.077 125.052 286.203 129.036 284.254C138.562 271.478 139.601 253.592 139.688 250.95C132.413 240.946 113.707 240.816 113.491 240.816C112.928 240.816 112.452 240.339 112.452 239.776C112.452 239.213 112.928 238.737 113.491 238.737C114.314 238.737 133.842 238.867 141.593 250.04L141.766 250.3V250.647C141.766 251.47 141.333 271.391 130.508 285.726L130.378 285.9L130.162 286.03C128.127 287.069 126.178 287.459 124.533 287.459Z" fill="#12426D"/>
<path d="M116.522 299.758C116.002 299.758 115.569 299.368 115.483 298.849C114.097 288.974 118.211 284.427 118.384 284.254C118.774 283.821 119.423 283.821 119.856 284.211C120.289 284.6 120.289 285.25 119.899 285.683C119.856 285.77 116.306 289.797 117.561 298.589C117.648 299.152 117.258 299.672 116.652 299.758C116.609 299.758 116.565 299.758 116.522 299.758Z" fill="#12426D"/>
<path d="M127.737 280.183C123.364 280.183 120.246 278.321 120.029 278.234C119.553 277.931 119.38 277.281 119.683 276.805C119.986 276.329 120.636 276.155 121.112 276.458C121.372 276.588 127.131 280.01 133.756 276.675C134.275 276.415 134.882 276.632 135.141 277.151C135.401 277.671 135.185 278.277 134.665 278.537C132.24 279.75 129.859 280.183 127.737 280.183Z" fill="#12426D"/>
<path d="M110.806 261.171C106.303 261.171 103.489 260.045 103.229 259.958C102.709 259.741 102.449 259.135 102.666 258.572C102.882 258.052 103.489 257.793 104.051 258.009C104.181 258.052 114.53 262.167 127.737 253.635C128.213 253.332 128.863 253.462 129.166 253.938C129.469 254.415 129.339 255.064 128.863 255.367C121.718 260.001 115.396 261.171 110.806 261.171Z" fill="#12426D"/>
<path d="M145.967 299.758C145.447 299.758 144.971 299.368 144.927 298.805C143.845 288.238 129.729 286.116 129.556 286.116C128.993 286.03 128.603 285.51 128.646 284.947C128.733 284.384 129.252 283.951 129.815 284.037C130.465 284.124 145.75 286.419 146.962 298.589C147.006 299.152 146.616 299.672 146.01 299.758C146.053 299.758 146.01 299.758 145.967 299.758Z" fill="#12426D"/>
<path d="M112.495 239.776C112.495 239.776 103.272 251.643 84.8693 246.836L84.2198 254.501L86.4714 261.127L89.4159 276.025L90.0221 282.132H84.2198L75.8194 285.033L68.8047 288.585L60.7508 298.675H100.934L102.839 296.207L106.13 282.781V269.226L104.225 258.962C104.268 259.005 115.526 256.97 112.495 239.776Z" fill="#74A1D1"/>
<path d="M75.8627 285.077C75.8627 285.077 67.8521 291.963 74.1307 299.498L60.7941 298.719C60.7941 298.719 61.6168 288.021 75.8627 285.077Z" fill="#517B9B"/>
<path d="M68.848 288.628L64.6912 282.825L62.0065 282.998L56.5507 286.419L51.6577 292.309L47.3709 299.325L60.7941 298.719L64.0417 293.825L68.848 288.628Z" fill="#3A5769"/>
<path d="M55.598 287.545C55.598 287.545 56.3341 295.081 64.0417 293.782L60.7941 298.675L47.3709 299.282C47.3709 299.325 51.6577 288.671 55.598 287.545Z" fill="#2C4450"/>
<path d="M71.9224 295.211C71.9224 295.211 104.051 297.593 106.476 271.435C106.476 271.435 107.862 288.368 100.977 298.719H74.1307C74.1307 298.719 69.7574 299.065 71.9224 295.211Z" fill="#517B9B"/>
<path d="M90.0654 282.175C90.0654 282.175 95.0016 270.395 91.3644 259.005C87.7271 247.572 90.0654 248.308 90.0654 248.308L84.9126 246.879C84.9126 246.879 82.9207 261.344 87.7271 266.411L90.0654 282.175Z" fill="#92BDE5"/>
<path d="M60.7941 299.758C60.5776 299.758 60.4044 299.715 60.2312 299.585C59.7549 299.282 59.625 298.632 59.9281 298.112L63.1323 293.305C72.009 282.391 84.9992 281.222 88.9395 281.092C88.6797 277.974 87.7704 269.096 85.8652 263.769C82.5743 254.674 83.8301 246.965 83.8734 246.619C83.96 246.056 84.5229 245.666 85.0858 245.753C85.6487 245.839 86.0384 246.402 85.9518 246.965C85.9518 247.052 84.7394 254.501 87.8137 263.033C90.2819 269.789 91.0613 281.525 91.1046 282.045L91.1912 283.214L90.022 283.171C89.8488 283.171 74.4771 282.695 64.7778 294.561L61.6601 299.282C61.4436 299.585 61.1405 299.758 60.7941 299.758Z" fill="#12426D"/>
<path d="M102.016 299.758C101.886 299.758 101.8 299.758 101.67 299.715C101.107 299.541 100.847 298.935 101.02 298.372C107.949 278.884 103.835 259.395 103.792 259.222L103.618 258.356L104.441 258.052C104.484 258.052 108.685 256.277 111.499 248.741C111.716 248.178 112.322 247.918 112.842 248.135C113.404 248.351 113.664 248.958 113.448 249.477C110.98 256.017 107.516 258.702 105.957 259.611C106.65 263.552 109.291 281.309 102.969 299.108C102.882 299.498 102.449 299.758 102.016 299.758Z" fill="#12426D"/>
<path d="M47.3709 300.364C46.808 300.364 46.3317 299.888 46.3317 299.325C46.3317 294.821 55.0784 284.99 60.4477 282.478C62.4828 281.525 64.085 281.525 65.2541 282.478C69.2377 285.813 69.844 288.195 69.8873 288.455C70.0172 289.018 69.6275 289.581 69.0645 289.711C68.5016 289.841 67.9387 289.451 67.8521 288.931C67.8521 288.844 67.2892 286.939 63.9118 284.124C63.3056 283.647 62.0498 284.081 61.357 284.427C56.031 286.939 48.4534 296.25 48.4534 299.368C48.4101 299.888 47.9771 300.364 47.3709 300.364Z" fill="#12426D"/>
<path d="M72.442 299.758C72.1389 299.758 71.8358 299.628 71.6626 299.412C71.4894 299.195 67.2892 293.998 75.04 284.427C75.3864 283.994 76.0792 283.907 76.5122 284.254C76.9452 284.6 77.0319 285.293 76.6854 285.726C70.1037 293.868 73.1781 297.853 73.308 298.026C73.6544 298.459 73.6111 299.152 73.1781 299.498C72.9183 299.671 72.7018 299.758 72.442 299.758Z" fill="#12426D"/>
<path d="M104.398 197.464L101.41 201.579L103.099 211.929L107.689 221.674L115.44 230.032L126.135 235.749L135.834 236.658L147.742 234.103L148.608 230.465L147.179 227.174L140.944 226.957L133.626 224.056L128.819 222.367H124.533L121.285 218.642L116.998 210.024L112.408 201.535L108.425 197.464H104.398Z" fill="#78A567"/>
<path d="M104.398 197.465C104.398 197.465 107.126 239.473 148.608 230.465L148.911 234.06C148.911 234.06 103.922 244.844 101.41 201.622C101.41 201.622 100.328 198.504 105.394 196.945" fill="#60844F"/>
<path d="M133.583 237.698C123.364 237.698 117.951 233.237 117.215 232.587C100.458 221.63 100.328 202.705 100.328 201.622C100.154 198.114 102.796 196.555 105.091 196.209C107.645 195.862 114.184 198.72 117.951 209.634C120.982 218.339 124.576 220.678 125.312 221.111C129.166 221.154 131.461 221.674 136.354 224.229C139.818 226.048 143.239 226.524 146.833 225.658C147.049 225.615 147.612 225.528 148.088 226.091C148.824 226.914 149.907 230.725 149.56 231.721C149.474 231.938 149.387 232.154 149.344 232.371L149.82 232.198L148.651 234.493C148.478 234.883 148.132 235.056 147.785 235.099C142.329 237.048 137.609 237.698 133.583 237.698ZM102.449 201.622C102.449 201.795 102.19 220.331 118.471 230.898L118.6 231.028C118.687 231.115 128.127 239.56 146.876 233.324C147.006 232.89 147.266 232.154 147.612 231.201C147.612 230.638 147.136 228.776 146.746 227.953C142.849 228.733 139.168 228.17 135.401 226.221C130.725 223.752 128.819 223.363 125.052 223.319H124.879L124.706 223.233C124.489 223.146 119.726 221.197 116.002 210.414C112.582 200.583 107.039 198.157 105.394 198.374C104.658 198.461 102.319 198.98 102.449 201.622Z" fill="#12426D"/>
<path d="M99.5049 199.717H92.8799L87.0343 201.319L80.4093 205.996L78.3309 212.752L79.1103 220.331L82.7042 231.505L84.6095 239.084L84.9992 246.836L90.152 248.308L99.5049 247.485L108.035 243.847L112.625 239.777L114.054 225.615L111.716 213.315L107.386 201.535L104.961 199.846L99.5049 199.717Z" fill="#90C67D"/>
<path d="M93.9191 199.89C93.9191 199.89 87.9003 239.906 103.402 245.796L95.9543 248.265L84.9992 246.836L83.6569 234.666L80.5825 225.571L78.3309 212.752L80.4093 205.996L86.991 201.319L93.9191 199.89Z" fill="#78A567"/>
<path d="M94.3088 203.831C94.3088 203.831 100.068 206.732 104.398 217.949C108.728 229.166 101.02 205.866 101.02 205.866L98.942 204.221L94.3088 203.831Z" fill="#C2E0B0"/>
<path d="M100.371 201.622C100.371 201.622 111.109 208.725 113.058 222.627L112.105 210.63L106.346 199.89L103.315 199.976L100.371 201.622Z" fill="#C2E0B0"/>
<path d="M93.183 249.348C90.4984 249.348 87.6405 248.914 84.6528 247.832L83.96 247.572V246.836C83.96 246.749 83.8301 238.391 82.1846 233.064C82.0114 232.457 81.665 231.635 81.3186 230.638C79.067 224.619 74.8235 213.445 79.1969 205.996C81.232 202.532 84.8693 200.323 90.0221 199.5C90.6283 199.37 98.8554 197.768 105.827 199.5L106.13 199.587L106.346 199.803C106.823 200.279 117.951 212.146 113.708 239.863L113.664 240.166L113.448 240.383C113.275 240.599 105.177 249.348 93.183 249.348ZM86.0384 246.099C99.7647 250.517 110.027 240.902 111.629 239.3C115.266 214.788 106.39 203.224 104.961 201.535C98.4224 200.02 90.4551 201.622 90.3685 201.622H90.3252C85.8219 202.358 82.6609 204.177 80.9722 207.079C77.1618 213.662 81.2753 224.662 83.2672 229.946C83.6569 230.942 83.96 231.808 84.1765 232.457C85.6487 237.178 85.9518 243.847 86.0384 246.099Z" fill="#12426D"/>
<path d="M104.831 221.067C104.398 221.067 104.008 220.721 103.965 220.288C102.969 208.811 98.8987 204.307 98.8554 204.264C98.5523 203.917 98.5523 203.354 98.8987 203.051C99.2451 202.748 99.7647 202.748 100.111 203.095C100.284 203.268 104.658 207.988 105.697 220.158C105.74 220.634 105.394 221.067 104.917 221.067C104.874 221.067 104.874 221.067 104.831 221.067Z" fill="#12426D"/>
<path d="M97.643 210.587C98.4321 210.587 99.0719 209.947 99.0719 209.158C99.0719 208.368 98.4321 207.729 97.643 207.729C96.8538 207.729 96.2141 208.368 96.2141 209.158C96.2141 209.947 96.8538 210.587 97.643 210.587Z" fill="#12426D"/>
<path d="M89.8056 190.102L91.2778 199.716L96.2141 203.354L99.5482 203.224L102.752 201.622L102.19 192.181C102.146 192.138 100.544 188.976 89.8056 190.102Z" fill="#FDD9AF"/>
<path d="M102.623 195.126C102.623 195.126 100.154 199.153 90.1953 193.437L89.8488 191.011C89.8488 191.011 93.4428 185.685 102.146 192.181L102.623 195.126Z" fill="#FBBA99"/>
<path d="M98.2492 204.827C94.8284 204.827 91.1912 201.579 90.7582 201.189L90.5417 200.972L90.4551 200.669C89.2426 196.295 88.8096 190.405 88.8096 190.189C88.7663 189.626 89.1993 189.106 89.7623 189.063C90.3252 189.019 90.8448 189.452 90.8881 190.015C90.8881 190.059 91.3211 195.645 92.4036 199.803C93.7459 200.972 96.9502 203.224 99.0719 202.618C100.068 202.315 100.804 201.319 101.194 199.63C101.15 199.11 101.107 197.161 101.107 192.181C101.107 191.618 101.583 191.141 102.146 191.141C102.709 191.141 103.185 191.618 103.185 192.181C103.185 198.071 103.272 199.63 103.272 199.673V199.846L103.229 200.02C102.623 202.575 101.41 204.134 99.6348 204.653C99.2018 204.74 98.7255 204.827 98.2492 204.827Z" fill="#12426D"/>
<path d="M137.133 231.981L140.208 229.772L138.649 227.607H134.189L127.91 229.123L128.17 234.579L129.599 237.351L135.358 239.083H139.688L144.754 236.658L148.435 233.237L144.494 230.508L137.133 231.981Z" fill="#FBD8AE"/>
<path d="M99.5049 223.579L95.8243 217.343L92.1438 210.543L86.4714 201.535L82.3578 199.846L79.2402 200.323L77.1618 202.835L78.2876 212.103L82.0114 221.674L89.0261 231.158L95.0016 234.926L102.623 237.957L114.4 240.253L129.512 237.308L127.997 233.28L127.347 229.729L120.333 230.725L114.357 229.512C114.357 229.512 109.334 227.563 108.858 227.13C108.382 226.697 102.016 225.268 102.016 225.268L99.5049 223.579Z" fill="#78A567"/>
<path d="M80.5825 199.846C80.5825 199.846 81.7083 242.028 128.17 234.579L129.599 237.351L121.502 239.3L108.295 239.04L96.214 236.615L86.1683 227.607L82.8774 223.059L80.366 217.299L78.4608 211.236L77.2051 202.835L80.5825 199.846Z" fill="#60844F"/>
<path d="M115.18 240.859C102.493 240.859 93.7026 235.446 93.2263 235.142C76.339 224.185 76.2091 205.173 76.2091 204.091C76.0359 200.583 78.6773 199.023 80.9722 198.677C83.5269 198.331 90.0653 201.189 93.8325 212.103C96.8636 220.894 101.194 223.709 102.103 224.229C106 224.315 109.118 225.615 114.141 228.256C118.384 230.465 123.667 229.729 126.395 229.079C127.044 228.906 127.737 229.123 128.17 229.642C128.603 230.162 128.733 230.855 128.516 231.505C127.607 234.06 130.248 236.615 130.292 236.615L131.547 237.784L129.902 238.347C124.663 240.166 119.64 240.859 115.18 240.859ZM78.3309 204.091C78.3309 204.264 78.0711 222.8 94.3521 233.367C94.482 233.453 109.248 242.548 127.824 236.831C126.914 235.575 125.875 233.497 126.481 231.201C123.32 231.894 117.864 232.501 113.275 230.119C108.425 227.564 105.524 226.351 101.93 226.351H101.713L101.497 226.264C101.28 226.178 95.6944 223.579 91.9273 212.839C88.5065 203.008 82.964 200.583 81.3186 200.799C80.5825 200.886 78.2443 201.405 78.3742 204.047L78.3309 204.091Z" fill="#12426D"/>
<path d="M133.929 234.276C133.496 234.276 133.063 233.973 132.933 233.54C132.76 232.977 133.106 232.414 133.626 232.241C136.267 231.461 138.562 230.119 138.605 229.599C138.605 229.599 138.519 229.339 137.783 228.906C133.626 226.611 127.347 230.942 127.304 230.985C126.828 231.331 126.178 231.201 125.832 230.725C125.485 230.249 125.615 229.599 126.092 229.253C126.395 229.036 133.496 224.186 138.779 227.044C140.164 227.823 140.814 228.733 140.684 229.816C140.424 232.241 135.661 233.843 134.189 234.233C134.145 234.233 134.016 234.276 133.929 234.276Z" fill="#12426D"/>
<path d="M137.35 239.95C132.976 239.95 129.252 238.304 129.166 238.304C128.646 238.087 128.386 237.438 128.646 236.918C128.863 236.398 129.512 236.139 130.032 236.398C130.508 236.615 141.593 241.422 146.746 232.804C146.746 232.674 146.746 232.414 146.529 232.198C146.226 231.851 144.754 230.855 138.865 232.068C138.302 232.198 137.739 231.808 137.609 231.245C137.48 230.682 137.869 230.119 138.432 229.989C143.542 228.949 146.703 229.209 148.132 230.812C148.998 231.764 148.911 232.977 148.694 233.54L148.608 233.713C145.75 238.65 141.29 239.95 137.35 239.95Z" fill="#12426D"/>
<path d="M30.527 300.364H22.2132C21.6503 300.364 21.174 299.888 21.174 299.325C21.174 298.762 21.6503 298.286 22.2132 298.286H30.527C31.0899 298.286 31.5662 298.762 31.5662 299.325C31.5662 299.888 31.0899 300.364 30.527 300.364Z" fill="#12426D"/>
<path d="M92.8799 300.364H35.1601C34.5972 300.364 34.1209 299.888 34.1209 299.325C34.1209 298.762 34.5972 298.286 35.1601 298.286H92.8799C93.4428 298.286 93.9191 298.762 93.9191 299.325C93.9191 299.888 93.4861 300.364 92.8799 300.364Z" fill="#12426D"/>
<path d="M156.142 300.364H97.7729C97.21 300.364 96.7337 299.888 96.7337 299.325C96.7337 298.762 97.21 298.286 97.7729 298.286H156.142C156.705 298.286 157.181 298.762 157.181 299.325C157.181 299.888 156.705 300.364 156.142 300.364Z" fill="#12426D"/>
<path d="M167.877 300.364H159.606C159.043 300.364 158.567 299.888 158.567 299.325C158.567 298.762 159.043 298.286 159.606 298.286H167.877C168.44 298.286 168.916 298.762 168.916 299.325C168.916 299.888 168.44 300.364 167.877 300.364Z" fill="#12426D"/>
<path d="M248.373 300.364H172.64C172.077 300.364 171.601 299.888 171.601 299.325C171.601 298.762 172.077 298.286 172.64 298.286H248.329C248.892 298.286 249.368 298.762 249.368 299.325C249.368 299.888 248.935 300.364 248.373 300.364Z" fill="#12426D"/>
<path d="M138.908 204.177L135.661 204.61L133.799 206.906V210.76L131.028 212.622L130.508 215.437V217.083L128.17 218.642V221.197L129.209 222.756L133.929 226.481L136.007 230.638L137.133 232.847L139.688 234.883L142.243 235.835L147.179 234.883L150.773 233.237L154.194 234.103L156.142 234.32L158.654 234.103L159 229.469L162.074 226.957L161.641 222.973L164.109 220.591L164.456 216.736L162.767 214.571L160.039 217.603L157.181 218.642L152.375 219.032L147.266 216.693L142.632 214.181L140.207 211.366L139.645 208.595L138.908 204.177Z" fill="#8C9DA8"/>
<path d="M138.908 204.177L141.29 198.114L142.632 189.236V179.405L143.542 167.885C143.542 167.885 146.399 154.373 146.746 153.247C147.092 152.121 152.202 142.073 152.202 142.073L158.177 137.05L164.716 134.668L172.64 134.105L179.135 135.187L185.803 138.132L189.787 141.121L194.42 145.365L198.447 152.641L199.746 160.263L197.321 169.141L190.047 181.57L183.725 189.366L179.135 193.913L175.541 197.291L168.093 205.606L163.46 212.839L162.724 214.658L160.039 217.689L154.627 218.902L148.391 217.906L142.632 214.268L140.164 211.453L138.908 204.177Z" fill="#46B4C6"/>
<path d="M187.665 139.388C187.665 139.388 153.284 138.998 153.284 169.314C153.284 195.689 151.422 204.567 145.274 213.705L143.845 215.047L142.632 214.181L139.645 208.595L138.865 204.177L140.511 200.583L142.243 195.472L142.589 189.236L142.935 174.554L144.841 160.046L147.699 150.215L150.73 142.983L159.476 136.27L164.629 134.581L170.345 134.018L174.242 134.321L182.772 136.443L187.665 139.388Z" fill="#7CCFDC"/>
<path d="M151.033 217.603C151.033 217.603 157.484 196.771 168.656 190.925C179.828 185.078 196.975 176.243 199.27 163.468L192.385 178.279L186.193 186.464L181.083 191.878L175.541 197.205L169.565 203.657L163.46 212.752L162.724 214.571L158.87 218.166L153.414 218.599L151.033 217.603Z" fill="#3F9CA5"/>
<path d="M183.768 151.514L186.02 156.322L187.665 161.562H192.428L191.692 155.932L189.267 151.125L187.925 149.436L184.158 150.085L183.768 151.514Z" fill="#7CCFDC"/>
<path d="M188.098 167.495L185.803 173.125L184.158 175.984V177.499L186.106 177.456L189.31 173.342L191.692 168.145L188.098 167.495Z" fill="#7CCFDC"/>
<path d="M153.068 183.216L154.583 181.051L153.198 178.322H150.167L148.478 179.492L149.95 182.566L153.068 183.216Z" fill="#FFE09D"/>
<path d="M171.514 191.878L173.939 190.578L174.372 187.937L172.64 186.464L170.734 186.204L168.873 186.464L168.656 190.968L171.514 191.878Z" fill="#FFE09D"/>
<path d="M149.387 217.603C149.387 217.603 150.47 220.721 145.793 221.197C145.793 221.197 146.486 224.229 140.208 225.355C140.208 225.355 145.274 230.292 139.688 234.883L140.208 235.792L145.793 235.532L150.773 233.237L156.099 234.32L158.61 234.06L158.957 229.469L161.598 227.997L161.901 223.882L164.066 220.548L164.672 218.122L162.681 214.528L159.996 217.559L156.056 219.422L149.387 217.603Z" fill="#707E85"/>
<path d="M140.208 211.366C140.208 211.366 136.267 211.236 136.96 215.914C136.96 215.914 133.409 216.477 135.315 222.323C135.315 222.323 132.846 221.847 133.929 226.438L131.028 224.185L128.17 221.197L128.776 219.465L130.551 217.04L131.071 212.622L133.842 210.76L133.193 208.551L134.189 204.697L138.909 204.177L139.688 208.595L140.208 211.366Z" fill="#AFBDC6"/>
<path d="M155.276 219.985C153.198 219.985 150.903 219.422 148.435 218.252L145.88 217.126C142.329 215.697 139.904 213.488 138.779 210.63C136.96 206.213 138.822 201.838 138.908 201.622L138.952 201.535L139.038 201.449C139.082 201.405 142.199 196.685 141.983 178.019C141.766 160.176 148.175 146.577 148.435 145.971C152.591 137.916 159.693 133.455 168.916 133.022C175.844 132.719 181.43 134.711 181.69 134.798L181.733 134.841L184.374 136.01C184.591 136.14 190.133 139.172 194.723 144.585C200.872 151.904 202.301 159.96 198.837 167.972C198.62 168.535 193.034 182.48 179.784 194.476C165.841 207.122 163.72 214.658 163.72 214.744L163.676 214.874C163.633 215.004 162.291 217.992 158.783 219.292C157.701 219.768 156.532 219.985 155.276 219.985ZM140.684 202.531C140.467 203.051 139.212 206.559 140.597 209.937C141.55 212.276 143.585 214.095 146.659 215.351L149.257 216.477C152.721 218.079 155.666 218.425 158.047 217.559C160.559 216.65 161.641 214.571 161.815 214.225C162.118 213.229 164.672 205.563 178.442 193.09C191.346 181.397 196.931 167.409 197.018 167.279C200.222 159.873 198.966 152.727 193.251 145.928C189.094 140.991 183.941 138.046 183.465 137.786L180.997 136.703C180.564 136.573 175.281 134.754 168.959 135.057C160.342 135.491 154.02 139.475 150.167 146.924C150.123 147.054 143.672 160.696 143.888 178.062C144.148 196.165 141.247 201.665 140.684 202.531Z" fill="#12426D"/>
<path d="M142.243 236.442C141.333 236.442 140.337 236.268 139.298 235.835C138.822 235.619 138.562 235.056 138.779 234.536C138.995 234.06 139.558 233.8 140.078 234.016C143.368 235.445 146.14 233.064 146.183 233.02L146.4 232.804L151.812 232.154L152.072 232.284C154.497 233.41 156.315 233.67 157.225 233.02C158.221 232.284 158.134 230.378 158.004 229.686L157.874 229.036L158.48 228.689C162.118 226.567 160.905 223.752 160.732 223.449L160.386 222.713L161.035 222.237C162.854 220.851 163.763 219.508 163.72 218.209C163.72 216.563 162.161 215.437 162.161 215.437C161.728 215.134 161.641 214.528 161.944 214.095C162.248 213.662 162.854 213.575 163.287 213.878C163.373 213.965 165.625 215.567 165.668 218.209C165.712 219.985 164.716 221.717 162.767 223.406C163.287 225.138 163.157 227.997 159.996 230.119C160.083 231.245 159.996 233.453 158.394 234.666C156.878 235.792 154.583 235.662 151.509 234.276L147.222 234.796C146.573 235.186 144.667 236.442 142.243 236.442Z" fill="#12426D"/>
<path d="M139.688 235.879C139.558 235.879 139.428 235.835 139.298 235.792C135.488 234.146 134.838 230.335 134.708 229.209L132.154 225.701C129.036 224.402 127.347 222.8 127.174 220.937C127.001 218.945 128.56 217.386 129.426 216.65C128.819 212.882 130.811 210.847 132.457 210.024C132.327 207.469 132.933 205.563 134.275 204.394C136.224 202.618 138.952 203.181 139.082 203.181C139.601 203.311 139.948 203.787 139.861 204.35C139.731 204.87 139.255 205.217 138.692 205.13C138.649 205.13 136.787 204.784 135.574 205.866C134.622 206.732 134.232 208.335 134.449 210.587L134.535 211.41L133.756 211.626C133.409 211.713 130.508 212.709 131.461 216.866L131.591 217.516L131.028 217.906C130.465 218.296 128.993 219.508 129.123 220.764C129.252 221.89 130.681 223.016 133.149 224.012L133.409 224.099L136.614 228.516V228.82C136.614 228.949 136.787 232.544 140.034 233.973C140.511 234.19 140.77 234.753 140.554 235.272C140.424 235.662 140.078 235.879 139.688 235.879Z" fill="#12426D"/>
<path d="M150.773 219.162C150.643 219.162 150.513 219.118 150.383 219.075C149.907 218.859 149.647 218.296 149.864 217.776L151.899 213.142C152.158 212.536 158.307 197.075 168.093 190.405C168.526 190.102 169.132 190.232 169.435 190.665C169.739 191.098 169.609 191.704 169.176 192.007C159.866 198.33 153.761 213.705 153.674 213.835L151.639 218.512C151.509 218.945 151.163 219.162 150.773 219.162Z" fill="#12426D"/>
<path d="M171.514 192.787C170.994 192.787 170.475 192.7 169.998 192.484C169.046 192.094 168.353 191.315 167.963 190.362C167.574 189.409 167.617 188.37 168.007 187.417C168.873 185.468 171.124 184.602 173.073 185.425C175.021 186.248 175.887 188.543 175.065 190.492C174.675 191.444 173.895 192.137 172.943 192.527C172.466 192.7 171.99 192.787 171.514 192.787ZM171.514 187.07C171.297 187.07 171.038 187.114 170.821 187.2C170.345 187.374 169.998 187.72 169.782 188.196C169.565 188.673 169.565 189.149 169.739 189.626C169.912 190.102 170.258 190.448 170.734 190.665C171.211 190.881 171.687 190.881 172.163 190.708C172.64 190.535 172.986 190.189 173.203 189.712C173.636 188.759 173.159 187.633 172.25 187.244C172.033 187.157 171.774 187.07 171.514 187.07Z" fill="#12426D"/>
<path d="M144.494 216.433C144.364 216.433 144.234 216.39 144.105 216.347C143.628 216.13 143.368 215.567 143.585 215.047L145.62 210.413C145.707 210.24 152.808 195.299 151.076 184.169C150.989 183.649 151.379 183.129 151.899 183.043C152.418 182.956 152.938 183.346 153.025 183.866C154.8 195.602 147.699 210.587 147.395 211.236L145.404 215.827C145.23 216.173 144.884 216.433 144.494 216.433Z" fill="#12426D"/>
<path d="M151.812 184.212C151.292 184.212 150.773 184.125 150.297 183.909C149.344 183.519 148.651 182.74 148.261 181.787C147.872 180.834 147.915 179.795 148.305 178.842C149.171 176.893 151.422 176.027 153.371 176.85C154.324 177.239 155.016 178.019 155.406 178.972C155.796 179.925 155.752 180.964 155.363 181.917C154.973 182.87 154.194 183.562 153.241 183.952C152.765 184.125 152.288 184.212 151.812 184.212ZM150.08 179.621C149.647 180.574 150.123 181.7 151.033 182.09C151.509 182.307 151.985 182.307 152.462 182.133C152.938 181.96 153.284 181.614 153.501 181.137C153.717 180.661 153.717 180.184 153.544 179.708C153.371 179.232 153.024 178.885 152.548 178.669C152.072 178.452 151.596 178.452 151.119 178.625C150.643 178.799 150.253 179.145 150.08 179.621Z" fill="#12426D"/>
<path d="M164.456 189.063C155.969 189.063 153.847 181.744 153.804 181.657C153.717 181.31 153.891 180.964 154.237 180.877C154.583 180.791 154.93 180.964 155.016 181.31C155.103 181.657 157.614 190.015 168.699 187.157C169.046 187.07 169.392 187.287 169.479 187.633C169.565 187.98 169.349 188.326 169.002 188.413C167.357 188.889 165.798 189.063 164.456 189.063Z" fill="#12426D"/>
<path d="M185.024 178.106C184.677 178.106 184.331 177.976 184.028 177.716C183.508 177.239 183.378 176.46 183.725 175.854C185.413 172.909 186.496 169.92 186.886 166.975L186.972 166.282L192.471 167.582L192.298 168.231C190.956 173.255 188.055 176.2 185.846 177.802C185.63 177.976 185.283 178.106 185.024 178.106ZM188.055 167.842C187.578 170.743 186.496 173.645 184.85 176.503C184.807 176.59 184.807 176.676 184.894 176.763C184.98 176.85 185.067 176.806 185.11 176.763C187.059 175.377 189.57 172.822 190.869 168.534L188.055 167.842Z" fill="#12426D"/>
<path d="M186.929 162.212L186.842 161.649C186.193 156.928 183.898 153.463 182.599 151.774C182.209 151.298 182.166 150.648 182.426 150.129C182.685 149.566 183.205 149.219 183.811 149.219C186.583 149.132 188.531 149.522 188.574 149.522L188.791 149.566L188.921 149.695C193.251 154.329 193.078 161.215 193.034 161.475V162.082L186.929 162.212ZM184.721 150.475C184.461 150.475 184.158 150.475 183.855 150.475C183.681 150.475 183.638 150.605 183.595 150.648C183.551 150.692 183.508 150.822 183.638 150.951C184.98 152.64 187.275 156.148 188.055 160.869L191.735 160.782C191.649 159.05 191.216 154.156 188.098 150.692C187.665 150.648 186.366 150.475 184.721 150.475Z" fill="#12426D"/>
<path d="M145.793 221.717C145.707 221.717 145.62 221.717 145.534 221.674C132.673 216.26 133.15 210.933 133.15 210.717C133.193 210.37 133.496 210.11 133.886 210.154C134.232 210.197 134.492 210.5 134.449 210.847C134.449 210.933 134.319 215.567 146.053 220.504C146.4 220.634 146.529 221.024 146.4 221.37C146.27 221.587 146.053 221.717 145.793 221.717Z" fill="#12426D"/>
<path d="M155.103 230.638C152.548 230.638 148.868 229.945 143.585 227.563C143.239 227.434 143.109 227.044 143.282 226.697C143.412 226.351 143.801 226.221 144.148 226.394C155.796 231.678 159.087 228.343 159.087 228.3C159.346 228.04 159.736 227.997 159.996 228.256C160.256 228.516 160.299 228.906 160.039 229.166C159.953 229.209 158.697 230.638 155.103 230.638Z" fill="#12426D"/>
<path d="M157.225 224.575C156.359 224.575 155.449 224.445 154.41 224.185C154.064 224.099 153.847 223.752 153.977 223.406C154.064 223.059 154.41 222.843 154.757 222.973C158.827 224.099 161.295 222.193 161.425 222.107C161.685 221.89 162.118 221.933 162.334 222.193C162.551 222.453 162.507 222.886 162.248 223.103C162.118 223.146 160.299 224.575 157.225 224.575Z" fill="#12426D"/>
<path d="M140.208 226.004C140.121 226.004 139.991 225.961 139.904 225.918C130.768 221.111 129.902 217.343 129.902 217.213C129.815 216.866 130.075 216.52 130.422 216.433C130.768 216.347 131.114 216.563 131.201 216.91C131.201 216.996 132.154 220.331 140.554 224.749C140.857 224.922 140.987 225.312 140.814 225.615C140.684 225.875 140.424 226.004 140.208 226.004Z" fill="#12426D"/>
<path d="M150.167 156.798C150.123 156.798 150.037 156.798 149.993 156.798C149.647 156.711 149.431 156.365 149.517 156.019C152.808 143.546 161.382 139.085 161.771 138.912C162.074 138.739 162.464 138.869 162.637 139.215C162.81 139.518 162.681 139.908 162.334 140.081C162.248 140.124 153.891 144.499 150.773 156.365C150.73 156.582 150.47 156.798 150.167 156.798Z" fill="#12426D"/>
<path d="M148.478 167.452C148.132 167.452 147.872 167.192 147.828 166.846C147.612 164.204 148.565 160.22 148.565 160.046C148.651 159.7 148.998 159.483 149.344 159.57C149.69 159.656 149.907 160.003 149.82 160.349C149.82 160.393 148.911 164.334 149.084 166.759C149.127 167.105 148.824 167.409 148.478 167.452C148.521 167.452 148.521 167.452 148.478 167.452Z" fill="#12426D"/>
<path d="M158.654 214.831C158.567 214.831 158.48 214.831 158.35 214.744C158.047 214.571 157.917 214.181 158.047 213.878C158.264 213.445 163.503 202.791 169.046 196.512C169.262 196.252 169.695 196.208 169.955 196.468C170.215 196.685 170.258 197.118 169.998 197.378C164.586 203.484 159.26 214.311 159.217 214.441C159.13 214.701 158.913 214.831 158.654 214.831Z" fill="#12426D"/>
<path d="M69.8006 179.102L66.1201 178.192L63.522 174.165L64.0417 171.306L66.4232 168.145L70.277 167.149L69.8006 179.102Z" fill="#FDD9AF"/>
<path d="M125.269 166.369L124.143 186.811L122.065 191.185L116.609 192.917L100.025 191.964L78.4608 190.752L72.7018 189.886L72.0956 189.323L69.8007 186.031L70.277 167.149L74.9967 164.247L79.067 161.042L87.5539 162.991L98.076 161.908L108.122 153.507L112.928 159.527L122.151 163.684L125.269 166.369Z" fill="#FDD9AF"/>
<path d="M123.667 182.566C123.667 182.566 122.801 188.716 117.301 188.716C111.802 188.716 77.9412 186.508 77.9412 186.508C77.9412 186.508 71.0131 185.295 69.9739 181.094L69.844 186.031L73.5678 190.145L78.4608 190.752L118.514 192.874L120.592 192.224L123.06 189.972L124.013 188.067L123.667 182.566Z" fill="#FBBB9A"/>
<path d="M109.724 155.932C109.724 155.932 99.5915 169.877 80.4526 164.94C80.4526 164.94 76.7721 169.574 71.143 170.397L70.6667 165.893L79.0237 161.042L86.558 163.597L95.781 162.125L103.402 157.404L107.386 153.247L109.724 155.932Z" fill="#FBBB9A"/>
<path d="M125.139 168.448C125.139 168.448 112.538 165.936 104.831 156.582L108.078 153.507L112.019 158.877L119.077 163.511L124.056 165.33L125.139 168.448Z" fill="#FBBB9A"/>
<path d="M110.547 176.157C110.547 176.157 110.936 172.476 108.944 168.968L107.342 178.366L109.161 177.846L110.547 176.157Z" fill="#FFECD8"/>
<path d="M93.415 172.452C92.0539 172.184 90.8384 172.538 90.7002 173.243C90.5619 173.947 91.5532 174.734 92.9143 175.002C94.2754 175.269 95.4909 174.915 95.6291 174.211C95.7674 173.507 94.7761 172.719 93.415 172.452Z" fill="#FFECD8"/>
<path d="M118.827 175.354C117.451 175.172 116.261 175.602 116.167 176.313C116.073 177.025 117.112 177.748 118.487 177.93C119.862 178.111 121.053 177.681 121.147 176.97C121.24 176.259 120.202 175.535 118.827 175.354Z" fill="#FFECD8"/>
<path d="M105.437 185.728C105.437 185.728 89.5458 188.716 88.5498 176.07L90.7149 178.842L96.6471 182.826L102.449 184.775L105.437 185.728Z" fill="#FBBB9A"/>
<path d="M67.8088 167.279C65.6005 167.279 63.1757 166.759 60.6209 165.416C60.1013 165.157 59.8848 164.464 60.1446 163.944C60.4044 163.424 61.0972 163.208 61.6168 163.468C71.0131 168.361 78.1144 160.393 78.201 160.306L78.7206 159.7L79.4567 160.003C95.0016 166.759 107.126 152.9 107.212 152.727L108.208 151.558L108.988 152.857C116.825 165.85 128.863 164.507 128.993 164.507C129.599 164.42 130.162 164.853 130.205 165.46C130.248 166.066 129.859 166.629 129.252 166.672C128.733 166.759 116.392 168.102 107.862 155.196C105.264 157.751 97.8595 164.031 88.0735 164.031C85.3023 164.031 82.3579 163.511 79.2402 162.298C77.8546 163.771 73.5678 167.279 67.8088 167.279Z" fill="#12426D"/>
<path d="M69.1511 180.141C69.1078 180.141 69.0645 180.141 69.0645 180.141C67.2026 179.968 65.5139 179.058 64.3015 177.629C63.0891 176.157 62.5261 174.338 62.6993 172.476C62.8726 170.613 63.7819 168.924 65.2108 167.712C66.683 166.499 68.5016 165.936 70.3636 166.109C70.9698 166.153 71.4028 166.716 71.3595 167.322C71.3162 167.928 70.7533 168.361 70.1471 168.318C68.848 168.188 67.5923 168.578 66.5964 169.401C65.6005 170.224 64.9943 171.393 64.8644 172.692C64.7345 173.991 65.1242 175.247 65.9469 176.243C66.7696 177.24 67.9387 177.846 69.2377 177.976C69.844 178.019 70.277 178.582 70.2337 179.188C70.1904 179.708 69.7141 180.141 69.1511 180.141Z" fill="#12426D"/>
<path d="M66.3366 173.082C66.2067 173.082 66.0768 173.039 65.9902 172.995C65.6438 172.779 65.5139 172.346 65.7304 171.999C67.116 169.574 70.1903 169.747 70.3203 169.791C70.71 169.834 71.0131 170.18 71.0131 170.57C70.9698 170.96 70.6234 171.263 70.2337 171.263C70.1904 171.263 67.8954 171.133 66.9861 172.779C66.8562 172.952 66.5964 173.082 66.3366 173.082Z" fill="#12426D"/>
<path d="M117.648 194.043C117.518 194.043 117.345 194.043 117.215 194.043L75.6029 191.704C71.4028 191.488 68.1985 187.893 68.415 183.692L69.4109 165.85C69.4542 165.243 69.9738 164.767 70.5801 164.81C71.1863 164.853 71.6626 165.373 71.6193 165.979L70.6234 183.822C70.4502 186.811 72.7451 189.366 75.7328 189.539L117.345 191.878C120.333 192.051 122.887 189.756 123.06 186.767L124.23 165.503C124.273 164.897 124.792 164.42 125.399 164.464C126.005 164.507 126.481 165.027 126.438 165.633L125.269 186.897C125.009 190.925 121.632 194.043 117.648 194.043Z" fill="#12426D"/>
<path d="M116.522 173.818C117.837 173.818 118.904 172.752 118.904 171.436C118.904 170.121 117.837 169.054 116.522 169.054C115.207 169.054 114.141 170.121 114.141 171.436C114.141 172.752 115.207 173.818 116.522 173.818Z" fill="#12426D"/>
<path d="M96.6903 171.826C98.0056 171.826 99.0719 170.76 99.0719 169.444C99.0719 168.129 98.0056 167.062 96.6903 167.062C95.3751 167.062 94.3088 168.129 94.3088 169.444C94.3088 170.76 95.3751 171.826 96.6903 171.826Z" fill="#12426D"/>
<path d="M107.516 179.622C107.472 179.622 107.386 179.622 107.299 179.622C105.35 179.492 103.878 177.716 104.008 175.594C104.051 174.988 104.571 174.511 105.177 174.554C105.783 174.598 106.26 175.118 106.216 175.724C106.173 176.633 106.693 177.37 107.429 177.413C108.165 177.456 108.771 176.763 108.858 175.854C108.901 175.247 109.421 174.771 110.027 174.814C110.633 174.858 111.109 175.377 111.066 175.984C110.936 178.062 109.377 179.622 107.516 179.622Z" fill="#12426D"/>
<path d="M104.961 185.901C103.012 185.901 92.6634 185.511 88.4632 176.893C88.2034 176.33 88.4199 175.68 88.9828 175.421C89.5457 175.161 90.1953 175.377 90.4551 175.94C94.3954 183.952 105.091 183.692 105.221 183.692C105.827 183.649 106.346 184.169 106.346 184.775C106.346 185.381 105.913 185.901 105.307 185.901C105.221 185.901 105.134 185.901 104.961 185.901Z" fill="#12426D"/>
</svg>
