<svg width="14" height="14" viewBox="0 0 14 14" fill="none" xmlns="http://www.w3.org/2000/svg">
<path d="M6.60876 12.1773C6.94422 12.1777 7.27147 12.0736 7.54503 11.8795C7.81859 11.6853 8.02486 11.4108 8.13518 11.094H5.08235C5.19267 11.4108 5.39894 11.6853 5.6725 11.8795C5.94606 12.0736 6.27331 12.1777 6.60876 12.1773ZM10.4004 8.16141V5.67733C10.4004 3.93479 9.21689 2.46687 7.61356 2.02541C7.45485 1.62566 7.06701 1.34399 6.60876 1.34399C6.15051 1.34399 5.76268 1.62566 5.60397 2.02541C4.00064 2.46741 2.8171 3.93479 2.8171 5.67733V8.16141L1.89247 9.08604C1.84208 9.13625 1.80211 9.19594 1.77487 9.26166C1.74763 9.32739 1.73366 9.39785 1.73377 9.46899V10.0107C1.73377 10.1543 1.79083 10.2921 1.89242 10.3937C1.994 10.4953 2.13177 10.5523 2.27543 10.5523H10.9421C11.0858 10.5523 11.2235 10.4953 11.3251 10.3937C11.4267 10.2921 11.4838 10.1543 11.4838 10.0107V9.46899C11.4839 9.39785 11.4699 9.32739 11.4427 9.26166C11.4154 9.19594 11.3755 9.13625 11.3251 9.08604L10.4004 8.16141Z" fill="#2B2B3F"/>
</svg>
