<svg width="24" height="23" viewBox="0 0 24 23" fill="none" xmlns="http://www.w3.org/2000/svg">
<path fill-rule="evenodd" clip-rule="evenodd" d="M3.1861 4.60001C2.98277 4.60001 2.78776 4.68078 2.64399 4.82456C2.50021 4.96834 2.41943 5.16334 2.41943 5.36667C2.41943 5.57001 2.50021 5.76501 2.64399 5.90879C2.78776 6.05257 2.98277 6.13334 3.1861 6.13334H21.5861C21.7894 6.13334 21.9844 6.05257 22.1282 5.90879C22.272 5.76501 22.3528 5.57001 22.3528 5.36667C22.3528 5.16334 22.272 4.96834 22.1282 4.82456C21.9844 4.68078 21.7894 4.60001 21.5861 4.60001H3.1861ZM2.41943 11.5C2.41943 11.2967 2.50021 11.1017 2.64399 10.9579C2.78776 10.8141 2.98277 10.7333 3.1861 10.7333H21.5861C21.7894 10.7333 21.9844 10.8141 22.1282 10.9579C22.272 11.1017 22.3528 11.2967 22.3528 11.5C22.3528 11.7033 22.272 11.8983 22.1282 12.0421C21.9844 12.1859 21.7894 12.2667 21.5861 12.2667H3.1861C2.98277 12.2667 2.78776 12.1859 2.64399 12.0421C2.50021 11.8983 2.41943 11.7033 2.41943 11.5ZM2.41943 17.6333C2.41943 17.43 2.50021 17.235 2.64399 17.0912C2.78776 16.9474 2.98277 16.8667 3.1861 16.8667H21.5861C21.7894 16.8667 21.9844 16.9474 22.1282 17.0912C22.272 17.235 22.3528 17.43 22.3528 17.6333C22.3528 17.8367 22.272 18.0317 22.1282 18.1755C21.9844 18.3192 21.7894 18.4 21.5861 18.4H3.1861C2.98277 18.4 2.78776 18.3192 2.64399 18.1755C2.50021 18.0317 2.41943 17.8367 2.41943 17.6333Z" fill="#FBECCC"/>
</svg>
