<svg width="20" height="21" viewBox="0 0 20 21" fill="none" xmlns="http://www.w3.org/2000/svg">
<path d="M18.0527 7.31935C17.6145 6.2735 16.977 5.3229 16.1757 4.52053C15.3768 3.71675 14.4279 3.07771 13.3827 2.63967C12.3121 2.18875 11.1617 1.95761 9.99993 1.95998H9.96087C8.77923 1.96584 7.63665 2.20021 6.56048 2.66115C5.52429 3.10368 4.58425 3.74386 3.7929 4.54592C2.9994 5.34649 2.36921 6.29377 1.93743 7.33498C1.48922 8.41772 1.2621 9.57917 1.26946 10.751C1.27532 12.1065 1.59954 13.4522 2.20501 14.6553V17.624C2.20501 18.1201 2.60735 18.5225 3.10149 18.5225H6.06634C7.27507 19.1324 8.60893 19.4533 9.96282 19.46H10.0038C11.1718 19.46 12.3027 19.2334 13.3691 18.7901C14.4089 18.3572 15.3543 17.7256 16.1523 16.9307C16.957 16.1319 17.5898 15.1983 18.0331 14.1572C18.4921 13.0791 18.7265 11.9326 18.7323 10.749C18.7363 9.55959 18.5058 8.40529 18.0527 7.31935ZM6.10149 11.6475C5.58587 11.6475 5.16594 11.2276 5.16594 10.71C5.16594 10.1924 5.58587 9.77248 6.10149 9.77248C6.61712 9.77248 7.03704 10.1924 7.03704 10.71C7.03704 11.2276 6.61907 11.6475 6.10149 11.6475ZM9.99993 11.6475C9.4843 11.6475 9.06438 11.2276 9.06438 10.71C9.06438 10.1924 9.4843 9.77248 9.99993 9.77248C10.5156 9.77248 10.9355 10.1924 10.9355 10.71C10.9355 11.2276 10.5156 11.6475 9.99993 11.6475ZM13.8984 11.6475C13.3827 11.6475 12.9628 11.2276 12.9628 10.71C12.9628 10.1924 13.3827 9.77248 13.8984 9.77248C14.414 9.77248 14.8339 10.1924 14.8339 10.71C14.8339 11.2276 14.414 11.6475 13.8984 11.6475Z" fill="#FBECCC"/>
</svg>
