<svg width="12" height="10" viewBox="0 0 12 10" fill="none" xmlns="http://www.w3.org/2000/svg">
<path d="M8.44212 0.343994H3.77545C1.8452 0.343994 0.275452 1.68949 0.275452 3.34399V9.34399C0.275452 9.4766 0.33691 9.60378 0.446306 9.69755C0.555702 9.79132 0.704075 9.84399 0.858785 9.84399H8.44212C10.3724 9.84399 11.9421 8.49849 11.9421 6.84399V3.34399C11.9421 1.68949 10.3724 0.343994 8.44212 0.343994ZM10.7755 6.84399C10.7755 7.94699 9.72895 8.84399 8.44212 8.84399H1.44212V3.34399C1.44212 2.24099 2.48862 1.34399 3.77545 1.34399H8.44212C9.72895 1.34399 10.7755 2.24099 10.7755 3.34399V6.84399Z" fill="#2B2B3F"/>
</svg>
