<svg width="21" height="21" viewBox="0 0 21 21" fill="none" xmlns="http://www.w3.org/2000/svg">
<path fill-rule="evenodd" clip-rule="evenodd" d="M15.8715 1.67151H5.87146C5.20842 1.67151 4.57253 1.9349 4.10369 2.40374C3.63485 2.87258 3.37146 3.50847 3.37146 4.17151V16.6715C3.37146 17.3345 3.63485 17.9704 4.10369 18.4393C4.57253 18.9081 5.20842 19.1715 5.87146 19.1715H15.8715C16.5345 19.1715 17.1704 18.9081 17.6392 18.4393C18.1081 17.9704 18.3715 17.3345 18.3715 16.6715V4.17151C18.3715 3.50847 18.1081 2.87258 17.6392 2.40374C17.1704 1.9349 16.5345 1.67151 15.8715 1.67151ZM9.17896 7.47901C9.23707 7.4209 9.30606 7.3748 9.38198 7.34335C9.4579 7.31191 9.53928 7.29572 9.62146 7.29572C9.70364 7.29572 9.78502 7.31191 9.86094 7.34335C9.93686 7.3748 10.0059 7.4209 10.064 7.47901C10.1221 7.53712 10.1682 7.6061 10.1996 7.68203C10.2311 7.75795 10.2472 7.83933 10.2472 7.92151C10.2472 8.00369 10.2311 8.08506 10.1996 8.16099C10.1682 8.23691 10.1221 8.3059 10.064 8.36401L8.00521 10.4215L10.064 12.479C10.1813 12.5964 10.2472 12.7555 10.2472 12.9215C10.2472 13.0875 10.1813 13.2467 10.064 13.364C9.9466 13.4814 9.78743 13.5473 9.62146 13.5473C9.45549 13.5473 9.29632 13.4814 9.17896 13.364L6.67896 10.864C6.62076 10.806 6.57458 10.737 6.54307 10.6611C6.51156 10.5851 6.49534 10.5037 6.49534 10.4215C6.49534 10.3393 6.51156 10.2579 6.54307 10.182C6.57458 10.106 6.62076 10.0371 6.67896 9.97901L9.17896 7.47901ZM12.564 7.47901C12.5058 7.4209 12.4369 7.3748 12.3609 7.34335C12.285 7.31191 12.2036 7.29572 12.1215 7.29572C12.0393 7.29572 11.9579 7.31191 11.882 7.34335C11.8061 7.3748 11.7371 7.4209 11.679 7.47901C11.6208 7.53712 11.5748 7.6061 11.5433 7.68203C11.5119 7.75795 11.4957 7.83933 11.4957 7.92151C11.4957 8.00369 11.5119 8.08506 11.5433 8.16099C11.5748 8.23691 11.6208 8.3059 11.679 8.36401L13.7377 10.4215L11.679 12.479C11.5616 12.5964 11.4957 12.7555 11.4957 12.9215C11.4957 13.0875 11.5616 13.2467 11.679 13.364C11.7963 13.4814 11.9555 13.5473 12.1215 13.5473C12.2874 13.5473 12.4466 13.4814 12.564 13.364L15.064 10.864C15.1222 10.806 15.1683 10.737 15.1999 10.6611C15.2314 10.5851 15.2476 10.5037 15.2476 10.4215C15.2476 10.3393 15.2314 10.2579 15.1999 10.182C15.1683 10.106 15.1222 10.0371 15.064 9.97901L12.564 7.47901Z" fill="#FBECCC"/>
</svg>
