<svg xmlns="http://www.w3.org/2000/svg" viewBox="0 0 225.87 416.59"><defs><style>.cls-1,.cls-20{fill:#fff;}.cls-2{fill:#94c8ff;}.cls-3{fill:#f9d4bb;}.cls-4{fill:#e2b89c;}.cls-5{fill:#474b58;}.cls-6{fill:none;stroke:#5a6281;stroke-miterlimit:10;stroke-width:3px;}.cls-7{fill:#86b7e2;}.cls-20,.cls-8{opacity:0.15;}.cls-9{fill:#ffe66a;}.cls-10{fill:#5a6281;}.cls-11{fill:#fbcdac;}.cls-12{fill:#b35553;}.cls-13{fill:#a64f4d;}.cls-14{fill:#ff7b6b;}.cls-15{fill:#dd685f;}.cls-16{fill:#80766e;}.cls-17{fill:#6d645e;}.cls-18{fill:#a36d41;}.cls-19{fill:#8c5c38;}</style></defs><title>Asset 350</title><g id="Layer_2" data-name="Layer 2"><g id="Layer_1-2" data-name="Layer 1"><path class="cls-1" d="M25,359.61a78.71,78.71,0,0,0-8.36,8.74c-.63.76.46,1.85,1.09,1.09a78.71,78.71,0,0,1,8.36-8.74c.74-.66-.35-1.74-1.09-1.09Z"/><path class="cls-2" d="M79.62,315.11,34.5,339.5a57.92,57.92,0,0,0-30.38,51v24.78H224.75V390.45a57.92,57.92,0,0,0-30.38-51l-45.13-24.39"/><path class="cls-3" d="M133.47,264.85v25.23a18.45,18.45,0,0,0,3.64,11l10.2,13.72a6.92,6.92,0,0,1-1,9.35L113.52,343.3a.85.85,0,0,1-.55.21h0a.85.85,0,0,1-.55-.21L79.64,324.16a6.92,6.92,0,0,1-1-9.35l10.2-13.72a18.45,18.45,0,0,0,3.64-11V264.85"/><path class="cls-4" d="M134.77,292.46V282.18h-41v8.74C104.06,298.38,116.68,300.06,134.77,292.46Z"/><path class="cls-5" d="M133,264.85v19.54a65.94,65.94,0,0,0,.15,8,20.12,20.12,0,0,0,3.72,9.49l1.88,2.53,7.08,9.53a14.49,14.49,0,0,1,2,3,5.51,5.51,0,0,1,.07,3.8,5.17,5.17,0,0,1-.86,1.56c-.14.17-.3.32-.45.49s-.14.15,0,.06l0,0c-1.62,1.08-3.42,2-5.11,2.92L131,331.7l-16.94,9.68c-.13.08-.54.23-.11.08h.82l-.39-.06,1.13,1.48v-.21a1.56,1.56,0,0,0-1.95-1.48l-.39.06H114c.45.16,0,0-.14-.09l-.9-.51-3.2-1.81L99.65,333.1,82,323.11c-.16-.09-.33-.17-.48-.27h0c.34.24,0-.07-.1-.14a5.37,5.37,0,0,1-.37-.41,5.29,5.29,0,0,1-.92-1.76,5.78,5.78,0,0,1,1.18-5.29l6.41-8.63c2.16-2.91,4.57-5.73,5.94-9.11s1.43-7,1.43-10.71V264.85a1.54,1.54,0,0,0-3.08,0v19.8c0,2.81.25,5.84-.29,8.6a18,18,0,0,1-3.29,7.27l-2.44,3.28-7,9.37A10,10,0,0,0,76.83,318c-.32,2.65.78,6,3.12,7.51,1.68,1.08,3.5,2,5.24,3l10.58,6c5.58,3.15,11.11,6.44,16.76,9.47a2.81,2.81,0,0,0,1.9.24l-1.95-1.48v.21a1.55,1.55,0,0,0,1.13,1.48,2.82,2.82,0,0,0,1.92-.25l.79-.45,3.07-1.76,10.08-5.76,18.09-10.34c4-2.31,4.73-8.18,2.11-11.8-1.89-2.61-3.84-5.17-5.77-7.76l-3.38-4.54a30.79,30.79,0,0,1-2.42-3.56,17.07,17.07,0,0,1-2-8.16c0-1,0-1.93,0-2.89V264.85a1.54,1.54,0,0,0-3.08,0Z"/><path class="cls-6" d="M58.49,388"/><polygon class="cls-7" points="56.35 386.92 47.55 414.08 46.5 406.71 47.13 396.83 56.35 386.92"/><path class="cls-5" d="M47.65,415.23l0-9.84,0-15.59v-3.6a1.15,1.15,0,0,0-2.31,0l0,9.84,0,15.59v3.6a1.15,1.15,0,0,0,2.31,0Z"/><path class="cls-5" d="M47.91,399.24l8.64-10.34,1.24-1.49c.95-1.13-.68-2.77-1.63-1.63l-8.64,10.34-1.24,1.49c-.95,1.13.68,2.77,1.63,1.63Z"/><polygon class="cls-7" points="179.67 386.71 188.47 413.87 189.52 406.5 188.89 396.62 179.67 386.71"/><path class="cls-5" d="M190.68,415l0-9.84,0-15.59V386a1.15,1.15,0,0,0-2.31,0l0,9.84,0,15.59V415a1.15,1.15,0,0,0,2.31,0Z"/><path class="cls-5" d="M189.74,397.39l-8.64-10.34-1.24-1.49c-1-1.14-2.58.5-1.63,1.63l8.64,10.34,1.24,1.49c1,1.14,2.58-.5,1.63-1.63Z"/><path class="cls-5" d="M78.43,313.58l-16,8.62L38,335.41,33.3,338a59.46,59.46,0,0,0-17.47,14.36A60.22,60.22,0,0,0,2.15,390.6q0,11.86,0,23.72v.7a1.56,1.56,0,0,0,1.54,1.54H215.38c2.86,0,5.72.05,8.58,0h.38a1.56,1.56,0,0,0,1.54-1.54V392.18a68.15,68.15,0,0,0-1.48-15.13,59.22,59.22,0,0,0-8.88-20.34,60,60,0,0,0-16-15.87c-2.44-1.64-5-3-7.58-4.4l-23.14-12.5c-6.29-3.4-12.53-6.89-18.87-10.2l-.31-.17c-1.74-.94-3.3,1.71-1.55,2.66l15.59,8.42,24.44,13.21,5.08,2.74a56.35,56.35,0,0,1,29.64,50.12V415l1.54-1.54H12.65c-2.85,0-5.74-.15-8.58,0H3.69L5.23,415V392.44A65.55,65.55,0,0,1,6.57,378a56.92,56.92,0,0,1,8.79-20,56.12,56.12,0,0,1,15.81-15.22c2.2-1.4,4.51-2.61,6.8-3.85l23.22-12.55c6.16-3.33,12.42-6.51,18.49-10l.31-.17c1.74-.94.19-3.6-1.55-2.66Z"/><rect class="cls-1" x="117.49" y="369.21" width="54.5" height="33.62" rx="2.34" ry="2.34"/><g class="cls-8"><path class="cls-2" d="M172.19,400.6H121.38a1.85,1.85,0,0,1-1.85-1.85V368.83a1.83,1.83,0,0,1,0-.41,1.85,1.85,0,0,0-1.43,1.8v29.92A1.85,1.85,0,0,0,120,402H170.8a1.85,1.85,0,0,0,1.8-1.43A1.83,1.83,0,0,1,172.19,400.6Z"/></g><polygon class="cls-9" points="117.58 374.85 117.61 369.14 128.99 368.21 170.81 369.32 172.37 379.9 116.84 380.52 117.58 374.85"/><path class="cls-10" d="M116.58,380.75l.78-5.92,0-5.91L129,368h0l42,1.11,1.63,11h-.26Zm1.26-11.4,0,5.53-.71,5.4,55-.61-1.5-10.14L129,368.44Z"/><path class="cls-5" d="M170,401.67H119.57c-.52,0-1-.09-1-.74s0-1.3,0-1.94V377.7c0-2.16-.14-4.38,0-6.54,0-.59.41-.79.93-.8H169a9.28,9.28,0,0,1,1.07,0c.81.1.7.81.7,1.41v28.38c0,.58.14,1.47-.69,1.52-1.48.08-1.49,2.39,0,2.31a3.14,3.14,0,0,0,3-3.4V371.89a3.76,3.76,0,0,0-.95-3c-1.2-1.15-3.35-.81-4.88-.81H134.65c-5.07,0-10.14-.05-15.2,0a3.1,3.1,0,0,0-3.23,3c0,.52,0,1,0,1.57v21.65c0,2.21-.07,4.43,0,6.64A3.08,3.08,0,0,0,119.3,404c.48,0,1,0,1.46,0H170A1.15,1.15,0,0,0,170,401.67Z"/><path class="cls-5" d="M117.38,381.09h47.75c2.21,0,4.44.1,6.65,0h.1a1.15,1.15,0,0,0,0-2.31H124.13c-2.21,0-4.44-.1-6.65,0h-.1a1.15,1.15,0,0,0,0,2.31Z"/><ellipse class="cls-11" cx="33.71" cy="179.08" rx="13.25" ry="19.14"/><path class="cls-4" d="M23.54,186c0-10.57,5.93-19.14,13.25-19.14,3.91,0,7.42,2.44,9.84,6.32-1.72-7.69-6.72-13.25-12.61-13.25-7.32,0-13.25,8.57-13.25,19.14a24.39,24.39,0,0,0,3.41,12.82A27,27,0,0,1,23.54,186Z"/><path class="cls-5" d="M19.31,179.08c0,7,2.66,15.56,9.35,19a10.77,10.77,0,0,0,9,.52A15.17,15.17,0,0,0,44.85,192c4-6.9,4.31-16.06,1.22-23.36-2.51-5.93-8.3-11.4-15.21-9.46-7.11,2-10.59,10-11.37,16.7a28.73,28.73,0,0,0-.18,3.2,1.15,1.15,0,0,0,2.31,0c0-6.19,2.2-13.8,8.06-16.95a8.48,8.48,0,0,1,7.3-.38,13.14,13.14,0,0,1,6.09,5.94,24.72,24.72,0,0,1,1,20.75c-2.05,5-6.84,10-12.74,8.27-3-.91-5.32-3.39-6.84-6.06a23.58,23.58,0,0,1-2.86-11.57A1.15,1.15,0,0,0,19.31,179.08Z"/><path class="cls-5" d="M24.57,174.69l4.1,9.53c.39.91,1.72.12,1.33-.78l-4.1-9.53c-.39-.91-1.72-.12-1.33.78Z"/><path class="cls-5" d="M28.67,173.91l-4.1,9.53c-.39.9.94,1.68,1.33.78l4.1-9.53c.39-.9-.94-1.68-1.33-.78Z"/><ellipse class="cls-11" cx="192.78" cy="176.55" rx="13.25" ry="19.14"/><path class="cls-4" d="M203.08,183.62c0-10.57-5.93-19.14-13.25-19.14-3.91,0-7.42,2.44-9.84,6.32,1.72-7.69,6.72-13.25,12.61-13.25,7.32,0,13.25,8.57,13.25,19.14a24.39,24.39,0,0,1-3.41,12.82A27,27,0,0,0,203.08,183.62Z"/><path class="cls-5" d="M178.37,176.55c0,7,2.66,15.56,9.35,19a10.77,10.77,0,0,0,9,.52,15.17,15.17,0,0,0,7.22-6.62c4-6.9,4.31-16.06,1.22-23.36-2.51-5.93-8.3-11.4-15.21-9.46-7.11,2-10.59,10-11.37,16.7a28.73,28.73,0,0,0-.18,3.2,1.15,1.15,0,0,0,2.31,0c0-6.19,2.2-13.8,8.06-16.95a8.48,8.48,0,0,1,7.3-.38,13.14,13.14,0,0,1,6.09,5.94,24.72,24.72,0,0,1,1,20.75c-2.05,5-6.84,10-12.74,8.27-3-.91-5.32-3.39-6.84-6.06a23.58,23.58,0,0,1-2.86-11.57A1.15,1.15,0,0,0,178.37,176.55Z"/><rect class="cls-3" x="35.92" y="74.16" width="151.53" height="210.91" rx="75.76" ry="75.76"/><path class="cls-4" d="M113.92,268.45h0a76,76,0,0,1-75.76-75.76V209.3a76,76,0,0,0,75.76,75.76h0a76,76,0,0,0,75.76-75.76V192.69A76,76,0,0,1,113.92,268.45Z"/><path class="cls-4" d="M36.9,129.9c55.89-1.41,72.56-25.47,77.24-43.08,5.12,18.2,22,38.94,71.91,40l.7,8.35-.7,4.51v-.09c-49.95-1.08-66.8-21.82-71.91-40-4.68,17.6-21.35,41.67-77.24,43.08"/><path class="cls-5" d="M111.84,283.14a73.36,73.36,0,0,1-33.15-7.91A74.25,74.25,0,0,1,39.28,223,97.52,97.52,0,0,1,38,204.49V159c0-4.79-.15-9.62.19-14.4A73.35,73.35,0,0,1,48.4,112.25a74.68,74.68,0,0,1,22.93-24,73.49,73.49,0,0,1,31.84-11.69,74.17,74.17,0,0,1,79.13,51.32,78.94,78.94,0,0,1,3.37,23.86V195.2q0,7,0,14a73.52,73.52,0,0,1-6.57,30.51,75.36,75.36,0,0,1-20.35,26.54,73.4,73.4,0,0,1-46.92,16.93c-2.47,0-2.48,3.85,0,3.85A78,78,0,0,0,188,224.61a100.78,100.78,0,0,0,1.53-19.94V158.54c0-5.12.16-10.29-.3-15.39A77.66,77.66,0,0,0,178,109.36,79.05,79.05,0,0,0,153.7,84.56a77.66,77.66,0,0,0-33.35-11.85,76.87,76.87,0,0,0-35.44,4.37,78.29,78.29,0,0,0-47,49.12,81.77,81.77,0,0,0-3.73,25.36v44.09q0,6.8,0,13.6A77.71,77.71,0,0,0,111.84,287,1.92,1.92,0,0,0,111.84,283.14Z"/><path class="cls-5" d="M194.71,174.7l4.1,9.53c.39.91,1.72.12,1.33-.78l-4.1-9.53c-.39-.91-1.72-.12-1.33.78Z"/><path class="cls-5" d="M198.82,173.92l-4.1,9.53c-.39.9.94,1.68,1.33.78l4.1-9.53c.39-.9-.94-1.68-1.33-.78Z"/><path class="cls-1" d="M54.89,62.69c5-2.5,9.9-5.12,15-7.37a1.16,1.16,0,0,0,.41-1.58,1.18,1.18,0,0,0-1.58-.41c-5.09,2.25-10,4.87-15,7.37-1.33.67-.16,2.66,1.16,2Z"/><path class="cls-1" d="M157,136.31c6,3.12,11.87,7.19,16,12.66a26.4,26.4,0,0,1,3.4,5.8c.76,1.82,3.68.85,2.91-1-3.19-7.65-9.6-13.38-16.49-17.68q-2.18-1.36-4.46-2.53a1.54,1.54,0,0,0-1.4,2.74Z"/><path class="cls-1" d="M143.47,130.36a27.66,27.66,0,0,1,9,3.38,1.55,1.55,0,0,0,2.07-.67,1.57,1.57,0,0,0-.67-2.07,30.22,30.22,0,0,0-9.78-3.65,1.54,1.54,0,0,0-.62,3Z"/><path class="cls-5" d="M139.06,180.9c0,5.4,3.76,3.18,8.4,3.18s8.4,2.22,8.4-3.18-3.76-9.78-8.4-9.78S139.06,175.51,139.06,180.9Z"/><path class="cls-5" d="M66.45,180.9c0,5.4,3.76,3.18,8.4,3.18s8.4,2.22,8.4-3.18-3.76-9.78-8.4-9.78S66.45,175.51,66.45,180.9Z"/><path class="cls-12" d="M90.71,258.91a42.5,42.5,0,0,0,7.42,6c10.67,6.62,23.87,5.79,34.18-1.71,6.91-5,12.4-12.63,17.78-20.11,2.43-3.38,4.35-10.77-1.47-10.77H79.35c-6.44,0-3.41,8.23-1,11.55C82.28,249.13,86.24,254.5,90.71,258.91Z"/><path class="cls-13" d="M78.7,244.28c16.35-1.67,44.6-3.46,70.28.33l1.11-1.54c2.43-3.38,4.35-10.77-1.47-10.77H79.35c-6.44,0-3.41,8.23-1,11.55Z"/><path class="cls-5" d="M89.62,259.93a38.6,38.6,0,0,0,13.47,9,30.81,30.81,0,0,0,14.66,1.63,33.49,33.49,0,0,0,14.17-5.32,54.21,54.21,0,0,0,11.62-11c1.78-2.17,3.48-4.42,5.14-6.69a38.66,38.66,0,0,0,3.74-5.49c1.39-2.83,2.58-7,.3-9.71-1.31-1.55-3.28-1.66-5.15-1.66H80.23c-2,0-4,.21-5.26,1.9-2.06,2.7-.67,6.76.63,9.48a29.57,29.57,0,0,0,3.16,4.79c1.72,2.32,3.46,4.63,5.29,6.86a79.58,79.58,0,0,0,5.58,6.22,1.54,1.54,0,0,0,2.18-2.18,108.34,108.34,0,0,1-10.47-12.57,29.19,29.19,0,0,1-3-4.6,12.23,12.23,0,0,1-.76-1.91c-.11-.35-.21-.7-.29-1.06,0-.17-.08-.35-.11-.53s0-.2,0-.3c0,.16,0,.09,0,0a7.62,7.62,0,0,1,0-1c0-.05,0-.51,0-.33s.07-.33.09-.42.07-.24.12-.35c-.13.35.07-.09.11-.17.12-.24-.15.13,0-.07l.17-.17c.19-.21-.12.07,0,0a2.37,2.37,0,0,1,1.56-.45h69.16a3.84,3.84,0,0,1,1.6.22c-.12-.05.23.14.29.18.22.14-.11-.11.13.12s0-.09.12.12a3.92,3.92,0,0,1,.25.44c-.15-.31,0,.16.07.24s.06.26.09.39c.06.29,0,.06,0,0,0,.09,0,.19,0,.28s0,.39,0,.58,0,.35,0,.52a.9.9,0,0,1,0,.28q-.1.59-.26,1.17a12.23,12.23,0,0,1-.71,2,33.14,33.14,0,0,1-3.44,5.15c-5.82,8-12.41,16.52-21.92,20.24a29.48,29.48,0,0,1-13.72,1.93,28.56,28.56,0,0,1-13.12-4.93,42.76,42.76,0,0,1-5.88-4.93C90.38,256.36,88.21,258.53,89.62,259.93Z"/><path class="cls-14" d="M134.9,261.21q-1.26,1.08-2.58,2a32.35,32.35,0,0,1-12,5.47A29.58,29.58,0,0,1,98.13,265,38.78,38.78,0,0,1,93,261.14c3-3.85,7.15-6.23,11.73-6.23a14.07,14.07,0,0,1,9.19,3.56,14.07,14.07,0,0,1,9.19-3.56C127.72,254.91,131.89,257.32,134.9,261.21Z"/><path class="cls-15" d="M104.14,257.38a14.07,14.07,0,0,1,9.19,3.56,14.07,14.07,0,0,1,9.19-3.56,14.53,14.53,0,0,1,10.63,4.94q.58-.47,1.15-1c-3-3.89-7.17-6.3-11.78-6.3a14.07,14.07,0,0,0-9.19,3.56,14.07,14.07,0,0,0-9.19-3.56c-4.58,0-8.73,2.38-11.73,6.23q.57.5,1.15,1A14.52,14.52,0,0,1,104.14,257.38Z"/><path class="cls-5" d="M114.88,256.31c-2.64,1.51-4.07,4.62-4.33,7.53-.13,1.48,2.17,1.47,2.31,0a7.55,7.55,0,0,1,1.77-4.29q.26-.3.55-.57l.29-.26s.33-.26.1-.09a4.53,4.53,0,0,1,.47-.32,1.15,1.15,0,0,0-1.16-2Z"/><path class="cls-5" d="M134.08,260.39a32.55,32.55,0,0,1-15,7.4,28.44,28.44,0,0,1-17.18-2.09,34.52,34.52,0,0,1-8.1-5.38V262a14.85,14.85,0,0,1,8.82-5.71,12.79,12.79,0,0,1,10.46,3,1.19,1.19,0,0,0,1.63,0,12.78,12.78,0,0,1,10.48-3,14.87,14.87,0,0,1,8.86,5.78,1.16,1.16,0,0,0,1.63,0,1.18,1.18,0,0,0,0-1.63,16.63,16.63,0,0,0-10.33-6.45,15.32,15.32,0,0,0-12.27,3.71h1.63a15.32,15.32,0,0,0-12.26-3.71,16.62,16.62,0,0,0-10.29,6.38,1.18,1.18,0,0,0,0,1.63,33.5,33.5,0,0,0,16.49,8.22,31.94,31.94,0,0,0,18.25-2.46,36.81,36.81,0,0,0,8.77-5.68C136.84,261.06,135.2,259.44,134.08,260.39Z"/><path class="cls-5" d="M110.15,162.92v41.84a1.54,1.54,0,0,0,3.08,0V162.92a1.54,1.54,0,0,0-3.08,0Z"/><path class="cls-5" d="M97.74,211.39c4.17,5.47,11.5,8.46,18.21,6.45a24.47,24.47,0,0,0,9.74-6.14c1.43-1.38-.75-3.55-2.18-2.18a21.82,21.82,0,0,1-7.62,5.1,14.09,14.09,0,0,1-3.2.75,13.6,13.6,0,0,1-1.55.05l-.75,0-.33,0-.23,0a14.19,14.19,0,0,1-2.82-.74c-.08,0-.67-.27-.44-.17l-.52-.24q-.62-.3-1.22-.65t-1-.63l-.46-.32c-.08-.06-.61-.46-.31-.22-.5-.4-1-.81-1.45-1.26s-.73-.72-1.07-1.11c-.14-.16-.67-.84-.16-.17a1.59,1.59,0,0,0-2.1-.55,1.55,1.55,0,0,0-.55,2.1Z"/><path class="cls-16" d="M172.38,163.06s-25.23-1.67-38.13-1.34c-2.89.07-5.49-1.64-5.8-4.51h0a5.1,5.1,0,0,1,5.52-5.63C143.12,152.39,164.08,155,172.38,163.06Z"/><path class="cls-17" d="M134.25,158.95c-2.68.07-5.11-1.4-5.69-3.91a5.11,5.11,0,0,0-.1,1.71h0c.31,2.87,2.91,4.59,5.8,4.51,12.89-.33,38.13,1.34,38.13,1.34a20.05,20.05,0,0,0-3.22-2.51C161.94,159.65,144.33,158.69,134.25,158.95Z"/><path class="cls-5" d="M172.38,161.9c-3.6-.24-7.19-.44-10.79-.62-6.94-.36-13.89-.66-20.83-.74-1.57,0-3.14,0-4.71,0s-3.23.19-4.67-.69c-3-1.83-1.92-6.48,1.46-7.08a14.76,14.76,0,0,1,3.91.24q2.19.23,4.38.52c3.37.45,6.72,1,10,1.73a77.18,77.18,0,0,1,10.4,2.93,32.28,32.28,0,0,1,8.5,4.4,17.14,17.14,0,0,1,1.5,1.3c1.07,1,2.7-.6,1.63-1.63a27.42,27.42,0,0,0-8.36-5.23A67,67,0,0,0,154,153.53a135.09,135.09,0,0,0-19.84-3.09,6.32,6.32,0,0,0-6.8,7.29,6,6,0,0,0,3.46,4.44,11.86,11.86,0,0,0,5.3.67c7.28-.08,14.56.23,21.83.57,4.73.22,9.46.63,14.18.79l.24,0C173.86,164.31,173.85,162,172.38,161.9Z"/><path class="cls-16" d="M54.43,163.06s25.23-1.67,38.13-1.34c2.89.07,5.49-1.64,5.8-4.51h0a5.1,5.1,0,0,0-5.52-5.63C83.69,152.39,62.73,155,54.43,163.06Z"/><path class="cls-17" d="M92.56,158.95c2.68.07,5.11-1.4,5.69-3.91a5.11,5.11,0,0,1,.1,1.71h0c-.31,2.87-2.91,4.59-5.8,4.51-12.89-.33-38.13,1.34-38.13,1.34a20.05,20.05,0,0,1,3.22-2.51C64.87,159.65,82.48,158.69,92.56,158.95Z"/><path class="cls-5" d="M54.43,164.21c4-.26,7.92-.48,11.88-.68,7.29-.37,14.6-.68,21.9-.7,3.46,0,7.55.66,10-2.39a6.26,6.26,0,0,0-2.77-9.64,9.93,9.93,0,0,0-4.64-.18q-2.26.23-4.51.52c-3.61.46-7.2,1-10.76,1.78a77.91,77.91,0,0,0-11,3.07,34.64,34.64,0,0,0-9.09,4.7,20.74,20.74,0,0,0-1.83,1.56c-1.07,1,.56,2.66,1.63,1.63A25.52,25.52,0,0,1,63,159.08,62.84,62.84,0,0,1,73,155.85a132.3,132.3,0,0,1,18.91-3c1.53-.14,2.94-.13,4.11,1a4,4,0,0,1,.9,4.33,4.36,4.36,0,0,1-3.84,2.4c-1.53.08-3.08,0-4.61,0-7,0-13.92.3-20.87.64-4.32.21-8.66.39-13,.73h-.2C53,162,52.95,164.31,54.43,164.21Z"/><path class="cls-18" d="M10.59,74.31s-12.67,33.73-7.23,65c2.25,12.95,19.83,15.32,25.44,3.43L70.89,53.54Z"/><g class="cls-8"><path class="cls-1" d="M10.64,74S-2,107.73,3.41,139a13.43,13.43,0,0,0,16.41,10.81A13.16,13.16,0,0,1,9.56,139c-5.44-31.25,7.23-65,7.23-65Z"/></g><path class="cls-5" d="M8.64,72.36A127.08,127.08,0,0,0,4.12,87.94,142.66,142.66,0,0,0,0,123.72a98.5,98.5,0,0,0,.73,10A27.87,27.87,0,0,0,2.62,142a14.72,14.72,0,0,0,9.24,7.85,15.32,15.32,0,0,0,12-1.4,15.12,15.12,0,0,0,5.94-6.63l3.59-7.6,7.49-15.88,9.49-20.1,9.56-20.26L67.6,61.58l4-8.42.18-.38c.52-1.11-.36-2.73-1.74-2.26l-6,2.07-14.42,5-17.36,6L17.15,68.73c-2.44.84-4.91,1.64-7.33,2.53l-.1,0a1.58,1.58,0,0,0-1.07,1.89,1.55,1.55,0,0,0,1.89,1.07l6-2.07,14.42-5,17.36-6L63.4,56.05l5-1.71c.78-.27,1.62-.48,2.38-.82l.1,0L69.1,51.23l-2.68,5.68L59.6,71.36,50.48,90.68,40.9,111l-8.2,17.37-5,10.55-.71,1.5a11.73,11.73,0,0,1-8.57,6.77,6.62,6.62,0,0,1-1.11.15,14,14,0,0,1-1.45,0,9.77,9.77,0,0,1-2.54-.33q-.67-.16-1.32-.39a7.25,7.25,0,0,1-1.12-.46,13.47,13.47,0,0,1-1.21-.67l-.58-.38-.43-.32a11.27,11.27,0,0,1-3.44-4.47,14.79,14.79,0,0,1-.85-2.91c-.29-1.58-.51-3.17-.69-4.76-1.4-12.32-.4-24.87,1.91-37A151.65,151.65,0,0,1,11.24,74.2c.12-.34.24-.68.36-1a1.55,1.55,0,0,0-1.07-1.89A1.57,1.57,0,0,0,8.64,72.36Z"/><path class="cls-18" d="M212.14,67.85s12.67,33.73,7.23,65c-2.25,12.95-19.83,15.32-25.44,3.43L151.84,47.08Z"/><path class="cls-19" d="M211.68,66.31s12.67,33.73,7.23,65A13.43,13.43,0,0,1,202.5,142.1a13.16,13.16,0,0,0,10.26-10.81c5.44-31.25-7.23-65-7.23-65Z"/><path class="cls-5" d="M210.19,66.72a126.3,126.3,0,0,1,4.43,15.2,140.21,140.21,0,0,1,4.08,34.68c-.06,3.3-.26,6.6-.64,9.88-.19,1.59-.4,3.19-.71,4.76a13.84,13.84,0,0,1-.86,2.79,11.66,11.66,0,0,1-8.18,6.57,13,13,0,0,1-5.1.08,11.65,11.65,0,0,1-4.79-2.13,12.89,12.89,0,0,1-3.81-5l-3.92-8.31-7.59-16.07-9.41-19.94-9.4-19.92-7.55-16-3.86-8.17-.17-.37L151,47l6,2.07,14.42,5,17.36,6,15.08,5.19c2.43.84,4.86,1.83,7.33,2.53l.1,0a1.54,1.54,0,1,0,.82-3l-6-2.07-14.42-5-17.36-6-15.08-5.19-5-1.71c-.79-.27-1.57-.6-2.38-.82l-.1,0c-1.38-.48-2.26,1.15-1.74,2.26l2.75,5.83,7,14.84,9.29,19.69,9.71,20.58L187,124.51l4.7,10a20.91,20.91,0,0,0,1.74,3.19,14.85,14.85,0,0,0,10.77,6.25,15.39,15.39,0,0,0,11.37-3.58,14.06,14.06,0,0,0,3.75-5.05,29.17,29.17,0,0,0,1.79-8.26c1.55-12.63.52-25.51-1.8-38A152.13,152.13,0,0,0,213.54,67c-.12-.35-.24-.7-.37-1a1.58,1.58,0,0,0-1.89-1.07A1.55,1.55,0,0,0,210.19,66.72Z"/><path class="cls-18" d="M203.68,58.1c7.82-3.29,12.75-8.24,11.88-12.7-.93-4.77-8.24-7.56-17.59-7.27,5.55-5.78,8-11.88,5.59-15.55a6.69,6.69,0,0,0-4.36-2.72c-.8-6.33-4-11.69-9.27-14.32S178.2,3.6,172.58,6.93C167.83,2.57,161.83.55,156.07,2c-5,1.26-8.86,4.89-11.19,9.79C139.85,4.22,131.83.08,124.23,2c-7.17,1.82-12.09,8.56-13.31,16.93a31.62,31.62,0,0,0-1.87-3.33C101.69,4.16,88.45-.45,79.49,5.31A16.2,16.2,0,0,0,73,13.61a31.48,31.48,0,0,0-3-3.51C60.38.47,46.46-1.23,38.93,6.31,34.46,10.78,33.24,17.49,35,24.22c-7.2-2.45-13.41-2.1-15.71,1.44s0,9.77,5.59,15.55c-9.35-.29-16.66,2.49-17.59,7.27-.87,4.46,4.06,9.41,11.88,12.7-7.47,1.75-12.47,4.68-12.29,7.7.26,4.32,11,7.19,24,6.41l1.31-.09a68.15,68.15,0,0,0-6.51,4C14.93,86.54,8.2,95.41,10.65,99c.87,1.27,2.79,1.7,5.38,1.39-2.55,4.91-2.93,9.78-.54,13.28A8.8,8.8,0,0,0,17,115.36c-1.77,4.29-1.82,8.43.29,11.5,2.53,3.69,7.61,5,13.51,4.16C92,130.52,110,105.85,114.95,87.9c5.4,18.42,23.35,39.45,77,40,5.92.9,11-.45,13.56-4.16,2.11-3.07,2.06-7.21.29-11.5a8.8,8.8,0,0,0,1.55-1.72c2.4-3.49,2-8.37-.54-13.28,2.59.31,4.51-.12,5.38-1.39,2.45-3.57-4.29-12.44-15-19.82a68.15,68.15,0,0,0-6.51-4l1.31.09c13,.78,23.78-2.1,24-6.41C216.15,62.78,211.15,59.85,203.68,58.1Z"/><path class="cls-19" d="M197.3,76.7A68.49,68.49,0,0,0,191.18,73c-1.59,0-3.24,0-4.93-.12l-1.31-.09a68.15,68.15,0,0,1,6.51,4c10.76,7.38,17.49,16.25,15,19.82-.87,1.27-2.79,1.7-5.38,1.39,2.55,4.91,2.93,9.78.54,13.28a8.8,8.8,0,0,1-1.55,1.72c1.77,4.29,1.82,8.43-.29,11.5a10.55,10.55,0,0,1-7.33,4.21c5.75.78,10.7-.59,13.18-4.21,2.11-3.07,2.06-7.21.29-11.5a8.8,8.8,0,0,0,1.55-1.72c2.4-3.49,2-8.37-.54-13.28,2.59.31,4.51-.12,5.38-1.39C214.79,92.95,208.05,84.08,197.3,76.7Z"/><path class="cls-19" d="M202.6,58.56c7.82-3.29,12.75-8.24,11.88-12.7-.93-4.77-8.24-7.56-17.59-7.27,5.55-5.78,8-11.88,5.59-15.55a6.69,6.69,0,0,0-4.36-2.72c-.8-6.33-4-11.69-9.27-14.32a16.12,16.12,0,0,0-10-1.38A15.36,15.36,0,0,1,183,6c5.26,2.63,8.47,8,9.27,14.32A6.69,6.69,0,0,1,196.63,23c2.39,3.67,0,9.77-5.59,15.55,9.35-.29,16.66,2.49,17.59,7.27.87,4.46-4.06,9.41-11.88,12.7,7.47,1.75,12.47,4.68,12.29,7.7-.21,3.5-7.32,6.05-16.94,6.48,12.45.53,22.54-2.3,22.79-6.48C215.08,63.24,210.08,60.31,202.6,58.56Z"/><path class="cls-5" d="M204.46,59.43a30.47,30.47,0,0,0,8.6-5.27,12,12,0,0,0,4-6.23c1-5.25-3.54-8.59-8-10A33.42,33.42,0,0,0,198,36.59l1.09,2.63c3.19-3.36,6.33-7.52,6.88-12.26.5-4.3-2.21-7.6-6.33-8.58l1.13,1.48c-.8-6-3.62-11.86-9-15.08-6.24-3.74-13.85-2.71-19.92.82l1.86.24C168.95,1.58,162.7-1,156.31.38c-5.75,1.2-10.25,5.47-12.75,10.64h2.66c-3.87-5.74-9.75-10.34-16.83-11-6.47-.57-12.44,2.83-16,8.09a25.08,25.08,0,0,0-3.92,10.37l2.81-.37A31,31,0,0,0,97,3.19C91.36.79,84.78.47,79.36,3.59a18.08,18.08,0,0,0-7.8,9.62l2.81-.37C69.27,6,61.71,1,53.13.17,45.68-.56,38,2.76,34.64,9.7a21.79,21.79,0,0,0-1.13,14.93l1.89-1.89C30.19,21,21.3,19.25,17.83,25.07c-1.44,2.42-1.16,5.44-.22,8a27.69,27.69,0,0,0,6.16,9.25l1.09-2.63c-5.56-.15-12.5.42-16.77,4.45A7.39,7.39,0,0,0,5.66,50,10.73,10.73,0,0,0,9,56.45a28.5,28.5,0,0,0,9.41,6.05l.37-2.81c-3.47.83-7.17,1.93-10.12,4-1.92,1.36-3.77,3.42-3.19,6,.47,2.07,2.4,3.46,4.21,4.33a29.61,29.61,0,0,0,8.89,2.41,64.94,64.94,0,0,0,13.68.32l-.78-2.87a65.16,65.16,0,0,0-17,12.8,27.67,27.67,0,0,0-4.67,6.38,8,8,0,0,0-1,5.45c.84,3.19,4.46,3.7,7.26,3.4L14.7,99.59C12,105,10.95,112,16,116.45l-.4-1.5a15.15,15.15,0,0,0-.91,9.76,10.63,10.63,0,0,0,5,6.25,16.14,16.14,0,0,0,8.32,1.87c1.69,0,3.35-.25,5-.28s3.36-.08,5-.15a146.57,146.57,0,0,0,34.37-5.1A79.88,79.88,0,0,0,95.21,117a54.93,54.93,0,0,0,13.92-13.39A48.7,48.7,0,0,0,116,89.92q.25-.8.48-1.61h-3a49.25,49.25,0,0,0,19.44,26.51c15,10.39,34,13.61,51.87,14.46q2.62.13,5.23.18c1.67,0,3.31.27,5,.29a16.17,16.17,0,0,0,8.2-1.84,10.63,10.63,0,0,0,5-6.28,15.16,15.16,0,0,0-.91-9.76l-.4,1.5c5-4.44,4-11.47,1.26-16.86l-1.33,2.31c2.59.28,5.87-.06,7-2.78a6.77,6.77,0,0,0-.44-5.33c-2.25-5.22-7-9.48-11.37-12.93a72.09,72.09,0,0,0-10.62-7l-.78,2.87a65.67,65.67,0,0,0,12.12-.13,34.17,34.17,0,0,0,9.37-2.13c2-.83,4.17-2,5-4.12s-.26-4.47-2-5.91c-3.1-2.58-7.23-3.84-11.09-4.76-1.92-.46-2.75,2.51-.82,3a28.65,28.65,0,0,1,8.87,3.36,6.06,6.06,0,0,1,2.07,1.93,1.91,1.91,0,0,1,.15.32c0,.09.09.51.08.29,0,.09,0,.52,0,.37s-.15.44-.08.25a3.51,3.51,0,0,1-1.08,1.23,10.77,10.77,0,0,1-2.51,1.33,32.07,32.07,0,0,1-8.18,1.82,65.89,65.89,0,0,1-12,.11,1.55,1.55,0,0,0-.78,2.87A64.38,64.38,0,0,1,205,84.53a31.86,31.86,0,0,1,4.5,5.43,13.44,13.44,0,0,1,1.21,2.3,5.57,5.57,0,0,1,.42,1.79,3.74,3.74,0,0,0,0,.43c0-.15-.06.24-.09.32s.11-.1-.08.16a1.81,1.81,0,0,1-.3.34c-1,.81-2.73.56-3.86.44s-1.8,1.38-1.33,2.31c2.13,4.2,3.16,9.65-.78,13.14a1.49,1.49,0,0,0-.4,1.5c1,2.56,1.7,5.4.91,8.12a7.61,7.61,0,0,1-4.07,4.69,13.89,13.89,0,0,1-6.83,1.14c-1.32-.06-2.61-.24-3.93-.26q-2.44,0-4.88-.15a131.22,131.22,0,0,1-29.57-4.36c-12.43-3.48-24.75-9.83-32.45-20.21a44.34,44.34,0,0,1-7-14.17,1.55,1.55,0,0,0-3,0q-.43,1.55-1,3.08-.28.81-.6,1.6c-.29.73-.32.81-.57,1.38a47.11,47.11,0,0,1-3.48,6.49,49.59,49.59,0,0,1-11.51,12.39A70.32,70.32,0,0,1,76.42,122.8a125.55,125.55,0,0,1-30.29,6q-4.79.41-9.6.57-2.46.08-4.91.11c-1.57,0-3.11.3-4.69.26a11.39,11.39,0,0,1-6.9-2.2,8.07,8.07,0,0,1-2.73-7,15.75,15.75,0,0,1,1.23-4.78,1.49,1.49,0,0,0-.4-1.5c-3.93-3.48-2.91-8.93-.78-13.14.47-.93-.08-2.45-1.33-2.31a6.32,6.32,0,0,1-3.61-.29,1.57,1.57,0,0,1-.58-.55c-.16-.23,0,.16-.05-.11,0-.07-.12-.46-.09-.32a3.57,3.57,0,0,1,.2-1.61,10.3,10.3,0,0,1,1-2.21c2.54-4.43,6.64-8.06,10.65-11.13A69.36,69.36,0,0,1,33,76.53a1.55,1.55,0,0,0-.78-2.87c-6.34.48-13.12.42-19.21-1.6a13.87,13.87,0,0,1-2.8-1.25,6.72,6.72,0,0,1-.87-.6,3.23,3.23,0,0,1-.63-.67c-.27-.43-.21-.23-.28-.62,0-.23,0,.26,0,0a1.13,1.13,0,0,1,0-.22c0-.31,0-.13,0-.06a2,2,0,0,1,.07-.31A4.65,4.65,0,0,1,10,66.48c2.71-2.07,6.3-3,9.55-3.82,1.19-.28,1.61-2.28.37-2.81a29.11,29.11,0,0,1-7.54-4.4A10,10,0,0,1,8.83,50.5c-.92-3.78,3.45-5.89,6.45-6.74a31.69,31.69,0,0,1,9.58-1,1.56,1.56,0,0,0,1.09-2.63,24.82,24.82,0,0,1-5.27-7.62c-.72-1.81-1.26-4.09-.19-5.88s3.22-2.29,5.09-2.41a23.92,23.92,0,0,1,9,1.49,1.55,1.55,0,0,0,1.89-1.89c-1.8-7.11,0-15.16,6.84-18.85,5.64-3,12.7-2,18.2.82a29.68,29.68,0,0,1,10.2,8.61A1.56,1.56,0,0,0,74.53,14,14.44,14.44,0,0,1,87.6,4.38c5.57-.19,11,2.38,15,6a30.43,30.43,0,0,1,7,9.3,1.55,1.55,0,0,0,2.81-.37c.83-5.46,3.31-11,8.12-14.07a14.81,14.81,0,0,1,15.42,0,23.19,23.19,0,0,1,7.62,7.28,1.55,1.55,0,0,0,2.66,0c2.13-4.41,5.7-8,10.59-9.16,5.36-1.23,10.74,1,14.69,4.6a1.58,1.58,0,0,0,1.86.24c5.13-3,11.52-4,16.82-.82,4.37,2.62,6.82,7.48,7.48,12.43a1.6,1.6,0,0,0,1.13,1.48,5.15,5.15,0,0,1,3.71,2.48,5.48,5.48,0,0,1,.29,3.48c-.77,3.76-3.33,7-5.91,9.74A1.56,1.56,0,0,0,198,39.67a33,33,0,0,1,8.59.75A13.61,13.61,0,0,1,212.33,43a4.46,4.46,0,0,1,1.77,3.91c-.21,1.89-1.57,3.52-2.9,4.78a27.58,27.58,0,0,1-8.3,5.08,1.55,1.55,0,0,0-.55,2.1A1.58,1.58,0,0,0,204.46,59.43Z"/><ellipse class="cls-20" cx="56.15" cy="115.54" rx="31.07" ry="7.08" transform="translate(-18.19 10.78) rotate(-9.44)"/><ellipse class="cls-20" cx="52.5" cy="18.42" rx="13.69" ry="11.58" transform="translate(-2.61 26.04) rotate(-27.2)"/><ellipse class="cls-20" cx="85.69" cy="18.38" rx="5.69" ry="11.58" transform="translate(1.07 41.2) rotate(-27.2)"/><ellipse class="cls-20" cx="127.54" cy="20.81" rx="8.45" ry="11.58" transform="translate(4.59 60.6) rotate(-27.2)"/><path class="cls-5" d="M141.38,110a69.13,69.13,0,0,0,17.12,8.28,87.11,87.11,0,0,0,23.83,4,116.86,116.86,0,0,0,16.58-.63,1.58,1.58,0,0,0,1.54-1.54,1.55,1.55,0,0,0-1.54-1.54,105.06,105.06,0,0,1-27.15-.36,74.54,74.54,0,0,1-20.17-6,65.55,65.55,0,0,1-8.65-4.91c-1.65-1.11-3.19,1.56-1.55,2.66Z"/><path class="cls-5" d="M120.82,86.41a34.08,34.08,0,0,0,2.75,5.28,59.06,59.06,0,0,0,9.22,11.37c1.42,1.38,3.6-.8,2.18-2.18a55.74,55.74,0,0,1-8.74-10.75c-.7-1.13-1.35-2.29-1.94-3.48-.16-.33-.32-.67-.47-1s-.12-.27,0,.05l0-.11a1.59,1.59,0,0,0-1.89-1.07,1.55,1.55,0,0,0-1.07,1.89Z"/></g></g></svg>