<svg width="126" height="102" viewBox="0 0 126 102" fill="none" xmlns="http://www.w3.org/2000/svg">
<path fill-rule="evenodd" clip-rule="evenodd" d="M19.6682 33.589C20.3947 32.8742 21.2576 32.3072 22.2074 31.9204C23.1571 31.5335 24.1752 31.3344 25.2033 31.3344C26.2314 31.3344 27.2495 31.5335 28.1992 31.9204C29.149 32.3072 30.0119 32.8742 30.7384 33.589L47.3321 49.8942L95.6737 2.39313C96.3997 1.69187 97.2593 1.13812 98.2033 0.763571C99.1473 0.389019 100.157 0.201007 101.175 0.210289C102.193 0.21957 103.199 0.425964 104.136 0.817664C105.073 1.20936 105.922 1.77869 106.634 2.49307L123.236 18.8059C124.701 20.2199 125.535 22.1472 125.556 24.1649C125.577 26.1827 124.782 28.126 123.346 29.5684L52.7617 98.9174C52.0352 99.6181 51.1752 100.171 50.2309 100.545C49.2866 100.919 48.2766 101.106 47.2586 101.096C46.2406 101.086 45.2346 100.879 44.2981 100.487C43.3616 100.095 42.513 99.5247 41.8009 98.8098L3.07445 60.7566C2.34753 60.044 1.7708 59.1974 1.3773 58.2655C0.983799 57.3335 0.78125 56.3344 0.78125 55.3254C0.78125 54.3164 0.983799 53.3173 1.3773 52.3854C1.7708 51.4534 2.34753 50.6068 3.07445 49.8942L19.6682 33.589Z" fill="#FBECCC"/>
</svg>
