<svg width="49" height="44" viewBox="0 0 49 44" fill="none" xmlns="http://www.w3.org/2000/svg">
<path d="M4.18336 8.48338L13.4584 14.6667L22.7024 1.72588C22.9067 1.43961 23.1764 1.20627 23.4891 1.04528C23.8018 0.884285 24.1484 0.800293 24.5 0.800293C24.8517 0.800293 25.1983 0.884285 25.511 1.04528C25.8236 1.20627 26.0933 1.43961 26.2976 1.72588L35.5417 14.6667L44.8167 8.48338C45.1677 8.24984 45.5783 8.12167 45.9998 8.11401C46.4213 8.10635 46.8363 8.21952 47.1955 8.44015C47.5548 8.66078 47.8434 8.97964 48.0273 9.35906C48.2111 9.73849 48.2825 10.1626 48.233 10.5813L44.6047 41.4251C44.5414 41.9623 44.2832 42.4575 43.879 42.817C43.4748 43.1764 42.9527 43.375 42.4118 43.375H6.58824C6.04735 43.375 5.52529 43.1764 5.12109 42.817C4.71688 42.4575 4.45865 41.9623 4.39536 41.4251L0.767073 10.5791C0.718048 10.1606 0.789786 9.73677 0.973819 9.3577C1.15785 8.97863 1.4465 8.66013 1.80568 8.43979C2.16486 8.21945 2.57958 8.10648 3.00089 8.1142C3.4222 8.12193 3.8325 8.25003 4.18336 8.48338V8.48338ZM24.5 30.125C25.6714 30.125 26.7948 29.6597 27.6231 28.8314C28.4514 28.0031 28.9167 26.8798 28.9167 25.7084C28.9167 24.537 28.4514 23.4136 27.6231 22.5853C26.7948 21.757 25.6714 21.2917 24.5 21.2917C23.3287 21.2917 22.2053 21.757 21.377 22.5853C20.5487 23.4136 20.0834 24.537 20.0834 25.7084C20.0834 26.8798 20.5487 28.0031 21.377 28.8314C22.2053 29.6597 23.3287 30.125 24.5 30.125Z" fill="#FBBB9A"/>
</svg>
