<svg width="17" height="17" viewBox="0 0 17 17" fill="none" xmlns="http://www.w3.org/2000/svg">
<path d="M13.2542 1.01231C11.6951 2.57257 10.1332 4.13311 8.57563 5.69365C7.01536 4.13393 5.4551 2.57339 3.89429 1.01231C2.0889 -0.792257 -0.708433 2.00644 1.09613 3.81101C2.65585 5.36991 4.21693 6.93127 5.77474 8.48962C4.21584 10.0493 2.65503 11.6104 1.09613 13.171C-0.708433 14.975 2.09027 17.7729 3.89429 15.9694C5.45401 14.4088 7.01427 12.8486 8.57563 11.288C10.1359 12.8486 11.6951 14.4083 13.2542 15.9694C15.0591 17.7731 17.8567 14.975 16.0535 13.1712C14.4929 11.6107 12.9327 10.051 11.3721 8.48989C12.933 6.92963 14.4932 5.36909 16.0535 3.80855C17.8567 2.00453 15.0591 -0.794168 13.2542 1.0104" fill="#FBECCC"/>
</svg>
