<svg width="80" height="79" viewBox="0 0 80 79" fill="none" xmlns="http://www.w3.org/2000/svg">
<path d="M72.1177 36.5922L43.3781 8.22299C42.5811 7.43965 41.5023 6.99988 40.3778 6.99988C39.2532 6.99988 38.1744 7.43965 37.3774 8.22299L31.4228 14.1087L38.9903 21.5837C39.8832 21.2859 40.8427 21.241 41.7601 21.4542C42.6775 21.6674 43.516 22.1302 44.1805 22.79C44.845 23.4499 45.309 24.2804 45.5197 25.1873C45.7305 26.0943 45.6796 27.0414 45.3729 27.9212L52.6606 35.1265C53.7396 34.7527 54.9153 34.7525 55.9944 35.1261C57.0734 35.4996 57.9916 36.2246 58.598 37.1818C59.2043 38.1389 59.4627 39.2714 59.3306 40.3928C59.1986 41.5143 58.6839 42.5579 57.8713 43.3522C55.8996 45.3022 52.7166 45.3022 50.7416 43.3522C50.0401 42.6588 49.5608 41.7769 49.3635 40.8163C49.1663 39.8558 49.2597 38.8592 49.6323 37.9507L42.8054 31.246V48.9162C43.2859 49.147 43.7468 49.4655 44.1451 49.8587C45.0862 50.7945 45.6144 52.0597 45.6144 53.3785C45.6144 54.6972 45.0862 55.9625 44.1451 56.8982C43.6755 57.3627 43.1177 57.7311 42.5038 57.9825C41.8898 58.2338 41.2317 58.3632 40.567 58.3632C39.9024 58.3632 39.2442 58.2338 38.6303 57.9825C38.0163 57.7311 37.4586 57.3627 36.989 56.8982C36.5204 56.4369 36.1486 55.8888 35.895 55.2854C35.6413 54.682 35.5108 54.0351 35.5108 53.3817C35.5108 52.7284 35.6413 52.0815 35.895 51.4781C36.1486 50.8746 36.5204 50.3266 36.989 49.8652C37.4893 49.3777 38.0489 49.0072 38.648 48.7635V30.921C38.0325 30.6722 37.4731 30.3054 37.0021 29.8419C36.531 29.3784 36.1577 28.8273 35.9037 28.2205C35.6496 27.6137 35.5199 26.9631 35.522 26.3065C35.5241 25.6499 35.658 25.0002 35.9159 24.395L28.4767 17.0142L8.76953 36.4557C7.1237 38.0937 7.1237 40.7457 8.76953 42.3837L37.5091 70.753C37.9023 71.1422 38.3694 71.451 38.8837 71.6617C39.398 71.8725 39.9493 71.9809 40.5061 71.9809C41.0629 71.9809 41.6143 71.8725 42.1286 71.6617C42.6428 71.451 43.11 71.1422 43.5032 70.753L72.1078 42.5137C72.5039 42.1265 72.8186 41.6657 73.0336 41.158C73.2487 40.6502 73.3599 40.1054 73.3608 39.555C73.3617 39.0046 73.2523 38.4595 73.039 37.951C72.8256 37.4425 72.5125 36.9807 72.1177 36.5922Z" fill="#2B2B3F"/>
</svg>
