<svg width="25" height="25" viewBox="0 0 25 25" fill="none" xmlns="http://www.w3.org/2000/svg">
<g clip-path="url(#clip0)">
<path d="M12.4984 2.17114C6.57715 2.16875 1.78125 6.96226 1.78125 12.8787C1.78125 17.5573 4.78138 21.5343 8.95954 22.9949C9.52221 23.1362 9.43602 22.7363 9.43602 22.4633V20.6077C6.18687 20.9884 6.05518 18.8383 5.83729 18.4791C5.39673 17.7273 4.35519 17.5357 4.66645 17.1766C5.40631 16.7959 6.16053 17.2724 7.03447 18.5629C7.66658 19.4991 8.89968 19.3411 9.52461 19.1855C9.66109 18.6228 9.9532 18.12 10.3555 17.7297C6.98898 17.1263 5.58589 15.072 5.58589 12.6297C5.58589 11.4445 5.97617 10.3551 6.74236 9.47633C6.25391 8.02775 6.78786 6.78747 6.85969 6.6031C8.25081 6.4786 9.697 7.59916 9.80954 7.68775C10.5997 7.47465 11.5023 7.36211 12.5128 7.36211C13.528 7.36211 14.433 7.47944 15.2304 7.69493C15.5009 7.48902 16.8418 6.52648 18.1347 6.64381C18.2042 6.82817 18.7261 8.03972 18.2664 9.46915C19.0422 10.3503 19.4373 11.4493 19.4373 12.6369C19.4373 15.0839 18.0246 17.1407 14.6485 17.7345C14.9377 18.0189 15.1673 18.358 15.3239 18.7321C15.4806 19.1062 15.5611 19.5078 15.5608 19.9133V22.607C15.5799 22.8225 15.5608 23.0356 15.9199 23.0356C20.1604 21.6062 23.2132 17.6004 23.2132 12.8811C23.2132 6.96226 18.4149 2.17114 12.4984 2.17114Z" fill="#FBECCC"/>
<g clip-path="url(#clip1)">
<path d="M182.313 -12.4058C74.5958 -12.4058 -13.5642 75.7522 -13.5642 183.471V791.312C-13.5642 899.029 74.5938 987.157 182.313 987.157H790.154C897.872 987.157 985.999 899.03 985.999 791.312V183.471C985.999 75.7542 897.872 -12.4058 790.154 -12.4058H182.313ZM231.579 152.542C283.227 152.542 315.04 186.448 316.022 231.017C316.022 274.602 283.225 309.461 230.58 309.461H229.611C178.946 309.461 146.199 274.604 146.199 231.017C146.199 186.449 179.937 152.542 231.578 152.542H231.579ZM676.659 360.852C775.988 360.852 850.449 425.774 850.449 565.288V825.737H699.496V582.75C699.496 521.69 677.649 480.032 623.02 480.032C581.316 480.032 556.458 508.11 545.544 535.234C541.557 544.938 540.577 558.491 540.577 572.066V825.737H389.624C389.624 825.737 391.605 414.124 389.624 371.504H540.608V435.828C560.668 404.878 596.55 360.851 676.659 360.851V360.852ZM155.103 371.537H306.056V825.739H155.103V371.537Z" fill="#FBECCC"/>
</g>
</g>
<defs>
<clipPath id="clip0">
<rect width="24.5182" height="24.5182" fill="white" transform="translate(0.248779 0.344238)"/>
</clipPath>
<clipPath id="clip1">
<rect width="1000" height="1000" fill="white" transform="translate(-13.7512 -12.6558)"/>
</clipPath>
</defs>
</svg>
