<svg width="25" height="25" viewBox="0 0 25 25" fill="none" xmlns="http://www.w3.org/2000/svg">
<g clip-path="url(#clip0)">
<path d="M5.04792 0.350708C2.40689 0.350708 0.245361 2.51219 0.245361 5.15327V20.0565C0.245361 22.6975 2.40684 24.8582 5.04792 24.8582H19.9511C22.5922 24.8582 24.7529 22.6975 24.7529 20.0565V5.15327C24.7529 2.51224 22.5922 0.350708 19.9511 0.350708H5.04792ZM6.25584 4.39494C7.52216 4.39494 8.30215 5.22626 8.32623 6.31901C8.32623 7.38764 7.52211 8.24232 6.23134 8.24232H6.20759C4.96537 8.24232 4.16247 7.38769 4.16247 6.31901C4.16247 5.22628 4.98967 4.39494 6.25581 4.39494H6.25584ZM17.1684 9.50234C19.6038 9.50234 21.4294 11.0941 21.4294 14.5147V20.9005H17.7283V14.9429C17.7283 13.4458 17.1927 12.4244 15.8533 12.4244C14.8308 12.4244 14.2213 13.1128 13.9537 13.7779C13.856 14.0158 13.8319 14.3481 13.8319 14.6809V20.9005H10.1308C10.1308 20.9005 10.1794 10.8085 10.1308 9.7635H13.8327V11.3406C14.3245 10.5818 15.2043 9.50231 17.1684 9.50231V9.50234ZM4.38078 9.76431H8.08188V20.9005H4.38078V9.76431Z" fill="#FBECCC"/>
</g>
<defs>
<clipPath id="clip0">
<rect width="24.5182" height="24.5182" fill="white" transform="translate(0.240479 0.344238)"/>
</clipPath>
</defs>
</svg>
