<svg width="19" height="15" viewBox="0 0 19 15" fill="none" xmlns="http://www.w3.org/2000/svg">
<path d="M12.8713 0.258423H5.70183C2.73635 0.258423 0.324707 2.32554 0.324707 4.86739V14.0853C0.324707 14.289 0.419126 14.4844 0.587194 14.6285C0.755262 14.7725 0.983211 14.8535 1.22089 14.8535H12.8713C15.8368 14.8535 18.2485 12.7864 18.2485 10.2445V4.86739C18.2485 2.32554 15.8368 0.258423 12.8713 0.258423ZM16.4561 10.2445C16.4561 11.9391 14.8483 13.3172 12.8713 13.3172H2.11708V4.86739C2.11708 3.17282 3.72484 1.79474 5.70183 1.79474H12.8713C14.8483 1.79474 16.4561 3.17282 16.4561 4.86739V10.2445Z" fill="#FBECCC"/>
</svg>
