<svg width="244" height="316" viewBox="0 0 244 316" fill="none" xmlns="http://www.w3.org/2000/svg">
<path d="M180.154 227.888L177.216 230.712L176.66 233.178L180.154 233.337L183.37 258.592H197.665L200.92 233.337L204.415 233.178V231.428L200.92 227.888H180.154Z" fill="#EDF0F2"/>
<path d="M199.966 239.462H180.947L182.496 251.752H198.378L199.966 239.462Z" fill="#E2E2E2"/>
<path d="M190.279 232.263C190.279 232.263 184.561 251.632 195.044 258.593H183.688L180.472 233.337L190.279 232.263Z" fill="#F5F7F7"/>
<path d="M180.472 227.172L177.216 230.712L176.66 233.178H179.559L202.787 233.814L204.415 233.178L203.74 230.513L199.968 227.172H180.472Z" fill="#E2E2E2"/>
<path d="M183.37 259.587C182.853 259.587 182.417 259.229 182.377 258.712L179.002 232.343H190.517C191.073 232.343 191.509 232.78 191.509 233.337C191.509 233.894 191.073 234.331 190.517 234.331H181.305L184.362 258.433C184.442 258.99 184.045 259.507 183.489 259.547C183.449 259.587 183.409 259.587 183.37 259.587Z" fill="#C4E0EC"/>
<path d="M197.664 259.587C197.624 259.587 197.585 259.587 197.545 259.587C196.989 259.507 196.592 258.99 196.671 258.473L199.729 234.371H190.517C189.961 234.371 189.524 233.933 189.524 233.377C189.524 232.82 189.961 232.382 190.517 232.382H202.032L198.657 258.752C198.577 259.229 198.141 259.587 197.664 259.587Z" fill="#C4E0EC"/>
<path d="M178.367 234.53C177.176 234.53 175.945 234.252 175.468 233.257C174.793 231.825 176.024 229.996 179.518 227.093L179.796 226.854H190.517C191.073 226.854 191.51 227.291 191.51 227.848C191.51 228.405 191.073 228.843 190.517 228.843H180.511C177.851 231.07 177.414 232.064 177.335 232.343C177.732 232.502 178.923 232.502 179.955 232.303C180.511 232.183 181.027 232.541 181.146 233.098C181.265 233.655 180.908 234.172 180.352 234.291C179.876 234.411 179.161 234.53 178.367 234.53Z" fill="#C4E0EC"/>
<path d="M202.706 234.53C201.952 234.53 201.198 234.411 200.721 234.331C200.165 234.212 199.808 233.695 199.927 233.138C200.046 232.581 200.562 232.223 201.118 232.343C202.151 232.541 203.342 232.541 203.739 232.382C203.659 232.104 203.183 231.11 200.562 228.882H190.596C190.04 228.882 189.604 228.445 189.604 227.888C189.604 227.331 190.04 226.894 190.596 226.894H201.317L201.595 227.132C205.089 230.036 206.32 231.865 205.645 233.297C205.168 234.291 203.898 234.53 202.706 234.53Z" fill="#C4E0EC"/>
<path d="M199.967 240.098H180.948C180.59 240.098 180.312 239.82 180.312 239.462C180.312 239.104 180.59 238.825 180.948 238.825H199.967C200.324 238.825 200.602 239.104 200.602 239.462C200.602 239.82 200.324 240.098 199.967 240.098Z" fill="#C4E0EC"/>
<path d="M197.703 252.388H182.536C182.178 252.388 181.9 252.11 181.9 251.752C181.9 251.394 182.178 251.115 182.536 251.115H197.703C198.061 251.115 198.339 251.394 198.339 251.752C198.339 252.11 198.021 252.388 197.703 252.388Z" fill="#C4E0EC"/>
<path d="M195.678 249.882C197.389 249.882 198.775 247.55 198.775 244.672C198.775 241.795 197.389 239.462 195.678 239.462C193.968 239.462 192.581 241.795 192.581 244.672C192.581 247.55 193.968 249.882 195.678 249.882Z" fill="#C4E0EC"/>
<path d="M185.752 250.558C185.434 250.558 185.156 250.32 185.117 250.002L183.846 241.45C183.806 241.092 184.045 240.774 184.402 240.735C184.759 240.695 185.077 240.933 185.117 241.291L186.387 249.843C186.427 250.2 186.189 250.519 185.831 250.558C185.831 250.558 185.792 250.558 185.752 250.558Z" fill="#C4E0EC"/>
<path d="M188.849 225.223C188.651 225.223 188.452 225.144 188.333 224.985C188.254 224.905 186.666 222.718 187.261 220.013C187.698 218.024 189.207 216.354 191.748 215.002C193.614 214.007 194.726 212.695 195.083 211.144C195.719 208.32 193.614 205.456 193.575 205.416C193.376 205.138 193.416 204.74 193.694 204.502C193.972 204.303 194.369 204.343 194.567 204.621C194.686 204.74 197.029 207.962 196.275 211.382C195.838 213.331 194.488 214.882 192.304 216.075C190.12 217.229 188.849 218.621 188.492 220.252C188.016 222.36 189.326 224.149 189.326 224.189C189.524 224.468 189.485 224.865 189.207 225.104C189.088 225.183 188.969 225.223 188.849 225.223Z" fill="#C4E0EC"/>
<path d="M195.798 225.223C195.599 225.223 195.401 225.144 195.282 224.985C195.202 224.905 193.614 222.718 194.209 220.013C194.646 218.024 196.155 216.354 198.696 215.002C200.562 214.007 201.674 212.695 202.032 211.144C202.667 208.32 200.562 205.456 200.523 205.416C200.324 205.138 200.364 204.74 200.642 204.502C200.92 204.303 201.317 204.343 201.515 204.621C201.635 204.74 203.977 207.962 203.223 211.382C202.786 213.331 201.436 214.882 199.252 216.075C197.068 217.229 195.798 218.621 195.44 220.252C194.964 222.36 196.274 224.149 196.274 224.189C196.473 224.468 196.433 224.865 196.155 225.104C196.076 225.183 195.957 225.223 195.798 225.223Z" fill="#C4E0EC"/>
<path d="M54.7223 143.172L32.3282 150.411L29.787 153.036L29.1914 156.377L34.6311 172.246L37.1723 174.155H40.7061L49.4811 171.61L51.3473 172.246L59.0899 178.808L60.7576 179.246L62.1473 177.854L61.1546 167.791L63.8546 166.002L65.3238 162.899L63.8943 156.854L60.1223 145.916L57.3032 143.172H54.7223Z" fill="#E2E2E2"/>
<path d="M42.0958 147.109C42.0958 147.109 38.6414 164.967 61.6311 171.769L62.187 177.854L60.7973 179.723L59.1296 178.808L53.0546 173.678L49.5208 171.609L39.9914 174.553L36.2193 173.678L34.6311 172.246L29.1914 156.377L30.8591 151.524L34.1943 149.695L42.0958 147.109Z" fill="#EDF0F2"/>
<path d="M29.8262 158.644C29.8262 158.644 36.0997 171.729 50.3541 171.411L41.4203 174.354L37.1718 174.195L34.6306 172.286L32.8438 167.911L29.8262 158.644Z" fill="#F5F7F7"/>
<path d="M60.321 180.28C59.646 180.28 58.971 180.041 58.4548 179.604L50.0371 172.445C49.9577 172.485 49.8783 172.524 49.7989 172.564L41.5004 175.269C39.7136 175.825 37.8474 175.706 36.1798 174.831C34.5121 173.996 33.2812 172.524 32.6857 170.774L28.5165 157.848C27.3254 154.189 29.3504 150.212 33.0033 149.019L52.9754 142.536C54.7621 141.979 56.6283 142.098 58.296 142.973C59.9636 143.808 61.1945 145.28 61.7901 147.03L65.9592 159.956C67.071 163.377 65.4033 166.996 62.2268 168.467L63.1798 177.019C63.2989 178.212 62.7033 179.365 61.671 179.922C61.2739 180.161 60.7974 180.28 60.321 180.28ZM50.2754 170.337C50.5136 170.337 50.7518 170.416 50.9107 170.575L59.7254 178.053C60.1621 178.411 60.5989 178.212 60.718 178.172C60.8371 178.092 61.2342 177.854 61.1945 177.297L60.043 167.155L60.8371 166.916C63.4577 166.081 64.8871 163.257 64.0533 160.632L59.8842 147.706C59.4871 146.433 58.6136 145.399 57.4224 144.803C56.2313 144.206 54.8812 144.087 53.6107 144.485L33.6386 150.928C31.018 151.763 29.5886 154.587 30.4224 157.212L34.5915 170.138C34.9886 171.411 35.8621 172.445 37.0533 173.041C38.2445 173.638 39.5945 173.757 40.8651 173.36L49.1636 170.655C49.3224 170.615 49.4415 170.575 49.6004 170.615C49.7989 170.416 50.0371 170.337 50.2754 170.337Z" fill="#C4E0EC"/>
<path d="M34.393 157.371C33.9563 157.371 33.5592 157.092 33.4401 156.655C33.2813 156.138 33.5592 155.541 34.0754 155.382L54.643 148.7C55.1592 148.541 55.7548 148.82 55.9136 149.337C56.0724 149.854 55.7945 150.45 55.2783 150.61L34.7107 157.291C34.5916 157.371 34.5122 157.371 34.393 157.371Z" fill="#C4E0EC"/>
<path d="M36.2192 162.979C35.7824 162.979 35.3854 162.7 35.2663 162.263C35.1074 161.746 35.3854 161.149 35.9016 160.99L56.4692 154.308C56.9854 154.149 57.581 154.428 57.7398 154.945C57.8986 155.462 57.6207 156.058 57.1045 156.217L36.5369 162.939C36.4177 162.979 36.2986 162.979 36.2192 162.979Z" fill="#C4E0EC"/>
<path d="M38.1255 168.905C37.6887 168.905 37.2916 168.627 37.1725 168.189C37.0137 167.672 37.2916 167.075 37.8078 166.916L58.3755 160.234C58.8916 160.075 59.4872 160.354 59.646 160.871C59.8049 161.388 59.5269 161.984 59.0108 162.144L38.4431 168.825C38.324 168.865 38.2446 168.905 38.1255 168.905Z" fill="#C4E0EC"/>
<path d="M179.003 147.109L177.097 148.661L175.866 159.36L177.415 161.149L178.963 161.706L179.559 167.513L180.631 168.11L181.504 167.672L185.594 162.342L192.027 162.86L194.568 160.95L195.243 155.939L195.521 150.689L193.297 148.303L179.003 147.109Z" fill="#EDF0F2"/>
<path d="M184.641 147.587C184.641 147.587 177.573 155.342 187.579 162.502L185.593 162.342L181.067 167.871L180.233 168.11L179.558 166.877L178.963 161.706L176.66 160.871L175.548 158.286L177.136 148.661L178.01 147.945L180.193 146.95L184.641 147.587Z" fill="#F5F7F7"/>
<path d="M180.63 168.746C180.472 168.746 180.313 168.706 180.154 168.666C179.479 168.467 178.963 167.871 178.883 167.155L178.367 162.223C176.382 161.786 174.992 159.877 175.191 157.808L175.945 149.973C176.064 148.899 176.58 147.905 177.414 147.189C178.248 146.473 179.32 146.155 180.432 146.274L192.542 147.467C193.614 147.587 194.607 148.104 195.322 148.939C196.036 149.774 196.354 150.848 196.235 151.962L195.48 159.797C195.242 162.064 193.257 163.695 190.994 163.496L185.951 163.019C185.911 163.019 185.872 163.019 185.832 162.979L181.98 168.03C181.663 168.507 181.186 168.746 180.63 168.746ZM180.075 147.587C179.439 147.587 178.804 147.825 178.288 148.223C177.692 148.7 177.335 149.377 177.255 150.132L176.501 157.967C176.342 159.519 177.494 160.911 179.042 161.07L179.558 161.11L180.154 167.036C180.194 167.314 180.392 167.394 180.472 167.433C180.551 167.473 180.789 167.513 180.948 167.274L185.038 161.945C185.236 161.706 185.594 161.627 185.832 161.786C185.911 161.746 185.991 161.746 186.07 161.746L191.113 162.223C192.661 162.382 194.051 161.229 194.21 159.678L194.964 151.842C195.044 151.087 194.805 150.371 194.329 149.774C193.852 149.178 193.177 148.82 192.423 148.74L180.313 147.547C180.273 147.587 180.194 147.587 180.075 147.587Z" fill="#C4E0EC"/>
<path d="M192.701 152.558C192.661 152.558 192.661 152.558 192.622 152.558L180.154 151.325C179.797 151.286 179.558 150.967 179.598 150.61C179.638 150.252 179.955 150.013 180.313 150.053L192.78 151.286C193.138 151.325 193.376 151.644 193.336 152.002C193.336 152.32 193.058 152.558 192.701 152.558Z" fill="#C4E0EC"/>
<path d="M192.384 155.939C192.344 155.939 192.344 155.939 192.304 155.939L179.837 154.706C179.479 154.666 179.241 154.348 179.281 153.99C179.32 153.632 179.638 153.394 179.995 153.433L192.463 154.666C192.82 154.706 193.059 155.024 193.019 155.382C192.979 155.7 192.701 155.939 192.384 155.939Z" fill="#C4E0EC"/>
<path d="M192.026 159.519C191.987 159.519 191.987 159.519 191.947 159.519L179.479 158.286C179.122 158.246 178.884 157.928 178.923 157.57C178.963 157.212 179.281 156.973 179.638 157.013L192.106 158.246C192.463 158.286 192.701 158.604 192.662 158.962C192.622 159.28 192.344 159.519 192.026 159.519Z" fill="#C4E0EC"/>
<path d="M58.5343 55.0357C58.5343 55.0357 53.0152 54.0811 52.3402 54.2402C51.6652 54.3993 46.3049 56.1891 46.3049 56.1891L42.2549 59.8482L40.627 63.9845L41.4608 69.0357L44.399 72.7743L47.5755 74.1266L55.0005 75.1607L59.924 79.0186H62.3858L63.0211 78.3823L62.624 70.8254L65.0064 67.8425L65.6417 63.905L64.2917 59.3311L58.5343 55.0357Z" fill="#EDF0F2"/>
<path d="M41.7383 60.6436C41.7383 60.6436 56.0721 57.1436 62.6236 70.905L65.0059 67.922L65.6412 60.6436L62.2662 57.1436C62.2265 57.1436 50.8309 49.0698 41.7383 60.6436Z" fill="#F5F7F7"/>
<path d="M61.4325 80.3709C60.8766 80.3709 60.281 80.2118 59.8046 79.8538L54.206 75.9561C46.9399 76.7913 40.4281 72.6152 39.5943 66.53C38.7207 60.3254 44.081 54.4391 51.506 53.405C58.931 52.3709 65.681 56.5868 66.5149 62.7914C66.9119 65.8141 65.8796 68.9164 63.6163 71.3823L64.2913 77.1891C64.4104 78.3027 63.8943 79.3766 62.9413 79.9732C62.4649 80.2118 61.9487 80.3709 61.4325 80.3709ZM54.7222 73.8084L60.956 78.1834C61.3531 78.4618 61.7501 78.2629 61.8693 78.2232C61.9884 78.1834 62.3457 77.905 62.2663 77.4277L61.4722 70.6663L61.8296 70.3084C63.934 68.2004 64.8869 65.655 64.5296 63.0698C63.8149 57.9789 58.0972 54.5584 51.784 55.4334C45.4707 56.3084 40.9046 61.1607 41.5796 66.2516C42.2943 71.3425 48.0119 74.7629 54.3251 73.8879L54.7222 73.8084Z" fill="#C4E0EC"/>
<path d="M45.5107 63.1891C45.1931 63.1891 44.9151 62.9505 44.8754 62.6323C44.8357 62.2743 45.0739 61.9561 45.4313 61.9164L59.0504 60.047C59.4078 60.0073 59.7254 60.2459 59.7651 60.6039C59.8048 60.9618 59.5666 61.28 59.2092 61.3198L45.5901 63.1891C45.5504 63.1891 45.5107 63.1891 45.5107 63.1891Z" fill="#C4E0EC"/>
<path d="M46.2646 68.6777C45.947 68.6777 45.669 68.4391 45.6293 68.1209C45.5896 67.7629 45.8278 67.4448 46.1852 67.405L59.8043 65.5357C60.1617 65.4959 60.4793 65.7345 60.519 66.0925C60.5587 66.4504 60.3205 66.7686 59.9631 66.8084L46.344 68.6777C46.3043 68.6777 46.2646 68.6777 46.2646 68.6777Z" fill="#C4E0EC"/>
<path d="M188.015 181.155L186.348 181.513L185.196 183.223C185.196 183.223 185.514 184.734 185.593 184.894C185.712 185.013 186.785 186.007 186.943 185.967C187.102 185.928 189.207 186.166 189.246 185.967C189.286 185.769 189.961 184.337 189.961 184.337L189.882 182.985L188.015 181.155Z" fill="#E2E2E2"/>
<path d="M187.579 186.604C185.911 186.604 184.521 185.252 184.521 183.541C184.521 181.831 185.871 180.479 187.579 180.479C189.246 180.479 190.636 181.831 190.636 183.541C190.636 185.252 189.246 186.604 187.579 186.604ZM187.579 181.791C186.586 181.791 185.832 182.587 185.832 183.541C185.832 184.496 186.626 185.291 187.579 185.291C188.532 185.291 189.326 184.496 189.326 183.541C189.326 182.587 188.532 181.791 187.579 181.791Z" fill="#C4E0EC"/>
<path d="M50.8308 132.712L49.5999 130.485L48.4087 129.808L46.5028 130.485L46.0264 132.235L46.5028 133.666L48.4087 134.183H49.8381L50.8308 132.712Z" fill="#EDF0F2"/>
<path d="M48.4088 135.655C46.5427 135.655 44.9941 134.104 44.9941 132.235C44.9941 130.365 46.5427 128.814 48.4088 128.814C50.275 128.814 51.8236 130.365 51.8236 132.235C51.8236 134.104 50.275 135.655 48.4088 135.655ZM48.4088 130.842C47.6544 130.842 47.0191 131.479 47.0191 132.235C47.0191 132.99 47.6544 133.627 48.4088 133.627C49.1633 133.627 49.7986 132.99 49.7986 132.235C49.7986 131.439 49.1633 130.842 48.4088 130.842Z" fill="#C4E0EC"/>
<path d="M59.6459 93.2573V91.03L58.2165 89.7971H56.668L55.04 91.5471V92.78L55.6753 93.8936L57.4224 94.6096L58.2959 94.4902L59.6459 93.2573Z" fill="#E2E2E2"/>
<path d="M57.4223 95.2857C55.7149 95.2857 54.3252 93.8936 54.3252 92.1834C54.3252 90.4732 55.7149 89.0811 57.4223 89.0811C59.1296 89.0811 60.5193 90.4732 60.5193 92.1834C60.5193 93.8936 59.1693 95.2857 57.4223 95.2857ZM57.4223 90.3141C56.4296 90.3141 55.5958 91.1493 55.5958 92.1436C55.5958 93.1379 56.4296 93.9732 57.4223 93.9732C58.4149 93.9732 59.2487 93.1379 59.2487 92.1436C59.2487 91.1493 58.4546 90.3141 57.4223 90.3141Z" fill="#C4E0EC"/>
<path d="M184.402 94.4902L183.568 97.2743L184.402 97.9505H186.785L187.42 96.3993L186.785 94.888L184.402 94.4902Z" fill="#E2E2E2"/>
<path d="M185.593 99.3027C183.846 99.3027 182.377 97.8709 182.377 96.0811C182.377 94.2914 183.806 92.8596 185.593 92.8596C187.38 92.8596 188.809 94.2914 188.809 96.0811C188.809 97.8709 187.38 99.3027 185.593 99.3027ZM185.593 94.888C184.958 94.888 184.402 95.405 184.402 96.0811C184.402 96.7573 184.918 97.2743 185.593 97.2743C186.268 97.2743 186.784 96.7573 186.784 96.0811C186.784 95.405 186.268 94.888 185.593 94.888Z" fill="#C4E0EC"/>
<path d="M107.054 147.945L106.379 150.689L105.029 154.428L102.012 157.729L105.784 161.985L110.707 165.604L116.981 168.11L123.612 165.524L130.322 161.189L132.823 158.644L129.409 153.95L127.781 147.109L107.054 147.945Z" fill="#FBD8AE"/>
<path d="M105.943 151.922C105.943 151.922 117.14 160.95 129.052 151.922L127.821 147.149L107.095 147.985L105.943 151.922Z" fill="#FBBA99"/>
<path d="M102.012 158.763C101.655 158.763 101.297 158.564 101.099 158.246C100.821 157.729 101.019 157.132 101.496 156.854C101.694 156.735 105.983 154.269 105.983 147.15C105.983 146.593 106.459 146.115 107.015 146.115C107.571 146.115 108.047 146.593 108.047 147.15C108.047 155.542 102.687 158.564 102.488 158.684C102.369 158.723 102.171 158.763 102.012 158.763Z" fill="#12426D"/>
<path d="M132.823 158.763C132.665 158.763 132.506 158.723 132.347 158.644C132.109 158.524 126.788 155.541 126.788 147.11C126.788 146.553 127.265 146.075 127.82 146.075C128.376 146.075 128.853 146.553 128.853 147.11C128.853 154.308 133.3 156.814 133.34 156.814C133.856 157.092 134.015 157.689 133.737 158.206C133.538 158.564 133.181 158.763 132.823 158.763Z" fill="#12426D"/>
<path d="M132.824 157.729L138.383 157.609H143.783L150.136 161.229L154.742 166.041L158.99 173.32L161.452 181.155L162.286 186.763H145.411L145.093 181.155L143.029 173.32L137.827 164.53L132.824 157.729Z" fill="#588BA8"/>
<path d="M132.824 157.729C132.824 157.729 154.583 158.962 157.76 186.763H163.358C163.358 186.763 159.348 154.905 132.824 157.729Z" fill="#42718A"/>
<path d="M162.286 187.797C161.73 187.797 161.293 187.359 161.254 186.842C161.254 186.683 160.301 171.53 150.851 163.496C146.165 159.558 140.17 157.928 132.943 158.763C132.387 158.842 131.871 158.405 131.832 157.848C131.752 157.291 132.189 156.774 132.745 156.734C140.527 155.859 147.079 157.61 152.201 161.945C162.326 170.536 163.279 186.047 163.318 186.723C163.358 187.28 162.921 187.757 162.365 187.797C162.326 187.797 162.286 187.797 162.286 187.797Z" fill="#12426D"/>
<path d="M102.012 157.729L96.4928 157.609H91.0531L84.7001 161.229L80.134 166.041L75.8854 173.32L73.4237 181.155L72.5898 186.763H89.4251L89.7825 181.155L91.8472 173.32L97.0487 164.53L102.012 157.729Z" fill="#588BA8"/>
<path d="M102.568 157.729C102.568 157.729 80.8092 158.962 77.6327 186.763H72.0342C72.0342 186.763 76.0445 154.905 102.568 157.729Z" fill="#6FA6BF"/>
<path d="M72.5899 187.797H72.5502C71.9943 187.757 71.5575 187.28 71.5972 186.723C71.6369 186.047 72.5899 170.536 82.7149 161.945C87.8369 157.61 94.3884 155.859 102.171 156.734C102.727 156.814 103.124 157.291 103.084 157.848C103.005 158.405 102.528 158.803 101.972 158.763C94.7458 157.928 88.7502 159.558 84.0649 163.496C74.6149 171.53 73.6619 186.683 73.6619 186.803C73.5825 187.359 73.1061 187.797 72.5899 187.797Z" fill="#12426D"/>
<path d="M78.8236 178.888C78.7839 178.888 78.7045 178.888 78.6648 178.848C78.3074 178.769 78.1089 178.411 78.228 178.053C78.3868 177.496 81.8412 164.729 92.2839 161.348C92.6015 161.229 92.9986 161.428 93.078 161.746C93.1971 162.064 92.9986 162.462 92.6809 162.541C82.9133 165.683 79.5383 178.212 79.4986 178.371C79.3795 178.689 79.1412 178.888 78.8236 178.888Z" fill="#12426D"/>
<path d="M130.838 147.388H146.006L152.438 146.274L158.355 141.621L162.206 131.121V122.57L166.931 121.019L169.988 116.286V112.706L166.931 106.661L162.166 107.854V103.558L156.608 107.894L150.731 109.962L139.097 103.479L122.699 93.4561L105.903 87.6891L91.609 85.8993L78.2281 86.7743L74.2972 93.0186L72.8281 100.217L73.7017 112.348L73.8208 117.678L74.0193 123.644L74.059 126.149L74.4164 130.286L75.3296 134.86L79.8164 144.246L84.9781 146.672L97.684 147.428H112.097" fill="#FBD8AE"/>
<path d="M72.8286 103.2L65.9594 97.7516L64.9668 90.1152L70.0094 82.2004L72.7094 79.9334L72.1933 73.0129L73.6624 66.2516L77.8712 60.1266L85.3756 55.9504L92.6021 54.6379L98.2403 48.4334L102.886 45.3311L111.145 43.6606L118.093 44.2572L125.677 49.7856L132.189 47.8368L139.693 48.155L143.942 50.1436L147.992 54.5981L151.287 64.1436L161.254 68.3197L166.376 74.6834L168.202 81.8425L166.773 92.3822L172.49 96.9561L174.436 104.752L171.259 114.257L167.765 108.212L162.365 106.74L162.167 101.848L156.568 107.894L150.731 109.962L139.098 103.479L124.327 93.7743L109.318 88.8425L92.9594 86.0584L78.2286 86.7743L75.5286 91.0697L72.8286 103.2Z" fill="#636158"/>
<path d="M72.3515 75.2004C72.3515 75.2004 76.2427 58.7345 91.8868 58.3368L93.4353 54.6379L87.2412 55.5129L80.0147 58.4959L77.1559 61.1209L74.9721 63.5073L71.9941 68.5186L72.3515 75.2004Z" fill="#7F7E79"/>
<path d="M92.3242 62.155C92.3242 62.155 100.226 40.0413 124.724 49.0697L119.205 45.0527L112.495 43.78L102.926 45.3311L97.0889 49.5868L93.4757 54.5982L92.3242 62.155Z" fill="#7F7E79"/>
<path d="M125.677 49.7856C125.677 49.7856 145.609 46.8027 150.056 64.4618L149.58 57.8993L145.093 50.422L136.914 47.4391L132.149 47.8368L125.677 49.7856Z" fill="#7F7E79"/>
<path d="M151.287 64.1436C151.287 64.1436 167.209 71.78 166.772 92.3823L169.274 84.2288L166.296 72.4163L159.387 67.2459L151.287 64.1436Z" fill="#7F7E79"/>
<path d="M167.765 108.212C167.765 108.212 173.642 106.74 166.772 92.3425C166.772 92.3425 177.93 98.3084 171.696 112.985L167.765 108.212Z" fill="#7F7E79"/>
<path d="M95.3418 71.8595C95.3418 71.8595 113.964 64.6607 124.446 69.4334L116.624 63.9845L107.73 64.5811L99.3918 68.3595L95.3418 71.8595Z" fill="#7F7E79"/>
<path d="M124.446 69.4334C124.446 69.4334 121.19 61.28 133.618 60.3254L127.543 59.0129L122.341 61.4789L118.887 64.5016L124.446 69.4334Z" fill="#7F7E79"/>
<path d="M78.2285 86.7743C78.2285 86.7743 104.037 73.0925 137.509 96.797C137.509 96.797 150.731 109.962 161.651 99.7004L162.167 103.558L155.179 108.848L150.731 109.962L141.083 104.871L129.052 96.9163L118.57 91.5868L101.734 87.53L78.2285 86.7743Z" fill="#56504D"/>
<path d="M80.1338 142.575L146.284 141.899C146.284 141.899 160.101 140.905 162.206 126.984C162.206 126.984 163.715 143.729 152.438 146.274L130.838 147.388L86.4867 147.945L82.4367 145.041L80.1338 142.575Z" fill="#FBBA99"/>
<path d="M84.7002 105.547C84.7002 105.547 95.3414 97.7913 104.593 95.8425C104.593 95.8425 89.2664 89.6379 84.7002 105.547Z" fill="#FBBA99"/>
<path d="M73.8608 104.354C73.8608 104.354 77.4741 91.9845 83.0329 91.547C83.0329 91.547 109.556 86.0982 139.653 105.269C139.653 105.269 116.426 81.0072 78.2285 86.7743C78.2285 86.7743 70.7638 94.6493 73.8608 104.354Z" fill="#FBBA99"/>
<path d="M143.346 106.502C143.346 106.502 155.813 119.03 162.166 114.695V101.848L158.116 106.502L150.731 110.002L143.346 106.502Z" fill="#FBBA99"/>
<path d="M84.7004 105.547C84.7004 105.547 81.8812 84.7459 104.593 95.8425C104.593 95.8425 91.4901 90.7118 84.7004 105.547Z" fill="#F9EBCB"/>
<path d="M136.818 122.891C139.888 122.868 142.368 121.744 142.357 120.382C142.347 119.021 139.85 117.936 136.78 117.96C133.709 117.983 131.229 119.107 131.24 120.469C131.25 121.831 133.748 122.915 136.818 122.891Z" fill="#F9EBCB"/>
<path d="M97.0705 123.408C100.141 123.385 102.621 122.261 102.61 120.899C102.6 119.538 100.102 118.453 97.0324 118.477C93.9624 118.5 91.4822 119.624 91.4927 120.986C91.5032 122.347 94.0005 123.432 97.0705 123.408Z" fill="#F9EBCB"/>
<path d="M113.328 123.087C113.328 123.087 113.288 116.842 116.783 109.286L117.815 126.428L113.328 123.087Z" fill="#F9EBCB"/>
<path d="M87.0828 148.342C86.0107 148.144 84.9784 147.825 83.9857 147.547L83.3504 147.348C73.0269 144.365 73.0269 131.757 73.0269 131.24L72.5107 112.388V98.0698C72.5107 92.8595 74.099 88.9618 77.474 85.8595C77.9504 85.422 78.7446 85.422 79.1813 85.9391C79.6181 86.4164 79.6181 87.2118 79.1019 87.6493C76.2034 90.3141 74.9328 93.5357 74.9328 98.0698V112.348L75.449 131.2C75.449 131.36 75.4887 142.575 84.0254 145.041L84.7004 145.24C86.4872 145.757 88.1549 146.235 89.9813 146.235L146.046 146.155C154.305 146.155 161.055 139.394 161.055 131.121L161.015 97.9902C161.015 89.7175 154.265 82.9561 146.006 82.9561C145.331 82.9561 144.815 82.3993 144.815 81.7629C144.815 81.0868 145.371 80.5698 146.006 80.5698C155.615 80.5698 163.437 88.3652 163.437 97.9902L163.477 131.121C163.477 140.746 155.695 148.581 146.086 148.581L90.021 148.661C88.949 148.661 87.996 148.541 87.0828 148.342Z" fill="#11426E"/>
<path d="M161.929 123.763C161.373 123.644 160.976 123.166 160.976 122.57C160.976 121.894 161.531 121.377 162.167 121.377C163.993 121.377 165.701 120.661 166.971 119.388C168.242 118.115 168.956 116.405 168.956 114.575C168.956 112.746 168.242 111.036 166.971 109.763C165.701 108.49 163.993 107.774 162.167 107.774C161.492 107.774 160.976 107.217 160.976 106.581C160.976 105.905 161.531 105.388 162.167 105.388C164.629 105.388 166.931 106.342 168.679 108.092C170.426 109.842 171.379 112.149 171.379 114.615C171.379 117.081 170.426 119.388 168.679 121.138C166.931 122.888 164.629 123.842 162.167 123.842C162.087 123.803 162.008 123.763 161.929 123.763Z" fill="#11426E"/>
<path d="M149.739 111.036C146.682 110.439 143.585 108.172 139.574 105.308C135.524 102.405 130.442 98.7459 123.414 95.1663C100.464 83.5129 78.6655 87.8879 78.467 87.9277C77.8317 88.047 77.1567 87.6493 77.0376 86.9731C76.9185 86.3368 77.3155 85.6606 77.9905 85.5413C78.9038 85.3425 100.861 80.9277 124.526 92.9788C131.752 96.6379 136.874 100.337 141.004 103.32C145.411 106.502 148.588 108.769 151.407 108.769C154.186 108.769 157.124 106.422 161.214 100.973C161.611 100.456 162.366 100.337 162.921 100.735C163.438 101.132 163.557 101.888 163.16 102.445C157.641 109.763 153.789 111.831 149.739 111.036Z" fill="#11426E"/>
<path d="M169.949 115.729C169.79 115.689 169.591 115.61 169.432 115.49C168.916 115.092 168.797 114.337 169.234 113.78C172.132 110.041 173.284 106.342 172.688 102.803C171.696 96.9959 166.176 93.4163 166.137 93.3766L165.382 92.8993L165.621 92.0243C167.844 84.547 167.447 78.422 164.469 73.7288C160.022 66.7686 151.207 65.3368 151.128 65.3368L150.254 65.2175L150.096 64.3425C148.865 57.1834 146.046 52.4504 141.757 50.2232C134.888 46.6834 126.272 50.8198 126.193 50.8595L125.359 51.2573L124.763 50.5811C118.053 42.9447 108.881 45.172 108.801 45.172L108.722 45.2118C93.0382 47.8368 93.475 61.3595 93.5147 61.9163C93.5544 62.5925 93.0382 63.1493 92.3632 63.1891C91.6882 63.2288 91.1324 62.7118 91.0927 62.0357C91.0927 61.8766 90.4574 45.8482 108.285 42.8254C109.159 42.6266 118.609 40.5982 125.994 48.3141C128.496 47.28 136.199 44.655 142.869 48.0754C147.713 50.5413 150.89 55.5925 152.359 63.1095C154.9 63.6663 162.285 65.7743 166.494 72.4163C169.75 77.547 170.306 84.0697 168.162 91.905C169.909 93.2175 174.078 96.8766 175.031 102.405C175.785 106.661 174.475 110.996 171.1 115.331C170.862 115.649 170.385 115.808 169.949 115.729Z" fill="#11426E"/>
<path d="M95.0235 72.8141C94.7853 72.7743 94.5867 72.655 94.4279 72.4959C93.9514 72.0186 93.9514 71.263 94.3882 70.7857C94.547 70.6266 109 56.03 124.882 67.5641C125.438 67.9618 125.557 68.7175 125.16 69.2743C124.763 69.8311 124.009 69.9505 123.453 69.5527C117.497 65.2175 111.104 64.422 104.434 67.0868C99.3911 69.1152 96.1353 72.4561 96.0956 72.4959C95.8176 72.7743 95.4206 72.8936 95.0235 72.8141Z" fill="#11426E"/>
<path d="M118.728 66.8084C118.609 66.7686 118.529 66.7686 118.41 66.689C117.815 66.3709 117.576 65.655 117.894 65.0584C119.879 61.2004 125.835 54.9959 134.173 59.2516C134.769 59.5697 135.007 60.2856 134.69 60.8822C134.372 61.4788 133.657 61.7175 133.062 61.3993C124.763 57.1834 120.197 65.814 120.038 66.172C119.76 66.689 119.244 66.9277 118.728 66.8084Z" fill="#11426E"/>
<path d="M136.397 93.8936C136.278 93.8538 136.119 93.8141 136 93.6947C116.782 78.1436 97.7234 80.8879 97.5249 80.8879C97.0484 80.9675 96.5719 80.6095 96.4925 80.1322C96.4131 79.655 96.7705 79.1777 97.2469 79.0981C98.0411 78.9788 117.298 76.2345 137.151 92.2629C137.548 92.5811 137.588 93.1379 137.27 93.5356C137.032 93.8141 136.715 93.9334 136.397 93.8936Z" fill="#11426E"/>
<path d="M98.7962 57.1039C98.677 57.0641 98.5579 57.0243 98.4388 56.9448C98.0418 56.6266 97.9623 56.0698 98.28 55.672C98.3594 55.5527 107.174 44.2175 120.237 50.422C120.674 50.6209 120.873 51.1777 120.674 51.6152C120.476 52.0527 119.92 52.2516 119.483 52.0527C107.77 46.5243 100.027 56.3482 99.7094 56.7857C99.4712 57.0641 99.1138 57.1834 98.7962 57.1039Z" fill="#11426E"/>
<path d="M163.835 86.4163C163.438 86.3368 163.12 86.0186 163.12 85.5811C162.366 73.0925 153.114 71.3822 152.757 71.3027C152.28 71.2232 151.923 70.7459 152.002 70.2686C152.082 69.7913 152.558 69.4334 153.035 69.5129C153.154 69.5129 164.073 71.4618 164.907 85.4618C164.946 85.9788 164.549 86.3766 164.073 86.4163C163.994 86.4163 163.914 86.4163 163.835 86.4163Z" fill="#11426E"/>
<path d="M166.415 114.456C166.137 114.416 165.899 114.217 165.78 113.939C165.423 113.104 164.946 112.627 164.39 112.428C163.477 112.149 162.524 112.746 162.524 112.746C162.087 113.024 161.531 112.865 161.293 112.467C161.055 112.07 161.134 111.513 161.571 111.235C161.65 111.195 163.239 110.2 164.906 110.717C165.978 111.036 166.852 111.911 167.408 113.223C167.606 113.7 167.408 114.217 166.931 114.416C166.773 114.456 166.574 114.496 166.415 114.456Z" fill="#11426E"/>
<path d="M141.44 98.2686C141.281 98.2289 141.122 98.1493 141.003 98.0698L138.819 96.0811C138.462 95.7629 138.422 95.1663 138.74 94.8084C139.057 94.4504 139.653 94.4107 140.01 94.7288L142.194 96.7175C142.552 97.0357 142.591 97.6323 142.274 97.9902C142.075 98.2289 141.757 98.3084 141.44 98.2686Z" fill="#11426E"/>
<path d="M149.739 70.547L146.959 69.9902C146.483 69.8709 146.165 69.3936 146.245 68.9163C146.364 68.4391 146.8 68.1209 147.317 68.2004L150.056 68.7572C150.533 68.8765 150.85 69.3538 150.771 69.8311C150.692 70.3481 150.215 70.6663 149.739 70.547Z" fill="#11426E"/>
<path d="M72.5899 104.394C72.4311 104.354 72.2723 104.274 72.1135 104.195C66.4355 100.058 63.6561 95.6436 63.8547 91.03C64.0929 85.0243 69.3738 80.7686 71.3591 79.3766C69.9694 72.4959 70.9223 66.7686 74.2576 62.3141C80.3723 54.2004 92.0458 53.4447 92.562 53.4447C93.237 53.405 93.7929 53.922 93.8326 54.5982C93.8723 55.2743 93.3561 55.8311 92.6811 55.8709C92.562 55.8709 81.6032 56.5868 76.1635 63.8254C73.1458 67.8425 72.3914 73.172 73.8605 79.6947L74.0591 80.53L73.3047 80.9675C73.2252 81.0072 66.4752 85.2231 66.237 91.1493C66.0782 94.8481 68.54 98.5868 73.5032 102.246C74.0591 102.644 74.1782 103.399 73.7811 103.956C73.5429 104.314 73.0267 104.473 72.5899 104.394Z" fill="#11426E"/>
<path d="M76.0442 77.0697C75.6471 76.9902 75.3692 76.672 75.3295 76.2743C75.3295 76.155 74.1383 63.0697 86.8442 60.2061C87.3207 60.0868 87.7971 60.405 87.9163 60.8822C88.0354 61.3595 87.7177 61.8368 87.2413 61.9561C76.0839 64.4618 77.0766 75.5981 77.1163 76.0754C77.156 76.5527 76.7986 77.03 76.3221 77.0697C76.203 77.0697 76.1236 77.0697 76.0442 77.0697Z" fill="#11426E"/>
<path d="M116.585 127.462C115.632 127.263 114.758 126.865 114.044 126.308C112.932 125.433 112.257 124.161 112.257 122.888C112.257 122.212 112.813 121.695 113.448 121.695C114.123 121.695 114.639 122.252 114.679 122.888C114.679 123.644 115.195 124.161 115.513 124.399C116.148 124.877 117.022 125.155 117.935 125.155C118.848 125.155 119.722 124.877 120.357 124.399C120.674 124.161 121.191 123.644 121.191 122.888C121.191 122.212 121.747 121.695 122.382 121.655C123.057 121.655 123.573 122.212 123.573 122.848C123.573 124.161 122.938 125.394 121.826 126.269C120.754 127.104 119.404 127.541 117.935 127.541C117.498 127.621 117.022 127.581 116.585 127.462Z" fill="#11426E"/>
<path d="M84.4225 107.019C84.3828 107.019 84.3431 107.019 84.3431 106.979C83.5887 106.78 83.1122 105.985 83.3108 105.189C83.3902 104.911 85.2564 98.1891 91.2917 94.9277C95.1828 92.8595 99.7887 92.7004 105.07 94.4504C105.824 94.6891 106.221 95.5243 105.983 96.28C105.745 97.0357 104.911 97.4334 104.156 97.1948C99.6696 95.6834 95.8181 95.7629 92.6417 97.4732C87.6784 100.138 86.0902 105.865 86.0902 105.945C85.8917 106.7 85.1372 107.138 84.4225 107.019Z" fill="#11426E"/>
<path d="M99.3515 117.916C101.281 117.916 102.846 116.349 102.846 114.416C102.846 112.483 101.281 110.916 99.3515 110.916C97.4218 110.916 95.8574 112.483 95.8574 114.416C95.8574 116.349 97.4218 117.916 99.3515 117.916Z" fill="#11426E"/>
<path d="M133.658 119.428C135.588 119.428 137.152 117.861 137.152 115.928C137.152 113.995 135.588 112.428 133.658 112.428C131.728 112.428 130.164 113.995 130.164 115.928C130.164 117.861 131.728 119.428 133.658 119.428Z" fill="#11426E"/>
<path d="M95.3022 131.24C95.3022 131.24 101.06 140.746 110.43 137.485C119.801 134.223 115.314 130.644 108.762 128.894C104.554 127.74 90.4183 121.695 95.3022 131.24Z" fill="#11426E"/>
<path d="M161.929 97.9504L166.892 98.5072L173.92 101.848L178.526 111.195V117.837L176.421 123.803L173.007 126.984L168.718 130.484L161.929 131.24V97.9504Z" fill="#DE647C"/>
<path d="M161.929 97.9504L166.892 98.5072V131.24H161.929V97.9504Z" fill="#F8BFD1"/>
<path d="M176.422 106.462C176.422 106.462 169.394 103.28 166.853 114.257L166.892 98.5072C166.892 98.5072 175.032 103.24 176.422 106.462Z" fill="#E57691"/>
<path d="M178.089 112.984C178.089 112.984 175.071 121.894 166.852 121.615L166.812 129.808C166.852 129.808 179.598 125.433 178.089 112.984Z" fill="#C45776"/>
<path d="M161.889 132.234H160.856V96.9163H161.889C171.617 96.9163 179.518 104.831 179.518 114.575C179.518 124.32 171.617 132.234 161.889 132.234ZM162.881 99.0243V130.166C170.981 129.649 177.453 122.848 177.453 114.575C177.453 106.342 171.021 99.5413 162.881 99.0243Z" fill="#12426D"/>
<path d="M166.813 131.519C166.257 131.519 165.78 131.041 165.78 130.484V98.5072C165.78 97.9504 166.257 97.4731 166.813 97.4731C167.369 97.4731 167.845 97.9504 167.845 98.5072V130.484C167.845 131.041 167.408 131.519 166.813 131.519Z" fill="#12426D"/>
<path d="M73.6221 97.9504L68.6589 98.5072L61.5912 101.848L56.9854 111.195V117.837L59.1295 123.803L62.5442 126.984L66.7927 130.484L73.6221 131.24V97.9504Z" fill="#DE647C"/>
<path d="M73.6224 97.9504L68.6592 98.5072V131.24H73.6224V97.9504Z" fill="#F8BFD1"/>
<path d="M59.1289 106.462C59.1289 106.462 66.1568 103.28 68.698 114.257L68.6583 98.5072C68.6583 98.5072 60.5186 103.24 59.1289 106.462Z" fill="#E57691"/>
<path d="M57.4226 112.984C57.4226 112.984 60.4402 121.894 68.6593 121.615L68.6991 129.808C68.6991 129.808 55.9535 125.433 57.4226 112.984Z" fill="#C45776"/>
<path d="M74.6149 132.234H73.5825C63.8546 132.234 55.9531 124.32 55.9531 114.575C55.9531 104.831 63.8546 96.9163 73.5825 96.9163H74.6149V132.234ZM72.5899 99.0243C64.4899 99.5413 58.0178 106.342 58.0178 114.615C58.0178 122.888 64.4502 129.649 72.5899 130.206V99.0243Z" fill="#12426D"/>
<path d="M68.6593 131.519C68.1034 131.519 67.627 131.041 67.627 130.484V98.5072C67.627 97.9504 68.1034 97.4731 68.6593 97.4731C69.2152 97.4731 69.6917 97.9504 69.6917 98.5072V130.484C69.6917 131.041 69.2152 131.519 68.6593 131.519Z" fill="#12426D"/>
<path d="M89.4249 139.155H89.3852C79.3396 138.678 73.1455 132.195 72.8676 131.916C72.4705 131.519 72.5102 130.842 72.9073 130.485C73.3043 130.087 73.9793 130.127 74.3367 130.524C74.4161 130.604 80.2528 136.689 89.4646 137.127C90.0205 137.166 90.4573 137.644 90.4175 138.2C90.4175 138.757 89.9411 139.155 89.4249 139.155Z" fill="#12426D"/>
<path d="M90.2983 140.666C92.7105 140.666 94.666 139.331 94.666 137.683C94.666 136.036 92.7105 134.7 90.2983 134.7C87.8861 134.7 85.9307 136.036 85.9307 137.683C85.9307 139.331 87.8861 140.666 90.2983 140.666Z" fill="#12426D"/>
<path d="M102.013 157.729L97.5258 162.939L94.0714 168.11L91.8478 173.32L89.4258 180.041V186.763H145.411L145.451 182.03L142.592 172.246L136.557 161.229L132.824 157.729L128.179 162.939L121.429 166.717L116.982 168.11L112.257 166.28L106.658 162.939L102.013 157.729Z" fill="#139BD1"/>
<path d="M125.122 164.53C125.122 164.53 130.204 170.655 129.926 186.763H145.451V180.041L142.394 170.098L132.865 157.729C132.825 157.729 128.815 164.53 125.122 164.53Z" fill="#0D8CB2"/>
<path d="M89.4261 187.797C88.8702 187.797 88.4334 187.36 88.3937 186.803C87.957 169.502 100.782 157.49 101.338 157.013L102.211 156.178L102.886 157.212C108.644 166.081 117.458 166.638 117.578 166.638L118.53 166.678V186.803C118.53 187.36 118.054 187.837 117.498 187.837C116.942 187.837 116.466 187.36 116.466 186.803V168.587C113.925 168.189 107.016 166.559 101.854 159.4C99.0349 162.383 90.0614 172.962 90.4187 186.803C90.4584 187.32 90.0217 187.758 89.4261 187.797Z" fill="#12426D"/>
<path d="M145.412 187.797C144.816 187.797 144.379 187.32 144.379 186.763C144.737 172.922 135.763 162.342 132.944 159.36C127.782 166.519 120.873 168.189 118.332 168.547V186.763C118.332 187.32 117.856 187.797 117.3 187.797C116.744 187.797 116.268 187.32 116.268 186.763V166.638L117.221 166.598C117.3 166.598 126.194 166.002 131.912 157.172L132.587 156.138L133.46 156.973C134.016 157.49 146.801 169.462 146.404 186.763C146.444 187.36 145.968 187.797 145.412 187.797Z" fill="#12426D"/>
<path d="M112.614 175.229C113.666 175.229 114.52 174.374 114.52 173.32C114.52 172.265 113.666 171.411 112.614 171.411C111.561 171.411 110.708 172.265 110.708 173.32C110.708 174.374 111.561 175.229 112.614 175.229Z" fill="#12426D"/>
<path d="M112.614 183.064C113.666 183.064 114.52 182.209 114.52 181.155C114.52 180.101 113.666 179.246 112.614 179.246C111.561 179.246 110.708 180.101 110.708 181.155C110.708 182.209 111.561 183.064 112.614 183.064Z" fill="#12426D"/>
<path d="M140.527 187.399C140.13 187.399 139.852 187.081 139.892 186.723C139.892 186.644 140.249 178.729 137.946 173.558C137.787 173.24 137.946 172.842 138.264 172.723C138.581 172.564 138.978 172.723 139.098 173.041C141.52 178.49 141.162 186.445 141.162 186.803C141.162 187.121 140.884 187.399 140.527 187.399Z" fill="#12426D"/>
<path d="M70.4065 258.592H164.47L179.32 199.45L180.233 194.956L179.28 191.695L176.302 188.871L173.602 187.837L168.679 186.763H66.7933L61.5918 187.757L58.1771 189.11L55.5962 191.695L54.9609 194.956L56.0727 201.519L70.4065 258.592Z" fill="#A6D6A7"/>
<path d="M85.9316 186.763C85.9316 186.763 151.446 195.911 129.013 250.797L166.177 251.752L178.963 200.882L180.233 194.956L177.255 189.825L172.649 187.519L168.679 186.803H85.9316V186.763Z" fill="#8ACB8F"/>
<path d="M59.9238 215.877C59.9238 215.877 98.1606 220.093 100.861 251.752H68.6988L59.9238 215.877Z" fill="#BCDFB9"/>
<path d="M166.177 251.752H68.6992L70.4066 258.592H164.47L166.177 251.752Z" fill="#83C487"/>
<path d="M129.052 250.797C129.052 250.797 135.643 252.269 137.866 258.592H164.469L166.177 251.752L129.052 250.797Z" fill="#68A867"/>
<path d="M129.409 222.837L129.925 219.257L125.438 213.649L119.165 211.502L114.559 212.615L110.787 214.803L108.563 220.769L108.762 225.74L111.462 230.672L115.83 233.814L119.284 234.013C119.205 234.013 115.313 221.405 129.409 222.837Z" fill="#E2E2E2"/>
<path d="M109.715 219.257C109.715 219.257 116.703 216.354 121.388 224.229C121.388 224.229 125.478 221.882 129.369 222.837C129.369 222.837 130.005 209.155 114.48 212.655L110.707 214.843L109.715 219.257Z" fill="#F9F9FA"/>
<path d="M165.264 259.627H69.6121L54.3253 198.774C54.0871 198.178 52.7371 194.161 55.04 190.74C57.1047 187.638 61.4327 186.087 67.9047 186.087H167.011C173.483 186.087 177.811 187.638 179.875 190.74C182.178 194.161 180.828 198.138 180.59 198.774L165.264 259.627ZM71.2003 257.558H163.675L178.605 198.098L178.644 198.019C178.644 197.979 179.994 194.558 178.168 191.814C176.5 189.348 172.649 188.075 167.011 188.075H67.9047C62.2268 188.075 58.3753 189.388 56.7474 191.814C54.9209 194.558 56.2709 197.979 56.2709 198.019L56.3106 198.138L71.2003 257.558Z" fill="#12426D"/>
<path d="M165.303 192.331H107.769C107.412 192.331 107.134 192.053 107.134 191.695C107.134 191.337 107.412 191.058 107.769 191.058H165.303C165.66 191.058 165.938 191.337 165.938 191.695C165.938 192.053 165.66 192.331 165.303 192.331Z" fill="#12426D"/>
<path d="M166.177 252.786H68.6993C68.1435 252.786 67.667 252.308 67.667 251.752C67.667 251.195 68.1435 250.718 68.6993 250.718H166.217C166.773 250.718 167.249 251.195 167.249 251.752C167.249 252.308 166.773 252.786 166.177 252.786Z" fill="#12426D"/>
<path d="M61.5915 205.695C61.3135 205.695 61.0356 205.496 60.9562 205.217L59.2488 198.178C59.1694 197.82 59.3679 197.502 59.7253 197.422C60.0826 197.342 60.4003 197.541 60.4797 197.899L62.1871 204.939C62.2665 205.297 62.0679 205.615 61.7106 205.695C61.7106 205.695 61.6709 205.695 61.5915 205.695Z" fill="#12426D"/>
<path d="M70.4065 241.967C70.1286 241.967 69.8506 241.769 69.7712 241.49L62.5447 211.7C62.4653 211.342 62.6638 211.024 63.0212 210.945C63.3785 210.865 63.6962 211.064 63.7756 211.422L71.0021 241.212C71.0815 241.57 70.883 241.888 70.5256 241.967C70.5256 241.967 70.4462 241.967 70.4065 241.967Z" fill="#12426D"/>
<path d="M120.435 235.127H119.125C112.613 235.127 107.332 229.598 107.332 222.797C107.332 215.996 112.613 210.467 119.125 210.467C125.636 210.467 130.917 215.996 130.917 222.797V223.99L129.726 223.791C125.835 223.195 123.056 223.752 121.467 225.502C118.807 228.405 120.078 233.774 120.078 233.814L120.435 235.127ZM119.125 212.575C113.725 212.575 109.357 217.189 109.357 222.837C109.357 228.047 113.089 232.382 117.894 233.019C117.616 230.911 117.497 226.894 119.998 224.149C121.904 222.081 124.882 221.246 128.853 221.644C128.257 216.553 124.128 212.575 119.125 212.575Z" fill="#12426D"/>
<path d="M126.153 232.263C127.952 232.263 129.409 230.803 129.409 229.002C129.409 227.2 127.952 225.74 126.153 225.74C124.355 225.74 122.897 227.2 122.897 229.002C122.897 230.803 124.355 232.263 126.153 232.263Z" fill="#12426D"/>
<path d="M171.497 192.331H168.678C168.321 192.331 168.043 192.053 168.043 191.695C168.043 191.337 168.321 191.058 168.678 191.058H171.497C171.855 191.058 172.133 191.337 172.133 191.695C172.133 192.053 171.815 192.331 171.497 192.331Z" fill="#12426D"/>
<path d="M215.293 259.627H174.753C174.197 259.627 173.721 259.149 173.721 258.592C173.721 258.036 174.197 257.558 174.753 257.558H215.293C215.849 257.558 216.325 258.036 216.325 258.592C216.325 259.149 215.849 259.627 215.293 259.627Z" fill="#12426D"/>
<path d="M170.068 259.627H63.1798C62.6239 259.627 62.1475 259.149 62.1475 258.592C62.1475 258.036 62.6239 257.558 63.1798 257.558H170.068C170.624 257.558 171.1 258.036 171.1 258.592C171.1 259.149 170.624 259.627 170.068 259.627Z" fill="#12426D"/>
<path d="M58.2165 259.627H32.2091C31.6532 259.627 31.1768 259.149 31.1768 258.592C31.1768 258.036 31.6532 257.558 32.2091 257.558H58.2562C58.8121 257.558 59.2885 258.036 59.2885 258.592C59.2885 259.149 58.7724 259.627 58.2165 259.627Z" fill="#12426D"/>
<path d="M28.0005 259.627H21.2902C20.7343 259.627 20.2578 259.149 20.2578 258.592C20.2578 258.036 20.7343 257.558 21.2902 257.558H28.0005C28.5563 257.558 29.0328 258.036 29.0328 258.592C29.0328 259.149 28.5563 259.627 28.0005 259.627Z" fill="#12426D"/>
<path d="M224.544 259.627H218.866C218.31 259.627 217.834 259.149 217.834 258.592C217.834 258.036 218.31 257.558 218.866 257.558H224.544C225.1 257.558 225.577 258.036 225.577 258.592C225.577 259.149 225.1 259.627 224.544 259.627Z" fill="#12426D"/>
</svg>
