<svg width="21" height="17" viewBox="0 0 21 17" fill="none" xmlns="http://www.w3.org/2000/svg">
<path d="M0.37146 2.92261C0.37146 2.39217 0.582174 1.88347 0.957246 1.50839C1.33232 1.13332 1.84103 0.922607 2.37146 0.922607H11.3715C11.9019 0.922607 12.4106 1.13332 12.7857 1.50839C13.1607 1.88347 13.3715 2.39217 13.3715 2.92261V4.92261C13.3715 5.18782 13.2661 5.44218 13.0786 5.62971C12.891 5.81725 12.6367 5.92261 12.3715 5.92261C12.1062 5.92261 11.8519 5.81725 11.6644 5.62971C11.4768 5.44218 11.3715 5.18782 11.3715 4.92261V2.92261H2.37146V14.9226H11.3715V12.9226C11.3715 12.6574 11.4768 12.403 11.6644 12.2155C11.8519 12.028 12.1062 11.9226 12.3715 11.9226C12.6367 11.9226 12.891 12.028 13.0786 12.2155C13.2661 12.403 13.3715 12.6574 13.3715 12.9226V14.9226C13.3715 15.453 13.1607 15.9617 12.7857 16.3368C12.4106 16.7119 11.9019 16.9226 11.3715 16.9226H2.37146C1.84103 16.9226 1.33232 16.7119 0.957246 16.3368C0.582174 15.9617 0.37146 15.453 0.37146 14.9226V2.92261ZM15.6645 5.21561C15.852 5.02814 16.1063 4.92282 16.3715 4.92282C16.6366 4.92282 16.8909 5.02814 17.0785 5.21561L20.0785 8.21561C20.2659 8.40314 20.3712 8.65744 20.3712 8.92261C20.3712 9.18777 20.2659 9.44208 20.0785 9.62961L17.0785 12.6296C16.8899 12.8118 16.6373 12.9126 16.3751 12.9103C16.1129 12.908 15.862 12.8028 15.6766 12.6174C15.4912 12.432 15.3861 12.1812 15.3838 11.919C15.3815 11.6568 15.4823 11.4042 15.6645 11.2156L16.9575 9.92261H7.37146C7.10624 9.92261 6.85189 9.81725 6.66435 9.62971C6.47682 9.44218 6.37146 9.18782 6.37146 8.92261C6.37146 8.65739 6.47682 8.40304 6.66435 8.2155C6.85189 8.02796 7.10624 7.92261 7.37146 7.92261H16.9575L15.6645 6.62961C15.477 6.44208 15.3717 6.18777 15.3717 5.92261C15.3717 5.65744 15.477 5.40314 15.6645 5.21561Z" fill="#FBECCC"/>
</svg>
