<svg xmlns="http://www.w3.org/2000/svg" viewBox="0 0 224.29 455.29"><defs><style>.cls-1{fill:#fff;}.cls-2{fill:#94c8ff;}.cls-3{fill:#f9d4bb;}.cls-4{fill:#e2b89c;}.cls-5{fill:#474b58;}.cls-6{fill:none;stroke:#5a6281;stroke-miterlimit:10;stroke-width:3px;}.cls-7{fill:#86b7e2;}.cls-8{opacity:0.15;}.cls-9{fill:#ffe66a;}.cls-10{fill:#5a6281;}.cls-11{fill:#fbcdac;}.cls-12{fill:#bfe2bf;}.cls-13{fill:#d3ffd3;}.cls-14{fill:#3e424e;}.cls-15{fill:#fffdfd;}.cls-16{fill:#aeccae;}.cls-17{fill:#80766e;}.cls-18{fill:#6d645e;}</style></defs><title>Asset 370</title><g id="Layer_2" data-name="Layer 2"><g id="Layer_1-2" data-name="Layer 1"><path class="cls-1" d="M22.84,398.31a78.71,78.71,0,0,0-8.36,8.74c-.63.76.46,1.85,1.09,1.09a78.71,78.71,0,0,1,8.36-8.74c.74-.66-.35-1.74-1.09-1.09Z"/><path class="cls-2" d="M77.47,353.82,32.34,378.21A57.92,57.92,0,0,0,2,429.16v24.78H222.6V429.16a57.92,57.92,0,0,0-30.38-51l-45.13-24.39"/><path class="cls-3" d="M131.32,303.55v25.23a18.45,18.45,0,0,0,3.64,11l10.2,13.72a6.92,6.92,0,0,1-1,9.35L111.36,382a.85.85,0,0,1-.55.21h0a.85.85,0,0,1-.55-.21L77.48,362.86a6.92,6.92,0,0,1-1-9.35l10.2-13.72a18.45,18.45,0,0,0,3.64-11V303.55"/><path class="cls-4" d="M132.62,331.16V320.89h-41v8.74C101.91,337.08,114.53,338.77,132.62,331.16Z"/><path class="cls-5" d="M130.83,303.55v19.54a65.94,65.94,0,0,0,.15,8,20.12,20.12,0,0,0,3.72,9.49l1.88,2.53,7.08,9.53a14.49,14.49,0,0,1,2,3,5.51,5.51,0,0,1,.07,3.8,5.17,5.17,0,0,1-.86,1.56c-.14.17-.3.32-.45.49s-.14.15,0,.06l0,0c-1.62,1.08-3.42,2-5.11,2.92l-10.37,5.93-16.94,9.68c-.13.08-.54.23-.11.08h.82l-.39-.06,1.13,1.48v-.21a1.56,1.56,0,0,0-1.95-1.48l-.39.06h.82c.45.16,0,0-.14-.09l-.9-.51-3.2-1.81L97.5,371.81l-17.68-10c-.16-.09-.33-.17-.48-.27h0c.34.24,0-.07-.1-.14a5.37,5.37,0,0,1-.37-.41,5.29,5.29,0,0,1-.92-1.76,5.78,5.78,0,0,1,1.18-5.29l6.41-8.63c2.16-2.91,4.57-5.73,5.94-9.11s1.43-7,1.43-10.71V303.55a1.54,1.54,0,0,0-3.08,0v19.8c0,2.81.25,5.84-.29,8.6a18,18,0,0,1-3.29,7.27l-2.44,3.28-7,9.37a10,10,0,0,0-2.15,4.83c-.32,2.65.78,6,3.12,7.51,1.68,1.08,3.5,2,5.24,3l10.58,6c5.58,3.15,11.11,6.44,16.76,9.47a2.81,2.81,0,0,0,1.9.24l-1.95-1.48v.21a1.55,1.55,0,0,0,1.13,1.48,2.82,2.82,0,0,0,1.92-.25l.79-.45,3.07-1.76,10.08-5.76,18.09-10.34c4-2.31,4.73-8.18,2.11-11.8-1.89-2.61-3.84-5.17-5.77-7.76l-3.38-4.54a30.79,30.79,0,0,1-2.42-3.56,17.07,17.07,0,0,1-2-8.16c0-1,0-1.93,0-2.89V303.55a1.54,1.54,0,0,0-3.08,0Z"/><path class="cls-6" d="M56.33,426.7"/><polygon class="cls-7" points="54.2 425.62 45.39 452.78 44.34 445.42 44.97 435.53 54.2 425.62"/><path class="cls-5" d="M45.5,453.94l0-9.84,0-15.59v-3.6a1.15,1.15,0,0,0-2.31,0l0,9.84,0,15.59v3.6a1.15,1.15,0,0,0,2.31,0Z"/><path class="cls-5" d="M45.76,437.94,54.4,427.6l1.24-1.49c.95-1.13-.68-2.77-1.63-1.63l-8.64,10.34-1.24,1.49c-.95,1.13.68,2.77,1.63,1.63Z"/><polygon class="cls-7" points="177.51 425.41 186.32 452.57 187.37 445.21 186.74 435.32 177.51 425.41"/><path class="cls-5" d="M188.52,453.73l0-9.84,0-15.59v-3.6a1.15,1.15,0,0,0-2.31,0l0,9.84,0,15.59v3.6a1.15,1.15,0,0,0,2.31,0Z"/><path class="cls-5" d="M187.59,436.1l-8.64-10.34-1.24-1.49c-1-1.14-2.58.5-1.63,1.63l8.64,10.34,1.24,1.49c1,1.14,2.58-.5,1.63-1.63Z"/><path class="cls-1" d="M61.88,367.84l-9.77,5.41c-4.13,2.28-8.29,4.53-12.35,6.93a111.25,111.25,0,0,0-13.47,9.22c-.77.62.32,1.71,1.09,1.09A133.16,133.16,0,0,1,47,377.84l11.78-6.52,3.89-2.15c.87-.48.09-1.81-.78-1.33Z"/><path class="cls-1" d="M69.62,363.57l-4.68,2.59c-.87.48-.09,1.81.78,1.33l4.68-2.59c.87-.48.09-1.81-.78-1.33Z"/><path class="cls-5" d="M76.27,352.28l-16,8.62L35.86,374.12l-4.72,2.55A59.46,59.46,0,0,0,13.67,391,60.22,60.22,0,0,0,0,429.31Q0,441.17,0,453v.7a1.56,1.56,0,0,0,1.54,1.54H213.22c2.86,0,5.72.05,8.58,0h.38a1.56,1.56,0,0,0,1.54-1.54V430.89a68.15,68.15,0,0,0-1.48-15.13,59.22,59.22,0,0,0-8.88-20.34,60,60,0,0,0-16-15.87c-2.44-1.64-5-3-7.58-4.4l-23.14-12.5c-6.29-3.4-12.53-6.89-18.87-10.2l-.31-.17c-1.74-.94-3.3,1.71-1.55,2.66l15.59,8.42,24.44,13.21,5.08,2.74a56.35,56.35,0,0,1,29.64,50.12v24.3l1.54-1.54H10.5c-2.85,0-5.74-.15-8.58,0H1.54l1.54,1.54V431.14a65.55,65.55,0,0,1,1.34-14.41,56.92,56.92,0,0,1,8.79-20A56.12,56.12,0,0,1,29,381.49c2.2-1.4,4.51-2.61,6.8-3.85L59,365.09c6.16-3.33,12.42-6.51,18.49-10l.31-.17c1.74-.94.19-3.6-1.55-2.66Z"/><rect class="cls-1" x="115.33" y="407.92" width="54.5" height="33.62" rx="1.41" ry="1.41"/><g class="cls-8"><path class="cls-2" d="M170,439.3H119.22a1.85,1.85,0,0,1-1.85-1.85V407.53a1.83,1.83,0,0,1,0-.41,1.85,1.85,0,0,0-1.43,1.8v29.92a1.85,1.85,0,0,0,1.85,1.85h50.81a1.85,1.85,0,0,0,1.8-1.43A1.83,1.83,0,0,1,170,439.3Z"/></g><polygon class="cls-9" points="115.43 413.56 115.45 407.84 126.84 406.92 168.66 408.02 170.22 418.61 114.69 419.22 115.43 413.56"/><path class="cls-10" d="M114.42,419.46l.78-5.92,0-5.91,11.61-.94h0l42,1.11,1.63,11h-.26Zm1.26-11.4,0,5.53-.71,5.4,55-.61-1.5-10.14-41.61-1.1Z"/><path class="cls-5" d="M167.88,440.38H117.42c-.52,0-1-.09-1-.74s0-1.3,0-1.94V416.41c0-2.16-.14-4.38,0-6.54,0-.59.41-.79.93-.8H166.8a9.28,9.28,0,0,1,1.07,0c.81.1.7.81.7,1.41v28.38c0,.58.14,1.47-.69,1.52-1.48.08-1.49,2.39,0,2.31a3.14,3.14,0,0,0,3-3.4V410.59a3.76,3.76,0,0,0-.95-3c-1.2-1.15-3.35-.81-4.88-.81H132.5c-5.07,0-10.14-.05-15.2,0a3.1,3.1,0,0,0-3.23,3c0,.52,0,1,0,1.57V433c0,2.21-.07,4.43,0,6.64a3.08,3.08,0,0,0,3.07,3.07c.48,0,1,0,1.46,0h49.28A1.15,1.15,0,0,0,167.88,440.38Z"/><path class="cls-5" d="M115.22,419.8H163c2.21,0,4.44.1,6.65,0h.1a1.15,1.15,0,0,0,0-2.31H122c-2.21,0-4.44-.1-6.65,0h-.1a1.15,1.15,0,0,0,0,2.31Z"/><ellipse class="cls-11" cx="34.18" cy="217.78" rx="13.25" ry="19.14"/><path class="cls-4" d="M24,224.7c0-10.57,5.93-19.14,13.25-19.14,3.91,0,7.42,2.44,9.84,6.32-1.72-7.69-6.72-13.25-12.61-13.25-7.32,0-13.25,8.57-13.25,19.14a24.39,24.39,0,0,0,3.41,12.82A27,27,0,0,1,24,224.7Z"/><path class="cls-5" d="M19.77,217.78c0,7,2.66,15.56,9.35,19a10.77,10.77,0,0,0,9,.52,15.17,15.17,0,0,0,7.22-6.62c4-6.9,4.31-16.06,1.22-23.36-2.51-5.93-8.3-11.4-15.21-9.46-7.11,2-10.59,10-11.37,16.7a28.73,28.73,0,0,0-.18,3.2,1.15,1.15,0,0,0,2.31,0c0-6.19,2.2-13.8,8.06-16.95a8.48,8.48,0,0,1,7.3-.38,13.14,13.14,0,0,1,6.09,5.94,24.72,24.72,0,0,1,1,20.75c-2.05,5-6.84,10-12.74,8.27-3-.91-5.32-3.39-6.84-6.06a23.58,23.58,0,0,1-2.86-11.57A1.15,1.15,0,0,0,19.77,217.78Z"/><path class="cls-5" d="M25,213.39l4.1,9.53c.39.91,1.72.12,1.33-.78l-4.1-9.53c-.39-.91-1.72-.12-1.33.78Z"/><path class="cls-5" d="M29.14,212.61,25,222.15c-.39.9.94,1.68,1.33.78l4.1-9.53c.39-.9-.94-1.68-1.33-.78Z"/><ellipse class="cls-11" cx="193.24" cy="215.25" rx="13.25" ry="19.14"/><path class="cls-4" d="M203.54,222.33c0-10.57-5.93-19.14-13.25-19.14-3.91,0-7.42,2.44-9.84,6.32,1.72-7.69,6.72-13.25,12.61-13.25,7.32,0,13.25,8.57,13.25,19.14a24.39,24.39,0,0,1-3.41,12.82A27,27,0,0,0,203.54,222.33Z"/><path class="cls-5" d="M178.83,215.25c0,7,2.66,15.56,9.35,19a10.77,10.77,0,0,0,9,.52,15.17,15.17,0,0,0,7.22-6.62c4-6.9,4.31-16.06,1.22-23.36-2.51-5.93-8.3-11.4-15.21-9.46-7.11,2-10.59,10-11.37,16.7a28.73,28.73,0,0,0-.18,3.2,1.15,1.15,0,0,0,2.31,0c0-6.19,2.2-13.8,8.06-16.95a8.48,8.48,0,0,1,7.3-.38,13.14,13.14,0,0,1,6.09,5.94,24.72,24.72,0,0,1,1,20.75c-2.05,5-6.84,10-12.74,8.27-3-.91-5.32-3.39-6.84-6.06a23.58,23.58,0,0,1-2.86-11.57A1.15,1.15,0,0,0,178.83,215.25Z"/><rect class="cls-3" x="36.38" y="112.86" width="151.53" height="210.91" rx="75.76" ry="75.76"/><path class="cls-4" d="M114.38,307.16h0a76,76,0,0,1-75.76-75.76V248a76,76,0,0,0,75.76,75.76h0A76,76,0,0,0,190.14,248V231.39A76,76,0,0,1,114.38,307.16Z"/><path class="cls-5" d="M112.3,321.85a73.36,73.36,0,0,1-33.15-7.91,74.25,74.25,0,0,1-39.41-52.21,97.52,97.52,0,0,1-1.28-18.54V197.71c0-4.79-.15-9.62.19-14.4A73.35,73.35,0,0,1,48.86,151,74.68,74.68,0,0,1,71.8,127a73.49,73.49,0,0,1,31.84-11.69,74.17,74.17,0,0,1,79.13,51.32,78.94,78.94,0,0,1,3.37,23.86V233.9q0,7,0,14a73.52,73.52,0,0,1-6.57,30.51,75.36,75.36,0,0,1-20.35,26.54,73.4,73.4,0,0,1-46.92,16.93c-2.47,0-2.48,3.85,0,3.85a78,78,0,0,0,76.16-62.38A100.78,100.78,0,0,0,190,243.37V197.24c0-5.12.16-10.29-.3-15.39a77.66,77.66,0,0,0-11.21-33.79,79.05,79.05,0,0,0-24.32-24.79,77.66,77.66,0,0,0-33.35-11.85,76.87,76.87,0,0,0-35.44,4.37,78.29,78.29,0,0,0-47,49.12,81.77,81.77,0,0,0-3.73,25.36v44.09q0,6.8,0,13.6a77.71,77.71,0,0,0,77.69,77.73A1.92,1.92,0,0,0,112.3,321.85Z"/><path class="cls-5" d="M195.18,213.4l4.1,9.53c.39.91,1.72.12,1.33-.78l-4.1-9.53c-.39-.91-1.72-.12-1.33.78Z"/><path class="cls-5" d="M199.28,212.63l-4.1,9.53c-.39.9.94,1.68,1.33.78l4.1-9.53c.39-.9-.94-1.68-1.33-.78Z"/><path class="cls-1" d="M55.35,101.4c5-2.5,9.9-5.12,15-7.37a1.16,1.16,0,0,0,.41-1.58A1.18,1.18,0,0,0,69.17,92c-5.09,2.25-10,4.87-15,7.37-1.33.67-.16,2.66,1.16,2Z"/><path class="cls-5" d="M119.43,262.5a13.11,13.11,0,0,1-5,4.72l-.08,0-.3.1c-.19.06-.38.12-.58.16s-.6.09-.3.06l-.55,0-.53,0c-.3,0,0,0,0,0l-.26,0a7.58,7.58,0,0,1-1-.29c-.27-.1,0,0,0,0l-.23-.11-.44-.24a9.31,9.31,0,0,1-.83-.55c-.23-.17,0,0,0,0l-.19-.16-.36-.32a11,11,0,0,1-1.17-1.24,12.92,12.92,0,0,1-2.55-7.08c-.4-5.34,1.44-10.56,3.31-15.48,2-5.28,4.13-10.45,5.08-16.06a87.32,87.32,0,0,0,.47-21.2,1.58,1.58,0,0,0-1.54-1.54,1.55,1.55,0,0,0-1.54,1.54c.49,6.53.76,13.17-.25,19.66a51.57,51.57,0,0,1-2.26,9c-1,2.73-2.05,5.41-3.08,8.11-2,5.3-3.89,11-3.2,16.78C102.68,263,105,268,109.45,270a7.55,7.55,0,0,0,5.94.15c2.88-1.16,5-3.59,6.71-6.08a1.55,1.55,0,0,0-.55-2.1,1.57,1.57,0,0,0-2.1.55Z"/><path class="cls-12" d="M158.35,138.13c-5.74-4-11.9-7-18.17-7.73,0,0-12.19,7.23-26,7.38h-.08c-13.82-.15-26-7.38-26-7.38-7.29.88-14.45,4.73-20.95,9.78a73.31,73.31,0,0,0-28.4,57.9v.16h0A76.27,76.27,0,0,1,35.63,148s-7.23-24.81-23-27.89c0,0,8.83-16.61,36.58-4.92,0,0-14.5-18.77-44.78-4.15,0,0,13.24-29.07,54.24-22.46L4.43,62.87S45.9,49.17,85.79,65.94L36.44,36.87s31.22-24,62.85.07c0,0,1.64-36.22,40.11-35,0,0-12.58,15.71-10.77,36.17,29.4-20.37,66-12.16,66-12.16L142.94,66.57c49.19-24.61,81.35-3.08,81.35-3.08L170.06,89.18c41-6.61,54.24,22.46,54.24,22.46C194,97,179.52,115.79,179.52,115.79c27.75-11.69,36.58,4.92,36.58,4.92-15.77,3.08-23,27.89-23,27.89,4.69,16.63,2.6,34.3-4.1,50.26h1v-.16l-.47-1v.53l-31.18-60.11c1.44,1,2.85,2.09,4.23,3.21"/><path class="cls-13" d="M114.27,8.69C100,18.85,99.21,37.09,99.21,37.09,67.58,13,36.36,37,36.36,37L85.71,66.1C45.82,49.33,4.36,63,4.36,63L58.59,88.71c-41-6.61-54.24,22.46-54.24,22.46,30.27-14.61,44.78,4.15,44.78,4.15-27.75-11.69-36.58,4.92-36.58,4.92,15.77,3.08,23,27.89,23,27.89a76.27,76.27,0,0,0,3.1,50.26h0v-.16A73.31,73.31,0,0,1,67,140.34c6.5-5.05,13.65-8.9,20.95-9.78,0,0,11.65,6.91,25.08,7.36C113.52,113.81,114,44.19,114.27,8.69Z"/><path class="cls-14" d="M157.27,136.47c-5.46-3.8-12-7.37-18.77-7.95-1.12-.1-2,.62-3,1.11q-2.41,1.23-4.93,2.24a53,53,0,0,1-17.11,4,47.1,47.1,0,0,1-17.58-3.08,70.8,70.8,0,0,1-8.78-3.94,4.63,4.63,0,0,0-3,0,31.67,31.67,0,0,0-4.62,1.18,46,46,0,0,0-9.1,4.27,74.19,74.19,0,0,0-25.53,26.33,75.53,75.53,0,0,0-10,33.79c-.07,1.31-.1,2.61-.1,3.92l2.89-1.66h0l.88,1.15a75.56,75.56,0,0,1-5.78-25,76.39,76.39,0,0,1,.42-13.05c.24-2.07.6-4.13,1-6.17q.33-1.57.72-3.12a6.82,6.82,0,0,0,.52-3,39.53,39.53,0,0,0-2.54-6.75,56.81,56.81,0,0,0-7.3-12.55c-3.66-4.68-8.54-8.73-14.49-9.93l1.15,2.82c.08-.14.16-.28.25-.41l.32-.47.2-.27c.28-.4-.29.33,0,0,.46-.52.89-1,1.39-1.53q.45-.44.93-.85l.5-.42c.09-.07.35-.27,0,0l.34-.25a21.92,21.92,0,0,1,2.75-1.68l.84-.4.4-.18c-.33.14,0,0,.12,0,.61-.24,1.23-.46,1.86-.64a25.48,25.48,0,0,1,9.39-.89,48.72,48.72,0,0,1,15.13,4,1.93,1.93,0,0,0,2.17-.88,2,2,0,0,0-.3-2.33,24.82,24.82,0,0,0-7.26-5.87A35.28,35.28,0,0,0,20,103.75a57.18,57.18,0,0,0-18.54,5.6L4,112a22.69,22.69,0,0,1,1.57-2.77q.45-.7.93-1.38l.53-.74.29-.38.12-.15A46.15,46.15,0,0,1,10.56,103a40.66,40.66,0,0,1,9.18-7.18,45.75,45.75,0,0,1,14.07-5.29,62.6,62.6,0,0,1,22.3-.15,2,2,0,0,0,2.27-1.11,1.91,1.91,0,0,0-.79-2.4L39.26,78.21,10,64.38,3.36,61.21,2.9,64.72a101.5,101.5,0,0,1,16.16-3.6,129.77,129.77,0,0,1,38.2-.42,106.86,106.86,0,0,1,26,7.1c2,.86,3.31-2.44,1.48-3.51L68,54.41,41.47,38.81l-6.11-3.6v3.32A50.46,50.46,0,0,1,47.19,32.1c9.17-3.64,19.27-5.06,29-3A51,51,0,0,1,96.27,38.6c1.24.94,2.83-.36,2.89-1.66,0-.32,0-.64.08-1q0-.23.05-.46c0-.28.12-.83,0-.18.07-.5.15-1,.23-1.49a45,45,0,0,1,2.31-8.38,23.93,23.93,0,0,1,.93-2.2q.59-1.27,1.27-2.5t1.57-2.58q.42-.63.86-1.24l.43-.58,0,0,.34-.43a30.3,30.3,0,0,1,10.48-8.38c5.93-2.92,12.88-3.83,19.56-3.64L136,.59a46.12,46.12,0,0,0-4.44,6.92,58.88,58.88,0,0,0-6.22,17.43,50.53,50.53,0,0,0-.67,13.18c.11,1.33,1.59,2.56,2.89,1.66A77.77,77.77,0,0,1,162,27a103,103,0,0,1,25.71,0l.2,0,.54.08.91.14,1.5.25c.43.08.85.16,1.27.25l-.85-3.21L173.8,38.29,145.9,60.2l-6.37,5a1.9,1.9,0,0,0-.15,2.52,2,2,0,0,0,2.48.5c14.87-7.41,31.3-12,48-11.49a74.39,74.39,0,0,1,16.52,2.37q3.12.81,6.15,1.91c.85.31,1.68.64,2.52,1l.23.1.54.23,1,.45a32.77,32.77,0,0,1,4.43,2.37V61.83l-18.33,8.68L173.73,84.35,167,87.52a1.91,1.91,0,0,0-.79,2.4A2,2,0,0,0,168.52,91c11.79-1.88,24.36-1,34.91,4.63a41.21,41.21,0,0,1,9.73,7.09,44.11,44.11,0,0,1,3.33,3.61l.62.77.08.11.33.43q.55.75,1.07,1.52a24.59,24.59,0,0,1,2,3.41l2.63-2.63c-9.18-4.4-19.43-7.09-29.61-5.19a32.16,32.16,0,0,0-15.26,7.36,17,17,0,0,0-2.24,2.28,2,2,0,0,0-.3,2.33,1.92,1.92,0,0,0,2.17.88c7.27-3,15.73-5.3,23.37-3.44a18.17,18.17,0,0,1,6.41,2.77l.66.45.28.21c.37.27-.24-.19,0,0s.72.59,1.07.91a18,18,0,0,1,1.55,1.61l.31.37c.29.33-.27-.38,0,0,.14.2.29.39.42.6s.23.35.33.53l1.15-2.82C203.19,121,196.46,131,192.35,140a49.75,49.75,0,0,0-3.11,8,6.4,6.4,0,0,0,.47,3.12q.79,3.1,1.31,6.25A73.39,73.39,0,0,1,192,170a75.61,75.61,0,0,1-5.89,28.32l3.78.51a5.06,5.06,0,0,0-.74-2.12c-.85-1.78-3.58-.84-3.58,1v.53l3.58-1-10.56-20.36-16.8-32.39L158,137.16l-2.63,2.63q2,1.39,3.84,2.91a2,2,0,0,0,2.72,0,1.94,1.94,0,0,0,0-2.72c-1.5-1.22-3-2.4-4.62-3.51s-3.45,1.06-2.63,2.63l10.56,20.36L182,191.85l3.82,7.36c.9,1.73,3.58.88,3.58-1v-.53l-3.58,1,.47,1-.26-1v.16a1.92,1.92,0,0,0,1.67,1.89,2,2,0,0,0,2.11-1.38,78.16,78.16,0,0,0,5.4-39.82,81,81,0,0,0-2.31-11.46v1c.24-.81.52-1.61.8-2.4a55.86,55.86,0,0,1,2.34-5.63c2.48-5.22,5.58-10.28,9.94-14.12a18.51,18.51,0,0,1,8.56-4.4,1.94,1.94,0,0,0,1.15-2.82,17.77,17.77,0,0,0-5.3-5.59c-4.9-3.58-11.2-4.78-17.17-4.38A51.47,51.47,0,0,0,177,113.94l1.87,3.21a15.26,15.26,0,0,1,1.64-1.73q.42-.39.86-.77l.45-.38.29-.23c.42-.34-.15.11.12-.1A31.12,31.12,0,0,1,185,112a27,27,0,0,1,7.85-3.17,33.88,33.88,0,0,1,11.51-.69,51.5,51.5,0,0,1,16.89,5.11,1.94,1.94,0,0,0,2.63-2.63,36.44,36.44,0,0,0-7.34-10A48.44,48.44,0,0,0,191.45,87.4a68.23,68.23,0,0,0-24-.08L169,90.84l18.33-8.68,29.21-13.84,6.69-3.17c1.39-.66,1.1-2.59,0-3.32-4.28-2.86-9.49-4.66-14.39-6.05a85.24,85.24,0,0,0-38.68-1.32,115.31,115.31,0,0,0-30.22,10.44l2.33,3,17.44-13.7,27.9-21.91,6.37-5c1.14-.89.46-2.92-.85-3.21a81.36,81.36,0,0,0-14.73-1.64,96.56,96.56,0,0,0-32.47,4.15,76.41,76.41,0,0,0-20.31,9.84l2.89,1.66c-1-11.61,2.54-23.32,8.93-33,.36-.54.72-1.08,1.11-1.6.11-.15.23-.29.33-.44s-.37.47-.17.22A2,2,0,0,0,137.34,0c-11.65-.34-23.51,2.88-31.55,11.73A42.11,42.11,0,0,0,96,31.94a34.41,34.41,0,0,0-.68,5l2.89-1.66C87.92,27.51,75.34,23.35,62.42,24.5a60.65,60.65,0,0,0-24.63,7.9,39,39,0,0,0-4.36,2.81,2,2,0,0,0,0,3.32L50.17,48.4,76.66,64l6.11,3.6,1.48-3.51A115.28,115.28,0,0,0,39,55.68,139.78,139.78,0,0,0,7.54,59.47c-1.9.46-3.81.93-5.67,1.54-1.44.47-2.05,2.76-.46,3.51l18.33,8.68L49,87l6.69,3.17,1.48-3.51c-12.69-2-25.95-1.22-37.5,4.82a46.36,46.36,0,0,0-16.77,14.9A25.15,25.15,0,0,0,.72,110a1.94,1.94,0,0,0,2.63,2.63c8.33-4,18-6.54,27.09-4.71a31.69,31.69,0,0,1,4.7,1.33,25.94,25.94,0,0,1,3.58,1.64,29.52,29.52,0,0,1,3.1,1.95l.61.45c.37.28-.33-.26,0,0l.29.23q.53.43,1,.89a16.37,16.37,0,0,1,2,2.07l1.87-3.21c-11.61-4.86-27.8-7.36-37,3.46a13.67,13.67,0,0,0-1.71,2.35,1.94,1.94,0,0,0,1.15,2.82c5.82,1.18,10.35,5.44,13.7,10.19a55,55,0,0,1,4.35,7.41q.84,1.7,1.58,3.45l0,.11.13.32.28.68q.27.69.53,1.38c.37,1,.73,2,1,3v-1a78.83,78.83,0,0,0-.27,41.44q.77,2.89,1.77,5.72.47,1.32,1,2.63c.33.82.62,2.21,1.49,2.64a2,2,0,0,0,2.89-1.66A72,72,0,0,1,67,141.11c5.56-4.18,12-7.89,19-8.78l-1-.26a58.12,58.12,0,0,0,18.25,6.71,45,45,0,0,0,15.75.32,59.16,59.16,0,0,0,13.31-3.81,52.47,52.47,0,0,0,6.74-3.22l-1,.26c6.29.8,12.07,3.89,17.2,7.47a1.94,1.94,0,0,0,2.63-.69,2,2,0,0,0-.69-2.63Z"/><path class="cls-15" d="M63.7,34.68a44.38,44.38,0,0,1,27.18,8.11,1.16,1.16,0,0,0,1.58-.41A1.18,1.18,0,0,0,92,40.79,46.46,46.46,0,0,0,63.7,32.37a1.15,1.15,0,0,0,0,2.31Z"/><path class="cls-15" d="M45.1,38.29a47.28,47.28,0,0,1,9.2-2.6c1.46-.28.84-2.51-.61-2.23a47.28,47.28,0,0,0-9.2,2.6,1.19,1.19,0,0,0-.81,1.42,1.16,1.16,0,0,0,1.42.81Z"/><path class="cls-16" d="M168,64.95a83.82,83.82,0,0,1,31.6-1.58,88.23,88.23,0,0,1,10.66,2.23,1.15,1.15,0,0,0,.61-2.23,87.1,87.1,0,0,0-35.29-2.23q-4.14.59-8.2,1.58c-1.44.35-.83,2.58.61,2.23Z"/><path class="cls-16" d="M144,75a57.75,57.75,0,0,1,9.85-5.29,1.16,1.16,0,0,0,.41-1.58,1.18,1.18,0,0,0-1.58-.41A57.75,57.75,0,0,0,142.83,73c-1.21.85-.05,2.85,1.16,2Z"/><path class="cls-16" d="M138.58,39.82a83.35,83.35,0,0,1,30.29-9.19,88.36,88.36,0,0,1,10.82-.42,1.15,1.15,0,0,0,0-2.31A86.33,86.33,0,0,0,145,34.3q-3.86,1.59-7.55,3.53c-1.31.69-.15,2.68,1.16,2Z"/><path class="cls-16" d="M117.88,55.39a56.78,56.78,0,0,1,8.19-7.51,1.16,1.16,0,0,0,0-1.63,1.18,1.18,0,0,0-1.63,0,56.78,56.78,0,0,0-8.19,7.51c-1,1.12.67,2.76,1.63,1.63Z"/><path class="cls-16" d="M101.46,42.61a79.45,79.45,0,0,1,15.82-26.75A85.27,85.27,0,0,1,125,8.33c1.13-1-.51-2.6-1.63-1.63a82.65,82.65,0,0,0-21,27.64q-1.74,3.75-3.11,7.66c-.49,1.4,1.74,2,2.23.61Z"/><path class="cls-16" d="M97.1,67.74a53.18,53.18,0,0,1,.75-10.63A1.19,1.19,0,0,0,97,55.68a1.16,1.16,0,0,0-1.42.81,56.22,56.22,0,0,0-.83,11.25c.08,1.48,2.39,1.49,2.31,0Z"/><path class="cls-16" d="M161.6,97.72a83.83,83.83,0,0,1,31.64,0,88.08,88.08,0,0,1,10.53,2.76c1.41.46,2-1.76.61-2.23a86.47,86.47,0,0,0-35-4q-4.2.4-8.35,1.19c-1.46.28-.84,2.5.61,2.23Z"/><path class="cls-16" d="M137.09,106.56a56.37,56.37,0,0,1,9.84-4.68,1.19,1.19,0,0,0,.81-1.42,1.16,1.16,0,0,0-1.42-.81,59.49,59.49,0,0,0-10.39,4.91c-1.25.79-.1,2.79,1.16,2Z"/><path class="cls-16" d="M56.4,139.48a82.6,82.6,0,0,1,28-14.5A88,88,0,0,1,95,122.59c1.46-.24.84-2.46-.61-2.23A85.7,85.7,0,0,0,61.52,133c-2.33,1.51-4.58,3.15-6.75,4.87a1.16,1.16,0,0,0,0,1.63,1.18,1.18,0,0,0,1.63,0Z"/><path class="cls-16" d="M39,158.54a54.5,54.5,0,0,1,6.43-8.64c1-1.11-.65-2.75-1.63-1.63a57.56,57.56,0,0,0-6.79,9.1,1.15,1.15,0,0,0,2,1.16Z"/><path class="cls-5" d="M58.81,202.21c.12-.19.26-.37.39-.55a2.57,2.57,0,0,0,.21-.28c-.22.42-.21.27,0,0s.45-.55.68-.82q.88-1,1.84-2,.55-.53,1.13-1l.62-.52.3-.24c.25-.2-.28.21.07-.05a22.74,22.74,0,0,1,3-1.92l.82-.4.22-.1.37-.14a16.11,16.11,0,0,1,1.79-.57q.46-.12.94-.21l.44-.08c.33-.06-.3,0,.16,0a15.36,15.36,0,0,1,2.08-.07c.32,0,.64,0,1,.07s-.24,0,.22,0l.57.1a15.39,15.39,0,0,1,2.26.65l.6.23c-.27-.12.24.11.32.15q.67.32,1.32.69a21.68,21.68,0,0,1,2.49,1.66,35.19,35.19,0,0,1,5.61,5.75,1.93,1.93,0,0,0,2.72,0,2,2,0,0,0,0-2.72c-5-6.21-12-11.55-20.32-10.24-5,.79-9.48,4-12.81,7.69a25.49,25.49,0,0,0-2.34,2.94,1.92,1.92,0,1,0,3.32,1.94Z"/><path class="cls-5" d="M133.73,204.36c.12-.19.26-.37.39-.55a2.57,2.57,0,0,0,.21-.28c-.22.42-.21.27,0,0s.45-.55.68-.82q.88-1,1.84-2,.55-.53,1.13-1l.62-.52.3-.24c.25-.2-.28.21.07-.05a22.74,22.74,0,0,1,3-1.92l.82-.4.22-.1.37-.14a16.11,16.11,0,0,1,1.79-.57q.46-.12.94-.21l.44-.08c.33-.06-.3,0,.16,0a15.36,15.36,0,0,1,2.08-.07c.32,0,.64,0,1,.07s-.24,0,.22,0l.57.1a15.39,15.39,0,0,1,2.26.65l.6.23c-.27-.12.24.11.32.15q.67.32,1.32.69a21.68,21.68,0,0,1,2.49,1.66,35.19,35.19,0,0,1,5.61,5.75,1.93,1.93,0,0,0,2.72,0,2,2,0,0,0,0-2.72c-5-6.21-12-11.55-20.32-10.24-5,.79-9.48,4-12.81,7.69a25.49,25.49,0,0,0-2.34,2.94,1.92,1.92,0,0,0,3.32,1.94Z"/><path class="cls-5" d="M102.06,296.94c3.09,3.89,8.64,6.54,13.54,4.82a15.13,15.13,0,0,0,6.48-4.82,1.58,1.58,0,0,0,0-2.18,1.55,1.55,0,0,0-2.18,0,12.92,12.92,0,0,1-4.84,3.93,8.44,8.44,0,0,1-1.92.5,8.35,8.35,0,0,1-1.11,0l-.5,0-.25,0c.17,0,0,0-.08,0a9.15,9.15,0,0,1-3.49-1.36q-.39-.24-.76-.5l-.33-.24c-.29-.21.07.07-.2-.15s-.75-.63-1.1-1a12.05,12.05,0,0,1-1.09-1.16,1.55,1.55,0,0,0-2.18,0,1.58,1.58,0,0,0,0,2.18Z"/><path class="cls-17" d="M54.46,181.74S74,169.17,91.39,166.57c10.36-1.55,13.39,12.09,3.13,14.11C86.32,182.29,73.73,183,54.46,181.74Z"/><path class="cls-18" d="M94.52,176c-7.42,1.46-18.45,2.2-34.77,1.37-3.29,1.84-5.29,3.12-5.29,3.12,19.27,1.29,31.86.56,40.06-1.06,5.22-1,7-5.07,6.12-8.58C100,173.19,98.07,175.28,94.52,176Z"/><path class="cls-5" d="M56,182a108.5,108.5,0,0,1,11.3-6.53,103.19,103.19,0,0,1,11.1-4.94A58.9,58.9,0,0,1,91,167.17a9.51,9.51,0,0,1,2.08,0c.27,0-.2,0,.06,0l.23,0,.44.09a7.59,7.59,0,0,1,1,.33h0l.19.09.44.23a7.08,7.08,0,0,1,.81.53c-.22-.17.1.09.16.15l.3.28.32.34.22.26a6.32,6.32,0,0,1,1.29,2.93c0,.07.08.5.05.31s0,.19,0,.25a7.62,7.62,0,0,1,0,1c0,.13,0,.26,0,.38,0-.31,0,0,0,.16a6.88,6.88,0,0,1-.23.86c0,.12-.08.24-.13.36s.1-.22,0,0l-.08.17c-.15.27-.3.52-.46.78,0,0-.17.23,0,0l-.13.15-.27.3-.34.33c-.07.06-.44.35-.23.2A7.9,7.9,0,0,1,93.12,179q-1,.17-1.94.32c-.7.1-.93.13-1.77.23-1.54.18-3.08.32-4.62.42a179.65,179.65,0,0,1-25.53-.43l-4-.33a1.55,1.55,0,0,0-1.54,1.54,1.57,1.57,0,0,0,1.54,1.54,198.78,198.78,0,0,0,28.09.85,89.65,89.65,0,0,0,9.6-1c3-.49,6-1.46,7.65-4.24,3.16-5.17-.3-12.29-6-13.58a14,14,0,0,0-5.57.14,58.09,58.09,0,0,0-6.7,1.61,93.63,93.63,0,0,0-12.74,5,110.54,110.54,0,0,0-14.82,8.22l-.24.16C52.82,180.48,54.36,183.14,56,182Z"/><path class="cls-17" d="M169.78,182.2S150.26,169.63,132.85,167c-10.36-1.55-13.39,12.09-3.13,14.11C137.92,182.75,150.5,183.49,169.78,182.2Z"/><path class="cls-18" d="M129.71,176.44c7.42,1.46,18.45,2.2,34.77,1.37,3.29,1.84,5.29,3.12,5.29,3.12-19.27,1.29-31.86.56-40.06-1.06-5.22-1-7-5.07-6.12-8.58C124.21,173.66,126.17,175.74,129.71,176.44Z"/><path class="cls-5" d="M169.78,179.84a109.74,109.74,0,0,0-12.32-7.05,105.18,105.18,0,0,0-12.28-5.26c-2.15-.75-4.33-1.42-6.55-2a30.6,30.6,0,0,0-6.46-1.09,9.49,9.49,0,0,0-8,4,9.37,9.37,0,0,0-1.36,7.93,8.58,8.58,0,0,0,6.55,5.78,65.52,65.52,0,0,0,9,1.18,173.74,173.74,0,0,0,26.3-.33q2.16-.16,4.32-.36a1.58,1.58,0,0,0,1.54-1.54,1.55,1.55,0,0,0-1.54-1.54,204,204,0,0,1-27,.9c-1.65-.07-3.3-.18-4.94-.33l-2.19-.23-1-.12-.26,0-.51-.07a21.25,21.25,0,0,1-4-.81,3.29,3.29,0,0,1-.7-.31l-.45-.26-.37-.24-.22-.19-.35-.33-.27-.3-.17-.2c.09.11.08.11,0,0a7.31,7.31,0,0,1-.43-.72c0-.09-.2-.44-.09-.16-.06-.14-.11-.28-.16-.42a6.87,6.87,0,0,1-.21-.8c0-.05-.08-.49-.05-.3s0-.3,0-.37a7.62,7.62,0,0,1,0-.84c0-.13,0-.26,0-.39,0,.36,0-.14,0-.23a8.09,8.09,0,0,1,.2-.82c0-.15.09-.29.15-.44l.07-.18c.08-.22-.1.22,0,0a8.85,8.85,0,0,1,.43-.82l.21-.34c.06-.09.3-.42.23-.33s.14-.16.18-.21l.32-.34.29-.28c.05,0,.44-.37.21-.19a6.89,6.89,0,0,1,.75-.5l.43-.23.19-.09c.23-.11-.33.12.09,0a8.14,8.14,0,0,1,.91-.29l.44-.1.23,0c.48-.08-.15,0,.13,0a17.78,17.78,0,0,1,5.31.62,63.93,63.93,0,0,1,6.23,1.7,92.84,92.84,0,0,1,11.71,4.76A151.05,151.05,0,0,1,168,182.36l.21.14C169.88,183.6,171.42,180.94,169.78,179.84Z"/></g></g></svg>