<svg xmlns="http://www.w3.org/2000/svg" viewBox="0 0 223.72 385.93"><defs><style>.cls-1{fill:#fff;}.cls-2{fill:#94c8ff;}.cls-3{fill:#f9d4bb;}.cls-4{fill:#e2b89c;}.cls-5{fill:#474b58;}.cls-6{fill:none;stroke:#5a6281;stroke-miterlimit:10;stroke-width:3px;}.cls-7{fill:#86b7e2;}.cls-8{opacity:0.15;}.cls-9{fill:#ffe66a;}.cls-10{fill:#5a6281;}.cls-11{fill:#fbcdac;}.cls-12{fill:#32a7fa;}.cls-13{fill:#4bb7f9;}.cls-14{fill:#020201;opacity:0.04;}.cls-15{fill:#d38262;}.cls-16{fill:#298fce;}.cls-17{fill:#2380af;}.cls-18{fill:#227ba8;}.cls-19{fill:#2c98db;}.cls-20{fill:#bf7f5c;}.cls-21{fill:#c48160;}.cls-22{fill:#a06950;}</style></defs><title>Asset 340</title><g id="Layer_2" data-name="Layer 2"><g id="Layer_1-2" data-name="Layer 1"><path class="cls-1" d="M22.84,329a78.71,78.71,0,0,0-8.36,8.74c-.63.76.46,1.85,1.09,1.09A78.71,78.71,0,0,1,23.93,330c.74-.66-.35-1.74-1.09-1.09Z"/><path class="cls-2" d="M77.47,284.46,32.34,308.85A57.92,57.92,0,0,0,2,359.8v24.78H222.6V359.8a57.92,57.92,0,0,0-30.38-51l-45.13-24.39"/><path class="cls-3" d="M131.32,234.19v25.23a18.45,18.45,0,0,0,3.64,11l10.2,13.72a6.92,6.92,0,0,1-1,9.35l-32.77,19.15a.85.85,0,0,1-.55.21h0a.85.85,0,0,1-.55-.21L77.48,293.5a6.92,6.92,0,0,1-1-9.35l10.2-13.72a18.45,18.45,0,0,0,3.64-11V234.19"/><path class="cls-4" d="M132.62,261.8V251.53h-41v8.74C101.91,267.73,114.53,269.41,132.62,261.8Z"/><path class="cls-5" d="M130.83,234.19v19.54a65.94,65.94,0,0,0,.15,8,20.12,20.12,0,0,0,3.72,9.49l1.88,2.53,7.08,9.53a14.49,14.49,0,0,1,2,3,5.51,5.51,0,0,1,.07,3.8,5.17,5.17,0,0,1-.86,1.56c-.14.17-.3.32-.45.49s-.14.15,0,.06l0,0c-1.62,1.08-3.42,2-5.11,2.92L128.89,301l-16.94,9.68c-.13.08-.54.23-.11.08h.82l-.39-.06,1.13,1.48V312a1.56,1.56,0,0,0-1.95-1.48l-.39.06h.82c.45.16,0,0-.14-.09l-.9-.51-3.2-1.81L97.5,302.45l-17.68-10c-.16-.09-.33-.17-.48-.27h0c.34.24,0-.07-.1-.14a5.37,5.37,0,0,1-.37-.41,5.29,5.29,0,0,1-.92-1.76,5.78,5.78,0,0,1,1.18-5.29l6.41-8.63c2.16-2.91,4.57-5.73,5.94-9.11s1.43-7,1.43-10.71V234.19a1.54,1.54,0,0,0-3.08,0V254c0,2.81.25,5.84-.29,8.6a18,18,0,0,1-3.29,7.27l-2.44,3.28-7,9.37a10,10,0,0,0-2.15,4.83c-.32,2.65.78,6,3.12,7.51,1.68,1.08,3.5,2,5.24,3l10.58,6c5.58,3.15,11.11,6.44,16.76,9.47a2.81,2.81,0,0,0,1.9.24L110.32,312v.21a1.55,1.55,0,0,0,1.13,1.48,2.82,2.82,0,0,0,1.92-.25l.79-.45,3.07-1.76,10.08-5.76,18.09-10.34c4-2.31,4.73-8.18,2.11-11.8-1.89-2.61-3.84-5.17-5.77-7.76l-3.38-4.54a30.79,30.79,0,0,1-2.42-3.56,17.07,17.07,0,0,1-2-8.16c0-1,0-1.93,0-2.89V234.19a1.54,1.54,0,0,0-3.08,0Z"/><path class="cls-6" d="M56.33,357.34"/><polygon class="cls-7" points="54.2 356.27 45.39 383.42 44.34 376.06 44.97 366.18 54.2 356.27"/><path class="cls-5" d="M45.5,384.58l0-9.84,0-15.59v-3.6a1.15,1.15,0,0,0-2.31,0l0,9.84,0,15.59v3.6a1.15,1.15,0,0,0,2.31,0Z"/><path class="cls-5" d="M45.76,368.58l8.64-10.34,1.24-1.49c.95-1.13-.68-2.77-1.63-1.63l-8.64,10.34L44.13,367c-.95,1.13.68,2.77,1.63,1.63Z"/><polygon class="cls-7" points="177.51 356.06 186.32 383.21 187.37 375.85 186.74 365.97 177.51 356.06"/><path class="cls-5" d="M188.52,384.37l0-9.84,0-15.59v-3.6a1.15,1.15,0,0,0-2.31,0l0,9.84,0,15.59v3.6a1.15,1.15,0,0,0,2.31,0Z"/><path class="cls-5" d="M187.59,366.74l-8.64-10.34-1.24-1.49c-1-1.14-2.58.5-1.63,1.63l8.64,10.34,1.24,1.49c1,1.14,2.58-.5,1.63-1.63Z"/><path class="cls-1" d="M61.88,298.49l-9.77,5.41c-4.13,2.28-8.29,4.53-12.35,6.93A111.25,111.25,0,0,0,26.29,320c-.77.62.32,1.71,1.09,1.09A133.16,133.16,0,0,1,47,308.48L58.77,302l3.89-2.15c.87-.48.09-1.81-.78-1.33Z"/><path class="cls-1" d="M69.62,294.21l-4.68,2.59c-.87.48-.09,1.81.78,1.33l4.68-2.59c.87-.48.09-1.81-.78-1.33Z"/><path class="cls-5" d="M76.27,282.92l-16,8.62L35.86,304.76l-4.72,2.55a59.46,59.46,0,0,0-17.47,14.36A60.22,60.22,0,0,0,0,359.95q0,11.86,0,23.72v.7a1.56,1.56,0,0,0,1.54,1.54H213.22c2.86,0,5.72.05,8.58,0h.38a1.56,1.56,0,0,0,1.54-1.54V361.53a68.15,68.15,0,0,0-1.48-15.13,59.22,59.22,0,0,0-8.88-20.34,60,60,0,0,0-16-15.87c-2.44-1.64-5-3-7.58-4.4l-23.14-12.5c-6.29-3.4-12.53-6.89-18.87-10.2l-.31-.17c-1.74-.94-3.3,1.71-1.55,2.66L161.48,294l24.44,13.21L191,310a56.35,56.35,0,0,1,29.64,50.12v24.3l1.54-1.54H10.5c-2.85,0-5.74-.15-8.58,0H1.54l1.54,1.54V361.79a65.55,65.55,0,0,1,1.34-14.41,56.92,56.92,0,0,1,8.79-20A56.12,56.12,0,0,1,29,312.14c2.2-1.4,4.51-2.61,6.8-3.85L59,295.74c6.16-3.33,12.42-6.51,18.49-10l.31-.17c1.74-.94.19-3.6-1.55-2.66Z"/><rect class="cls-1" x="115.33" y="338.56" width="54.5" height="33.62" rx="2.14" ry="2.14"/><g class="cls-8"><path class="cls-2" d="M170,369.94H119.22a1.85,1.85,0,0,1-1.85-1.85V338.17a1.83,1.83,0,0,1,0-.41,1.85,1.85,0,0,0-1.43,1.8v29.92a1.85,1.85,0,0,0,1.85,1.85h50.81a1.85,1.85,0,0,0,1.8-1.43A1.83,1.83,0,0,1,170,369.94Z"/></g><polygon class="cls-9" points="115.43 344.2 115.45 338.48 126.84 337.56 168.66 338.66 170.22 349.25 114.69 349.87 115.43 344.2"/><path class="cls-10" d="M114.42,350.1l.78-5.92,0-5.91,11.61-.94h0l42,1.11,1.63,11h-.26Zm1.26-11.4,0,5.53-.71,5.4,55-.61-1.5-10.14-41.61-1.1Z"/><path class="cls-5" d="M167.88,371H117.42c-.52,0-1-.09-1-.74s0-1.3,0-1.94V347.05c0-2.16-.14-4.38,0-6.54,0-.59.41-.79.93-.8H166.8a9.28,9.28,0,0,1,1.07,0c.81.1.7.81.7,1.41V369.5c0,.58.14,1.47-.69,1.52-1.48.08-1.49,2.39,0,2.31a3.14,3.14,0,0,0,3-3.4V341.23a3.76,3.76,0,0,0-.95-3c-1.2-1.15-3.35-.81-4.88-.81H132.5c-5.07,0-10.14-.05-15.2,0a3.1,3.1,0,0,0-3.23,3c0,.52,0,1,0,1.57v21.65c0,2.21-.07,4.43,0,6.64a3.08,3.08,0,0,0,3.07,3.07c.48,0,1,0,1.46,0h49.28A1.15,1.15,0,0,0,167.88,371Z"/><path class="cls-5" d="M115.22,350.44H163c2.21,0,4.44.1,6.65,0h.1a1.15,1.15,0,0,0,0-2.31H122c-2.21,0-4.44-.1-6.65,0h-.1a1.15,1.15,0,0,0,0,2.31Z"/><ellipse class="cls-11" cx="34.48" cy="146.58" rx="13.25" ry="19.14"/><path class="cls-4" d="M24.31,153.5c0-10.57,5.93-19.14,13.25-19.14,3.91,0,7.42,2.44,9.84,6.32-1.72-7.69-6.72-13.25-12.61-13.25-7.32,0-13.25,8.57-13.25,19.14a24.39,24.39,0,0,0,3.41,12.82A27,27,0,0,1,24.31,153.5Z"/><path class="cls-5" d="M20.08,146.58c0,7,2.66,15.56,9.35,19a10.77,10.77,0,0,0,9,.52,15.17,15.17,0,0,0,7.22-6.62c4-6.9,4.31-16.06,1.22-23.36-2.51-5.93-8.3-11.4-15.21-9.46-7.11,2-10.59,10-11.37,16.7a28.73,28.73,0,0,0-.18,3.2,1.15,1.15,0,0,0,2.31,0c0-6.19,2.2-13.8,8.06-16.95a8.48,8.48,0,0,1,7.3-.38,13.14,13.14,0,0,1,6.09,5.94,24.72,24.72,0,0,1,1,20.75c-2.05,5-6.84,10-12.74,8.27-3-.91-5.32-3.39-6.84-6.06a23.58,23.58,0,0,1-2.86-11.57A1.15,1.15,0,0,0,20.08,146.58Z"/><path class="cls-5" d="M25.34,142.19l4.1,9.53c.39.91,1.72.12,1.33-.78l-4.1-9.53c-.39-.91-1.72-.12-1.33.78Z"/><path class="cls-5" d="M29.44,141.41l-4.1,9.53c-.39.9.94,1.68,1.33.78l4.1-9.53c.39-.9-.94-1.68-1.33-.78Z"/><ellipse class="cls-11" cx="193.55" cy="144.05" rx="13.25" ry="19.14"/><path class="cls-4" d="M203.85,151.12c0-10.57-5.93-19.14-13.25-19.14-3.91,0-7.42,2.44-9.84,6.32,1.72-7.69,6.72-13.25,12.61-13.25,7.32,0,13.25,8.57,13.25,19.14A24.39,24.39,0,0,1,203.21,157,27,27,0,0,0,203.85,151.12Z"/><path class="cls-5" d="M179.14,144c0,7,2.66,15.56,9.35,19a10.77,10.77,0,0,0,9,.52,15.17,15.17,0,0,0,7.22-6.62c4-6.9,4.31-16.06,1.22-23.36-2.51-5.93-8.3-11.4-15.21-9.46-7.11,2-10.59,10-11.37,16.7a28.73,28.73,0,0,0-.18,3.2,1.15,1.15,0,0,0,2.31,0c0-6.19,2.2-13.8,8.06-16.95a8.48,8.48,0,0,1,7.3-.38,13.14,13.14,0,0,1,6.09,5.94,24.72,24.72,0,0,1,1,20.75c-2.05,5-6.84,10-12.74,8.27-3-.91-5.32-3.39-6.84-6.06A23.58,23.58,0,0,1,181.45,144,1.15,1.15,0,0,0,179.14,144Z"/><path class="cls-12" d="M48.32,64.55V33.31c0-6.3,3.29-12,8.36-14.47l18.4-9a77.77,77.77,0,0,1,68.93,0l18.4,9c5.07,2.47,8.36,8.17,8.36,14.47V64.55"/><path class="cls-13" d="M163,19.92l-18.4-9a77.77,77.77,0,0,0-68.93,0l-18.4,9c-5.07,2.47-8.36,8.17-8.36,14.47v4.77c0-6.3,3.29-12,8.36-14.47l18.4-9a77.77,77.77,0,0,1,68.93,0l18.4,9c5.07,2.47,8.36,8.17,8.36,14.47V34.39C171.37,28.09,168.08,22.39,163,19.92Z"/><path class="cls-5" d="M50.15,64.66V34.13a16.12,16.12,0,0,1,2.54-9.26,12.38,12.38,0,0,1,4.87-4.27l1.57-.77,16-7.82A78.47,78.47,0,0,1,105.07,4a76.42,76.42,0,0,1,35.75,6.67c5.17,2.34,10.24,5,15.34,7.44,1.73.84,3.46,1.67,5.18,2.53A13.88,13.88,0,0,1,168.69,32c.13,1.61.06,3.26.06,4.87V64.66a1.92,1.92,0,0,0,3.85,0V33.92a19.57,19.57,0,0,0-3.31-11.35,16.28,16.28,0,0,0-6-5.28l-1.49-.73-16.2-7.9A83.14,83.14,0,0,0,114,.13a80.47,80.47,0,0,0-37.32,7C71.27,9.48,66,12.21,60.74,14.79c-1.77.86-3.56,1.7-5.31,2.59a17.47,17.47,0,0,0-8.88,13,42.2,42.2,0,0,0-.24,6V64.66a1.92,1.92,0,0,0,3.85,0Z"/><rect class="cls-3" x="36.69" y="41.66" width="151.53" height="210.91" rx="75.76" ry="75.76"/><path class="cls-4" d="M114.69,236h0a76,76,0,0,1-75.76-75.76V176.8a76,76,0,0,0,75.76,75.76h0a76,76,0,0,0,75.76-75.76V160.19A76,76,0,0,1,114.69,236Z"/><path class="cls-4" d="M187.57,109.87A76.06,76.06,0,0,0,113.3,49h0a76,76,0,0,0-75.69,72.39C65.38,97.35,125.22,85.19,187.57,109.87Z"/><polygon class="cls-14" points="129.13 106.55 141.94 88.97 131.13 88.5 129.13 106.55"/><polygon class="cls-14" points="107.27 103.18 128.34 91.48 116.34 87.33 107.27 103.18"/><polygon class="cls-14" points="92.9 103.72 101.36 81.16 89.54 85.77 92.9 103.72"/><polygon class="cls-14" points="78.24 105.97 94.64 88.32 81.95 88.09 78.24 105.97"/><path class="cls-5" d="M112.61,250.64a73.36,73.36,0,0,1-33.15-7.91A74.25,74.25,0,0,1,40,190.53,97.52,97.52,0,0,1,38.77,172V126.5c0-4.79-.15-9.62.19-14.4A73.35,73.35,0,0,1,49.17,79.75a74.68,74.68,0,0,1,22.93-24,73.49,73.49,0,0,1,31.84-11.69A74.17,74.17,0,0,1,183.08,95.4a78.94,78.94,0,0,1,3.37,23.86V162.7q0,7,0,14a73.52,73.52,0,0,1-6.57,30.51,75.36,75.36,0,0,1-20.35,26.54,73.4,73.4,0,0,1-46.92,16.93c-2.47,0-2.48,3.85,0,3.85a78,78,0,0,0,76.16-62.38,100.78,100.78,0,0,0,1.53-19.94V126c0-5.12.16-10.29-.3-15.39a77.66,77.66,0,0,0-11.21-33.79,79.05,79.05,0,0,0-24.32-24.79,77.66,77.66,0,0,0-33.35-11.85,76.87,76.87,0,0,0-35.44,4.37,78.29,78.29,0,0,0-47,49.12,81.77,81.77,0,0,0-3.73,25.36v44.09q0,6.8,0,13.6a77.71,77.71,0,0,0,77.69,77.73A1.92,1.92,0,0,0,112.61,250.64Z"/><path class="cls-15" d="M67.79,89.55s9.2,11.63,10,15.7c0,0,8-17.06,6.31-28"/><path class="cls-5" d="M66.7,90.63l.24.31.26.34v0l.23.3q1.11,1.45,2.19,2.92a81.38,81.38,0,0,1,5.24,7.88c.36.64.7,1.28,1,1.95l.08.17c.09.21-.13-.34,0,0l.14.37a6.18,6.18,0,0,1,.22.79,1.55,1.55,0,0,0,2.81.37,73.27,73.27,0,0,0,6.42-21,29.5,29.5,0,0,0,0-8.18,1.55,1.55,0,0,0-1.89-1.07,1.58,1.58,0,0,0-1.07,1.89,27,27,0,0,1-.07,6.65,50.69,50.69,0,0,1-1.38,6.91,88,88,0,0,1-3.87,11.36c0,.11-.27.65-.09.23l-.18.43-.3.69-.26.57,2.81.37a12.89,12.89,0,0,0-1.39-3.37c-.74-1.37-1.57-2.69-2.43-4C73.8,95,72,92.58,70.24,90.22c-.45-.59-.9-1.18-1.36-1.76a1.55,1.55,0,0,0-2.18,0,1.58,1.58,0,0,0,0,2.18Z"/><path class="cls-15" d="M78,89.79S90.09,98.35,92,102c0,0,2.84-18.62-1.84-28.67"/><path class="cls-5" d="M77.21,91.12a90.77,90.77,0,0,1,11.13,8.94c.52.51,1,1,1.51,1.59l.31.38c.17.21-.13-.2.07.09s.31.45.44.7c.58,1.09,2.61,1,2.81-.37a74,74,0,0,0,.25-22,29.25,29.25,0,0,0-2.25-7.88,1.55,1.55,0,0,0-2.1-.55,1.57,1.57,0,0,0-.55,2.1c1.85,4,2.32,8.93,2.45,13.41a88,88,0,0,1-.51,12c-.06.59-.14,1.18-.21,1.76,0,.37.06-.43,0-.05,0,.06,0,.13,0,.19s0,.11,0,.17l2.81-.37a12.87,12.87,0,0,0-2.27-2.84c-1.09-1.11-2.26-2.14-3.45-3.15-2.35-2-4.79-3.85-7.26-5.67l-1.57-1.14a1.55,1.55,0,0,0-2.1.55,1.57,1.57,0,0,0,.55,2.1Z"/><path class="cls-15" d="M105.14,82.62s3.28,14.46,2.23,18.48c0,0,14.56-11.95,17.79-22.55"/><path class="cls-5" d="M103.66,83A93.41,93.41,0,0,1,106,97.1c0,.73.08,1.46.06,2.19,0,.3,0,.59-.05.89s.06-.24,0,.1c0,.13-.05.27-.09.4a1.55,1.55,0,0,0,2.57,1.5c1.81-1.49,3.53-3.11,5.2-4.75A69.31,69.31,0,0,0,123,86.29,29.4,29.4,0,0,0,126.65,79c.59-1.9-2.38-2.71-3-.82-1.35,4.34-4.24,8.28-7.19,11.75a88.14,88.14,0,0,1-8.41,8.57c-.59.53-1.19,1.05-1.8,1.56l2.57,1.5c.68-2.72.11-5.81-.26-8.54-.41-3-1-5.92-1.56-8.86-.13-.63-.27-1.27-.41-1.9-.44-1.93-3.4-1.11-3,.82Z"/><path class="cls-15" d="M115.43,86.4s12.19,13.68,13.49,18.66c0,0,8.4-21.68,5.5-35.1"/><path class="cls-5" d="M114.34,87.48a115.42,115.42,0,0,1,11,14c.49.75,1,1.52,1.37,2.32l.28.55c0,.1.28.65.12.25a7.74,7.74,0,0,1,.31.91,1.55,1.55,0,0,0,3,0c1-2.7,1.91-5.49,2.71-8.28a85.69,85.69,0,0,0,3.34-17.69,36.2,36.2,0,0,0-.55-10c-.41-1.94-3.38-1.12-3,.82,1.17,5.51.43,11.6-.65,17.18a109.58,109.58,0,0,1-3.85,14.33c-.32.93-.64,1.86-1,2.78h3a15.78,15.78,0,0,0-2-4.06c-1-1.64-2.13-3.2-3.29-4.74-2.25-3-4.63-5.9-7.07-8.75-.52-.6-1-1.21-1.57-1.8-1.32-1.48-3.49.7-2.18,2.18Z"/><path class="cls-16" d="M202.75,78.88a79.39,79.39,0,0,1-4.25,11.7c-.89,2-8.54,19.47-7.61,20.22-18.4-14.87-46.73-24.4-78.49-24.4s-60,9.51-78.45,24.36C27.3,93,10.92,65.91,30.38,50.67,35.95,46.32,43,44.49,49.93,43c39.36-8.55,80.47-9.69,120-1.8,6.49,1.3,13,2.86,18.88,5.93s11.08,7.81,13.54,14C204.65,66.91,204.28,73,202.75,78.88Z"/><path class="cls-17" d="M41.92,48.37a37.25,37.25,0,0,1,13.2-6.15q-2.22.45-4.43.93c-6.9,1.5-14,3.33-19.54,7.69-19.46,15.24-3.09,42.3,3.55,60.09a88.38,88.38,0,0,1,9.19-6.47C36.65,86.8,23.87,62.5,41.92,48.37Z"/><path class="cls-18" d="M65.25,49.81q5.2-.9,10.44-1.54c1-.12,1-1.66,0-1.54-3.63.45-7.25,1-10.85,1.59-1,.17-.56,1.65.41,1.48Z"/><path class="cls-18" d="M39.77,56.94a23,23,0,0,1,2.55-1.15A80.24,80.24,0,0,1,50.93,53c2.59-.71,5.2-1.33,7.82-1.89,1-.21.56-1.69-.41-1.48-6.26,1.34-12.67,2.9-18.5,5.62-.29.13-.57.27-.85.42-.87.48-.09,1.81.78,1.33Z"/><path class="cls-18" d="M117.3,45.22c3.59.1,7.17.3,10.74.57,1,.08,1-1.46,0-1.54-3.58-.27-7.16-.47-10.74-.57a.77.77,0,0,0,0,1.54Z"/><path class="cls-18" d="M90.92,47.19a24.25,24.25,0,0,1,2.83-.65,77.74,77.74,0,0,1,8.83-1.06c2.7-.19,5.4-.28,8.11-.31a.77.77,0,0,0,0-1.54c-6.39.07-13,.33-19.24,1.83-.31.08-.63.15-.93.25-.94.3-.54,1.78.41,1.48Z"/><path class="cls-19" d="M143.64,18.9c3.25,1.36,6.46,2.81,9.63,4.32.89.42,1.67-.9.78-1.33q-4.95-2.36-10-4.48c-.91-.38-1.31,1.11-.41,1.48Z"/><path class="cls-19" d="M118.33,11.22l.72.07.23,0,.53.08,1.27.22a80,80,0,0,1,8.75,2.22c2.58.79,5.13,1.68,7.66,2.62.93.35,1.33-1.14.41-1.48-6-2.24-12.24-4.36-18.61-5.2-.32,0-.64-.08-1-.1-1-.06-1,1.48,0,1.54Z"/><path class="cls-18" d="M174.56,52.37q5.21,1.34,10.35,2.94c.95.29,1.35-1.19.41-1.48q-5.14-1.59-10.35-2.94a.77.77,0,0,0-.41,1.48Z"/><path class="cls-18" d="M148.41,48.44a24.15,24.15,0,0,1,2.87,0,77.67,77.67,0,0,1,8.89.92c2.67.41,5.32.92,8,1.49,1,.21,1.38-1.27.41-1.48-6.25-1.35-12.75-2.57-19.17-2.49-.32,0-.64,0-1,0-1,.08-1,1.62,0,1.54Z"/><path class="cls-18" d="M65.56,55.81q5.2-.9,10.44-1.54c1-.12,1-1.66,0-1.54-3.63.45-7.25,1-10.85,1.59-1,.17-.56,1.65.41,1.48Z"/><path class="cls-18" d="M40.08,62.94a23,23,0,0,1,2.55-1.15,80.24,80.24,0,0,1,8.61-2.84c2.59-.71,5.2-1.33,7.82-1.89,1-.21.56-1.69-.41-1.48-6.26,1.34-12.67,2.9-18.5,5.62-.29.13-.57.27-.85.42-.87.48-.09,1.81.78,1.33Z"/><path class="cls-18" d="M117.6,51.22c3.59.1,7.17.3,10.74.57,1,.08,1-1.46,0-1.54-3.58-.27-7.16-.47-10.74-.57a.77.77,0,0,0,0,1.54Z"/><path class="cls-18" d="M91.23,53.19a24.25,24.25,0,0,1,2.83-.65,77.74,77.74,0,0,1,8.83-1.06c2.7-.19,5.4-.28,8.11-.31a.77.77,0,0,0,0-1.54c-6.39.07-13,.33-19.24,1.83-.31.08-.63.15-.93.25-.94.3-.54,1.78.41,1.48Z"/><path class="cls-18" d="M174.87,58.37q5.21,1.34,10.35,2.94c.95.29,1.35-1.19.41-1.48q-5.14-1.59-10.35-2.94a.77.77,0,0,0-.41,1.48Z"/><path class="cls-18" d="M148.71,54.44a24.15,24.15,0,0,1,2.87,0,77.67,77.67,0,0,1,8.89.92c2.67.41,5.32.92,8,1.49,1,.21,1.38-1.27.41-1.48-6.25-1.35-12.75-2.57-19.17-2.49-.32,0-.64,0-1,0-1,.08-1,1.62,0,1.54Z"/><path class="cls-18" d="M64.94,62.58q5.2-.9,10.44-1.54c1-.12,1-1.66,0-1.54-3.63.45-7.25,1-10.85,1.59-1,.17-.56,1.65.41,1.48Z"/><path class="cls-18" d="M39.46,69.71A23,23,0,0,1,42,68.55a80.24,80.24,0,0,1,8.61-2.84c2.59-.71,5.2-1.33,7.82-1.89,1-.21.56-1.69-.41-1.48-6.26,1.34-12.67,2.9-18.5,5.62-.29.13-.57.27-.85.42-.87.48-.09,1.81.78,1.33Z"/><path class="cls-18" d="M117,58c3.59.1,7.17.3,10.74.57,1,.08,1-1.46,0-1.54-3.58-.27-7.16-.47-10.74-.57A.77.77,0,0,0,117,58Z"/><path class="cls-18" d="M90.61,60a24.25,24.25,0,0,1,2.83-.65,77.74,77.74,0,0,1,8.83-1.06c2.7-.19,5.4-.28,8.11-.31a.77.77,0,0,0,0-1.54c-6.39.07-13,.33-19.24,1.83-.31.08-.63.15-.93.25-.94.3-.54,1.78.41,1.48Z"/><path class="cls-18" d="M174.25,65.14q5.21,1.34,10.35,2.94c.95.29,1.35-1.19.41-1.48q-5.14-1.59-10.35-2.94a.77.77,0,0,0-.41,1.48Z"/><path class="cls-18" d="M148.1,61.21a24.15,24.15,0,0,1,2.87,0,77.67,77.67,0,0,1,8.89.92c2.67.41,5.32.92,8,1.49,1,.21,1.38-1.27.41-1.48-6.25-1.35-12.75-2.57-19.17-2.49-.32,0-.64,0-1,0-1,.08-1,1.62,0,1.54Z"/><path class="cls-5" d="M200.9,78.37c-1.41,5.38-3.73,10.41-5.91,15.51-1.85,4.34-3.74,8.69-5.26,13.16-.49,1.45-1.53,3.83-.2,5.12l2.72-2.72a102.92,102.92,0,0,0-26.32-15.12A136.68,136.68,0,0,0,133,85.85a155.79,155.79,0,0,0-36.5-.56,141.17,141.17,0,0,0-33.74,7.54,106,106,0,0,0-27.18,14.26q-1.51,1.13-3,2.31l3.21.85c-2.34-6.25-5.13-12.15-7.52-18.32s-4.68-13-5.11-19.61a32.72,32.72,0,0,1,0-4.74,21.8,21.8,0,0,1,.75-4.25,20.23,20.23,0,0,1,4.29-8c5.52-6.27,13.63-8.6,21.51-10.34a305.65,305.65,0,0,1,57.82-7.1,279.68,279.68,0,0,1,58.27,4.45c8.77,1.63,17.95,3.41,25.46,8.5a26,26,0,0,1,8,8.32A22.2,22.2,0,0,1,202,71.69a35.14,35.14,0,0,1-1.12,6.68c-.61,2.4,3.1,3.42,3.71,1a33.38,33.38,0,0,0,.76-14.8,25.29,25.29,0,0,0-6.07-11.84c-6.1-6.83-14.93-10.23-23.63-12.29a241.47,241.47,0,0,0-29.89-4.89,285.44,285.44,0,0,0-30.13-1.62A309.58,309.58,0,0,0,55.4,39.89C46.6,41.63,37,43.27,29.64,48.83a26.32,26.32,0,0,0-7.35,8.33,26,26,0,0,0-2.89,9.68c-.74,6.92,1,14,3.13,20.52,2.23,6.69,5.23,13.27,7.85,19.63.59,1.42,1.16,2.85,1.69,4.28a2,2,0,0,0,3.21.85,97.68,97.68,0,0,1,25.08-14.3,134.13,134.13,0,0,1,32-8.2,154.91,154.91,0,0,1,35.92-.49,137.21,137.21,0,0,1,32.52,7.32A102.94,102.94,0,0,1,187,110.24c.88.65,1.63,1.23,2.48,1.92a2,2,0,0,0,2.72,0,2,2,0,0,0,0-2.72,1.55,1.55,0,0,1,.49,1.14,1.43,1.43,0,0,1,0-.25c0-.25-.13.58,0,.19,0-.16.07-.32.11-.48.18-.71.41-1.41.65-2.11.7-2,1.5-4.06,2.32-6.07q.67-1.65,1.36-3.3l.31-.74.11-.25.1-.24.64-1.5q.87-2,1.75-4a85.29,85.29,0,0,0,4.55-12.38C205.23,77,201.53,76,200.9,78.37Z"/><path class="cls-5" d="M195.48,142.2l4.1,9.53c.39.91,1.72.12,1.33-.78l-4.1-9.53c-.39-.91-1.72-.12-1.33.78Z"/><path class="cls-5" d="M199.59,141.42l-4.1,9.53c-.39.9.94,1.68,1.33.78l4.1-9.53c.39-.9-.94-1.68-1.33-.78Z"/><path class="cls-5" d="M66.66,132.54a15.85,15.85,0,0,1,1.39-.8q.79-.41,1.6-.77c.17-.08.47-.2.12-.06l.56-.23q.6-.24,1.21-.45a23.42,23.42,0,0,1,12-1.15,22.78,22.78,0,0,1,8.45,3.44,1.92,1.92,0,0,0,1.94-3.32,25.69,25.69,0,0,0-16-4.2,30.74,30.74,0,0,0-11.25,3.13,17.74,17.74,0,0,0-1.91,1.06,2,2,0,0,0-.69,2.63,1.94,1.94,0,0,0,2.63.69Z"/><path class="cls-5" d="M129.27,134.08a15.85,15.85,0,0,1,1.39-.8q.79-.41,1.6-.77c.17-.08.47-.2.12-.06l.56-.23q.6-.24,1.21-.45a23.42,23.42,0,0,1,12-1.15,22.78,22.78,0,0,1,8.45,3.44,1.92,1.92,0,0,0,1.94-3.32,25.69,25.69,0,0,0-16-4.2,30.74,30.74,0,0,0-11.25,3.13,17.74,17.74,0,0,0-1.91,1.06,2,2,0,0,0-.69,2.63,1.94,1.94,0,0,0,2.63.69Z"/><path class="cls-1" d="M75.69,20.75a116.44,116.44,0,0,1,25.69-6.59,1.16,1.16,0,0,0,.81-1.42,1.19,1.19,0,0,0-1.42-.81,116.44,116.44,0,0,0-25.69,6.59c-1.37.52-.78,2.76.61,2.23Z"/><path class="cls-1" d="M55.66,30.19c5-2.5,9.9-5.12,15-7.37a1.16,1.16,0,0,0,.41-1.58,1.18,1.18,0,0,0-1.58-.41c-5.09,2.25-10,4.87-15,7.37-1.33.67-.16,2.66,1.16,2Z"/><path class="cls-1" d="M157.76,108.7c6.54,1.84,13.07,4.66,18.25,9.19a26.4,26.4,0,0,1,4.5,5c1.11,1.63,3.77.09,2.66-1.55-4.65-6.85-12.08-11.18-19.71-14q-2.41-.89-4.88-1.59a1.54,1.54,0,0,0-.82,3Z"/><path class="cls-1" d="M143.35,105.58a27.66,27.66,0,0,1,9.49,1.5,1.55,1.55,0,0,0,1.89-1.07,1.57,1.57,0,0,0-1.07-1.89,30.22,30.22,0,0,0-10.31-1.61,1.54,1.54,0,0,0,0,3.08Z"/><ellipse class="cls-5" cx="79.62" cy="142.88" rx="5.28" ry="6.15"/><ellipse class="cls-5" cx="143.92" cy="144.11" rx="5.28" ry="6.15"/><path class="cls-5" d="M111.44,240.08l.19-.17c.26-.24-.16.1,0,0l.34-.24a8.48,8.48,0,0,1,.93-.53l.34-.16c-.14.06-.13.05,0,0s.5-.18.76-.25a7.43,7.43,0,0,1,3.2-.22,12,12,0,0,1,4.59,1.79c1.69,1,3.24-1.63,1.55-2.66a12.94,12.94,0,0,0-10-1.92,9.36,9.36,0,0,0-4.05,2.16c-1.42,1.38.75,3.56,2.18,2.18Z"/><path class="cls-5" d="M107.42,217.66a9.43,9.43,0,0,0,4.05,2.1,13.28,13.28,0,0,0,10-1.86,1.54,1.54,0,0,0-1.55-2.66,10.28,10.28,0,0,1-7.79,1.51c-.24-.06-.47-.14-.7-.22l-.26-.1c.32.12-.07,0-.11-.05a9.76,9.76,0,0,1-.91-.49l-.36-.23c-.27-.18-.12-.09,0,0l-.21-.18c-1.44-1.36-3.62.82-2.18,2.18Z"/><path class="cls-20" d="M115.51,192.38a38.4,38.4,0,0,0-26.4,5.43,21.69,21.69,0,0,1-13.71,3.36c-3.71-.36-7.35-1.69-8.76-5.24,0,0-1.5,21.87,48.86,15.16h-.56c50.36,6.71,48.86-15.16,48.86-15.16-1.41,3.56-5,4.89-8.76,5.24a21.69,21.69,0,0,1-13.71-3.36,38.4,38.4,0,0,0-26.4-5.43"/><path class="cls-21" d="M160.86,200.33c-5.3,5.1-17.3,9.85-44.4,6.28-27.1,3.57-39.1-1.18-44.4-6.28-1.85-.81-4.15-2.12-5-4.14,0,0-.72,21.78,49.36,15.19,50.08,6.59,47.82-15.19,47.82-15.19C163.47,198.21,162.71,199.51,160.86,200.33Z"/><path class="cls-5" d="M115.58,191.47a35.7,35.7,0,0,0-13.34.14,38.82,38.82,0,0,0-11.93,4.21,44.67,44.67,0,0,1-6,3.22,20.58,20.58,0,0,1-6.43,1.28c-3.68.12-8.7-.6-10.31-4.48a1.16,1.16,0,0,0-2.27.31,8.88,8.88,0,0,0,.27,2.44,13.68,13.68,0,0,0,2.39,5.15A19.75,19.75,0,0,0,75,209.48a41.17,41.17,0,0,0,13.85,3.76,101.15,101.15,0,0,0,22.89-.36q1.79-.2,3.57-.44a1.19,1.19,0,0,0,1.15-1.15,1.17,1.17,0,0,0-1.15-1.15h-.56a1.15,1.15,0,1,0,0,2.31,114,114,0,0,0,24.21,1,46,46,0,0,0,14.85-3.39,20.71,20.71,0,0,0,7.63-5.48,14.58,14.58,0,0,0,2.94-5.51,9.38,9.38,0,0,0,.39-2.91v0a1.16,1.16,0,0,0-2.27-.31c-1.39,3.37-5.42,4.33-8.71,4.47a20.34,20.34,0,0,1-6.52-.77,24.23,24.23,0,0,1-6-2.82,39.75,39.75,0,0,0-22-5.73,27.77,27.77,0,0,0-4.81.5c-1.45.31-.84,2.53.61,2.23.34-.07.69-.12,1-.17h0l.33,0,.7-.07q.86-.08,1.71-.11A38.18,38.18,0,0,1,134.76,196a48.92,48.92,0,0,1,6.46,3.42,22.86,22.86,0,0,0,13.07,3.14c4.32-.3,8.64-1.87,10.4-6.14l-2.27-.31a4.68,4.68,0,0,1,0,.56c0,.22,0,.44-.06.66,0-.44,0-.06,0,.14s-.06.31-.09.46q-.11.53-.28,1-.09.28-.19.55l-.11.3c-.12.33.07-.14,0,.08a15.17,15.17,0,0,1-1.52,2.62l-.12.16c-.12.16.15-.18,0,0l-.3.37q-.29.34-.59.66a16.86,16.86,0,0,1-1.47,1.37l-.42.34c.22-.17-.19.14-.28.21q-.47.34-1,.66a23.25,23.25,0,0,1-2.21,1.26,29.63,29.63,0,0,1-5.51,2.05,48.31,48.31,0,0,1-7.5,1.4,102.27,102.27,0,0,1-22.46-.4q-1.79-.2-3.57-.44v2.31h.56v-2.31a115.24,115.24,0,0,1-23.76,1.05,54.44,54.44,0,0,1-8-1.17c-1.13-.26-2.24-.56-3.34-.91q-.75-.24-1.49-.52l-.65-.25-.55-.23A23.32,23.32,0,0,1,73,205.62c-.09-.06-.5-.38-.28-.21l-.42-.34q-.4-.33-.78-.68A15.88,15.88,0,0,1,70.26,203L70,202.7c-.14-.18.06.08,0,0l-.14-.18c-.16-.22-.32-.45-.47-.68a13.43,13.43,0,0,1-.76-1.32c-.1-.21-.2-.42-.29-.63s.1.26,0-.05l-.12-.32q-.2-.54-.35-1.09t-.21-1c0-.2-.06-.57,0-.14,0-.12,0-.24,0-.36,0-.27,0-.56,0-.82a.2.2,0,0,1,0,0l-2.27.31c1.53,3.71,5,5.44,8.84,6a22.8,22.8,0,0,0,13.1-2.16c2.15-1,4.1-2.45,6.27-3.48a36,36,0,0,1,6.36-2.29,38.45,38.45,0,0,1,10.29-1.22c1.24,0,2.47.11,3.7.25h.08l.26,0,.41.07.37.07c1.45.31,2.07-1.92.61-2.23Z"/><path class="cls-22" d="M97.59,198.25A30.21,30.21,0,0,1,113,197.16c1,.2,1.38-1.28.41-1.48a31.8,31.8,0,0,0-16.25,1.09c-.94.3-.54,1.79.41,1.48Z"/><path class="cls-22" d="M90.69,201.39a27.24,27.24,0,0,1,4.4-2.22c.9-.37.51-1.86-.41-1.48a29.38,29.38,0,0,0-4.77,2.37c-.83.54-.06,1.87.78,1.33Z"/><path class="cls-22" d="M131.75,196.55a31.48,31.48,0,0,0-15-.72c-1,.2-.56,1.68.41,1.48a29.79,29.79,0,0,1,14.22.72.77.77,0,0,0,.41-1.48Z"/><path class="cls-22" d="M140.23,200.21a29.86,29.86,0,0,0-5.15-2.53c-.92-.37-1.32,1.12-.41,1.48a27.81,27.81,0,0,1,4.79,2.37c.83.54,1.61-.79.78-1.33Z"/><path class="cls-5" d="M110.86,129.93c-.59,2.64-1,5.31-1.46,8a142.23,142.23,0,0,0-1.77,18c-.17,6.1,0,12.53,2,18.37,1.62,4.85,4.86,9.41,10.24,10.25a15.34,15.34,0,0,0,4.58,0l1-.17a6.83,6.83,0,0,1,1.07-.25c.35,0,.49.16.61.49-.07-.2,0,0,0,.09s0,.27,0,.4,0,.23,0,.34c0-.28.05-.27,0,0s-.05.24-.09.36-.25.6,0,.15c-.11.24-.23.46-.37.68l-.14.2s.23-.27.06-.07-.23.27-.36.39-.25.23-.38.35.13-.07-.23.17a11,11,0,0,1-1.14.68,14.2,14.2,0,0,1-2.93,1,29.4,29.4,0,0,1-4.25.7,1.58,1.58,0,0,0-1.54,1.54,1.55,1.55,0,0,0,1.54,1.54c4.11-.41,9.82-1.19,12.15-5.17a6,6,0,0,0,.8-3.48,3.66,3.66,0,0,0-2.75-3.34,8,8,0,0,0-3.24.33l-.39.06-.38,0c-.37,0-.74.06-1.12.07s-.64,0-1,0l-.41,0c-.16,0-.6-.08-.19,0a11.37,11.37,0,0,1-1.78-.41l-.39-.14-.21-.08s.35.16.11,0-.52-.24-.77-.38-.47-.27-.69-.42l-.33-.23c-.33-.23.18.17-.11-.09a13.6,13.6,0,0,1-1.24-1.21l-.24-.28-.15-.18c-.14-.17.23.31,0,.05s-.35-.49-.52-.74a16,16,0,0,1-.91-1.58c-.14-.27-.27-.55-.39-.83s.07.18-.07-.16l-.19-.49c-.24-.63-.45-1.27-.64-1.91a35.28,35.28,0,0,1-.95-4.26c-.06-.36-.11-.72-.16-1.09s0,.27,0,0l0-.31q0-.31-.07-.62-.13-1.2-.22-2.4c-.11-1.6-.17-3.21-.17-4.81,0-3.23.14-6.47.41-9.69q.2-2.32.47-4.64.13-1.08.27-2.15l0-.36,0-.35.15-1.08c.48-3.31,1.1-6.59,1.74-9.87l0-.14c.43-1.93-2.54-2.75-3-.82Z"/><path class="cls-22" d="M83.74,208.74a52.19,52.19,0,0,0,22.46.88c1-.18.56-1.66-.41-1.48a50.35,50.35,0,0,1-21.64-.88.77.77,0,0,0-.41,1.48Z"/><path class="cls-22" d="M73.15,204.77a41.86,41.86,0,0,0,7.35,3c.94.31,1.35-1.18.41-1.48a39.71,39.71,0,0,1-7-2.87c-.87-.48-1.64.85-.78,1.33Z"/><path class="cls-22" d="M144.45,207.1a50.35,50.35,0,0,1-21.64.88c-1-.18-1.38,1.3-.41,1.48a52.19,52.19,0,0,0,22.46-.88.77.77,0,0,0-.41-1.48Z"/><path class="cls-22" d="M154.68,203.29a39.71,39.71,0,0,1-7,2.87c-.94.31-.54,1.79.41,1.48a41.86,41.86,0,0,0,7.35-3c.87-.48.09-1.81-.78-1.33Z"/></g></g></svg>