<svg width="74" height="79" viewBox="0 0 74 79" fill="none" xmlns="http://www.w3.org/2000/svg">
<path fill-rule="evenodd" clip-rule="evenodd" d="M63.8115 5.3667H10.1865C8.89359 5.3667 7.65362 5.88031 6.73938 6.79455C5.82514 7.70879 5.31152 8.94877 5.31152 10.2417V68.7417C5.31152 70.0346 5.82514 71.2746 6.73938 72.1888C7.65362 73.1031 8.89359 73.6167 10.1865 73.6167H63.8115C65.1045 73.6167 66.3444 73.1031 67.2587 72.1888C68.1729 71.2746 68.6865 70.0346 68.6865 68.7417V10.2417C68.6865 8.94877 68.1729 7.70879 67.2587 6.79455C66.3444 5.88031 65.1045 5.3667 63.8115 5.3667ZM10.1865 0.491699C7.60066 0.491699 5.12071 1.51893 3.29223 3.34741C1.46375 5.17589 0.436523 7.65584 0.436523 10.2417V68.7417C0.436523 71.3276 1.46375 73.8075 3.29223 75.636C5.12071 77.4645 7.60066 78.4917 10.1865 78.4917H63.8115C66.3974 78.4917 68.8773 77.4645 70.7058 75.636C72.5343 73.8075 73.5615 71.3276 73.5615 68.7417V10.2417C73.5615 7.65584 72.5343 5.17589 70.7058 3.34741C68.8773 1.51893 66.3974 0.491699 63.8115 0.491699L10.1865 0.491699Z" fill="#C8C8C8"/>
<path d="M29.6865 15.1167C29.6865 13.8238 30.2001 12.5838 31.1144 11.6696C32.0286 10.7553 33.2686 10.2417 34.5615 10.2417H39.4365C40.7295 10.2417 41.9694 10.7553 42.8837 11.6696C43.7979 12.5838 44.3115 13.8238 44.3115 15.1167V29.7417C44.3115 31.0346 43.7979 32.2746 42.8837 33.1888C41.9694 34.1031 40.7295 34.6167 39.4365 34.6167H34.5615C33.2686 34.6167 32.0286 34.1031 31.1144 33.1888C30.2001 32.2746 29.6865 31.0346 29.6865 29.7417V15.1167ZM10.1865 15.1167C10.1865 13.8238 10.7001 12.5838 11.6144 11.6696C12.5286 10.7553 13.7686 10.2417 15.0615 10.2417H19.9365C21.2295 10.2417 22.4694 10.7553 23.3837 11.6696C24.2979 12.5838 24.8115 13.8238 24.8115 15.1167V49.2417C24.8115 50.5346 24.2979 51.7746 23.3837 52.6888C22.4694 53.6031 21.2295 54.1167 19.9365 54.1167H15.0615C13.7686 54.1167 12.5286 53.6031 11.6144 52.6888C10.7001 51.7746 10.1865 50.5346 10.1865 49.2417V15.1167ZM49.1865 15.1167C49.1865 13.8238 49.7001 12.5838 50.6144 11.6696C51.5286 10.7553 52.7686 10.2417 54.0615 10.2417H58.9365C60.2295 10.2417 61.4694 10.7553 62.3837 11.6696C63.2979 12.5838 63.8115 13.8238 63.8115 15.1167V63.8667C63.8115 65.1596 63.2979 66.3996 62.3837 67.3138C61.4694 68.2281 60.2295 68.7417 58.9365 68.7417H54.0615C52.7686 68.7417 51.5286 68.2281 50.6144 67.3138C49.7001 66.3996 49.1865 65.1596 49.1865 63.8667V15.1167Z" fill="#C8C8C8"/>
</svg>
