<svg width="447" height="335" viewBox="0 0 447 335" fill="none" xmlns="http://www.w3.org/2000/svg">
<path d="M357.25 234.521C375.752 234.521 390.688 249.457 390.688 267.959C390.688 286.461 375.752 301.396 357.25 301.396C338.748 301.396 323.813 286.461 323.813 267.959C323.813 249.457 338.748 234.521 357.25 234.521ZM357.25 201.084C320.246 201.084 290.375 230.955 290.375 267.959C290.375 304.963 320.246 334.834 357.25 334.834C394.254 334.834 424.125 304.963 424.125 267.959C424.125 230.955 394.254 201.084 357.25 201.084ZM112.042 67.334L67.4584 0.458984H0.583374V45.0423H70.3563L134.333 140.896V334.834H178.917L236.206 223.376H280.344C295.948 196.849 323.813 178.792 357.25 178.792C376.867 178.792 394.923 185.257 409.635 196.18L446.417 67.334H112.042ZM165.319 312.542H156.625V174.334L176.019 203.536C184.044 215.351 197.196 222.484 211.24 223.376L165.319 312.542V312.542Z" fill="#FBECCC"/>
</svg>
