<svg width="16" height="18" viewBox="0 0 16 18" fill="none" xmlns="http://www.w3.org/2000/svg">
<path d="M8 17.5423C8.51608 17.5429 9.01955 17.3828 9.44041 17.0841C9.86127 16.7854 10.1786 16.363 10.3483 15.8756H5.65167C5.82139 16.363 6.13873 16.7854 6.55959 17.0841C6.98045 17.3828 7.48392 17.5429 8 17.5423ZM13.8333 11.3639V7.54228C13.8333 4.86144 12.0125 2.60311 9.54583 1.92394C9.30167 1.30894 8.705 0.87561 8 0.87561C7.295 0.87561 6.69833 1.30894 6.45417 1.92394C3.9875 2.60394 2.16667 4.86144 2.16667 7.54228V11.3639L0.744168 12.7864C0.666632 12.8637 0.605142 12.9555 0.563238 13.0566C0.521333 13.1578 0.499842 13.2662 0.500001 13.3756V14.2089C0.500001 14.43 0.587798 14.6419 0.744079 14.7982C0.900359 14.9545 1.11232 15.0423 1.33333 15.0423H14.6667C14.8877 15.0423 15.0996 14.9545 15.2559 14.7982C15.4122 14.6419 15.5 14.43 15.5 14.2089V13.3756C15.5002 13.2662 15.4787 13.1578 15.4368 13.0566C15.3949 12.9555 15.3334 12.8637 15.2558 12.7864L13.8333 11.3639Z" fill="#FBECCC"/>
</svg>
