<svg width="17" height="17" viewBox="0 0 17 17" fill="none" xmlns="http://www.w3.org/2000/svg">
<path d="M12.9535 1.01231C11.3943 2.57257 9.83238 4.13311 8.27485 5.69365C6.71458 4.13393 5.15432 2.57339 3.59351 1.01231C1.78812 -0.792257 -1.00921 2.00644 0.795352 3.81101C2.35507 5.36991 3.91615 6.93127 5.47396 8.48962C3.91506 10.0493 2.35425 11.6104 0.795352 13.171C-1.00921 14.975 1.78949 17.7729 3.59351 15.9694C5.15323 14.4088 6.71349 12.8486 8.27485 11.288C9.83511 12.8486 11.3943 14.4083 12.9535 15.9694C14.7583 17.7731 17.5559 14.975 15.7527 13.1712C14.1922 11.6107 12.6319 10.051 11.0714 8.48989C12.6322 6.92963 14.1924 5.36909 15.7527 3.80855C17.5559 2.00453 14.7583 -0.794168 12.9535 1.0104" fill="#FBECCC"/>
</svg>
