<svg width="20" height="21" viewBox="0 0 20 21" fill="none" xmlns="http://www.w3.org/2000/svg">
<g clip-path="url(#clip0)">
<path d="M20 11.6562C20 11.7865 19.9447 11.9036 19.834 12.0078C19.7233 12.112 19.554 12.1999 19.3262 12.2715C19.0983 12.3431 18.8639 12.4049 18.623 12.457C18.3822 12.5091 18.0762 12.5514 17.7051 12.584C17.334 12.6165 17.0085 12.6393 16.7285 12.6523C16.4486 12.6654 16.0938 12.6784 15.6641 12.6914C15.2344 12.7044 14.9056 12.7109 14.6777 12.7109H11.25V10.2109H11.2305C11.2174 9.61198 11.1003 9.09115 10.8789 8.64844C11.2305 8.55729 11.5625 8.49219 11.875 8.45312V7.84766C10.625 7.09245 10 5.52995 10 3.16016C10 2.18359 10.3483 1.44792 11.0449 0.953125C11.7415 0.458333 12.6432 0.210938 13.75 0.210938C14.8568 0.210938 15.7585 0.458333 16.4551 0.953125C17.1517 1.44792 17.5 2.18359 17.5 3.16016C17.5 5.62109 16.875 7.20312 15.625 7.90625V8.45312C16.9401 8.63542 17.9948 9 18.7891 9.54688C19.5833 10.0938 19.987 10.7969 20 11.6562ZM8.125 15.4062V15.9531C9.4401 16.1354 10.4948 16.5033 11.2891 17.0566C12.0833 17.61 12.487 18.3099 12.5 19.1562C12.5 19.2865 12.4447 19.4036 12.334 19.5078C12.2233 19.612 12.054 19.6999 11.8262 19.7715C11.5983 19.8431 11.3639 19.9049 11.123 19.957C10.8822 20.0091 10.5762 20.0514 10.2051 20.084C9.83398 20.1165 9.50846 20.1426 9.22852 20.1621C8.94857 20.1816 8.59375 20.1947 8.16406 20.2012C7.73438 20.2077 7.4056 20.2109 7.17773 20.2109H5.32227L4.33594 20.2012L3.27148 20.1621L2.29492 20.084L1.37695 19.957L0.673828 19.7715L0.166016 19.5078L0 19.1562C0.0130208 18.3099 0.416667 17.61 1.21094 17.0566C2.00521 16.5033 3.0599 16.1354 4.375 15.9531V15.3477C3.125 14.5924 2.5 13.0299 2.5 10.6602C2.5 9.68359 2.84831 8.94792 3.54492 8.45312C4.24154 7.95833 5.14323 7.71094 6.25 7.71094C7.35677 7.71094 8.25846 7.95833 8.95508 8.45312C9.65169 8.94792 10 9.68359 10 10.6602C10 13.1211 9.375 14.7031 8.125 15.4062Z" fill="#FBECCC"/>
</g>
<defs>
<clipPath id="clip0">
<rect width="20" height="20" fill="white" transform="translate(0 0.210938)"/>
</clipPath>
</defs>
</svg>
