<svg width="25" height="25" viewBox="0 0 25 25" fill="none" xmlns="http://www.w3.org/2000/svg">
<path d="M16.946 14.6466C17.0277 13.9723 17.089 13.2981 17.089 12.6034C17.089 11.9087 17.0277 11.2345 16.946 10.5602H20.3989C20.5624 11.214 20.6646 11.8985 20.6646 12.6034C20.6646 13.3083 20.5624 13.9928 20.3989 14.6466H16.946ZM15.1377 20.3266C15.7507 19.1927 16.2206 17.9668 16.5475 16.6898H19.5612C18.5715 18.3941 17.0012 19.6851 15.1377 20.3266ZM14.8823 14.6466H10.1013C9.99912 13.9723 9.93783 13.2981 9.93783 12.6034C9.93783 11.9087 9.99912 11.2242 10.1013 10.5602H14.8823C14.9743 11.2242 15.0458 11.9087 15.0458 12.6034C15.0458 13.2981 14.9743 13.9723 14.8823 14.6466ZM12.4918 20.7353C11.6439 19.5094 10.9594 18.1506 10.5406 16.6898H14.4431C14.0242 18.1506 13.3397 19.5094 12.4918 20.7353ZM8.40544 8.51701H5.42239C6.40195 6.80811 7.97105 5.51505 9.83567 4.88014C9.22271 6.01411 8.763 7.24002 8.40544 8.51701ZM5.42239 16.6898H8.40544C8.763 17.9668 9.22271 19.1927 9.83567 20.3266C7.97496 19.6847 6.40807 18.3935 5.42239 16.6898ZM4.58468 14.6466C4.42123 13.9928 4.31907 13.3083 4.31907 12.6034C4.31907 11.8985 4.42123 11.214 4.58468 10.5602H8.03767C7.95594 11.2345 7.89464 11.9087 7.89464 12.6034C7.89464 13.2981 7.95594 13.9723 8.03767 14.6466H4.58468ZM12.4918 4.46129C13.3397 5.6872 14.0242 7.05613 14.4431 8.51701H10.5406C10.9594 7.05613 11.6439 5.6872 12.4918 4.46129ZM19.5612 8.51701H16.5475C16.2278 7.25173 15.7543 6.03035 15.1377 4.88014C17.0175 5.52374 18.5805 6.82117 19.5612 8.51701ZM12.4918 2.38745C6.8424 2.38745 2.27588 6.98462 2.27588 12.6034C2.27588 15.3128 3.3522 17.9113 5.26806 19.8271C6.21669 20.7758 7.34289 21.5283 8.58234 22.0417C9.8218 22.5551 11.1502 22.8193 12.4918 22.8193C15.2012 22.8193 17.7997 21.743 19.7156 19.8271C21.6314 17.9113 22.7077 15.3128 22.7077 12.6034C22.7077 11.2618 22.4435 9.93337 21.9301 8.69392C21.4167 7.45446 20.6642 6.32827 19.7156 5.37963C18.7669 4.43099 17.6407 3.67849 16.4013 3.16509C15.1618 2.65169 13.8334 2.38745 12.4918 2.38745Z" fill="#FBECCC"/>
</svg>
