<?xml version="1.0" encoding="utf-8"?>
<!-- Generator: Adobe Illustrator 19.0.0, SVG Export Plug-In . SVG Version: 6.00 Build 0)  -->
<svg version="1.1" id="Layers" xmlns="http://www.w3.org/2000/svg" xmlns:xlink="http://www.w3.org/1999/xlink" x="0px" y="0px"
	 viewBox="0 0 612 792" style="enable-background:new 0 0 612 792;" xml:space="preserve">
<style type="text/css">
	.st0{fill:#BFCAD3;}
	.st1{fill:#DAE1E5;}
	.st2{fill:#12426D;}
	.st3{fill:#4F7F9F;}
	.st4{fill:#41708A;}
	.st5{fill:#FDD9AF;}
	.st6{fill:#FBECCC;}
	.st7{fill:#0E9AD0;}
	.st8{fill:#ECF0F2;}
	.st9{fill:#EDEDED;}
	.st10{fill:#E6E8E7;}
	.st11{fill:#FFFFFF;}
	.st12{fill:#C4E0EC;}
	.st13{fill:#EFF8FB;}
	.st14{fill:#068CB2;}
	.st15{fill:#05B5E4;}
	.st16{fill:#DABC8C;}
	.st17{fill:#E9DAB2;}
	.st18{fill:#C7A97E;}
	.st19{fill:#D6C399;}
	.st20{fill:#F6EAD0;}
	.st21{fill:#97A8B7;}
	.st22{fill:#8494A0;}
	.st23{fill:#626158;}
	.st24{fill:#7F7E79;}
	.st25{fill:#56504C;}
	.st26{fill:#FBBB9A;}
	.st27{fill:#588BA8;}
	.st28{fill:#6EA6BF;}
</style>
<g id="Filling">
	<path id="XMLID_102_" class="st0" d="M347,444.9l11.4,1.1l17.9-27.5l-3.9-5.3l-6.8-1.9l-6.1,2.6l-2.6-2.6H351l-5.4,1l-3.3-2.2
		l-6.9-5.1l-7.4-1.7l-9.1,2.1l-9.9,7.1l-7.5-2.6l-7,2.7l-5.5,7.1l-6.6-4.8l-11.6-5.8l-10.8-2c0,0-10,1.5-10.5,1.7s-6.6,3.6-6.6,3.6
		l-5.5,5.2l-5.7-1l-6.4,0.8l-4,2.3l-4.6,7.5l-5.8,0.4l-6.2,3.4l-3,5.1h-7l-5,3.6l-6.1,6.4l31.1-1.1H347V444.9z"/>
	<path class="st1" d="M345.4,419.6c0,0-11.4-18.3-30.8-11.9c0,0,15.2-11.4,30.7,5.9L345.4,419.6z"/>
	<path class="st1" d="M237.3,417.5c0,0,23.8-12.2,46.2-1.8C283.5,415.7,257.7,394.8,237.3,417.5z"/>
	<path id="XMLID_101_" class="st1" d="M345.4,419.6c0,0,4.2-6.8,14.1-5.7l-3.3-3.8h-6l-4.7,2.2L345.4,419.6z"/>
	<path id="XMLID_100_" class="st1" d="M359.5,413.9c0,0,13.6-1.3,13.5,9.7l3.3-5l-3.9-5.4l-6.8-1.8L359.5,413.9z"/>
	<path id="XMLID_99_" class="st1" d="M352.5,432.3c0,0,1.1-0.6,2.7-1.3c3.5-1.4,9.7-3.2,12.7,0.4l2.7-4.2l-2.7-1.8l-5.5,0.4
		L352.5,432.3z"/>
	<path id="XMLID_98_" class="st1" d="M193.6,444.9c0,0-0.5-5.7,8.1-8.9h-7.1l-5,3.5l-4.5,5.3h8.5V444.9z"/>
	<g id="XMLID_4_">
		<path class="st2" d="M185.1,446.5c-0.3,0-0.5-0.1-0.8-0.2c-0.7-0.4-1-1.4-0.6-2.1c2.4-4.1,8.7-10.9,16.8-9.3
			c1.1-3.1,4.7-9.6,15-9.2c0.7-2.1,2.5-6.1,6.6-8.6c3.9-2.4,8.8-2.8,14.6-1.3c2-2.3,8-8.5,18.2-10c10.3-1.5,21.6,2.4,33.5,11.5
			c1.4-2.4,4.5-6.7,9.4-8.3c3.4-1.1,7.1-0.6,10.9,1.5c2.6-2.5,10.4-9.2,20-8.8c6.2,0.3,11.9,3.6,16.8,9.7c1.6-1.2,4.5-2.9,7.8-2.7
			c2.4,0.1,4.6,1.1,6.5,3c1.9-1.1,5.8-2.7,10-1.6c3.7,1.1,6.5,4.1,8.5,9c0.3,0.8-0.1,1.7-0.9,2s-1.7-0.1-2-0.9
			c-1.6-4-3.8-6.4-6.5-7.1c-4.2-1.2-8.4,1.8-8.5,1.8l-1.2,0.8l-0.9-1.1c-1.6-1.8-3.3-2.8-5.2-2.9c-3.6-0.2-6.8,2.9-6.8,3L345,416
			l-1.1-1.4c-4.6-6.2-9.8-9.5-15.5-9.7c-10-0.5-18.4,8.6-18.4,8.7l-0.9,1l-1.1-0.7c-3.4-2.1-6.5-2.7-9.4-1.8
			c-5.4,1.7-8.3,8.2-8.4,8.3l-0.8,1.9l-1.6-1.3c-11.8-9.4-22.7-13.4-32.6-12c-11,1.6-16.7,9.5-16.8,9.6l-0.6,0.9l-1.1-0.3
			c-5.4-1.6-9.8-1.3-13.1,0.7c-4.5,2.7-5.5,7.8-5.6,7.8l-0.3,1.4l-1.4-0.1c-11.7-1-13.4,7.8-13.4,8.2l-0.3,1.8l-1.7-0.6
			c-8.6-2.9-14.4,7.1-14.7,7.5C186.2,446.2,185.6,446.5,185.1,446.5z"/>
	</g>
	<g id="XMLID_3_">
		<path class="st2" d="M354,433.9c-0.3,0-0.6-0.1-0.8-0.3c-0.7-0.5-0.9-1.4-0.5-2.1c2.7-4.2,10.2-10.8,18.8-5.7
			c0.7,0.4,1,1.4,0.5,2.1c-0.4,0.7-1.4,1-2.1,0.5c-8.2-4.9-14.3,4.3-14.6,4.7C355,433.6,354.5,433.9,354,433.9z"/>
	</g>
</g>
<g id="Left_Arm">
	<polygon id="XMLID_150_" class="st3" points="190.8,276 170,276 175.3,299.7 184.9,322.9 198.5,343 225,365.6 239.7,373.2 
		259.1,376.5 271,369.8 273.4,357.5 263.2,344 236.6,327.7 211.6,307.4 199.6,292.8 	"/>
	<path id="XMLID_51_" class="st4" d="M239.6,373.2c0,0-59.9-19.9-69.7-97.2h8.4c0,0,12.7,68.6,66.9,88.6c0,0,14.7,4.5,27.7,1.1
		C273,365.7,264.3,381.9,239.6,373.2z"/>
	<polygon id="XMLID_144_" class="st5" points="178.4,242.2 167,239 148.4,240.6 138.9,243.5 136.7,249.8 141.4,260.4 158.2,270.5 
		170,276 190.8,276 191,262 187.5,250.4 	"/>
	<path id="XMLID_113_" class="st6" d="M136.7,249.8c0,0,39.7-19.9,55.6,24.2l-1.4-18l-9.3-12.4l-14.8-5.9l-19.5,1.6l-8.4,4.2
		L136.7,249.8z"/>
	<polygon id="XMLID_109_" class="st7" points="170,277.8 171.9,288 196.7,287.3 191,274.7 170,276 	"/>
	<g id="XMLID_58_">
		<path class="st2" d="M255.5,378c-8.3,0-16-2.3-16.5-2.4l-0.3-0.1c-17.4-7.3-32.1-18.4-43.8-32.8c-14.3-17.7-23.5-40-27.4-66.3
			l-0.4-2.9h27.3l0.5,1.9c0,0.2,4.7,18.5,21.8,35c8.6,8.2,25.1,17.6,26.6,18.4c2.6,1.1,33.4,15,32.5,33.6c-0.2,5.2-2.3,9.2-6.1,11.9
			C265.9,377.1,260.6,378,255.5,378z M240.6,370.9c5.2,1.5,19.6,4.3,26.4-0.6c2.5-1.8,3.8-4.4,4-8.1c0.6-13-21.2-25.2-29.7-28.9
			l-0.2-0.1c-0.7-0.4-18.3-10.3-27.7-19.2c-15.1-14.5-21-30.2-22.7-35.5H173C182.3,335,214.7,359.9,240.6,370.9z"/>
	</g>
	<g id="XMLID_46_">
		<path class="st2" d="M192.4,278.4c-1.2,0-2.2-0.9-2.3-2.1l-1.6-14.1c-1.2-19.5-20.9-20.8-21.7-20.8h-0.1
			c-5.7-0.6-21.6-0.9-26.5,4.1c-1.1,1.1-1.5,2.4-1.3,4.1c1.4,10.4,23.5,21,31.9,24.2c1.2,0.5,1.8,1.8,1.3,3s-1.8,1.8-3,1.3
			c-3.4-1.3-32.8-13-34.9-28c-0.4-3.1,0.5-5.8,2.6-7.9c7.3-7.5,27.8-5.7,30.2-5.5c1.6,0.1,24.6,2.2,26,25.1l1.6,13.9
			c0.1,1.3-0.8,2.4-2,2.6C192.6,278.4,192.5,278.4,192.4,278.4z"/>
	</g>
	<g id="XMLID_6_">
		<path class="st2" d="M194.5,288.9h-22.6c-0.9,0-1.6-0.7-1.6-1.6s0.7-1.6,1.6-1.6h22.6c0.9,0,1.6,0.7,1.6,1.6
			S195.4,288.9,194.5,288.9z"/>
	</g>
</g>
<g id="Right_Box">
	<polygon id="XMLID_91_" class="st8" points="402.9,489.5 481.1,489.5 481.1,636.8 402.9,636.8 403.6,620.4 	"/>
	<polygon id="XMLID_90_" class="st8" points="474.5,550.2 509.8,525.7 481.1,489.5 444.5,512.2 	"/>
	<polygon id="XMLID_89_" class="st9" points="402.9,489.5 481.1,489.5 444.5,512.2 401.8,512.2 	"/>
	<path id="XMLID_88_" class="st10" d="M479.3,546.9c0,0-34.8,23-34.8,49.4v-84.1l25,34.7l2.3,3.3L479.3,546.9z"/>
	<path id="XMLID_81_" class="st11" d="M446.7,512.2c0,0,20.5,30.1,63.1,13.6l-35.3,24.4L446.7,512.2z"/>
	<path id="XMLID_80_" class="st11" d="M405.4,512.5c0,0,39.1,3.3,39.1,55.6v-55.9L405.4,512.5z"/>
	<path id="XMLID_79_" class="st10" d="M403.3,568.8c0,0,12.3,43.9,41.6,43.9l-0.4,24.1h-41.6l0.7-16.5L403.3,568.8z"/>
	<g id="XMLID_78_">
		<rect x="478.6" y="546.9" class="st12" width="5" height="89.9"/>
	</g>
	<g id="XMLID_77_">
		<polygon class="st12" points="405.4,510.7 400.4,510.7 400.4,487 481.1,487 481.1,492 405.4,492 		"/>
	</g>
	<g id="XMLID_76_">
		<path class="st12" d="M447.4,636.8h-5V514.7h-37v122.1h-5V509.7h43.8l37.5-23.5l31.7,40l-40.9,29.1L447.4,520V636.8z M448.4,512.9
			l25.2,35.4l32.5-23.1l-25.7-32.4L448.4,512.9z"/>
	</g>
	<rect id="XMLID_70_" x="466.1" y="612.7" class="st12" width="8.2" height="17.5"/>
	<g id="XMLID_69_">
		<path class="st12" d="M435.3,601c-0.8,0-1.5-0.7-1.5-1.5v-73.8c0-0.8,0.7-1.5,1.5-1.5s1.5,0.7,1.5,1.5v73.8
			C436.7,600.3,436.1,601,435.3,601z"/>
	</g>
	<g id="XMLID_68_">
		<path class="st12" d="M435.5,616.4c-0.8,0-1.5-0.7-1.5-1.5v-8.8c0-0.8,0.7-1.5,1.5-1.5s1.5,0.7,1.5,1.5v8.8
			C436.9,615.7,436.3,616.4,435.5,616.4z"/>
	</g>
	<g id="XMLID_67_">
		<path class="st12" d="M474.9,540.7c-0.5,0-0.9-0.2-1.2-0.6c-0.5-0.7-0.3-1.6,0.4-2l21.9-15.3c0.7-0.5,1.6-0.3,2,0.4
			c0.5,0.7,0.3,1.6-0.4,2l-21.9,15.3C475.5,540.6,475.2,540.7,474.9,540.7z"/>
	</g>
</g>
<g id="Left_Box">
	<polygon id="XMLID_92_" class="st13" points="94.2,533.7 67.1,533.7 87.6,562.1 87.6,636.8 176.1,636.8 176.1,621.5 176.1,562.1 
		114.8,562.1 	"/>
	<polygon id="XMLID_87_" class="st13" points="110.4,553.7 113.4,549.8 117.8,548.6 120,548.9 123.1,545.7 127.6,544.7 132.6,538.4 
		140.9,536.6 148.6,531.1 155.8,528.3 165.5,531.8 172.5,539.8 174.2,562 114.8,562.1 	"/>
	<path id="XMLID_86_" class="st11" d="M141.8,536.6c0,0,20.6-9.9,31.4,8.6V537l-6.1-4l-8.1-3.7h-6l-5.9,1.8L141.8,536.6z"/>
	<path id="XMLID_85_" class="st11" d="M112.7,558.1c0,0,0.5-7.4,8.3-9h-5l-2.6,0.7l-2.2,2.8L112.7,558.1z"/>
	<path id="XMLID_84_" class="st11" d="M154.7,561.5c0,0,10.8-6.5,19.6-5.5v6.1L154.7,561.5z"/>
	<path id="XMLID_83_" class="st11" d="M141.8,547c0,0,5.9-7.8,15.8-2.8l-6.6,1l-3.9,4.7L141.8,547z"/>
	<path id="XMLID_82_" class="st11" d="M116.1,592.6c0,0,4.8-23.8,58.1-23.8V562h-59.4L116.1,592.6z"/>
	<g id="XMLID_5_">
		<polygon class="st12" points="178.6,636.8 173.6,636.8 173.6,564.6 90.1,564.6 90.1,636.8 85.1,636.8 85.1,559.6 178.6,559.6 		
			"/>
	</g>
	<g id="XMLID_74_">
		<polygon class="st12" points="117.2,636.8 112.3,636.8 112.3,562.9 92.9,536.2 71.9,536.2 89.6,560.6 85.5,563.6 62.2,531.2 
			95.4,531.2 117.2,561.3 		"/>
	</g>
	<g id="XMLID_73_">
		<path class="st12" d="M131.5,574.8h-9.2c-0.9,0-1.6-0.7-1.6-1.6s0.7-1.6,1.6-1.6h9.2c0.9,0,1.6,0.7,1.6,1.6
			S132.3,574.8,131.5,574.8z"/>
	</g>
	<g id="XMLID_72_">
		<path class="st12" d="M173.2,574.7h-33.3c-0.8,0-1.5-0.7-1.5-1.5s0.7-1.5,1.5-1.5h33.3c0.8,0,1.5,0.7,1.5,1.5
			S174,574.7,173.2,574.7z"/>
	</g>
	<rect id="XMLID_71_" x="122.3" y="618.2" class="st12" width="17.5" height="8.2"/>
	<g id="XMLID_66_">
		<path class="st12" d="M173.3,563.6c-0.8,0-1.5-0.7-1.5-1.5v-23c-5.1-5.9-10.4-8.7-15.7-8.6c-7.8,0.2-13.2,7-13.2,7.1l-0.6,0.7
			l-0.9-0.2c-8.6-2.1-12.1,6.7-12.3,7.1l-0.4,1.1l-1.2-0.2c-3.9-0.8-4.9,2.9-5,3.3l-0.3,1.5l-1.4-0.4c-2.9-0.7-5-0.5-6.5,0.6
			c-2.2,1.7-2.3,4.9-2.3,4.9c0,0.8-0.7,1.4-1.5,1.4l0,0c-0.8,0-1.4-0.7-1.4-1.5c0-0.2,0.1-4.7,3.4-7.2c2-1.5,4.6-2,7.7-1.4
			c0.9-2.1,3.1-4.5,6.8-4.3c1.9-3.9,6.7-9.4,14.3-8c1.8-2,7.2-7.3,14.9-7.5c6.4-0.2,12.5,3.2,18.4,10l0.4,0.4v24
			C174.7,562.9,174.1,563.6,173.3,563.6z"/>
	</g>
	<g id="XMLID_65_">
		<path class="st12" d="M146.6,552l-1.3-1.1c-3.7-3.2-7.5-0.1-7.6,0c-0.6,0.5-1.5,0.4-2.1-0.2c-0.5-0.6-0.4-1.5,0.2-2.1
			c1.8-1.5,6-3.4,10.1-0.9c2.4-3,7-6.7,12.2-4.4c0.7,0.3,1.1,1.2,0.8,1.9s-1.2,1.1-1.9,0.8c-5.2-2.3-9.3,4.2-9.5,4.5L146.6,552z"/>
	</g>
</g>
<g id="Body">
	<path id="XMLID_152_" class="st7" d="M214.7,444.9c0,0,15.3-75.7,52.6-106.4c0,0,9.5-9.9,29.5-5c5.5,1.3,20.7,0.5,28,5.3
		c7.8,5.2,13.9,11.7,14.9,16.2c0,0,12.1,26.9,6.6,49.4c0,0-4.3,35.1,0.6,40.6H214.7V444.9z"/>
	<path id="XMLID_147_" class="st14" d="M248.3,357.5c0,0,13,40,70.6,40c0,0,23-2.6,26.3,11.1l2.5-21.3l-3.2-22.8l-9.4-18.1
		l-12.2-8.7l-18.8-5.6l-19.9-1.1l-15.6,7.5L248.3,357.5z"/>
	<path id="XMLID_146_" class="st15" d="M233.1,444.9c0,0-10.3-19.8,6.9-71.7c0,0-25.9,40.3-25.2,71.7L233.1,444.9L233.1,444.9z"/>
	<g id="XMLID_37_">
		<path class="st2" d="M347.4,448.5H212l0.3-2.7c0-0.5,5.1-48.1,35.7-88.8c0.3-0.4,8.1-10.6,19-20.3c9.1-8,27.5-10.4,44.9-5.7
			c17.7,4.8,30.5,15.7,35.1,29.9v0.2c2.1,8.2,4.1,27.2,1.9,43.7c-4.2,29.3,0.7,40.2,0.8,40.3l1.7,3.5L347.4,448.5z M217.5,443.5H344
			c-1.4-5.5-3.2-17.7,0-39.6c2.1-15.6,0.2-34-1.7-41.6c-4.2-12.5-15.7-22.2-31.7-26.5c-15.6-4.2-32.6-2.3-40.3,4.6
			c-10.6,9.4-18.3,19.4-18.3,19.5C226.3,394,219.1,433,217.5,443.5z"/>
	</g>
	<g id="XMLID_50_">
		<path class="st2" d="M253.5,448.5c-1.4,0-2.5-1.1-2.5-2.5c-0.3-54.4,46.3-113.1,48.2-115.6c0.9-1.1,2.4-1.2,3.5-0.4
			c1.1,0.9,1.2,2.4,0.4,3.5c-0.5,0.6-47.4,59.9-47.1,112.4C256,447.4,254.9,448.5,253.5,448.5L253.5,448.5z"/>
	</g>
	<circle id="XMLID_49_" class="st2" cx="279.1" cy="391" r="3.7"/>
	<circle id="XMLID_48_" class="st2" cx="270.8" cy="408.7" r="3.7"/>
	<circle id="XMLID_47_" class="st2" cx="267" cy="427.2" r="3.7"/>
	<g id="XMLID_39_">
		<path class="st2" d="M222.7,446.5h-0.1c-0.9-0.1-1.5-0.8-1.4-1.7c2.4-35.8,25.6-72.1,25.8-72.4c0.5-0.7,1.4-0.9,2.1-0.5
			c0.7,0.5,0.9,1.4,0.5,2.1c-0.2,0.4-23,36-25.4,71C224.2,445.8,223.5,446.5,222.7,446.5z"/>
	</g>
</g>
<g id="Box">
	<g>
		<g>
			<polygon id="XMLID_155_" class="st16" points="383.7,409.8 358.4,446 412.2,446 436.3,409.8 			"/>
			<g id="XMLID_59_">
				<path class="st2" d="M413.5,448.5h-59.9l28.8-41.2h58.5L413.5,448.5z M363.2,443.5h47.7l20.8-31.2H385L363.2,443.5z"/>
			</g>
		</g>
		<g>
			<polygon id="XMLID_158_" class="st17" points="165.4,456.2 127,516.2 313.5,516.2 358.4,446 172,446 			"/>
			<polygon id="XMLID_157_" class="st17" points="329.9,444.9 412.2,446 412.2,621.5 399,636.8 345.3,636.8 358.4,619.3 
				358.4,471.2 318.9,457 			"/>
			<polygon id="XMLID_156_" class="st16" points="173.1,517.3 172,621.5 185.1,636.8 345.3,636.8 358.4,619.3 358.4,471.2 
				358.4,463.6 354,457 347.4,463.2 313.5,516.2 			"/>
			<polygon id="XMLID_154_" class="st18" points="172,621.5 358.4,621.5 345.3,636.8 185.1,636.8 			"/>
			<polygon id="XMLID_153_" class="st19" points="358.4,621.5 412.2,621.5 399,636.8 345.3,636.8 			"/>
			<path id="XMLID_149_" class="st18" d="M173.1,517.3c0,0,184.3-7.3,184.3,75.3l2.2-101.6l-1.1-19.7v-9l-3.1-3.3h-5.2l-36.7,57.3
				L173.1,517.3z"/>
			<path id="XMLID_148_" class="st19" d="M358.4,446c0,0,51.6,7.7,51.6,49.4V446H358.4z"/>
			<polygon id="XMLID_134_" class="st20" points="172,446 141.6,516.2 127,516.2 			"/>
			<polygon id="XMLID_133_" class="st20" points="412.2,621.5 398.6,621.5 412.2,502.7 			"/>
			<polygon id="XMLID_112_" class="st17" points="172,621.5 303.6,621.5 168.3,614.9 			"/>
			<g id="XMLID_61_">
				<path class="st2" d="M345.3,639.4c-0.6,0-1.1-0.2-1.6-0.6c-1-0.9-1.2-2.5-0.3-3.5l12.6-14.7V463.7c0-1.9-1.4-2.4-1.9-2.6
					c-0.9-0.3-2.2-0.1-3,1.1l-36.2,56.4H122.5l48.2-75.2h244v178.8l-13.8,16.1c-0.9,1-2.5,1.2-3.5,0.3s-1.2-2.5-0.3-3.5l12.6-14.7
					v-172H173.4l-41.8,65.2h180.6l34.8-54.2c1.9-2.9,5.4-4.2,8.6-3.2c3.3,1,5.4,3.9,5.4,7.3v158.7l-13.8,16.1
					C346.7,639.1,346,639.4,345.3,639.4z"/>
			</g>
			<g id="XMLID_60_">
				<path class="st2" d="M185.1,639.3c-0.7,0-1.4-0.3-1.9-0.9l-13.7-16V516.2c0-1.4,1.1-2.5,2.5-2.5s2.5,1.1,2.5,2.5v104.4
					l12.5,14.6c0.9,1,0.8,2.6-0.3,3.5C186.2,639.1,185.7,639.3,185.1,639.3z"/>
			</g>
			<g id="XMLID_54_">
				<path class="st2" d="M178.5,609.9c-0.9,0-1.6-0.7-1.6-1.6v-79c0-0.9,0.7-1.6,1.6-1.6s1.6,0.7,1.6,1.6v79
					C180.1,609.2,179.4,609.9,178.5,609.9z"/>
			</g>
			<g id="XMLID_53_">
				<path class="st2" d="M303.6,454.2H176.4c-0.9,0-1.6-0.7-1.6-1.6s0.7-1.6,1.6-1.6h127.2c0.9,0,1.6,0.7,1.6,1.6
					S304.5,454.2,303.6,454.2z"/>
			</g>
			<rect id="XMLID_38_" x="376.8" y="458.9" class="st2" width="23.6" height="11.8"/>
		</g>
	</g>
	<g id="XMLID_10_">
		<path class="st2" d="M365.6,535.3c-0.9,0-1.6-0.7-1.6-1.6v-63c0-0.9,0.7-1.6,1.6-1.6s1.6,0.7,1.6,1.6v63
			C367.2,534.6,366.5,535.3,365.6,535.3z"/>
	</g>
	<g id="XMLID_9_">
		<path class="st2" d="M365.6,548.5c-0.9,0-1.6-0.7-1.6-1.6v-6c0-0.9,0.7-1.6,1.6-1.6s1.6,0.7,1.6,1.6v6
			C367.2,547.8,366.5,548.5,365.6,548.5z"/>
	</g>
</g>
<g id="Stuff_Falling">
	<polygon id="XMLID_108_" class="st0" points="151.4,324.6 146.8,326.1 144.5,331.4 147.9,341 156.3,342.4 160.5,338.5 158,331.6 	
		"/>
	<polygon id="XMLID_107_" class="st0" points="162.6,394.3 159.7,397.6 160.3,405 164.3,408.6 172.1,409.8 176.7,405 176.6,402 
		171.1,397.5 	"/>
	<polygon id="XMLID_106_" class="st0" points="398.5,351.3 392.7,357.5 392.7,365.1 397.2,368 403.9,365.6 408.9,361.4 408.9,356.1 
		403.9,351.3 	"/>
	<polygon id="XMLID_105_" class="st0" points="452.2,326.3 444.8,328.8 444,333.6 448.1,340 454.4,340.9 461.4,336.8 462.3,331 
		458.2,327 	"/>
	<polygon id="XMLID_104_" class="st0" points="413.9,298.7 408.9,304.8 407.1,312.5 410.5,314.7 416.5,315.4 423.1,309.2 
		424.2,304.8 420.7,299.5 	"/>
	<path id="XMLID_97_" class="st1" d="M160.5,402.2c0,0,7.9-7.9,14.7,0l-3.8-6.4l-8.8-1.5l-3.5,7.9"/>
	<path id="XMLID_96_" class="st1" d="M145.3,333.6c0,0,9-6.9,15.3,2l-2.5-7.2l-6.6-3.8l-6.1,1.5L145.3,333.6L145.3,333.6z"/>
	<path id="XMLID_95_" class="st1" d="M392.7,359.6c0,0,11.6-7,17.2-2.2c5.6,4.9-1-1.4-1-1.4l-3-4.8h-5.1l-3.7,3.1L392.7,359.6z"/>
	<path id="XMLID_94_" class="st1" d="M444,333.6c0,0,12.8-5.1,18.3,1.6v-6.8l-7.9-2.2l-7.2,2.2L444,333.6z"/>
	<path id="XMLID_93_" class="st1" d="M408.9,312.5c0,0,6.5-13.2,15.3-7.7l-3.5-5.3l-7.9,0.6l-5.6,6.9L408.9,312.5z"/>
	<g id="XMLID_24_">
		<path class="st2" d="M154.3,344.8c-1.1,0-2.2-0.2-3.3-0.6c-2.6-0.9-5-2.8-6.7-5.3c-3.5-5.4-2.7-12.2,1.7-15.1
			c4.5-2.9,11-0.9,14.6,4.5c1.7,2.5,2.4,5.5,2.2,8.2c-0.3,3-1.7,5.4-3.9,6.9C157.6,344.4,156,344.8,154.3,344.8z M150.8,327.1
			c-0.8,0-1.5,0.2-2.1,0.6c-2.3,1.5-2.5,5.5-0.4,8.7l0,0c1.1,1.7,2.6,2.9,4.2,3.4c1.4,0.5,2.8,0.4,3.9-0.3c1-0.7,1.7-1.9,1.8-3.4
			c0.2-1.7-0.4-3.6-1.4-5.3C155.3,328.5,152.9,327.1,150.8,327.1z"/>
	</g>
	<g id="XMLID_23_">
		<path class="st2" d="M399.2,370.3c-2.6,0-5-1-6.6-2.8c-1.8-2-2.6-4.7-2.1-7.7c0.4-2.7,1.9-5.4,4.1-7.4l0,0
			c4.8-4.4,11.6-4.7,15.2-0.8c1.8,2,2.6,4.7,2.1,7.7c-0.4,2.7-1.9,5.4-4.1,7.4c-2.2,2.1-5,3.3-7.8,3.5
			C399.8,370.3,399.5,370.3,399.2,370.3z M397.8,355.9c-1.5,1.3-2.4,3-2.7,4.8c-0.2,1.5,0.1,2.8,0.9,3.8c0.8,0.9,2.2,1.4,3.7,1.2
			c1.7-0.1,3.5-0.9,5-2.3c1.5-1.3,2.4-3,2.7-4.8c0.2-1.5-0.1-2.8-0.9-3.8C404.6,352.8,400.6,353.3,397.8,355.9L397.8,355.9z"/>
	</g>
	<g id="XMLID_22_">
		<path class="st2" d="M413.7,317.7c-2.5,0-4.9-0.9-6.6-2.7c-1.8-2-2.6-4.7-2.1-7.7c0.4-2.7,1.9-5.4,4.1-7.4
			c4.8-4.4,11.6-4.7,15.2-0.8c1.8,2,2.6,4.7,2.1,7.7c-0.4,2.7-1.9,5.4-4.1,7.4C419.8,316.5,416.6,317.7,413.7,317.7z M417.7,301
			c-1.8,0-3.8,0.8-5.4,2.3c-1.5,1.3-2.4,3-2.7,4.8c-0.2,1.5,0.1,2.8,0.9,3.8c1.9,2,5.8,1.5,8.6-1.1c1.5-1.3,2.4-3,2.7-4.8
			c0.2-1.5-0.1-2.8-0.9-3.8C420.1,301.4,419,301,417.7,301z"/>
	</g>
	<g id="XMLID_21_">
		<path class="st2" d="M452.6,343.3c-2.3,0-4.4-0.5-6.3-1.6c-2.6-1.5-4.2-3.8-4.7-6.4c-0.8-5.3,3.8-10.4,10.2-11.4
			c3-0.4,6,0.1,8.4,1.4c2.6,1.5,4.2,3.8,4.7,6.4c0.8,5.3-3.8,10.4-10.2,11.4C454,343.2,453.3,343.3,452.6,343.3z M454,328.4
			c-0.5,0-1,0-1.4,0.1c-3.8,0.6-6.6,3.3-6.2,6.1c0.2,1.2,1,2.3,2.3,3.1c1.5,0.9,3.4,1.2,5.4,0.9c3.8-0.6,6.6-3.3,6.2-6.1
			c-0.2-1.2-1-2.3-2.3-3.1C456.8,328.7,455.4,328.4,454,328.4z"/>
	</g>
	<g id="XMLID_20_">
		<path class="st2" d="M169.7,412.4c-2.2,0-4.5-0.6-6.5-1.8c-2.6-1.5-4.7-3.7-5.8-6.3c-1.2-2.8-1.1-5.6,0.3-7.9
			c1.3-2.4,3.7-3.9,6.6-4.4c2.7-0.4,5.7,0.1,8.4,1.6c5.6,3.2,8.1,9.5,5.5,14.2c-1.3,2.4-3.7,3.9-6.6,4.4
			C171,412.4,170.3,412.4,169.7,412.4z M166.2,396.6c-0.4,0-0.7,0-1.1,0.1c-1.5,0.2-2.7,1-3.3,2.1s-0.6,2.5,0,3.9c0.7,1.6,2,3,3.7,4
			s3.6,1.4,5.4,1.1c1.5-0.2,2.7-1,3.3-2.1c1.3-2.4-0.4-6-3.7-7.9C169,397,167.6,396.6,166.2,396.6z"/>
	</g>
</g>
<g id="Product">
	<polygon id="XMLID_145_" class="st21" points="119.3,161.5 111.8,173.3 111.8,218.5 205.1,218.5 205.1,161.5 	"/>
	<rect id="XMLID_142_" x="152" y="183.2" class="st0" width="12.3" height="35.8"/>
	<polygon id="XMLID_137_" class="st0" points="130.5,178.8 125.4,180 121.6,183.2 119.3,190 121.8,196.9 128.1,201.1 134.1,200.3 
		140.7,195.4 141.6,190 139.3,183.2 134.7,178.8 	"/>
	<polygon id="XMLID_136_" class="st0" points="111.8,173.3 126.3,168.5 205.1,168.5 205.1,161.5 119.3,161.5 	"/>
	<polygon id="XMLID_135_" class="st22" points="164.8,210.1 191.2,210.1 205.1,175.1 205.1,218.5 164.4,218.5 	"/>
	<g id="XMLID_57_">
		<path class="st2" d="M207.6,221h-98.3v-48.4l8.6-13.6h89.7V221z M114.3,216h88.3v-52h-81.9l-6.4,10V216z"/>
	</g>
	<path id="XMLID_44_" class="st2" d="M164.4,160.7c0-6.1,5-11.1,11.1-11.1s11.1,5,11.1,11.1H164.4z"/>
	<g id="XMLID_43_">
		<path class="st2" d="M175.4,157.7c-0.7,0-1.4-0.3-1.9-0.9L153.4,132c-0.9-1.1-0.7-2.6,0.4-3.5c1.1-0.9,2.6-0.7,3.5,0.4l20.1,24.8
			c0.9,1.1,0.7,2.6-0.4,3.5C176.5,157.5,176,157.7,175.4,157.7z"/>
	</g>
	<g id="XMLID_42_">
		<path class="st2" d="M176.5,157.7c-0.6,0-1.1-0.2-1.6-0.6c-1.1-0.9-1.2-2.4-0.4-3.5l20.1-24.8c0.9-1.1,2.4-1.2,3.5-0.4
			c1.1,0.9,1.2,2.4,0.4,3.5l-20.1,24.8C177.9,157.4,177.2,157.7,176.5,157.7z"/>
	</g>
	<g id="XMLID_41_">
		<path class="st2" d="M165.9,220.6h-16.5v-38.9h16.5V220.6z M152.5,217.4h10.3v-32.7h-10.3V217.4z"/>
	</g>
	<g id="XMLID_40_">
		<path class="st2" d="M130.5,202.8c-7,0-12.8-5.7-12.8-12.8s5.7-12.8,12.8-12.8s12.8,5.7,12.8,12.8S137.5,202.8,130.5,202.8z
			 M130.5,180.4c-5.3,0-9.6,4.3-9.6,9.6s4.3,9.6,9.6,9.6c5.3,0,9.6-4.3,9.6-9.6S135.8,180.4,130.5,180.4z"/>
	</g>
	<g id="XMLID_13_">
		<path class="st2" d="M205.1,181.3H189c-1.4,0-2.5-1.1-2.5-2.5s1.1-2.5,2.5-2.5h16.1c1.4,0,2.5,1.1,2.5,2.5
			S206.5,181.3,205.1,181.3z"/>
	</g>
	<g id="XMLID_12_">
		<path class="st2" d="M205.1,192.5H189c-1.4,0-2.5-1.1-2.5-2.5s1.1-2.5,2.5-2.5h16.1c1.4,0,2.5,1.1,2.5,2.5
			S206.5,192.5,205.1,192.5z"/>
	</g>
	<g id="XMLID_8_">
		<path class="st2" d="M136,212.1h-16.7c-0.9,0-1.6-0.7-1.6-1.6s0.7-1.6,1.6-1.6H136c0.9,0,1.6,0.7,1.6,1.6S136.9,212.1,136,212.1z"
			/>
	</g>
</g>
<g id="Ground">
	<g id="XMLID_64_">
		<path class="st2" d="M509.8,639.3h-77.3c-1.4,0-2.5-1.1-2.5-2.5s1.1-2.5,2.5-2.5h77.3c1.4,0,2.5,1.1,2.5,2.5
			S511.2,639.3,509.8,639.3z"/>
	</g>
	<g id="XMLID_63_">
		<path class="st2" d="M412.2,639.3H149.3c-1.4,0-2.5-1.1-2.5-2.5s1.1-2.5,2.5-2.5h262.9c1.4,0,2.5,1.1,2.5,2.5
			S413.6,639.3,412.2,639.3z"/>
	</g>
	<g id="XMLID_62_">
		<path class="st2" d="M128.5,639.3H73.3c-1.4,0-2.5-1.1-2.5-2.5s1.1-2.5,2.5-2.5h55.2c1.4,0,2.5,1.1,2.5,2.5
			S129.9,639.3,128.5,639.3z"/>
	</g>
	<g id="XMLID_56_">
		<path class="st2" d="M140.4,639.3h-3.5c-1.4,0-2.5-1.1-2.5-2.5s1.1-2.5,2.5-2.5h3.5c1.4,0,2.5,1.1,2.5,2.5
			S141.8,639.3,140.4,639.3z"/>
	</g>
	<g id="XMLID_55_">
		<path class="st2" d="M424,639.3h-3.6c-1.4,0-2.5-1.1-2.5-2.5s1.1-2.5,2.5-2.5h3.6c1.4,0,2.5,1.1,2.5,2.5S425.4,639.3,424,639.3z"
			/>
	</g>
</g>
<g id="Head">
	<polygon id="XMLID_141_" class="st5" points="257.8,196.2 248.6,205 243.1,216.4 239.4,237 237.7,243.7 237.7,246.7 236.8,251.3 
		233.8,258.5 229.9,275.5 232.7,288.9 243.8,299.1 264.7,305.7 288.9,311.8 284.8,327.9 316.4,334.9 320.2,319.6 345.6,326 
		356.8,326.8 368.7,321.6 379.5,305.7 383.1,291.4 391.7,290.8 398.8,284.2 400.3,278.2 397.7,266.9 389.3,266.9 391.1,259.7 
		379.9,264.5 369.2,265.6 352.5,249.8 329.3,226.2 303.7,209.4 280.5,200.4 	"/>
	<polygon id="XMLID_140_" class="st23" points="241.8,221.4 232.7,209.4 234.2,196.2 246,185.2 251.4,182.5 253.5,170.7 258.8,160 
		268.4,151.6 282.7,147.8 295.4,148.7 307.4,140.7 316.5,137.4 331,138.2 342.3,142.1 352.7,154.5 364.4,154 376.8,157.7 
		383.1,162.8 388,171.9 389.5,189.3 404.4,200.4 410.3,213.3 410.3,226 403.5,242.9 411.1,253 411.1,266.9 401.7,281.4 398.5,269.8 
		390,265 391.8,256.8 379.9,264.5 369.2,265.6 352.5,249.8 331.9,227.4 308.9,212.8 282.7,201.3 257.8,196.2 251.4,202.3 	"/>
	<path id="XMLID_132_" class="st24" d="M251.4,182.5c0,0-21.2,18.5-5.6,31l-4,7.9l-9.2-12v-11.6l6.7-8.5L251.4,182.5z"/>
	<path id="XMLID_131_" class="st24" d="M252.9,174.4c0,0,13.4-25.8,39.8-19.9l4.2-5.5l-10.7-1.2l-13.3,1.9l-5.9,3.2l-4.7,3.1
		l-7.1,7.1L252.9,174.4z"/>
	<path id="XMLID_130_" class="st24" d="M291.7,161.1c0,0,22.5-33.6,59.7-8.2l-7.6-9.1l-10.7-5l-16.7-1.5l-11.5,4.6l-8.1,6.9
		L291.7,161.1z"/>
	<path id="XMLID_129_" class="st24" d="M352.7,154.5c0,0,34.6,3.4,34.6,34.8l2-11.2l-4.4-14.3l-12.4-8.4l-8.1-1.3L352.7,154.5z"/>
	<path id="XMLID_128_" class="st24" d="M389.5,189.3c0,0,23.4,19.5,14,53.7l7.6-12.6v-21l-9.3-11.5L389.5,189.3z"/>
	<path id="XMLID_127_" class="st24" d="M398.5,269.8c0,0,10.4,0,5-26.9c0,0,16.1,14.7-0.5,36.5L398.5,269.8z"/>
	<path id="XMLID_126_" class="st24" d="M292.7,178.5c0,0,34.1-4.2,49.7,8.3l-10.8-12.4l-15.1-2.8l-15.5,2.8L292.7,178.5z"/>
	<path id="XMLID_125_" class="st24" d="M342.3,186.8c0,0-2-15,19.2-11.3l-9.6-4.8l-9.7,1.9l-7,3.6L342.3,186.8z"/>
	<path id="XMLID_124_" class="st25" d="M257.8,196.2c0,0,48.9-12,94.9,41.8c0,0,16.5,27.6,39.1,15l-0.8,6.6l-13.9,5.9h-7.9l-14-12.5
		l-16.8-18.3l-15.3-13.3l-26.4-13.9L257.8,196.2z"/>
	<path id="XMLID_123_" class="st26" d="M232.7,288.9L348.4,317c0,0,23.5,4.2,32.9-18.2c0,0-4.5,28.6-24.5,28.1l-36.6-7.2l-74.4-17.8
		l-5.6-6.6L232.7,288.9z"/>
	<polygon id="XMLID_122_" class="st26" points="285.8,318.1 318.4,326.8 320.2,319.6 288.9,311.8 	"/>
	<path id="XMLID_121_" class="st26" d="M260.7,230.3c0,0,21.1-8.5,37.4-7.8C298.1,222.5,275,205.6,260.7,230.3z"/>
	<path id="XMLID_120_" class="st26" d="M243.1,223.8c0,0,11.3-19.1,20.7-17.5c0,0,46.6,2.1,88.9,46.8c0,0-28.6-50.3-94.9-56.8
		C257.8,196.2,242,206.3,243.1,223.8z"/>
	<path id="XMLID_119_" class="st26" d="M358.4,256.6c0,0,15.6,26.2,28,21.6l5.4-21.4l-8.7,6.1l-13.8,2.7L358.4,256.6z"/>
	<path id="XMLID_118_" class="st6" d="M260.7,230.3c0,0,4.1-35.9,37.4-7.8C298.1,222.5,278.3,208.4,260.7,230.3z"/>
	
		<ellipse id="XMLID_117_" transform="matrix(-0.2371 0.9715 -0.9715 -0.2371 691.7045 10.964)" class="st6" cx="341.5" cy="277.1" rx="4.3" ry="9.6"/>
	
		<ellipse id="XMLID_116_" transform="matrix(-0.2371 0.9715 -0.9715 -0.2371 593.7089 56.0752)" class="st6" cx="274.8" cy="261.2" rx="4.3" ry="9.6"/>
	<path id="XMLID_115_" class="st6" d="M301.2,271.6c0,0,2.6-10.5,11.6-21.6l-5.5,29.1L301.2,271.6z"/>
	<g id="XMLID_36_">
		<path class="st2" d="M352.5,329.2c-2.5,0-5-0.3-7.5-0.9l-93.8-23.5c-4.5-1.1-9.4-2.5-12.6-4.7l-0.1-0.1
			c-14.8-12.3-10.6-28.4-10.4-29.1l8.9-34.5l6-23.8c2.3-8.9,6.6-14.8,13.6-18.6c1.2-0.6,2.7-0.2,3.4,1c0.7,1.2,0.2,2.7-1,3.4
			c-5.8,3.1-9.3,7.9-11.2,15.4l-6,23.8l-8.9,34.5c-0.2,0.6-3.5,13.7,8.7,24c2.8,2,8.4,3.3,10.8,3.9l93.8,23.5
			c6.5,1.7,13.3,0.7,19.2-2.8c5.9-3.5,10-9.1,11.7-15.7l13.9-55.3c1.7-6.5,0.7-13.3-2.8-19.2s-9.1-10-15.7-11.7
			c-1.3-0.3-2.1-1.7-1.8-3c0.3-1.3,1.7-2.1,3-1.8c7.9,2,14.6,7,18.8,14c4.1,7,5.3,15.1,3.3,22.9l-13.9,55.3c-2,7.9-7,14.6-14,18.8
			C363.1,327.8,357.8,329.2,352.5,329.2z"/>
	</g>
	<g id="XMLID_31_">
		<path class="st2" d="M386.4,294.3c-1.4,0-2.7-0.2-4.1-0.5c-1.3-0.3-2.1-1.7-1.8-3c0.3-1.3,1.7-2.1,3-1.8c2.9,0.8,6,0.3,8.6-1.2
			c2.6-1.6,4.4-4,5.2-7c0.8-2.9,0.3-6-1.2-8.6s-4-4.4-7-5.2c-1.3-0.3-2.1-1.7-1.8-3c0.3-1.3,1.7-2.1,3-1.8c4.2,1.1,7.8,3.7,10,7.5
			c2.2,3.7,2.9,8.1,1.8,12.4c-1.1,4.2-3.7,7.8-7.5,10C392.2,293.5,389.3,294.3,386.4,294.3z"/>
	</g>
	<g id="XMLID_30_">
		<path class="st2" d="M318.2,337.8l-19.9-3.9l-16.5-4.2l4.6-18.5c0.3-1.3,1.7-2.1,3-1.8c1.3,0.3,2.1,1.7,1.8,3l-3.4,13.7l11.6,3
			l15,2.9l3.2-13c0.3-1.3,1.7-2.1,3-1.8c1.3,0.3,2.1,1.7,1.8,3L318.2,337.8z"/>
	</g>
	<g id="XMLID_29_">
		<path class="st2" d="M243,225c-0.6,0-1.2-0.2-1.6-0.6c-0.5-0.5-13.1-11.6-11-24.3c1.2-7.8,7.5-14.2,18.6-19.2
			c0.3-4.8,2.2-19,13.1-28c8.5-7,20.3-9.2,35.2-6.4c1.3,0.3,2.2,1.6,2,2.9c-0.3,1.4-1.6,2.2-2.9,2c-13.3-2.5-23.8-0.7-31.1,5.3
			c-11.2,9.3-11.4,25.7-11.4,25.9v1.7l-1.5,0.6c-10.3,4.3-16.1,9.7-17.1,16c-1.6,10.1,9.2,19.7,9.4,19.8c1,0.9,1.1,2.5,0.2,3.5
			C244.4,224.7,243.7,225,243,225z"/>
	</g>
	<g id="XMLID_28_">
		<path class="st2" d="M373,268.6c-7.6,0-13-6.3-20.6-15.3c-5.6-6.6-12.5-14.8-22.8-23.7c-33.3-28.9-71.5-30.9-71.9-30.9
			c-1.4-0.1-2.4-1.2-2.4-2.6c0.1-1.4,1.2-2.4,2.6-2.4c1.6,0.1,40.3,2,74.9,32.1c10.6,9.2,17.7,17.6,23.3,24.3
			c12.7,15,16.1,19,34.1,4.6c1.1-0.9,2.6-0.7,3.5,0.4s0.7,2.6-0.4,3.5C384.5,265.6,378.2,268.6,373,268.6z"/>
	</g>
	<g id="XMLID_27_">
		<path class="st2" d="M399.9,284c-0.7,0-1.5-0.3-2-0.9c-0.9-1.1-0.7-2.6,0.4-3.5c6.3-5,9.8-10.6,10.2-16.7
			c0.7-10-6.8-18.1-6.9-18.1l-1.3-1.4l1-1.6c6.8-11.4,8.7-21.8,5.7-30.7c-4.4-13.4-18.4-19.3-18.6-19.4l-1.7-0.7l0.1-1.8
			c0.9-12.3-1.7-21.3-7.9-26.7c-9.9-8.7-25.8-5.5-26-5.4l-1.9,0.4l-0.9-1.7c-7.9-15.4-23.9-15.6-24.1-15.6h-0.2
			c-27.1-2.2-31.9,20.3-32.1,21.2c-0.3,1.3-1.6,2.2-2.9,2c-1.3-0.3-2.2-1.6-2-2.9c0.1-0.3,5.9-27.7,37.3-25.2
			c1.7,0,18.3,0.7,27.5,16.6c5-0.7,18.7-1.6,28.4,6.9c7.1,6.2,10.3,16,9.6,29.1c4.3,2.2,15.5,8.9,19.7,21.7
			c3.3,10,1.5,21.2-5.3,33.3c2.5,3.1,7.7,10.9,7,20.5c-0.5,7.5-4.6,14.3-12.1,20.2C401,283.8,400.4,284,399.9,284z"/>
	</g>
	<g id="XMLID_26_">
		<path class="st2" d="M342.4,187.6c-0.7,0-1.4-0.3-1.9-0.9c-19.2-22.8-45.4-7.2-46.5-6.5c-1.2,0.7-2.7,0.4-3.4-0.8
			c-0.7-1.2-0.4-2.7,0.8-3.4c0.3-0.2,30.9-18.6,52.9,7.5c0.9,1.1,0.8,2.6-0.3,3.5C343.5,187.4,343,187.6,342.4,187.6z"/>
	</g>
	<g id="XMLID_25_">
		<path class="st2" d="M334.8,180.6c-0.6,0-1.2-0.2-1.6-0.6c-1-0.9-1.1-2.5-0.2-3.5c5-5.7,17.8-13.7,30.2-2.9c1,0.9,1.1,2.5,0.2,3.5
			s-2.5,1.1-3.5,0.2c-11.8-10.3-22.7,1.9-23.2,2.5C336.2,180.3,335.5,180.6,334.8,180.6z"/>
	</g>
	<g id="XMLID_18_">
		<path class="st2" d="M260.7,180c-0.1,0-0.2,0-0.2,0c-0.8-0.1-1.4-0.9-1.3-1.8c0-0.2,3.6-22.6,26-21.9c0.9,0,1.5,0.7,1.5,1.6
			c0,0.9-0.7,1.5-1.6,1.5c-19.7-0.6-22.7,18.5-22.8,19.3C262.1,179.5,261.4,180,260.7,180z"/>
	</g>
	<g id="XMLID_17_">
		<path class="st2" d="M352.7,232.7c-0.5,0-0.9-0.2-1.2-0.6c-25.5-34.1-58.6-37.6-58.9-37.6c-0.9-0.1-1.5-0.8-1.4-1.7
			s0.8-1.5,1.7-1.4c1.4,0.1,34.8,3.7,61.1,38.8c0.5,0.7,0.4,1.7-0.3,2.2C353.3,232.6,353,232.7,352.7,232.7z"/>
	</g>
	<g id="XMLID_16_">
		<path class="st2" d="M241.1,207.7c-0.7,0-1.3-0.4-1.5-1.1c-0.2-0.5-4.1-12.8,5.7-21.7c0.6-0.6,1.6-0.5,2.2,0.1
			c0.6,0.6,0.5,1.6-0.1,2.2c-8.3,7.6-5,18-4.9,18.5c0.3,0.8-0.2,1.7-1,2C241.4,207.7,241.3,207.7,241.1,207.7z"/>
	</g>
	<g id="XMLID_15_">
		<path class="st2" d="M342.4,156c-0.3,0-0.7-0.1-1-0.4c-17.3-14.2-34.9-0.6-35-0.5c-0.7,0.5-1.6,0.4-2.2-0.3
			c-0.5-0.7-0.4-1.7,0.3-2.2c0.2-0.2,19.7-15.3,39,0.5c0.7,0.5,0.8,1.5,0.2,2.2C343.3,155.8,342.8,156,342.4,156z"/>
	</g>
	<g id="XMLID_14_">
		<path class="st2" d="M401.7,231.8c-0.1,0-0.2,0-0.3,0c-0.8-0.2-1.4-1-1.2-1.8c4-21.2-10.7-27.9-11.3-28.2c-0.8-0.3-1.1-1.3-0.8-2
			c0.3-0.8,1.2-1.2,2-0.8c0.2,0.1,17.6,7.9,13.1,31.6C403.1,231.3,402.4,231.8,401.7,231.8z"/>
	</g>
	<g id="XMLID_11_">
		<path class="st2" d="M394.2,279.7c-0.8,0-1.4-0.6-1.5-1.3c-0.2-1.5-0.8-2.6-1.6-3.1c-1.3-0.8-3.2-0.2-3.2-0.2
			c-0.8,0.3-1.7-0.2-2-1s0.2-1.7,1-2c0.1,0,3.2-1.1,5.8,0.5c1.7,1,2.7,2.8,3.1,5.3c0.1,0.8-0.5,1.6-1.3,1.8
			C394.3,279.7,394.3,279.7,394.2,279.7z"/>
	</g>
	<g id="XMLID_2_">
		<path class="st2" d="M359.3,242.2c-0.5,0-1-0.2-1.3-0.7l-2.8-4.3c-0.5-0.7-0.3-1.7,0.5-2.2c0.7-0.5,1.7-0.3,2.2,0.5l2.8,4.3
			c0.5,0.7,0.3,1.7-0.5,2.2C359.9,242.2,359.6,242.2,359.3,242.2z"/>
	</g>
	<g id="XMLID_1_">
		<path class="st2" d="M384.8,199.4c-0.2,0-0.5-0.1-0.7-0.2l-4.3-2.1c-0.8-0.4-1.1-1.3-0.7-2.1s1.3-1.1,2.1-0.7l4.3,2.1
			c0.8,0.4,1.1,1.3,0.7,2.1C385.9,199.1,385.4,199.4,384.8,199.4z"/>
	</g>
</g>
<g id="Face">
	<g id="XMLID_35_">
		<path class="st2" d="M291.8,255.5c-0.2,0-0.4,0-0.6-0.1c-1.3-0.3-2.1-1.7-1.8-3c0.7-2.8,0.3-5.7-1-8c-0.7-1.1-1.9-2.6-4-3.1
			c-4-1-8.3,2.4-9.6,7.5c-0.3,1.3-1.7,2.1-3,1.8s-2.1-1.7-1.8-3c1.9-7.8,8.9-12.8,15.6-11.1c2.9,0.7,5.4,2.6,7,5.4
			c2,3.4,2.6,7.7,1.6,11.8C294,254.7,292.9,255.5,291.8,255.5z"/>
	</g>
	<g id="XMLID_34_">
		<path class="st2" d="M346.9,269.3c-0.2,0-0.4,0-0.6-0.1c-1.3-0.3-2.1-1.7-1.8-3c0.7-2.8,0.3-5.7-1-8c-0.7-1.1-1.9-2.6-4-3.1
			c-4-1-8.3,2.4-9.6,7.5c-0.3,1.3-1.7,2.1-3,1.8c-1.3-0.3-2.1-1.7-1.8-3c1.9-7.8,8.9-12.8,15.6-11.1c2.9,0.7,5.4,2.6,7,5.4
			c2,3.4,2.6,7.7,1.6,11.8C349.1,268.5,348,269.3,346.9,269.3z"/>
	</g>
	<g id="XMLID_33_">
		<path class="st2" d="M309.4,281.9c-0.9,0-1.9-0.1-2.8-0.3c-2.9-0.7-5.4-2.5-6.8-4.8c-1.1-1.9-1.5-4-1-5.9c0.3-1.3,1.7-2.1,3-1.8
			c1.3,0.3,2.1,1.7,1.8,3c-0.2,0.8,0.1,1.6,0.4,2.1c0.7,1.2,2.1,2.2,3.8,2.6c2.7,0.7,5.4-0.4,5.9-2.2c0.3-1.3,1.7-2.1,3-1.8
			c1.3,0.3,2.1,1.7,1.8,3C317.5,279.5,313.7,281.9,309.4,281.9z"/>
	</g>
	<g id="XMLID_32_">
		<path class="st2" d="M312.3,301.3c-25.4,0-39-21.4-39.2-21.7c-0.7-1.2-0.4-2.7,0.8-3.4c1.2-0.7,2.7-0.4,3.4,0.8l0,0
			c0.8,1.3,20,31.3,56.4,14.1c1.2-0.6,2.7-0.1,3.3,1.2c0.6,1.2,0.1,2.7-1.2,3.3C327.1,299.7,319.3,301.3,312.3,301.3z"/>
	</g>
	<g id="XMLID_19_">
		<path class="st2" d="M260.3,232.9c-0.4,0-0.8-0.1-1.2-0.3c-1.2-0.7-1.6-2.2-1-3.4c0.2-0.4,6.2-10.9,17.7-13.8
			c7.4-1.8,15.2-0.1,23.3,5.1c1.2,0.7,1.5,2.3,0.7,3.4c-0.7,1.2-2.3,1.5-3.4,0.7c-6.9-4.4-13.4-5.9-19.3-4.4
			c-9.4,2.3-14.5,11.3-14.5,11.4C262,232.4,261.2,232.9,260.3,232.9z"/>
	</g>
</g>
<g id="Right_Arm">
	<path id="XMLID_151_" class="st27" d="M207.8,274c0,0,6,63.7,58,91.4l22.7,9.9l24.5,4l17.5-2.6l10.2-5.5l6.3-11.6l-2.6-13.2
		l-10.8-7.2l-20.3-6.3L272,322.6l-20.5-13.1l-15.6-21.8l-5.6-13.7H207.8L207.8,274z"/>
	<polygon id="XMLID_143_" class="st5" points="229.7,236.7 214.9,244.5 209.8,251.7 207.5,265.6 207.5,272.1 211.7,274 232,274 
		253.5,261.2 262.1,251.7 263.1,244.5 255.9,238.7 240.5,237 	"/>
	<path id="XMLID_139_" class="st4" d="M214.4,274.1c0,0,28.4,112.9,132.6,88.4l-6.3,8.6l-13.9,7.5l-26.4-0.6l-25.6-6.9l-17.8-11
		l-13.3-10.9l-16.3-20.7l-10.3-19.7l-5.4-21.6l-3.9-13.2L214.4,274.1z"/>
	<path id="XMLID_114_" class="st6" d="M207.5,272.1c0,0,6.1-39.2,55.6-27.5c0,0-16.1-17.6-45.9-2.2
		C217.1,242.4,203.9,253.6,207.5,272.1z"/>
	<path id="XMLID_111_" class="st28" d="M230.3,274c0,0-2.9,54.8,72,62.5c0,0,37.2,4.7,42.6,12.8l-5.5-8.1l-8-4.7l-18.2-3.7
		l-25.7-5.3l-23.6-8.8l-12.5-9.4l-12-15.5L230.3,274z"/>
	<polygon id="XMLID_110_" class="st7" points="207.8,274 209.8,285.3 233.4,284.2 230.3,274 	"/>
	<g id="XMLID_52_">
		<path class="st2" d="M315.2,382.1c-2.2,0-4.4-0.1-6.7-0.3c-10.1-1-36-5.4-60-25.2c-23.4-19.3-37.9-46.9-43.1-82.2l-0.4-2.9h27.3
			l0.5,1.9c0.1,0.2,5.6,22,26.6,39.3c10.7,8.8,30.6,13.2,48.1,17c18.3,4,34.2,7.5,39,15.4c4.4,7.1,4.3,16-0.1,23.1
			C340.7,377.2,329.6,382.1,315.2,382.1z M210.8,276.5c14.4,87.7,84.2,99,98.2,100.3c15.6,1.5,27.7-2.5,33.1-11.2
			c3.5-5.6,3.6-12.3,0.1-17.9c-3.7-6.1-19.3-9.5-35.8-13.1c-18.1-4-38.6-8.5-50.3-18c-18.8-15.6-25.8-34.1-27.7-40L210.8,276.5
			L210.8,276.5z"/>
	</g>
	<g id="XMLID_45_">
		<path class="st2" d="M230,276.3c-0.9,0-1.8-0.6-2.2-1.5c-0.5-1.2,0.1-2.5,1.3-3c8.4-3.2,30.5-13.9,31.9-24.2
			c0.2-1.6-0.2-2.9-1.3-4.1c-4.9-5.1-20.9-4.8-26.6-4.2c-1,0.1-21.9,1.5-23.1,21.1l-0.3,11.7c0,1.3-1.1,2.3-2.4,2.3
			c-1.3,0-2.3-1.1-2.3-2.4l0.3-11.8c1.5-23.9,27.1-25.5,27.4-25.6c2.2-0.2,23-2,30.3,5.6c2.1,2.1,2.9,4.9,2.5,7.9
			c-2,14.9-31.5,26.7-34.9,28C230.6,276.3,230.3,276.3,230,276.3z"/>
	</g>
	<g id="XMLID_7_">
		<path class="st2" d="M234.7,286.9h-24.4c-0.9,0-1.6-0.7-1.6-1.6s0.7-1.6,1.6-1.6h24.4c0.9,0,1.6,0.7,1.6,1.6
			S235.6,286.9,234.7,286.9z"/>
	</g>
</g>
</svg>
