<svg width="159" height="159" viewBox="0 0 159 159" fill="none" xmlns="http://www.w3.org/2000/svg">
<circle cx="79.8117" cy="79.1599" r="79.0636" fill="#2B2B3F"/>
<path fill-rule="evenodd" clip-rule="evenodd" d="M50.9452 69.9222C51.4274 69.4479 52 69.0717 52.6302 68.815C53.2604 68.5582 53.936 68.4261 54.6183 68.4261C55.3005 68.4261 55.9761 68.5582 56.6063 68.815C57.2366 69.0717 57.8092 69.4479 58.2913 69.9222L69.3027 80.7422L101.382 49.2211C101.863 48.7557 102.434 48.3883 103.06 48.1397C103.687 47.8912 104.357 47.7664 105.032 47.7726C105.708 47.7787 106.375 47.9157 106.997 48.1756C107.619 48.4355 108.182 48.8133 108.655 49.2874L119.672 60.1124C120.644 61.0507 121.197 62.3296 121.211 63.6686C121.225 65.0075 120.697 66.2971 119.744 67.2543L72.9057 113.273C72.4235 113.738 71.8529 114.105 71.2263 114.354C70.5997 114.602 69.9294 114.726 69.2539 114.719C68.5783 114.713 67.9108 114.575 67.2893 114.315C66.6679 114.054 66.1048 113.676 65.6322 113.202L39.9338 87.9503C39.4515 87.4774 39.0688 86.9157 38.8076 86.2972C38.5465 85.6788 38.4121 85.0158 38.4121 84.3463C38.4121 83.6767 38.5465 83.0137 38.8076 82.3953C39.0688 81.7768 39.4515 81.2151 39.9338 80.7422L50.9452 69.9222Z" fill="#FBECCC"/>
</svg>
