<svg width="24" height="23" viewBox="0 0 24 23" fill="none" xmlns="http://www.w3.org/2000/svg">
<path fill-rule="evenodd" clip-rule="evenodd" d="M3.04987 4.60001C2.84654 4.60001 2.65153 4.68078 2.50775 4.82456C2.36398 4.96834 2.2832 5.16334 2.2832 5.36667C2.2832 5.57001 2.36398 5.76501 2.50775 5.90879C2.65153 6.05257 2.84654 6.13334 3.04987 6.13334H21.4499C21.6532 6.13334 21.8482 6.05257 21.992 5.90879C22.1358 5.76501 22.2165 5.57001 22.2165 5.36667C22.2165 5.16334 22.1358 4.96834 21.992 4.82456C21.8482 4.68078 21.6532 4.60001 21.4499 4.60001H3.04987ZM2.2832 11.5C2.2832 11.2967 2.36398 11.1017 2.50775 10.9579C2.65153 10.8141 2.84654 10.7333 3.04987 10.7333H21.4499C21.6532 10.7333 21.8482 10.8141 21.992 10.9579C22.1358 11.1017 22.2165 11.2967 22.2165 11.5C22.2165 11.7033 22.1358 11.8983 21.992 12.0421C21.8482 12.1859 21.6532 12.2667 21.4499 12.2667H3.04987C2.84654 12.2667 2.65153 12.1859 2.50775 12.0421C2.36398 11.8983 2.2832 11.7033 2.2832 11.5ZM2.2832 17.6333C2.2832 17.43 2.36398 17.235 2.50775 17.0912C2.65153 16.9474 2.84654 16.8667 3.04987 16.8667H21.4499C21.6532 16.8667 21.8482 16.9474 21.992 17.0912C22.1358 17.235 22.2165 17.43 22.2165 17.6333C22.2165 17.8367 22.1358 18.0317 21.992 18.1755C21.8482 18.3192 21.6532 18.4 21.4499 18.4H3.04987C2.84654 18.4 2.65153 18.3192 2.50775 18.1755C2.36398 18.0317 2.2832 17.8367 2.2832 17.6333Z" fill="#2B2B3F"/>
</svg>
