<?xml version="1.0" encoding="utf-8"?>
<!-- Generator: Adobe Illustrator 19.0.0, SVG Export Plug-In . SVG Version: 6.00 Build 0)  -->
<svg version="1.1" id="Layer_1" xmlns="http://www.w3.org/2000/svg" xmlns:xlink="http://www.w3.org/1999/xlink" x="0px" y="0px"
	 viewBox="0 0 612 792" style="enable-background:new 0 0 612 792;" xml:space="preserve">
<style type="text/css">
	.st0{fill:#F5F7F7;}
	.st1{fill:#E2E2E2;}
	.st2{fill:#C4E0EC;}
	.st3{fill:#FFFFFF;}
	.st4{fill:#FFD46C;}
	.st5{fill:#E1B248;}
	.st6{fill:#FFE09D;}
	.st7{fill:none;stroke:#11426E;stroke-width:6.0249;stroke-linecap:round;stroke-miterlimit:10;}
	.st8{fill:#11426E;}
	.st9{fill:#E29E62;}
	.st10{fill:#C98855;}
	.st11{fill:#FBB47E;}
	.st12{fill:#C07D52;}
	.st13{fill:#12426D;}
	.st14{fill:#78A567;}
	.st15{fill:#6E945F;}
	.st16{fill:#92BA81;}
	.st17{fill:#FBD8AE;}
	.st18{fill:#91C67D;}
	.st19{fill:#C3E1B2;}
	.st20{fill:#74A1D1;}
	.st21{fill:#527B9B;}
	.st22{fill:#93BDE5;}
	.st23{fill:#3C586A;}
	.st24{fill:#334E5C;}
	.st25{fill:#FBBA99;}
	.st26{fill:#FFEBD8;}
	.st27{fill:#FDCFAF;}
	.st28{fill:#BB7C51;}
</style>
<g id="Coin_3">
	<path id="XMLID_201_" class="st0" d="M518.5,611.8h-6.9l-4.5,5.5l0.9,8.8c0,0,2.4,5.6,4.7,7.2c2.3,1.6,11.2,0,11.2,0l4.2-7.2
		l-0.3-5.2l-2.4-5.7L518.5,611.8z"/>
	<path id="XMLID_200_" class="st1" d="M518.5,611.8c0,0-15.3,10.3,2,22.2l-5.3,0.9l-6.1-3.6l-1.2-7l-0.7-6.9l4.5-5.5H518.5z"/>
	<g id="XMLID_212_">
		<g id="XMLID_239_">
			<path id="XMLID_246_" class="st2" d="M521.5,634.3c-2,0-4-0.9-5.8-2.6c-2-1.9-3.4-4.7-4-7.8c-1.3-6.6,1.7-12.7,6.5-13.6
				c4.9-0.9,9.9,3.7,11.1,10.2c1.3,6.6-1.7,12.7-6.5,13.6C522.4,634.3,521.9,634.3,521.5,634.3z M519.5,613.1c-0.2,0-0.5,0-0.7,0.1
				c-3.3,0.6-5.2,5.3-4.3,10.2c0.5,2.5,1.6,4.7,3.2,6.2c1.4,1.4,3.1,2,4.6,1.7c3.3-0.6,5.2-5.3,4.3-10.2
				C525.7,616.6,522.6,613.1,519.5,613.1z"/>
		</g>
		<g id="XMLID_219_">
			<path id="XMLID_181_" class="st2" d="M515.8,634.3c-2,0-4-0.9-5.8-2.6c-2-1.9-3.4-4.7-4-7.8c-1.3-6.6,1.7-12.7,6.5-13.6l0.3,0
				h5.7c0.8,0,1.4,0.6,1.4,1.4s-0.6,1.4-1.4,1.4H513c-3.2,0.7-5.1,5.4-4.1,10.2c0.5,2.5,1.6,4.7,3.2,6.2c1.4,1.4,3.1,2,4.6,1.7
				l0.3,0h5.7c0.8,0,1.4,0.6,1.4,1.4c0,0.8-0.6,1.4-1.4,1.4H517C516.6,634.3,516.2,634.3,515.8,634.3z"/>
		</g>
	</g>
</g>
<g id="Safe">
	<polygon id="XMLID_207_" class="st0" points="517.9,507.6 517.9,597.6 513.8,606.9 504.8,614.7 494.4,617.1 374.9,617.1 
		361.3,609.1 355.9,600.8 355.9,509.2 359.5,499.4 364.7,493.9 376.5,488.2 386,489 499.9,489 511.4,496.4 	"/>
	<path id="XMLID_206_" class="st1" d="M476.2,528.7l-3.5,3.9l-4-3.9l-5.9-1.9l-3.3,2.9V572l4.9,3.9l5.1-3.9l1-14.3l5.8,1.3l5.6-1.9
		l4.2-8.3l5-8.1C490.9,540.7,492.9,527.7,476.2,528.7z"/>
	<polygon id="XMLID_205_" class="st1" points="455.2,618.5 455.2,633.2 496,633.2 496,617.1 	"/>
	<polygon id="XMLID_204_" class="st1" points="374.6,618.5 374.6,633.2 415.4,633.2 415.4,617.1 	"/>
	<polygon id="XMLID_203_" class="st0" points="455.2,618.5 482.7,624.2 496,633.2 494.4,617.1 	"/>
	<polygon id="XMLID_202_" class="st0" points="374.6,618.5 402.1,624.2 415.4,633.2 413.8,617.1 	"/>
	<path id="XMLID_199_" class="st3" d="M415.4,604.8c0,0,93.6-3.9,90.8-69.5l0.9,43.5l-4.5,20.6l-9.6,6.5l-43.5,0.8L415.4,604.8z"/>
	<path id="XMLID_198_" class="st3" d="M464.3,489c0,0,19.5,0.6,23.6,10.4l8.1,2.1l9.4,9.8V539c0,0,0.4-15.9,12.6-20.7l0.6-13.2
		l-10.4-11.5l-6.4-3.3L464.3,489z"/>
	<circle id="XMLID_197_" class="st3" cx="480.7" cy="539" r="4.4"/>
	<polygon id="XMLID_196_" class="st3" points="462.7,526.8 462.7,574.1 459,571.1 459,527.8 	"/>
	<g id="XMLID_210_">
		<g id="XMLID_274_">
			<path id="XMLID_275_" class="st2" d="M494.4,619.4H379c-14.2,0-25.8-11.6-25.8-25.8v-81.1c0-14.2,11.6-25.8,25.8-25.8h115.4
				c14.2,0,25.8,11.6,25.8,25.8v81.1C520.1,607.8,508.6,619.4,494.4,619.4z M379,491.3c-11.7,0-21.2,9.5-21.2,21.2v81.1
				c0,11.7,9.5,21.2,21.2,21.2h115.4c11.7,0,21.2-9.5,21.2-21.2v-81.1c0-11.7-9.5-21.2-21.2-21.2H379z"/>
		</g>
		<g id="XMLID_270_">
			<path id="XMLID_271_" class="st2" d="M487.1,609H386.3c-12.3,0-22.3-10-22.3-22.3v-67.2c0-12.3,10-22.3,22.3-22.3h100.8
				c12.3,0,22.3,10,22.3,22.3v67.2C509.4,599,499.4,609,487.1,609z M386.3,501.7c-9.8,0-17.8,8-17.8,17.8v67.2
				c0,9.8,8,17.8,17.8,17.8h100.8c9.8,0,17.8-8,17.8-17.8v-67.2c0-9.8-8-17.8-17.8-17.8H386.3z"/>
		</g>
		<g id="XMLID_266_">
			<path id="XMLID_267_" class="st2" d="M480.7,551.5c-6.9,0-12.6-5.6-12.6-12.6c0-6.9,5.6-12.6,12.6-12.6c6.9,0,12.6,5.6,12.6,12.6
				C493.2,545.9,487.6,551.5,480.7,551.5z M480.7,531c-4.4,0-8,3.6-8,8c0,4.4,3.6,8,8,8c4.4,0,8-3.6,8-8
				C488.7,534.6,485.1,531,480.7,531z"/>
		</g>
		<g id="XMLID_261_">
			<g id="XMLID_262_">
				<path id="XMLID_263_" class="st2" d="M464.3,578c-4.2,0-7.6-3.4-7.6-7.6v-38.5c0-4.2,3.4-7.6,7.6-7.6s7.6,3.4,7.6,7.6v38.5
					C472,574.5,468.5,578,464.3,578z M464.3,528.8c-1.7,0-3.1,1.4-3.1,3.1v38.5c0,1.7,1.4,3.1,3.1,3.1s3.1-1.4,3.1-3.1v-38.5
					C467.4,530.1,466,528.8,464.3,528.8z"/>
			</g>
		</g>
		<g id="XMLID_258_">
			<path id="XMLID_109_" class="st2" d="M476.2,561.3c-3.6,0-6.7-1.5-6.8-1.6c-1.1-0.6-1.6-1.9-1-3c0.6-1.1,1.9-1.6,3-1l0,0
				c0,0,4.6,2.2,8,0.4c2.2-1.2,3.6-4,4.1-8.4c0.1-1.2,1.3-2.1,2.5-2c1.2,0.1,2.1,1.3,2,2.5c-0.7,5.9-2.9,9.9-6.5,11.8
				C479.7,561,477.9,561.3,476.2,561.3z"/>
		</g>
		<g id="XMLID_249_">
			<g id="XMLID_256_">
				<path id="XMLID_108_" class="st2" d="M455.2,637.1c-1.3,0-2.3-1-2.3-2.3v-17.5c0-1.3,1-2.3,2.3-2.3c1.3,0,2.3,1,2.3,2.3v17.5
					C457.5,636.1,456.5,637.1,455.2,637.1z"/>
			</g>
			<g id="XMLID_251_">
				<path id="XMLID_107_" class="st2" d="M496,637.1c-1.3,0-2.3-1-2.3-2.3v-17.5c0-1.3,1-2.3,2.3-2.3c1.3,0,2.3,1,2.3,2.3v17.5
					C498.3,636.1,497.2,637.1,496,637.1z"/>
			</g>
		</g>
		<g id="XMLID_232_">
			<g id="XMLID_244_">
				<path id="XMLID_106_" class="st2" d="M374.9,637.1c-1.3,0-2.3-1-2.3-2.3v-17.5c0-1.3,1-2.3,2.3-2.3s2.3,1,2.3,2.3v17.5
					C377.1,636.1,376.1,637.1,374.9,637.1z"/>
			</g>
			<g id="XMLID_235_">
				<path id="XMLID_105_" class="st2" d="M415.6,637.1c-1.3,0-2.3-1-2.3-2.3v-17.5c0-1.3,1-2.3,2.3-2.3c1.3,0,2.3,1,2.3,2.3v17.5
					C417.9,636.1,416.9,637.1,415.6,637.1z"/>
			</g>
		</g>
		<g id="XMLID_221_">
			<path id="XMLID_104_" class="st2" d="M469.7,601.3h-35.4c-0.8,0-1.4-0.6-1.4-1.4s0.6-1.4,1.4-1.4h35.4c0.8,0,1.4,0.6,1.4,1.4
				S470.5,601.3,469.7,601.3z"/>
		</g>
		<g id="XMLID_214_">
			<path id="XMLID_103_" class="st2" d="M483.8,601.3h-7.7c-0.8,0-1.4-0.6-1.4-1.4s0.6-1.4,1.4-1.4h7.7c0.8,0,1.4,0.6,1.4,1.4
				S484.6,601.3,483.8,601.3z"/>
		</g>
		<g id="XMLID_211_">
			<path id="XMLID_102_" class="st2" d="M480.7,506.5h-57.3c-0.8,0-1.4-0.6-1.4-1.4c0-0.8,0.6-1.4,1.4-1.4h57.3
				c0.8,0,1.4,0.6,1.4,1.4C482.1,505.9,481.5,506.5,480.7,506.5z"/>
		</g>
	</g>
</g>
<g id="Coins_2">
	<rect id="XMLID_188_" x="136.5" y="571.1" class="st0" width="24.7" height="62.9"/>
	<polygon id="XMLID_187_" class="st1" points="153.5,571.1 153.5,635.4 162.3,635.4 162.3,571 	"/>
	<rect id="XMLID_186_" x="136.5" y="571" class="st3" width="6" height="63.9"/>
	<g id="XMLID_2_">
		<g id="XMLID_3_">
			<path id="XMLID_4_" class="st2" d="M163.5,637.1h-29.2v-68.3h29.2V637.1z M138.8,632.5H159v-59.2h-20.2V632.5z"/>
		</g>
		<g id="XMLID_5_">
			<g id="XMLID_6_">
				<g id="XMLID_7_">
					<path id="XMLID_99_" class="st2" d="M161.2,585.8h-24.7c-1.3,0-2.3-1-2.3-2.3c0-1.3,1-2.3,2.3-2.3h24.7c1.3,0,2.3,1,2.3,2.3
						C163.5,584.7,162.5,585.8,161.2,585.8z"/>
				</g>
				<g id="XMLID_8_">
					<path id="XMLID_98_" class="st2" d="M161.2,596.1h-24.7c-1.3,0-2.3-1-2.3-2.3s1-2.3,2.3-2.3h24.7c1.3,0,2.3,1,2.3,2.3
						S162.5,596.1,161.2,596.1z"/>
				</g>
			</g>
			<g id="XMLID_9_">
				<g id="XMLID_10_">
					<path id="XMLID_97_" class="st2" d="M161.2,607.1h-24.7c-1.3,0-2.3-1-2.3-2.3s1-2.3,2.3-2.3h24.7c1.3,0,2.3,1,2.3,2.3
						S162.5,607.1,161.2,607.1z"/>
				</g>
				<g id="XMLID_11_">
					<path id="XMLID_96_" class="st2" d="M161.2,617.5h-24.7c-1.3,0-2.3-1-2.3-2.3c0-1.3,1-2.3,2.3-2.3h24.7c1.3,0,2.3,1,2.3,2.3
						C163.5,616.5,162.5,617.5,161.2,617.5z"/>
				</g>
			</g>
		</g>
	</g>
</g>
<g id="Coins">
	<polygon id="XMLID_195_" class="st0" points="254.7,581.7 254.7,634.8 279.4,634.8 306.3,634.8 306.3,608.3 280.5,608.3 
		280.5,581.7 	"/>
	<rect id="XMLID_194_" x="254.7" y="582.1" class="st1" width="7.9" height="51.9"/>
	<polygon id="XMLID_193_" class="st1" points="288.8,606.7 288.8,633.9 280.5,633.9 280.5,608 	"/>
	<polygon id="XMLID_192_" class="st3" points="271.3,581.6 271.3,634.5 280.5,634.5 280.5,581.7 	"/>
	<polygon id="XMLID_191_" class="st3" points="297.5,608 297.5,635.4 306.3,635.4 306.3,609.5 	"/>
	<g id="XMLID_12_">
		<g id="XMLID_13_">
			<path id="XMLID_14_" class="st2" d="M281.6,637.1h-29.2v-57.7h29.2V637.1z M256.9,632.5h20.2V584h-20.2V632.5z"/>
		</g>
		<g id="XMLID_15_">
			<path id="XMLID_16_" class="st2" d="M307.7,637.1h-29.2V606h29.2V637.1z M283,632.5h20.2v-22H283V632.5z"/>
		</g>
		<g id="XMLID_17_">
			<g id="XMLID_18_">
				<g id="XMLID_19_">
					<path id="XMLID_91_" class="st2" d="M279.4,594.7h-24.7c-1.3,0-2.3-1-2.3-2.3c0-1.3,1-2.3,2.3-2.3h24.7c1.3,0,2.3,1,2.3,2.3
						C281.6,593.7,280.6,594.7,279.4,594.7z"/>
				</g>
				<g id="XMLID_20_">
					<path id="XMLID_90_" class="st2" d="M279.4,605.1h-24.7c-1.3,0-2.3-1-2.3-2.3s1-2.3,2.3-2.3h24.7c1.3,0,2.3,1,2.3,2.3
						S280.6,605.1,279.4,605.1z"/>
				</g>
			</g>
			<g id="XMLID_21_">
				<g id="XMLID_22_">
					<path id="XMLID_89_" class="st2" d="M279.4,616.1h-24.7c-1.3,0-2.3-1-2.3-2.3s1-2.3,2.3-2.3h24.7c1.3,0,2.3,1,2.3,2.3
						S280.6,616.1,279.4,616.1z"/>
				</g>
				<g id="XMLID_23_">
					<path id="XMLID_88_" class="st2" d="M279.4,626.4h-24.7c-1.3,0-2.3-1-2.3-2.3c0-1.3,1-2.3,2.3-2.3h24.7c1.3,0,2.3,1,2.3,2.3
						C281.6,625.4,280.6,626.4,279.4,626.4z"/>
				</g>
			</g>
		</g>
		<g id="XMLID_24_">
			<path id="XMLID_87_" class="st2" d="M301.9,619.6h-20.3c-1.3,0-2.3-1-2.3-2.3s1-2.3,2.3-2.3h20.3c1.3,0,2.3,1,2.3,2.3
				S303.2,619.6,301.9,619.6z"/>
		</g>
	</g>
</g>
<g id="Coin_2">
	<polygon id="XMLID_185_" class="st0" points="128.5,612.2 119.6,612.2 114.6,615.2 112.2,620.9 113.4,629.6 117.6,632.8 
		125.3,632.8 130.1,629.6 132.7,623.7 132.7,617.3 	"/>
	<polygon id="XMLID_184_" class="st1" points="128.5,612.2 124.2,612.2 126.4,615.2 127.3,622.7 125.3,628.4 119.6,632.8 
		122.5,633.9 130.1,629.6 132.7,623.7 132.7,617.3 	"/>
	<g id="XMLID_25_">
		<g id="XMLID_26_">
			<path id="XMLID_27_" class="st2" d="M118.7,634.3c-0.4,0-0.9,0-1.3-0.1c-4.9-0.9-7.8-7-6.5-13.6c1.3-6.6,6.2-11.1,11.1-10.2
				c4.9,0.9,7.8,7,6.6,13.6v0c-0.6,3.1-2,5.9-4,7.8C122.7,633.4,120.7,634.3,118.7,634.3z M120.6,613.1c-3,0-6.1,3.5-7,8
				c-0.9,4.9,1,9.6,4.3,10.2c1.5,0.3,3.1-0.3,4.6-1.7c1.6-1.5,2.7-3.7,3.2-6.2l0,0c0.9-4.9-1-9.6-4.3-10.3
				C121.1,613.1,120.9,613.1,120.6,613.1z"/>
		</g>
		<g id="XMLID_28_">
			<path id="XMLID_84_" class="st2" d="M124.3,634.3c-0.4,0-0.8,0-1.2-0.1h-5.5c-0.8,0-1.4-0.6-1.4-1.4c0-0.8,0.6-1.4,1.4-1.4l5.9,0
				c1.5,0.3,3.1-0.3,4.6-1.7c1.6-1.5,2.7-3.7,3.2-6.2c0.9-4.9-1-9.5-4.1-10.2h-5.5c-0.8,0-1.4-0.6-1.4-1.4s0.6-1.4,1.4-1.4l5.9,0
				c4.9,0.9,7.8,7,6.5,13.6c-0.6,3.1-2,5.9-4,7.8C128.4,633.4,126.4,634.3,124.3,634.3z"/>
		</g>
	</g>
</g>
<g id="Coin">
	<polygon id="XMLID_190_" class="st0" points="242.8,611.3 236.9,613.8 232.6,617.3 231.7,624.2 234,629.9 240,632.4 245.1,632.9 
		251.2,628.5 254.7,621.7 252.4,615.2 246.1,612.2 	"/>
	<path id="XMLID_189_" class="st1" d="M247.6,613.8l4.8,1.4l1.7,4.9l-1,5.1l-4.3,5.8l-3.7,2H241l-2.5-2
		C238.5,630.9,250.7,625.4,247.6,613.8z"/>
	<g id="XMLID_29_">
		<g id="XMLID_30_">
			<path id="XMLID_31_" class="st2" d="M237.7,632.7c-1.4,0-2.6-0.3-3.8-1c-4.2-2.6-4.8-9.3-1.3-15c3.5-5.7,9.8-8.2,14-5.6
				c2.1,1.3,3.4,3.7,3.6,6.6c0.2,2.8-0.6,5.8-2.3,8.4c-1.6,2.7-4,4.8-6.5,5.9C240.2,632.4,238.9,632.7,237.7,632.7z M242.9,612.8
				c-2.6,0-5.8,2-7.8,5.3c-2.6,4.3-2.5,9.4,0.4,11.1c1.3,0.8,3,0.8,4.9,0c2-0.9,3.8-2.5,5.2-4.7v0c1.3-2.2,2-4.6,1.9-6.8
				c-0.1-2-0.9-3.5-2.2-4.3C244.4,613,243.7,612.8,242.9,612.8z"/>
		</g>
		<g id="XMLID_32_">
			<path id="XMLID_81_" class="st2" d="M242.9,634.6c-1.3,0-2.5-0.3-3.6-0.9l-5.2-2c-0.7-0.3-1.1-1.1-0.8-1.9
				c0.3-0.7,1.1-1.1,1.9-0.8l5.5,2.1c2.8,1.7,7.4-0.4,10.1-4.7c2.6-4.2,2.5-9.2-0.3-11l-5.2-2c-0.7-0.3-1.1-1.1-0.8-1.9
				c0.3-0.7,1.1-1.1,1.9-0.8l5.5,2.1c4.2,2.6,4.8,9.3,1.3,15C250.7,632.2,246.6,634.6,242.9,634.6z"/>
		</g>
	</g>
</g>
<g id="Hair_3_">
	<g id="XMLID_215_">
		<polygon id="XMLID_216_" class="st4" points="194.3,339.1 213.6,301.5 226.9,280.2 230.4,255.8 226.6,235.6 225.1,221.8 
			228.8,205.6 238,190.3 254.4,182.4 278.9,183 316.1,198.5 327.1,192.2 343.3,186.3 381.5,185.6 406.6,197 425.5,216.1 436.2,244 
			445.8,269.2 445.5,286.9 446.9,302.5 444.5,330.2 436.5,357.3 424.8,413.9 425.6,437.9 435.2,453.2 414.9,462 401.2,458.4 
			389.9,453.7 379.1,457.6 368.3,460.4 357.9,463.6 337.7,463.2 312,456.9 292.6,434.3 257.7,440.6 228.2,438 206.8,427.4 
			191.9,409.1 185.9,378.6 		"/>
	</g>
	<g id="XMLID_175_">
		<path id="XMLID_213_" class="st5" d="M374.9,461.6l-25.3,3.9l-37.6-8.6l-9-9.4l-10.5-13.2l-19.1,4.5l-15.8,1.8l-26.2,0.5
			l-24.7-13.7l-10.6-17.5c3.2-77.7,46.9-98.5,46.9-98.5l11.3,8.3l87.4,20.8l29.9,5.7l13.1-8c-31.7,102.4,5.2,115.5,5.2,115.5
			L374.9,461.6z"/>
	</g>
	<g id="XMLID_173_">
		<path id="XMLID_174_" class="st5" d="M310.9,218.3c0,0,28,49.1,77.2,32.7c0,0,9.7,33.8,36.2,36.4L404,288l-13.3-8.2l-10.9-14.5
			l-23.8-1.4l-24.2-11.2l-9.3-9.7L311,222.9L310.9,218.3z"/>
	</g>
	<g id="XMLID_171_">
		<path id="XMLID_172_" class="st5" d="M242.3,237.4c0,0,51.8-3.7,71.3-29.2C313.6,208.2,298.7,255.3,242.3,237.4z"/>
	</g>
	<g id="XMLID_169_">
		<path id="XMLID_170_" class="st6" d="M230.7,301c19.8-25.2-1.9-63.2-1.9-63.2l-0.1,25.4l-1.7,16.9l-11.6,18.5l-15,19.6l-11.7,40
			l2.3,46.1C191,404.4,198.9,341.5,230.7,301z"/>
	</g>
	<g id="XMLID_167_">
		<path id="XMLID_168_" class="st6" d="M316.7,201.1c0,0,46.8-26,91.3,26.3s4.3,150.1,4.3,150.1s-30,97.8,22.9,75.7l-9.7-18.9
			l6.7-56.5l14.2-80.1L436.2,244l-10.7-27.9l-25.7-23.5l-23.7-7l-22.7-0.3l-26.3,6.9L316.7,201.1z"/>
	</g>
	<g id="XMLID_165_">
		<path id="XMLID_166_" class="st6" d="M228.8,240c0,0-5.8-57.9,87.9-38.8l-8.9-6.9l-29-11.1l-17.8-1.7l-11.7,2.6l-11.4,6.4
			l-6.2,9.7l-3.9,10l-2.7,11.8L228.8,240z"/>
	</g>
	<g id="XMLID_163_">
		<path id="XMLID_164_" class="st7" d="M214.8,342.2"/>
	</g>
	<g id="XMLID_159_">
		<path id="XMLID_160_" class="st8" d="M208.6,432.5c-15.8-10.7-24.5-28.8-25.7-53.7l0-0.3c1.9-36.6,19.3-65.5,29.6-82.8
			c2.4-4,4.4-7.4,5.8-10.1c6.8-13.4,5.7-46.4,5.7-48.2c-0.2-2.7-3.4-41.8,16.7-52.8c19.8-10.9,39.6-8.2,75.2,10.5
			c4.6-2.7,19.3-10.5,38.1-13.1c20.8-2.9,50.5,0.4,73.9,32.3l0.1,0.1c0.4,0.6,9.7,14.7,15.7,39.6c5.6,22.9,9.4,59.5-4.3,104.1
			c-24.7,80.3-3.1,92.2-3,92.3l4.6,2l-3.9,3.1c-0.2,0.2-17.6,13.9-35.7,8.6c-4.1-1.2-8.2-3.4-12.2-6.9c-5.1,2.1-20.1,7.5-37.6,8.7
			c-27.7,1.9-48.5-7.8-60.5-28c-8.7,2.6-38.8,10.4-65.3,2.6C219.8,438.7,214,436.2,208.6,432.5z M295.2,432.9
			c10.6,19.8,29.4,28.9,55.8,27.1c20.2-1.4,37.5-8.9,37.6-9l1.9-0.8l1.5,1.5c14.1,14.1,31.2,5.8,38.2,1.5c-2.4-2.6-5.3-7.2-7.1-15.2
			c-4-18.2-0.5-45.6,10.5-81.4c25.1-81.6-9.4-136.7-10.6-138.6c-17.3-23.6-40.2-33.7-67.9-29.9c-21.1,2.9-37.2,13-37.4,13.1
			l-1.5,0.9l-1.5-0.8c-34.9-18.5-52.8-21.3-71-11.3c-16.9,9.3-13.7,46.7-13.6,47.1l0,0.2c0.1,1.5,1.4,36.1-6.3,51.2
			c-1.5,2.9-3.6,6.4-6,10.5c-10.1,16.8-26.9,44.9-28.8,79.9c1.2,22.8,8.9,39.3,23.1,48.9c29.9,20.4,79.1,4.1,79.6,3.9l2.4-0.8
			L295.2,432.9z"/>
	</g>
	<g id="XMLID_157_">
		<path id="XMLID_158_" class="st8" d="M350.6,254c1,0.3,2.1-0.2,2.4-1.2c0.4-1-0.2-2.2-1.2-2.5c-17.8-6.3-28.1-29.5-28.2-29.8
			c-0.4-1-1.6-1.5-2.6-1c-1,0.4-1.5,1.6-1,2.6c0.4,1,11.1,25.1,30.6,31.9C350.5,254,350.6,254,350.6,254z"/>
	</g>
	<g id="XMLID_155_">
		<path id="XMLID_156_" class="st8" d="M360.1,256.6c2.5,0.7,9.1,2.1,16.1-0.9c1-0.4,1.5-1.6,1-2.6c-0.4-1-1.6-1.5-2.6-1
			c-7.2,3.1-14.1,0.5-14.2,0.5c-1-0.4-2.2,0.1-2.6,1.1c-0.4,1,0.1,2.2,1.1,2.6C359.1,256.3,359.5,256.4,360.1,256.6z"/>
	</g>
	<g id="XMLID_153_">
		<path id="XMLID_154_" class="st8" d="M235.3,217.6c0.9,0.3,1.9-0.1,2.3-1l0,0c0.5-0.9,13.1-23.1,52.6-13.4
			c1.1,0.3,2.1-0.4,2.4-1.5c0.3-1.1-0.4-2.1-1.5-2.4c-42.6-10.4-56.5,14.4-57,15.4c-0.5,1-0.2,2.2,0.8,2.7
			C235,217.5,235.2,217.6,235.3,217.6z"/>
	</g>
	<g id="XMLID_150_">
		<path id="XMLID_151_" class="st8" d="M422.9,242.2c0.4,0.1,0.7,0.1,1.1,0c1.1-0.3,1.7-1.4,1.4-2.5c-0.1-0.4-11.1-37-46.1-42
			c-1.1-0.2-2.1,0.6-2.3,1.7c-0.2,1.1,0.6,2.1,1.7,2.3c32.5,4.7,42.8,38.9,42.9,39.2C421.7,241.5,422.3,242,422.9,242.2z"/>
	</g>
	<g id="XMLID_148_">
		<path id="XMLID_149_" class="st8" d="M431.1,264c0.4,0.1,0.8,0.1,1.2,0c1-0.3,1.6-1.4,1.3-2.5l-4-12.9c-0.3-1-1.4-1.6-2.5-1.3
			c-1,0.3-1.6,1.4-1.3,2.5l4,12.9C430,263.3,430.5,263.8,431.1,264z"/>
	</g>
	<g id="XMLID_146_">
		<path id="XMLID_147_" class="st8" d="M399.7,442.1c0.7,0.2,1.4,0,2-0.5c0.8-0.8,0.8-2,0-2.8c-0.3-0.3-18.8-20.9,8.6-80.4
			c0.5-1,0-2.2-1-2.6c-1-0.5-2.2,0-2.6,1c-28.7,62.4-8.7,83.9-7.8,84.8C399.1,441.8,399.4,442,399.7,442.1z"/>
	</g>
</g>
<g id="Key">
	<path id="XMLID_259_" class="st9" d="M109,306.2c-29-1.4-53.6,21.5-55,51.2c-1.4,29.7,20.9,54.8,49.9,56.2
		c29,1.4,53.6-21.5,55-51.2C160.3,332.7,138,307.5,109,306.2z M104.3,399.8c-23-1.1-40.6-22.5-39.6-43.8c1-21.4,20.8-40.4,43.8-39.3
		s40.4,21.9,39.3,43.3C146.8,381.3,127.2,400.9,104.3,399.8z"/>
	<g id="XMLID_209_">
		<polygon id="XMLID_69_" class="st9" points="49.5,358.7 40.8,354.9 33.9,356.4 27.2,364.6 28.1,374.1 34.5,380.4 42.1,381.5 
			51.8,376.8 53.3,370.5 		"/>
		<polygon id="XMLID_68_" class="st9" points="164.7,343.1 484.1,294.8 544.1,285.3 550.1,285.5 552.8,288 555.4,280.7 564.1,275.4 
			574.5,276.3 578.5,283.4 577.9,295 571.1,301.2 562.6,301.9 557.7,298.3 553.5,292.8 550.1,296.8 535.8,299.5 543.7,352 
			530.4,354 527.3,340 519.6,332 509.3,327.7 499.5,329.1 490.9,334.1 486.1,340.5 483.5,350.6 484.7,360.9 471.3,362.9 
			463.8,310.5 167.5,355.2 164.1,355.8 160.1,351.2 160.3,347.6 		"/>
		<path id="XMLID_67_" class="st10" d="M30.6,361.4l9.2,3.9l7.3,4.1l4.8,7.4c0,0-13.8,14.9-23.7-2.6
			C28.1,374.1,24.8,363.3,30.6,361.4z"/>
		<path id="XMLID_66_" class="st10" d="M57.3,379.8c-0.4-0.7,8.9,6.8,14.9,2.4c0,0,25.6,29.3,58.1,10.1c0,0,17.1-11.7,17.8-39.4
			c0,0-1.9-12.4,7.6-14.6l4.5,9.5l-1.4,14.7l-5,20.3c0,0-15,28.4-45.5,27.8C108.4,410.5,76.4,415.2,57.3,379.8z"/>
		<path id="XMLID_65_" class="st11" d="M78,312.9c0,0,9.2-3.3,14.5,5.7c0,0,30.3-7.6,41.1,7.8c0,0,11.3,6,13.6-2.7
			C147.1,323.7,124.7,293.7,78,312.9z"/>
		<path id="XMLID_64_" class="st10" d="M298.1,322.9c0,0,4.9,8.6,30.1,8l-160.7,24.2l-7.4-4.1l0.2-3.5l4.4-4.5L298.1,322.9z"/>
		<path id="XMLID_62_" class="st11" d="M442.5,301.1c0,0,20,0.7,21.3,9.4l79.1-12l7.2-1.7l2.7-8.8l-8.6-2.8L442.5,301.1z"/>
		<path id="XMLID_61_" class="st11" d="M554,284.6c0,0,18.8-5.1,21,14.1l4.4-6.3l-0.9-8.9l-4-7.2l-10.3-0.9l-8.8,5.3L554,284.6z"/>
		<polygon id="XMLID_60_" class="st12" points="463.8,310.5 465.2,322.7 537.7,311.8 535.8,299.5 		"/>
		<path id="XMLID_59_" class="st12" d="M478.1,361.6c0,0-12.3-27.9,25.7-34.2c0,0-23.5,0.7-19.1,33.4L478.1,361.6z"/>
		<path id="XMLID_58_" class="st11" d="M515.6,315.1c0,0,18.2-5.5,22.3,37.8l5.8-0.9l-6.1-40.2L515.6,315.1z"/>
		<g id="XMLID_217_">
			<g id="XMLID_241_">
				<g id="XMLID_242_">
					<path id="XMLID_243_" class="st13" d="M103.5,413.9c-10.9-0.5-21.4-4.2-30.3-10.8c-12-8.8-19.8-21.8-22.1-36.5
						c-2.2-14.7,1.4-29.4,10.3-41.4c8.8-12,21.8-19.8,36.5-22.1c14.7-2.2,29.4,1.4,41.4,10.3c12,8.8,19.8,21.8,22.1,36.5
						c2.2,14.7-1.4,29.4-10.3,41.4c-8.8,12-21.8,19.8-36.5,22.1l0,0C110.9,413.9,107.2,414.1,103.5,413.9z M108.8,307.1
						c-3.4-0.2-6.8,0-10.2,0.5c-13.5,2-25.4,9.2-33.5,20.2c-8.1,11-11.5,24.5-9.4,38c2,13.5,9.2,25.4,20.2,33.5
						c11,8.1,24.5,11.5,38,9.4l0,0c13.5-2,25.4-9.2,33.5-20.2c8.1-11,11.5-24.5,9.4-38c-2-13.5-9.2-25.4-20.3-33.5
						C128.4,311,118.7,307.6,108.8,307.1z M104.1,402.1c-8.6-0.4-16.8-3.3-23.9-8.5c-9.5-7-15.6-17.2-17.4-28.8
						c-1.8-11.6,1.1-23.2,8.1-32.6c7-9.5,17.2-15.6,28.8-17.4c24-3.6,46.4,12.9,50,36.9c1.8,11.6-1.1,23.2-8.1,32.6
						s-17.2,15.6-28.8,17.4C109.9,402.1,107,402.3,104.1,402.1z M108.2,319c-2.6-0.1-5.2,0-7.8,0.4l0,0c-21.4,3.2-36.2,23.3-33,44.8
						c1.6,10.4,7.1,19.5,15.6,25.8c8.5,6.2,18.8,8.8,29.2,7.2c21.4-3.2,36.2-23.3,33-44.8C142.3,333.5,126.5,319.8,108.2,319z"/>
				</g>
			</g>
			<g id="XMLID_237_">
				<path id="XMLID_238_" class="st13" d="M39.4,383.9c-3.1-0.1-6-1.2-8.5-3c-3.4-2.5-5.6-6.1-6.2-10.3c-1.3-8.6,4.6-16.6,13.2-17.9
					c8.6-1.3,16.6,4.6,17.9,13.2l0,0c0.6,4.1-0.4,8.3-2.9,11.7c-2.5,3.4-6.1,5.6-10.3,6.2C41.4,383.9,40.4,384,39.4,383.9z
					 M40.7,357.1c-0.7,0-1.5,0-2.2,0.1c-6.1,0.9-10.2,6.6-9.3,12.6c0.4,2.9,2,5.5,4.4,7.3c2.4,1.8,5.3,2.5,8.2,2
					c2.9-0.4,5.5-2,7.3-4.4c1.8-2.4,2.5-5.3,2-8.2l0,0C50.3,361.3,45.8,357.4,40.7,357.1z"/>
			</g>
			<g id="XMLID_233_">
				<path id="XMLID_234_" class="st13" d="M565.4,304.3c-3.1-0.1-6-1.2-8.5-3c-3.4-2.5-5.6-6.1-6.2-10.3c-0.6-4.1,0.4-8.3,2.9-11.7
					c2.5-3.4,6.1-5.6,10.3-6.2c4.2-0.6,8.3,0.4,11.7,2.9c3.4,2.5,5.6,6.1,6.2,10.3c1.3,8.6-4.6,16.6-13.2,17.9
					C567.4,304.3,566.4,304.4,565.4,304.3z M566.7,277.6c-0.7,0-1.5,0-2.2,0.1c-2.9,0.4-5.5,2-7.3,4.4c-1.8,2.4-2.5,5.3-2,8.2
					c0.4,2.9,2,5.5,4.4,7.3s5.3,2.5,8.2,2c6.1-0.9,10.2-6.6,9.3-12.6c-0.4-2.9-2-5.5-4.4-7.3C571,278.4,568.9,277.7,566.7,277.6z"/>
			</g>
			<g id="XMLID_228_">
				<g id="XMLID_229_">
					<path id="XMLID_230_" class="st13" d="M165.2,357.7c-4-0.2-7.4-3.1-8-7.2c-0.3-2.2,0.2-4.5,1.6-6.3s3.3-3,5.6-3.4l381.1-57.7
						c2.2-0.3,4.5,0.2,6.3,1.6c1.8,1.3,3,3.3,3.4,5.6s-0.2,4.5-1.6,6.3c-1.3,1.8-3.3,3-5.6,3.4l-381.1,57.7
						C166.3,357.7,165.8,357.8,165.2,357.7z M547,287.7c-0.3,0-0.5,0-0.8,0L165,345.4c-1,0.2-1.9,0.7-2.6,1.5
						c-0.6,0.8-0.9,1.9-0.7,2.9c0.3,2.1,2.3,3.6,4.4,3.3l381.1-57.7c1-0.2,1.9-0.7,2.6-1.5c0.6-0.8,0.9-1.9,0.7-2.9
						c-0.2-1-0.7-1.9-1.5-2.6C548.5,288,547.7,287.7,547,287.7z"/>
				</g>
			</g>
			<g id="XMLID_224_">
				<path id="XMLID_225_" class="st13" d="M469.4,365.6l-8.6-57l77-11.6l8.6,57l-17.9,2.7l-1.3-8.7c-0.8-5.5-3.8-10.3-8.2-13.6
					c-4.5-3.3-10-4.7-15.5-3.8c-11.3,1.7-19.2,12.3-17.5,23.7l1.3,8.7L469.4,365.6z M466,312.4l7.3,47.9l8.8-1.3l-0.6-4.1
					c-2.1-13.8,7.5-26.8,21.3-28.9c6.7-1,13.4,0.6,18.9,4.7c5.5,4,9,9.9,10,16.6l0.6,4.1l8.8-1.3l-7.3-47.9L466,312.4z"/>
			</g>
			<g id="XMLID_222_">
				<path id="XMLID_36_" class="st13" d="M465.1,325c-1.1-0.1-2-0.9-2.2-2c-0.2-1.3,0.7-2.4,1.9-2.6l72.4-11
					c1.3-0.2,2.4,0.7,2.6,1.9c0.2,1.3-0.7,2.4-1.9,2.6l-72.4,11C465.4,325,465.3,325,465.1,325z"/>
			</g>
			<g id="XMLID_220_">
				<path id="XMLID_49_" class="st13" d="M562.5,303.9c-0.8,0-1.5-0.5-1.9-1.2c-0.6-1.1-0.2-2.5,0.9-3.1c0.5-0.3,11.2-6.5,7.2-22.9
					c-0.3-1.2,0.4-2.5,1.7-2.8c1.2-0.3,2.5,0.4,2.8,1.7c4.9,19.9-9.3,27.9-9.4,28C563.3,303.8,562.9,303.9,562.5,303.9z"/>
			</g>
			<g id="XMLID_218_">
				<path id="XMLID_50_" class="st13" d="M50.4,379c-1,0-1.9-0.8-2.1-1.8c-2.8-13.3-19.4-13.7-19.6-13.7c-1.3,0-2.3-1.1-2.3-2.3
					c0-1.3,1.1-2.3,2.3-2.3c7.1,0.1,21.1,3.8,24,17.3c0.3,1.2-0.5,2.5-1.8,2.7C50.8,379,50.6,379,50.4,379z"/>
			</g>
		</g>
	</g>
</g>
<g id="Left_Arm">
	<path id="XMLID_80_" class="st14" d="M302.5,352.7c0,0-25.8-5.3-41.9,18.9c0,0-24.2,11.6-24.9,19.8l-20.8-14.5l-13.2-16l-8.6,4.3
		l-10.2,0.2c0,0,18.3,59,59.8,59.5C242.7,424.9,298.1,394.5,302.5,352.7z"/>
	<path id="XMLID_79_" class="st15" d="M189.8,365.3c0,0,19.7,43.7,52.9,48.7c0,0,35.9-14.5,59.8-61.3c0,0-5.7,49-59.8,72.2
		c0,0-35.9,6.9-59.8-59.5L189.8,365.3z"/>
	<path id="XMLID_78_" class="st16" d="M235.8,391.4c0,0,19.6-12.8,34-11.7c0,0,4.4-18.6,32.7-27c0,0-25.7-6.6-39.9,16.1l-9.7,7
		C252.9,375.8,235.8,384.5,235.8,391.4z"/>
	<path id="XMLID_63_" class="st17" d="M182.9,365.3l-6.9-7l-2.8-8.7l0-10.5l7.7-11.3c0,0,3.9-1.9,5.8-2.1s15.1,2.1,15.1,2.1l12,11.3
		v6.7l1.9,7.1l-1.2,5.4l-5.8,3.4l-7-0.8C201.8,360.9,196.7,366.3,182.9,365.3z"/>
	<g>
		<path id="XMLID_34_" class="st13" d="M241.3,427.2c-43,0-59.9-58.7-60.6-61.2l-0.9-3.2l3.3,0.3c10.4,0.9,17.3-4,17.4-4l2.1-1.5
			l1.2,2.3c7.8,14.4,24.6,24.9,30.7,28.3c4.3-8.2,20.3-16,24.2-17.8c16.5-26.1,44-19.9,44.3-19.9l2.4,0.6l-0.7,2.3
			c-18.4,59.9-59.6,73.2-61.3,73.7l-0.6,0.1C242.3,427.2,241.8,427.2,241.3,427.2z M186.1,367.8c4,11.9,21,54.8,55.3,54.8
			c0.3,0,0.6,0,0.9,0c3.5-1.2,40-15.2,57.2-68.1c-6.7-0.8-25.1-0.9-37.2,18.8l-0.4,0.6l-0.6,0.3c-8.6,3.9-22.4,12.1-23.2,17.6
			l-0.5,3.2l-2.9-1.4c-1-0.5-23-11.7-33.8-29.4C198.2,365.5,192.9,367.7,186.1,367.8z"/>
	</g>
	<g>
		<path id="XMLID_52_" class="st13" d="M182.9,367.6c-0.5,0-1.1-0.2-1.5-0.6c-0.2-0.2-19-17-7.4-35.4c4.5-7.1,12.1-9.9,21-7.7
			c10.6,2.6,20.4,11.7,21,19.4c0.3,3.8-2.1,7.2-6.5,9.4c-6.2,3.1-15.9,3.4-21.3-1.5c-0.9-0.8-1-2.3-0.2-3.2c0.8-1,2.3-1,3.2-0.2
			c3.8,3.4,11.4,3.1,16.2,0.8c1.5-0.8,4.1-2.4,3.9-4.9c-0.4-5.2-8.1-13-17.5-15.3c-4.9-1.2-11.7-1.2-16,5.7
			c-9.5,15.1,5.8,28.9,6.5,29.5c1,0.8,1,2.3,0.2,3.2C184.1,367.4,183.5,367.6,182.9,367.6z"/>
	</g>
	<g>
		<path id="XMLID_53_" class="st13" d="M207.2,364c-3.2,0-6-0.9-6.2-0.9c-1.2-0.4-1.9-1.7-1.5-2.9c0.4-1.2,1.7-1.9,2.9-1.5l0,0
			c1.8,0.6,7.1,1.6,9.5-0.8c2-2.1,1.9-6.9-0.4-13.6c-0.4-1.2,0.2-2.5,1.4-2.9c1.2-0.4,2.5,0.2,2.9,1.4c3,8.7,2.7,14.8-0.7,18.3
			C213,363.4,209.9,364,207.2,364z"/>
	</g>
</g>
<g id="Body">
	<path id="XMLID_77_" class="st18" d="M324.8,353.4l-14-0.7l-17.4,5.9l-10.9,8.5l-6.6,17.1l-3.1,19.3V414l-6.3,10.9l-6.9,6.2
		c0,0,20.9,28.9,74,35.2c0,0,9.7-12.7,14.7-40.4c0,0,30.5-31.7-5.5-64.3l-13.4-7.2L324.8,353.4z"/>
	<path id="XMLID_76_" class="st19" d="M312.3,360.9c0,0-24.4,0.1-31.6,44.3c0,0-4.7,22.8-22.9,26c0,0,13.2-9.9,13.2-27.6
		c0,0,2.7-47,38-50.8L312.3,360.9z"/>
	<g>
		<path id="XMLID_54_" class="st13" d="M332.9,468.7l-1.2-0.1c-51.1-2.5-74.8-34.8-75.8-36.2l-1.8-2.6l3-1c0.1,0,9.9-3.8,11.6-25.6
			c0-1.5,0.3-40.8,29.9-50.6c0.3-0.1,31.3-10.2,49.7,13.3c26.4,28.3,4.5,56.3,0.5,60.9c-1.5,23.3-14.6,40.1-15.2,40.8L332.9,468.7z
			 M261.3,431.8c6,7,28.6,29.7,69.4,32.2c2.7-3.8,12.5-18.9,13.6-38.1l0-0.8l0.6-0.6c1.1-1.1,25.8-27.7,0-55.3l-0.1-0.2
			c-16.4-21.1-44.4-12-44.7-11.9c-26.4,8.8-26.8,46.1-26.8,46.4C271.9,421.7,265.2,429,261.3,431.8z"/>
	</g>
	<g>
		<path id="XMLID_57_" class="st13" d="M297.5,405.5c-1.2,0-2.2-0.9-2.3-2c-2.6-23.9,17.4-39.4,18.2-40.1c1-0.8,2.4-0.6,3.2,0.4
			c0.8,1,0.6,2.4-0.4,3.2c-0.2,0.1-18.8,14.6-16.5,35.9c0.1,1.3-0.8,2.4-2,2.5C297.6,405.5,297.5,405.5,297.5,405.5z"/>
	</g>
</g>
<g id="Neck">
	<path id="XMLID_75_" class="st17" d="M314,332.9l-5.7,23.2l6.9,9.3l12.4,3.3l9.6-1.6l10-28.3C347.2,338.9,333.1,327.4,314,332.9z"
		/>
	<g>
		<path id="XMLID_72_" class="st13" d="M326.9,371.1c-4.3,0-8.2-0.9-11.5-2.8c-7.4-4.2-9.3-11.4-9.4-11.7l-0.1-0.6l6-23.6
			c0.3-1.2,1.6-2,2.8-1.7c1.2,0.3,2,1.6,1.7,2.8l-5.7,22.4c0.5,1.5,2.4,5.8,7.1,8.4c4.6,2.6,10.7,2.9,18.1,0.9l9.3-25
			c0.4-1.2,1.8-1.8,3-1.4c1.2,0.4,1.8,1.8,1.4,3l-10.1,27.1l-1.1,0.3C334.1,370.5,330.3,371.1,326.9,371.1z"/>
	</g>
</g>
<g id="Right_Leg">
	<path id="XMLID_74_" class="st20" d="M197.4,495.2c0,0-25.8,55.8-21.4,97.7l17.2,5.6l16.8,1.3l5-3l0.6-33.6c0,0,4.2-17.1,4.8-19.2
		c0.6-2.1,7.5-16.4,7.5-16.4l12.4-10.7l23.3-9.9l20.1-3.3c0,0,28.3-33.4-15.7-61.1C267.9,442.4,219.4,464.2,197.4,495.2z"/>
	<path id="XMLID_73_" class="st21" d="M177.6,569l-1.7,23.9c0,0,18.3,12.8,39,3.9l0.7-25.7C215.7,571.1,200.1,581,177.6,569z"/>
	<path id="XMLID_33_" class="st21" d="M208.7,572.4c0,0-8.6-64.9,64.6-81.4l17.7-2l-7.4,14.5l-20.1,3.3l-16.8,6.9l-18.9,13.7
		c0,0-8.8,12-12.2,43.6L208.7,572.4z"/>
	<path id="XMLID_112_" class="st22" d="M186.4,572.4c0,0,4.2-77.4,63.3-121.3L226,466.4l-18.1,16.5l-10.5,12.3
		c0,0-21.7,42-19.7,73.9L186.4,572.4z"/>
	<path id="XMLID_113_" class="st23" d="M143.3,632.9c0,0,15.7-40,66.7-33.1l7.6,11.5l5.6,23.5h-76.8L143.3,632.9z"/>
	<path id="XMLID_114_" class="st24" d="M182.9,600.3c0,0,12,0.2,18.9,32.9l21.4,1.6l-3.4-17.9l-9.8-17.1l-9.4,0L182.9,600.3z"/>
	<g>
		<path id="XMLID_116_" class="st13" d="M201.8,601.7c-13.7,0-26.2-6.4-26.9-6.7l-1.3-0.6l0-1.4c0.6-58.1,21.5-98.4,21.7-98.8
			l0.2-0.3c29.7-38.7,71.1-53.9,71.6-54.1c1.2-0.4,2.5,0.2,2.9,1.4c0.4,1.2-0.2,2.5-1.4,2.9c-0.4,0.1-40.5,15-69.4,52.4
			c-1.4,2.8-20.1,40.7-21,95.1c4.6,2.1,21.1,8.7,34.4,3.8c-0.3-9.9-0.5-60.5,19.2-75.1c1-0.8,25.5-18.8,51.7-18.9c0,0,0,0,0,0
			c1.3,0,2.3,1,2.3,2.3c0,1.3-1,2.3-2.3,2.3c-24.7,0.1-48.8,17.8-49,18c-19.6,14.4-17.4,72.3-17.3,72.8l0.1,1.6l-1.4,0.6
			C211.3,600.9,206.5,601.7,201.8,601.7z"/>
	</g>
	<g>
		<path id="XMLID_117_" class="st13" d="M142.6,637.1c-0.2,0-0.5,0-0.7-0.1c-1.2-0.4-1.9-1.7-1.5-2.9c0.1-0.3,10.9-34,46.7-36.6
			l23.8,0l0.7,0.6c0.5,0.5,12.6,12.3,13.9,36.5c0.1,1.3-0.9,2.3-2.2,2.4c-1.3,0.1-2.3-0.9-2.4-2.2c-1-19.4-9.6-30.2-11.9-32.8h-21.7
			c-32.6,2.3-42.4,33.1-42.5,33.4C144.5,636.5,143.6,637.1,142.6,637.1z"/>
	</g>
	<g>
		<path id="XMLID_118_" class="st13" d="M200.9,577.8c-15.1,0-24.8-9.5-24.9-9.6c-0.9-0.9-0.9-2.4,0-3.3c0.9-0.9,2.4-0.9,3.2,0l0,0
			c0.6,0.6,14.6,14.2,35.5,5.3c1.2-0.5,2.5,0,3,1.2c0.5,1.2,0,2.5-1.2,3C210.9,576.9,205.6,577.8,200.9,577.8z"/>
	</g>
</g>
<g id="Left_Leg">
	<path id="XMLID_115_" class="st20" d="M268.3,442.4c0,0-8.8,42.3,15.7,61.1c0,0,19.2,80.9,53.7,97.2l10.7-0.7l25.7-0.3L355.1,569
		l-19.9-42.5l-6-21.4l4.7-17.9l-1.7-20.8C332.2,466.4,299.1,466.4,268.3,442.4z"/>
	<path id="XMLID_119_" class="st21" d="M317.4,580.2c0,0,30.1,3.4,40.8-6.1l15.8,25.7l-25.7,0.3l-10.7,0.7l-6.6-4L317.4,580.2z"/>
	<path id="XMLID_120_" class="st21" d="M317.4,466.4c0,0,7,21.5-3.5,37.2c0,0,18.7,54,31.8,77.4l12.5-6.9c0,0-24.8-42.9-29.1-69
		c0,0,8.4-16.7,3-38.7H317.4z"/>
	<path id="XMLID_121_" class="st22" d="M278.6,448.5c0,0-6.9,30.4,15.6,50.9c0,0,2.8,41.6,26.8,80.8c0,0-24.5-16.1-37-76.6
		c0,0-23.9-16.4-15.7-61.1L278.6,448.5z"/>
	<path id="XMLID_122_" class="st23" d="M305.8,634.8c0,0,11.2-29.9,31.9-34l36.4-1l7.6,11.5l5.6,23.5H305.8z"/>
	<path id="XMLID_123_" class="st24" d="M348.4,600.1c0,0,16.2,10.1,14.3,33.9l24.6,0.8c0,0,1.9-16.8-13.2-35L348.4,600.1z"/>
	<g id="XMLID_254_">
		<path id="XMLID_255_" class="st13" d="M336.9,603.1l-0.7-0.5c-41.3-32.4-52.9-89.8-54.4-97.8c-26.4-22.1-16.3-61.8-15.8-63.5
			l0.9-3.5l2.8,2.3c27.4,22.6,62.2,24,62.6,24l1.6,0l0.5,1.5c6.2,17.7-1.4,34.5-3.3,38.3c8.3,41.8,44.4,94.1,44.8,94.6l2.4,3.5
			L336.9,603.1z M269.7,446c-1.8,10.1-4.8,39.2,15.7,55.8l0.7,0.5l0.1,0.9c0.1,0.6,10.6,62.1,52.2,95.3l31.3-0.8
			c-8.4-12.6-36.3-56.6-43.3-93.6l-0.2-0.8l0.4-0.7c0.1-0.2,9.1-16.7,3.8-33.9C323.4,468.1,294.6,464.9,269.7,446z"/>
	</g>
	<g id="XMLID_252_">
		<path id="XMLID_125_" class="st13" d="M387.3,637.1c-1.2,0-2.2-0.9-2.3-2.2c-1-19.4-9.6-30.2-11.9-32.8h-21.7
			c-32.5,2.3-42.1,32.1-42.5,33.4c-0.4,1.2-1.7,1.9-2.9,1.5c-1.2-0.4-1.9-1.7-1.5-2.9c0.1-0.3,10.9-34,46.7-36.6l23.8,0l0.7,0.6
			c0.5,0.5,12.6,12.3,13.9,36.5c0.1,1.3-0.9,2.3-2.2,2.4C387.3,637.1,387.3,637.1,387.3,637.1z"/>
	</g>
	<g id="XMLID_250_">
		<path id="XMLID_128_" class="st13" d="M333.4,584c-10.8,0-17.7-3.1-18.1-3.3c-1.2-0.5-1.7-1.9-1.1-3c0.5-1.2,1.9-1.7,3-1.1l0,0
			c0.2,0.1,17.7,7.9,40.9-2.8c1.2-0.5,2.5,0,3,1.1c0.5,1.2,0,2.5-1.1,3C349.8,582.6,340.7,584,333.4,584z"/>
	</g>
</g>
<g id="Head_4_">
	<g id="XMLID_144_">
		<polygon id="XMLID_145_" class="st17" points="388.2,320.1 398.7,320.5 408.6,311.9 409.4,304 405.6,293.9 396.2,288.3 		"/>
	</g>
	<g id="XMLID_142_">
		<polygon id="XMLID_143_" class="st17" points="252,243.6 239.1,298.4 241.2,311.5 254.3,320.2 298.6,330.6 356.4,344.1 
			372.2,346.2 374.2,345.2 382.8,338.3 396.2,288.3 386,276.9 377.8,265.4 353.9,264 327,252.9 307.1,223.1 289.7,235.2 262.2,239 
					"/>
	</g>
	<g id="XMLID_140_">
		<path id="XMLID_141_" class="st25" d="M243.6,287.6c0,0-2.5,16.9,12,21.1s105.4,24.6,105.4,24.6s19.2,2.1,25.2-8.1l-3.5,13.1
			l-13.1,8l-13.4-2.2l-107.2-25.4l-5-3.4l-4.8-7.8l-1-5.7L243.6,287.6z"/>
	</g>
	<g id="XMLID_138_">
		<path id="XMLID_139_" class="st25" d="M301,228.2c0,0,16,44.5,70.1,46.4c0,0,6.1,15.1,20.3,21.6l4.7-11.5l-18.3-19.2l-21.8,0.9
			l-23.2-11.1L316.4,237l-7.3-14L301,228.2z"/>
	</g>
	<g id="XMLID_136_">
		<path id="XMLID_137_" class="st25" d="M250.6,249.2c0,0,35.1,3.1,62.7-15.6l-6.2-10.6l-14.5,11.1l-22.2,6.7l-14.5,1L250.6,249.2z"
			/>
	</g>
	<g id="XMLID_134_">
		<path id="XMLID_135_" class="st26" d="M283.2,280.8c0,0,1.8-9.9,9.8-17.7l-3,26l-4.4-2.8L283.2,280.8z"/>
	</g>
	<g id="XMLID_132_">
		
			<ellipse id="XMLID_133_" transform="matrix(0.9958 9.156718e-002 -9.156718e-002 0.9958 27.7515 -29.0847)" class="st26" cx="330.8" cy="287.9" rx="6.8" ry="3.6"/>
	</g>
	<g id="XMLID_130_">
		
			<ellipse id="XMLID_131_" transform="matrix(0.9881 0.154 -0.154 0.9881 45.5888 -36.9664)" class="st26" cx="261.4" cy="275.8" rx="6.8" ry="3.6"/>
	</g>
	<g id="XMLID_124_">
		<path id="XMLID_129_" class="st25" d="M289.2,310c0,0,39.6,20.1,52-12.3l-7.8,5.6l-18.7,5.8l-16.7,0.6L289.2,310z"/>
	</g>
	<g id="XMLID_208_">
		<path id="XMLID_223_" class="st8" d="M402.6,290.6c5.8,1.7,12.6,2.2,20.3,0.7c1.6-0.3,2.7-1.9,2.4-3.5c-0.3-1.6-1.9-2.7-3.5-2.4
			c-28.6,5.7-41.1-20.9-41.2-21.2l-0.9-2l-2.2,0.3c-46.2,5.7-67.3-40.1-67.5-40.6l-1.7-3.8l-3.1,2.8c-30.7,28.1-61.4,15.3-61.7,15.2
			c-1.5-0.7-3.3,0-4,1.6c-0.7,1.5,0,3.3,1.6,4c1.4,0.6,32.8,13.7,65.3-13.7c4.9,8.7,19.6,31,45.3,38.5c7.3,2.1,15.5,3.1,24.6,2.2
			C378.9,273.5,387.4,286.1,402.6,290.6z"/>
	</g>
	<g id="XMLID_226_">
		<path id="XMLID_227_" class="st8" d="M389.1,323.3c0.1,0,0.2,0,0.3,0.1c5.1,1,10.2-0.1,14.5-3c4.3-2.9,7.2-7.3,8.2-12.4
			c1-5.1-0.1-10.2-3-14.5c-2.9-4.3-7.3-7.2-12.4-8.2c-1.6-0.3-3.2,0.7-3.5,2.4c-0.3,1.6,0.7,3.2,2.4,3.5c3.5,0.7,6.5,2.7,8.5,5.6
			c2,3,2.7,6.5,2,10c-0.7,3.5-2.7,6.5-5.6,8.5c-3,2-6.5,2.7-10,2c-1.6-0.3-3.2,0.7-3.5,2.4C386.7,321.4,387.6,322.9,389.1,323.3z"/>
	</g>
	<g id="XMLID_231_">
		<path id="XMLID_236_" class="st8" d="M402,306.9c0.3,0.1,0.7,0.1,1,0c1.1-0.3,1.7-1.3,1.5-2.4c-1.8-7.4-10.1-9.4-10.4-9.4
			c-1.1-0.2-2.1,0.4-2.4,1.5c-0.2,1.1,0.4,2.1,1.5,2.4l0,0c0.1,0,6.2,1.5,7.4,6.5C400.8,306.2,401.3,306.7,402,306.9z"/>
	</g>
	<g id="XMLID_240_">
		<path id="XMLID_245_" class="st8" d="M250.6,322.5c0.4,0.1,0.8,0.2,1.1,0.3l111.4,26.1c11.2,2.6,22.5-4.4,25.1-15.6l11.2-47.7
			c0.4-1.6-0.6-3.2-2.2-3.6c-1.6-0.4-3.2,0.6-3.6,2.2l-11.2,47.7c-1.9,8-9.9,12.9-17.8,11.1l-111.4-26.1c-8-1.9-12.9-9.9-11.1-17.8
			l13.3-56.9c0.4-1.6-0.6-3.2-2.2-3.6c-1.6-0.4-3.2,0.6-3.6,2.2l-13.3,56.9C233.7,308.5,240.1,319.4,250.6,322.5z"/>
	</g>
</g>
<g id="Face_3_">
	<g id="XMLID_247_">
		<circle id="XMLID_248_" class="st8" cx="271.1" cy="263.8" r="6.6"/>
	</g>
	<g id="XMLID_253_">
		<circle id="XMLID_257_" class="st8" cx="324.8" cy="273.9" r="6.6"/>
	</g>
	<g id="XMLID_260_">
		<path id="XMLID_264_" class="st8" d="M288.5,292.3c0.2,0.1,0.3,0.1,0.5,0.1c5.2,1.2,10.5-2.4,11.8-8.1c0.4-1.6-0.6-3.3-2.3-3.6
			c-1.6-0.4-3.2,0.6-3.6,2.3c-0.6,2.4-2.6,4-4.5,3.5c-2-0.5-3.1-2.8-2.5-5.2c0.4-1.6-0.6-3.3-2.3-3.6c-1.6-0.4-3.2,0.6-3.6,2.3
			C280.7,285.5,283.6,290.9,288.5,292.3z"/>
	</g>
	<g id="XMLID_265_">
		<path id="XMLID_268_" class="st8" d="M290.3,310.8c5.1,1.5,32.7,8.4,50.4-10.9c1.1-1.2,1-3.1-0.2-4.3c-1.2-1.1-3.1-1-4.3,0.2
			c-16.5,18.1-44.6,9.1-44.9,9c-1.6-0.5-3.3,0.3-3.8,1.9c-0.5,1.6,0.3,3.3,1.9,3.8C289.7,310.6,289.9,310.6,290.3,310.8z"/>
	</g>
</g>
<g id="Shield">
	<path id="XMLID_269_" class="st9" d="M385.7,350.6l-7.8-3.5c0,0-39.3-5.2-64.1,37.9c0,0-17.8,34.9,2.8,70.2L303.7,502l3.1,21.5
		l9.8,20.7l14,16.3l5.3,2.1l18.7-1.7l13.9-4.2l17-9.4l9.9-9l23.9-43.3l14.5-5.3L450,478c0,0,36.6-33.6,13.7-86.5l-8.4-9L439,371.6
		l-3-10.4L425.2,347l-8.6-4.4h-13.7L385.7,350.6z"/>
	<path id="XMLID_272_" class="st10" d="M419.9,342.6l-86.9,218.8c0,0-27.4-21.2-29.4-59.4l12.9-46.9l-9.6-20.9
		c0,0-13.9-33.2,24.4-72c0,0,27.4-22.1,54.3-11.7C385.7,350.6,406.6,339.1,419.9,342.6z"/>
	<path id="XMLID_273_" class="st11" d="M419.9,342.6c0,0,15.4,19.3,2.4,48.8c0,0,32.5,10.4,18.6,43.3s-43.2,38.1-43.2,38.1
		s-12.5,52.6-64.7,88.5c0,0,35.8,5.3,62.3-23.2l23.9-43.3l14.5-5.3l8.5-5.2c0,0,28.6-19.4,28.7-51.5c0,0,7.7-44-32-61.3
		C439,371.6,435.5,350.4,419.9,342.6z"/>
	<polygon id="XMLID_276_" class="st11" points="412.5,354.9 402.3,357.3 398.7,362.8 398.7,370.5 405.6,377.9 412.5,377.9 
		416.6,376.9 420.1,373.7 422.1,368.8 422.1,361.7 	"/>
	<path id="XMLID_277_" class="st27" d="M333.1,561.4l5.6-14.2l10.4,1.6l13.8-3.2l20.8-13.9l28.2-52.9l14.5-2l20-12
		c0,0,23-22.6,21-62.2c0,0,15.9,75.6-48.1,92.3l-23.9,43.3C395.4,538.2,368.2,571,333.1,561.4z"/>
	<path id="XMLID_278_" class="st28" d="M341.2,356.1c0,0-45.3,49.7-9.6,92.6l-13.7,54.9c0,0-0.7,36.8,20.9,43.6l-5.6,14.2
		c0,0-28-24.4-29.4-59.4l12.9-46.9l-9.6-20.9C307,434.3,289.3,395.7,341.2,356.1z"/>
	<g id="XMLID_279_">
		<g id="XMLID_280_">
			<path id="XMLID_281_" class="st13" d="M338.3,564.8c-1.4,0-2.3-0.1-2.5-0.1l-0.4,0l-6-2.4l-0.3-0.2c-1.2-1-28.3-23.7-27.7-60.2
				l0.1-0.5l11.9-46.9c-3.8-5.7-21.7-36.1-0.3-73c21.9-37.8,55.3-40.7,72.3-33.6c3.7-2.8,16-10.7,31.7-7.6l0.4,0.1l5.7,2.3
				c13.7,8.4,17.2,22.6,18,27.2c17.2,6.4,39.6,31.4,29.8,74c-9.6,41.6-43.5,51.5-50.1,53.1l-23.7,42.8
				C376.1,563,347,564.8,338.3,564.8z M336.4,560.2c3.6,0.1,35.4,0.5,57.2-23.3l24.3-44l1.1-0.2c1.5-0.3,37.6-7,47.5-49.9
				c10.5-45.6-17.5-65.6-28.1-69l-1.4-0.5l-0.1-1.5c0-0.2-1.8-16.3-15.8-25.1l-4.9-1.9c-16.2-3.2-28.6,7.4-28.7,7.5l-1.1,1l-1.4-0.6
				c-10.1-4.8-44.2-9.3-67.7,31.2c-22.1,38.1,0.4,68.6,0.6,68.9l0.7,0.9L306,502.3c-0.4,32.3,23,53.7,25.8,56.1L336.4,560.2z"/>
		</g>
		<g id="XMLID_284_">
			<circle id="XMLID_285_" class="st13" cx="379.5" cy="444.2" r="18.2"/>
		</g>
		<g id="XMLID_286_">
			<path id="XMLID_287_" class="st13" d="M380.7,451.4l-3.3-1.9l-3.7-0.9l-29.2,40.2c-2.5,3.5-1.1,8.4,2.9,10l9,3.6l5.9,2.3
				c5.6,2.2,11.7-1.4,12.5-7.4L380.7,451.4z"/>
		</g>
		<g id="XMLID_288_">
			<path id="XMLID_289_" class="st13" d="M347.1,551.1c-3.7,0-5.9-0.5-6.2-0.6l-0.3-0.1l-5.6-2.2c-0.8-0.4-19.6-11.1-20.7-44.3
				l0-0.3l0.1-0.3l14.9-55.2c-3.4-3.3-13.6-14.6-14.9-33c-1.4-19.9,8-41.1,28-63.1c0.9-0.9,2.3-1,3.2-0.2c0.9,0.9,1,2.3,0.2,3.2
				c-19.1,21-28.1,41.1-26.8,59.7c1.4,19.8,14.3,30.7,14.4,30.8l1.1,0.9L319,504c1.1,29.2,16.6,39.1,18.2,40.1l5,2
				c1.8,0.4,19.9,3.8,40.7-16.8l28-52.7l1.5,0.1c0.2,0,17.1,0.8,31.6-12.7c13.6-12.7,20.7-33.5,21.2-61.9c0-1.3,1-2.3,2.3-2.3
				c0,0,0,0,0,0c1.3,0,2.3,1.1,2.3,2.3c-0.5,29.7-8.1,51.7-22.7,65.2c-13.5,12.5-28.6,13.8-33.4,13.9l-27,50.8l-0.2,0.2
				C370.2,548.4,355.2,551.1,347.1,551.1z"/>
		</g>
		<g id="XMLID_290_">
			<path id="XMLID_291_" class="st13" d="M410.2,381.1c-1.8,0-3.6-0.3-5.3-1c-3.6-1.4-6.4-4.1-7.9-7.7c-1.5-3.5-1.6-7.5-0.2-11.1
				c1.4-3.6,4.1-6.4,7.7-7.9c3.5-1.5,7.5-1.6,11.1-0.2c7.4,2.9,11.1,11.3,8.1,18.7c-1.4,3.6-4.1,6.4-7.7,7.9
				C414.1,380.7,412.1,381.1,410.2,381.1z M410.2,356.8c-1.3,0-2.7,0.3-3.9,0.8c-2.4,1-4.3,3-5.2,5.4c-1,2.4-0.9,5.1,0.1,7.5
				c1,2.4,3,4.3,5.4,5.2c2.4,1,5.1,0.9,7.5-0.1c2.4-1,4.3-3,5.2-5.4l0,0c2-5.1-0.5-10.8-5.5-12.8C412.6,357,411.4,356.8,410.2,356.8
				z"/>
		</g>
	</g>
</g>
<g id="Ground">
	<g>
		<path id="XMLID_295_" class="st13" d="M87.2,637.1H66.5c-1.3,0-2.3-1-2.3-2.3s1-2.3,2.3-2.3h20.7c1.3,0,2.3,1,2.3,2.3
			S88.5,637.1,87.2,637.1z"/>
	</g>
	<g>
		<path id="XMLID_296_" class="st13" d="M235.8,637.1H96.6c-1.3,0-2.3-1-2.3-2.3s1-2.3,2.3-2.3h139.1c1.3,0,2.3,1,2.3,2.3
			S237,637.1,235.8,637.1z"/>
	</g>
	<g>
		<path id="XMLID_297_" class="st13" d="M417.8,637.1h-172c-1.3,0-2.3-1-2.3-2.3s1-2.3,2.3-2.3h172c1.3,0,2.3,1,2.3,2.3
			S419.1,637.1,417.8,637.1z"/>
	</g>
	<g>
		<path id="XMLID_298_" class="st13" d="M512.2,637.1h-85.6c-1.3,0-2.3-1-2.3-2.3s1-2.3,2.3-2.3h85.6c1.3,0,2.3,1,2.3,2.3
			S513.4,637.1,512.2,637.1z"/>
	</g>
	<g>
		<path id="XMLID_299_" class="st13" d="M539.9,637.1h-19.7c-1.3,0-2.3-1-2.3-2.3s1-2.3,2.3-2.3h19.7c1.3,0,2.3,1,2.3,2.3
			S541.1,637.1,539.9,637.1z"/>
	</g>
</g>
</svg>
